<svg xmlns="http://www.w3.org/2000/svg" width="966.189" height="605.662" viewBox="0 0 966.189 605.662">
  <path id="Schermafbeelding_2022-04-11_om_18.38.04" data-name="Schermafbeelding 2022-04-11 om 18.38.04" d="M525.863,375.387c-20.406-20.406.85-55.124,26.783-67.595A1035.868,1035.868,0,0,0,688.26,236.938c17.713-11.762,17.713-35.427-24.374-18.706L263.7,358.382a32.168,32.168,0,0,1-36.277-24.657,31.175,31.175,0,0,1,18.989-34.577L605.786,150.78c5.81-2.834,11.762-5.668,18-8.219L940.358,13.04a140.864,140.864,0,0,1,30.467-8.5,136.179,136.179,0,0,1,146.1,53.141l61.219,14.171a14.17,14.17,0,0,1,14.17,9.778h0a14.169,14.169,0,0,1-4.96,16.013l-44.637,35.285v21.4a360.086,360.086,0,0,1-85.025,225.032,318.841,318.841,0,0,1-135.046,90.126L977.77,572.644a23.383,23.383,0,0,1-11.479,30.751,24.231,24.231,0,0,1-9.495,1.984,22.957,22.957,0,0,1-21.115-14.171l-59.8-109.4a329.63,329.63,0,0,1-44.213,4.818l39.537,86.3a23.1,23.1,0,0,1-11.478,30.609h0a22.1,22.1,0,0,1-9.494,2.126,23.382,23.382,0,0,1-21.115-14.171L778.245,483.51c-35.143-4.535-92.676-15.021-124.136-30.751a14.94,14.94,0,0,1,1.276-26.783c80.065-36.277,127.537-65.752,176.285-116.059,21.823-20.406-7.652-49.881-30.751-23.24-53.99,46.055-140.575,77.231-207.035,97.212-23.1,6.944-50.874,8.077-68.02-9.069Z" transform="translate(-226.903 0)" fill="#160a58"/>
</svg>
