<?xml version="1.0" encoding="UTF-8"?><svg xmlns="http://www.w3.org/2000/svg" viewBox="0 0 966.19 605.66"><g id="a"/><g id="b"><g id="c"><path id="d" d="M298.96,375.38c-20.41-20.41,.85-55.12,26.78-67.6,46.89-20.24,92.22-43.93,135.61-70.85,17.71-11.76,17.71-35.43-24.37-18.71L36.8,358.38c-16.69,2.58-32.53-8.19-36.28-24.66-2.69-14.57,5.24-29.03,18.99-34.58L378.89,150.78c5.81-2.83,11.76-5.67,18-8.22L713.46,13.04c9.8-3.97,20.02-6.82,30.47-8.5,55.02-14.56,113.29,6.64,146.1,53.14l61.22,14.17c6.39-.31,12.2,3.69,14.17,9.78,2.02,5.85,.01,12.33-4.96,16.01l-44.64,35.28v21.4c-1.71,82.54-31.72,161.99-85.03,225.03-36.48,41.19-83.01,72.24-135.05,90.13l55.12,103.16c5.22,11.66,.11,25.36-11.48,30.75-3,1.29-6.23,1.97-9.49,1.98-9.25-.04-17.57-5.62-21.11-14.17l-59.8-109.4c-14.61,2.6-29.38,4.21-44.21,4.82l39.54,86.3c5.29,11.61,.16,25.31-11.45,30.6h-.03c-2.97,1.42-6.21,2.14-9.49,2.14-9.22-.15-17.49-5.7-21.11-14.17l-50.87-107.98c-35.14-4.54-92.68-15.02-124.14-30.75-7.22-3.99-9.84-13.08-5.85-20.3,1.6-2.89,4.1-5.17,7.13-6.48,80.07-36.28,127.54-65.75,176.29-116.06,21.82-20.41-7.65-49.88-30.75-23.24-53.99,46.05-140.58,77.23-207.04,97.21-23.1,6.94-50.87,8.08-68.02-9.07v.57Z"/></g></g></svg>