<svg xmlns="http://www.w3.org/2000/svg" width="92.078" height="115.225" viewBox="0 0 92.078 115.225">
  <g id="branding" transform="translate(-65.042 -13.993)">
    <path id="Path_10" data-name="Path 10" d="M86.4,34.38a52.151,52.151,0,0,1,35.791-17.792c21.863-1.326,36.157,11.984,38.466,14.225" transform="translate(-13.806)" fill="none" stroke="#fff" stroke-linecap="round" stroke-miterlimit="30" stroke-width="5"/>
    <path id="Path_11" data-name="Path 11" d="M71.4,93.438c2.333-3.888,15.963-25.842,39.107-27.809,23.944-2.035,39.564,18.8,42.057,22.252" transform="translate(-2.237 -37.79)" fill="none" stroke="#fff" stroke-linecap="round" stroke-miterlimit="30" stroke-width="5"/>
    <path id="Path_12" data-name="Path 12" d="M75.2,144.728a51.927,51.927,0,0,0,8.485-7.981c4.345-5.169,4.917-7.981,7.8-11.686,6.495-8.439,16.466-11,17.953-11.343,13.859-3.339,25.042,4.139,25.934,4.757a32.97,32.97,0,0,1,14.042,25.774c.16,9.537-4.917,13.4-2.882,22.183a25.636,25.636,0,0,0,7.981,12.875" transform="translate(-5.168 -74.329)" fill="none" stroke="#fff" stroke-linecap="round" stroke-miterlimit="30" stroke-width="5"/>
    <path id="Path_13" data-name="Path 13" d="M73.7,198.519a62.63,62.63,0,0,0,15.071-14.911c5.512-7.776,5.992-12.487,12.189-16.946a23.747,23.747,0,0,1,14.751-4.688,23.4,23.4,0,0,1,18.113,10.291c8.233,12.967-4.825,26.917,3.225,42.354a28.777,28.777,0,0,0,9.994,10.634" transform="translate(-4.011 -112.203)" fill="none" stroke="#fff" stroke-linecap="round" stroke-miterlimit="30" stroke-width="5"/>
    <path id="Path_14" data-name="Path 14" d="M68.5,253.764c14.431-9.376,22.618-19.073,27.443-26.254,3.888-5.809,7.25-12.51,13.722-13.379A12.71,12.71,0,0,1,122.2,220.58c1.738,3.568,1.075,8.1-2.882,15.414-8.3,15.391-22.847,27.764-35.219,36.271" transform="translate(0 -152.376)" fill="none" stroke="#fff" stroke-linecap="round" stroke-miterlimit="30" stroke-width="5"/>
    <path id="Path_15" data-name="Path 15" d="M87,306.058a137.732,137.732,0,0,0,26.094-22.526A135.422,135.422,0,0,0,125.97,266.7" transform="translate(-14.269 -192.985)" fill="none" stroke="#fff" stroke-linecap="round" stroke-miterlimit="30" stroke-width="5"/>
    <path id="Path_16" data-name="Path 16" d="M426.4,196.6a49.591,49.591,0,0,1,1.532,35.745" transform="translate(-276.05 -138.916)" fill="none" stroke="#fff" stroke-linecap="round" stroke-miterlimit="30" stroke-width="5"/>
    <path id="Path_17" data-name="Path 17" d="M291.707,372.2a18.906,18.906,0,0,0-.846,12.189,19.349,19.349,0,0,0,9.491,11.686" transform="translate(-171.019 -274.357)" fill="none" stroke="#fff" stroke-linecap="round" stroke-miterlimit="30" stroke-width="5"/>
    <path id="Path_18" data-name="Path 18" d="M183.4,457.642a32.953,32.953,0,0,1,5.923-4.757c3.2-1.99,5.329-3.362,7.616-3.042,3.522.457,6.449,4.894,7.616,10.634" transform="translate(-88.623 -334.209)" fill="none" stroke="#fff" stroke-linecap="round" stroke-miterlimit="30" stroke-width="5"/>
  </g>
</svg>
