<svg xmlns="http://www.w3.org/2000/svg" width="79.626" height="123.541" viewBox="0 0 79.626 123.541">
  <g id="development" transform="translate(-91)">
    <path id="Path_22" data-name="Path 22" d="M164.4,121.043a3.6,3.6,0,0,0-5.115,0l-7.239,7.239a3.6,3.6,0,0,0,0,5.115l7.239,7.239a3.617,3.617,0,0,0,5.115-5.115l-4.681-4.681,4.681-4.681A3.6,3.6,0,0,0,164.4,121.043Z" transform="translate(-45.504 -91.026)" fill="#fff"/>
    <path id="Path_23" data-name="Path 23" d="M314.4,133.4a3.6,3.6,0,0,0,0-5.115l-7.239-7.239a3.617,3.617,0,1,0-5.115,5.115l4.681,4.681-4.681,4.681a3.617,3.617,0,0,0,5.115,5.115Z" transform="translate(-159.31 -91.026)" fill="#fff"/>
    <path id="Path_24" data-name="Path 24" d="M240.421,94.452a3.62,3.62,0,1,0-7.022-1.761l-7.239,28.955a3.62,3.62,0,1,0,7.022,1.761Z" transform="translate(-102.466 -68.248)" fill="#fff"/>
    <path id="Path_25" data-name="Path 25" d="M170.626,39.813a39.813,39.813,0,0,0-79.626,0c0,12.065,5.887,19.906,11.582,27.507,4.536,6.032,8.855,11.8,9.893,19.544H109.1a3.619,3.619,0,1,0,0,7.239h3.619v7.721H109.1a3.619,3.619,0,1,0,0,7.239h3.619v3.619a10.874,10.874,0,0,0,10.858,10.858h14.477a10.874,10.874,0,0,0,10.858-10.858v-3.619h3.619a3.619,3.619,0,0,0,0-7.239H148.91V94.1h3.619a3.619,3.619,0,0,0,0-7.239h-3.378c1.038-7.745,5.357-13.512,9.893-19.544C164.738,59.719,170.626,51.877,170.626,39.813Zm-28.955,72.87a3.615,3.615,0,0,1-3.619,3.619H123.574a3.614,3.614,0,0,1-3.619-3.619v-3.619h21.716Zm-21.716-10.858V94.1h21.716v7.721Zm21.909-14.96H119.786c-1.038-10.062-6.3-17.083-11.389-23.888-5.212-6.949-10.134-13.512-10.134-23.164a32.574,32.574,0,1,1,65.148,0c0,9.652-4.922,16.215-10.134,23.164C148.137,69.781,142.9,76.8,141.864,86.864Z" fill="#fff"/>
  </g>
</svg>
