<?xml version="1.0" encoding="UTF-8"?><svg id="a" xmlns="http://www.w3.org/2000/svg" viewBox="0 0 487 487"><defs><style>.d{fill:#63fabd;}.e{fill:#4dd39c;}</style></defs><circle id="b" class="e" cx="243.5" cy="243.5" r="243.5"/><path id="c" class="d" d="M163.08,268.06c-6.91-6.91,.29-18.66,9.07-22.88,15.87-6.85,31.21-14.87,45.9-23.98,6-3.98,6-11.99-8.25-6.33l-135.45,47.43c-5.65,.87-11.01-2.77-12.28-8.35-.91-4.93,1.78-9.82,6.43-11.7l121.64-50.22c1.97-.96,3.98-1.92,6.09-2.78l107.15-43.84c3.32-1.34,6.78-2.31,10.31-2.88,18.62-4.93,38.35,2.25,49.45,17.99l20.72,4.8c2.16-.11,4.13,1.25,4.8,3.31h0c.68,1.98,0,4.17-1.68,5.42l-15.11,11.94v7.24c-.58,27.94-10.74,54.83-28.78,76.17-12.35,13.94-28.1,24.45-45.71,30.51l18.66,34.92c1.77,3.95,.04,8.58-3.89,10.41-1.02,.44-2.11,.67-3.21,.67-3.13-.01-5.95-1.91-7.15-4.8l-20.24-37.02c-4.95,.88-9.95,1.42-14.96,1.63l13.38,29.21c1.79,3.93,.05,8.57-3.87,10.36h-.01c-1,.48-2.1,.73-3.21,.72-3.12-.05-5.92-1.93-7.15-4.8l-17.22-36.55c-11.89-1.54-31.37-5.08-42.02-10.41-2.44-1.35-3.33-4.43-1.98-6.87,.54-.98,1.39-1.75,2.41-2.19,27.1-12.28,43.17-22.25,59.67-39.28,7.39-6.91-2.59-16.88-10.41-7.87-18.27,15.59-47.58,26.14-70.08,32.9-7.82,2.35-17.22,2.73-23.02-3.07v.19Z"/></svg>