<svg xmlns="http://www.w3.org/2000/svg" viewBox="0 0 148.01 234.32"><defs><style>.cls-1{fill:#61999a;}.cls-2{fill:#26073d;}.cls-3{fill:#e91280;}.cls-4{fill:#af2062;}.cls-5{fill:#fff;}.cls-6{fill:none;stroke:#fff;stroke-miterlimit:10;stroke-width:0.5px;}.cls-7{fill:#523565;}</style></defs><g id="Layer_2" data-name="Layer 2"><g id="Layer_1-2" data-name="Layer 1"><rect class="cls-1" x="4.95" y="163.46" width="131.56" height="7.27"/><rect class="cls-2" x="34.7" y="81.89" width="15.26" height="25.71"/><polygon class="cls-3" points="103.51 143.7 10.97 143.7 17.25 106.34 103.51 106.34 103.51 143.7"/><polygon class="cls-4" points="75.68 143.7 40.37 143.7 61.76 106.34 75.68 106.34 75.68 143.7"/><rect class="cls-3" x="70.15" y="60.26" width="53.44" height="83.44"/><polygon class="cls-4" points="134.84 152.13 0 152.13 6.27 140.84 131.07 140.84 134.84 152.13"/><path class="cls-2" d="M74.63,153.07a13.49,13.49,0,1,1-13.48-13.49,13.49,13.49,0,0,1,13.48,13.49"/><path class="cls-2" d="M38.6,153.07a13.49,13.49,0,1,1-13.49-13.49A13.49,13.49,0,0,1,38.6,153.07"/><rect class="cls-4" x="70.15" y="60.26" width="53.39" height="10.29"/><path class="cls-3" d="M127.36,63.19H64l3-5.42A11.41,11.41,0,0,1,77,51.9h38.1A11.84,11.84,0,0,1,126.3,60Z"/><path class="cls-5" d="M92.54,125.23H78.73a33.23,33.23,0,0,1,.51-6.16c.38-2.14.86-4.29,1.45-6.47s1.24-4.36,2-6.56,1.41-4.31,2.09-6.37,1.28-4,1.82-5.89a35.61,35.61,0,0,0,1.1-5.16,14.42,14.42,0,0,0,0-4.17,5,5,0,0,0-1.55-3,3.45,3.45,0,0,0-1.69,0,5.4,5.4,0,0,0-1.52.72,10.93,10.93,0,0,0-1.5,1.24c-.5.48-1.06,1-1.66,1.52L78,83.16A10.66,10.66,0,0,1,80.53,80a8.7,8.7,0,0,1,3-1.66,6.54,6.54,0,0,1,3-.19,5.27,5.27,0,0,1,2.57,1.23,6,6,0,0,1,1.66,2.68A9.64,9.64,0,0,1,91,86.16a21.1,21.1,0,0,1-.69,4.12q-.64,2.63-1.58,5.86t-2,6.85c-.74,2.41-1.42,4.77-2.07,7.09s-1.2,4.53-1.68,6.61a35.25,35.25,0,0,0-.88,5.33l10.22-.16Z"/><path class="cls-6" d="M92.54,125.23H78.73a33.23,33.23,0,0,1,.51-6.16c.38-2.14.86-4.29,1.45-6.47s1.24-4.36,2-6.56,1.41-4.31,2.09-6.37,1.28-4,1.82-5.89a35.61,35.61,0,0,0,1.1-5.16,14.42,14.42,0,0,0,0-4.17,5,5,0,0,0-1.55-3,3.45,3.45,0,0,0-1.69,0,5.4,5.4,0,0,0-1.52.72,10.93,10.93,0,0,0-1.5,1.24c-.5.48-1.06,1-1.66,1.52L78,83.16A10.66,10.66,0,0,1,80.53,80a8.7,8.7,0,0,1,3-1.66,6.54,6.54,0,0,1,3-.19,5.27,5.27,0,0,1,2.57,1.23,6,6,0,0,1,1.66,2.68A9.64,9.64,0,0,1,91,86.16a21.1,21.1,0,0,1-.69,4.12q-.64,2.63-1.58,5.86t-2,6.85c-.74,2.41-1.42,4.77-2.07,7.09s-1.2,4.53-1.68,6.61a35.25,35.25,0,0,0-.88,5.33l10.22-.16Z"/><polygon class="cls-5" points="96.4 78.29 99.61 78.29 99.61 92.58 109.19 92.47 109.24 78.13 112.18 77.97 112.67 125.76 109.19 125.76 109.19 95.31 96.72 95.42 96.4 78.29"/><polygon class="cls-6" points="96.4 78.29 99.61 78.29 99.61 92.58 109.19 92.47 109.24 78.13 112.18 77.97 112.67 125.76 109.19 125.76 109.19 95.31 96.72 95.42 96.4 78.29"/><polygon class="cls-2" points="9.16 185.58 14.03 185.36 27.25 225.99 26.98 185.58 29.98 185.68 30.09 234.06 27.09 234.06 12.21 190.07 13.28 233.75 9.91 233.75 9.16 185.58"/><polygon class="cls-6" points="9.16 185.58 14.03 185.36 27.25 225.99 26.98 185.58 29.98 185.68 30.09 234.06 27.09 234.06 12.21 190.07 13.28 233.75 9.91 233.75 9.16 185.58"/><path class="cls-5" d="M48.87,234.07,48,204.52l-8.24.49-2.57,28.74H33.78l4-38.7a20.61,20.61,0,0,1,.85-3.83,11.11,11.11,0,0,1,1.55-3.1,6.58,6.58,0,0,1,2.28-2,5,5,0,0,1,3-.45,3.64,3.64,0,0,1,2.33,1.15,7.73,7.73,0,0,1,1.55,2.65,18.73,18.73,0,0,1,.94,3.82q.32,2.17.48,4.74l1,35.86Zm-1-32.92a44.41,44.41,0,0,0,0-4.74,23.57,23.57,0,0,0-.48-4,7,7,0,0,0-1.07-2.62,1.62,1.62,0,0,0-1.71-.72,1.88,1.88,0,0,0-1.93.59,6.41,6.41,0,0,0-1.31,2.3,17.81,17.81,0,0,0-.78,3.16c-.18,1.14-.32,2.19-.43,3.16s-.18,1.74-.21,2.32-.05.81-.05.67Z"/><path class="cls-2" d="M48.87,234.07,48,204.52l-8.24.49-2.57,28.74H33.78l4-38.7a20.61,20.61,0,0,1,.85-3.83,11.11,11.11,0,0,1,1.55-3.1,6.58,6.58,0,0,1,2.28-2,5,5,0,0,1,3-.45,3.64,3.64,0,0,1,2.33,1.15,7.73,7.73,0,0,1,1.55,2.65,18.73,18.73,0,0,1,.94,3.82q.32,2.17.48,4.74l1,35.86Zm-1-32.92a44.41,44.41,0,0,0,0-4.74,23.57,23.57,0,0,0-.48-4,7,7,0,0,0-1.07-2.62,1.62,1.62,0,0,0-1.71-.72,1.88,1.88,0,0,0-1.93.59,6.41,6.41,0,0,0-1.31,2.3,17.81,17.81,0,0,0-.78,3.16c-.18,1.14-.32,2.19-.43,3.16s-.18,1.74-.21,2.32-.05.81-.05.67Z"/><polygon class="cls-5" points="55.4 185.58 60.27 185.36 73.49 225.99 73.22 185.58 76.22 185.68 76.33 234.06 73.33 234.06 58.45 190.07 59.52 233.75 56.15 233.75 55.4 185.58"/><polygon class="cls-2" points="55.4 185.58 60.27 185.36 73.49 225.99 73.22 185.58 76.22 185.68 76.33 234.06 73.33 234.06 58.45 190.07 59.52 233.75 56.15 233.75 55.4 185.58"/><polygon class="cls-5" points="80.5 185.58 85.37 185.36 98.59 225.99 98.32 185.58 101.32 185.68 101.43 234.06 98.43 234.06 83.55 190.07 84.62 233.75 81.25 233.75 80.5 185.58"/><polygon class="cls-2" points="80.5 185.58 85.37 185.36 98.59 225.99 98.32 185.58 101.32 185.68 101.43 234.06 98.43 234.06 83.55 190.07 84.62 233.75 81.25 233.75 80.5 185.58"/><polygon class="cls-5" points="105.34 186.27 108.01 186.11 108.49 233.59 105.28 233.59 105.34 186.27"/><polygon class="cls-2" points="105.34 186.27 108.01 186.11 108.49 233.59 105.28 233.59 105.34 186.27"/><polygon class="cls-5" points="112.78 186.27 112.83 186.27 126.21 186.11 126.21 188.57 115.24 188.84 115.5 204.58 123.48 204.42 123.48 207.9 115.5 208.06 115.5 230.69 126.1 230.16 126.05 233.32 112.78 233.59 112.78 186.27"/><polygon class="cls-2" points="112.78 186.27 112.83 186.27 126.21 186.11 126.21 188.57 115.24 188.84 115.5 204.58 123.48 204.42 123.48 207.9 115.5 208.06 115.5 230.69 126.1 230.16 126.05 233.32 112.78 233.59 112.78 186.27"/><path class="cls-5" d="M132.9,225.72a2.64,2.64,0,0,0,.48,1.71,6.74,6.74,0,0,0,1.5,1.71,5.07,5.07,0,0,0,2,1,2.14,2.14,0,0,0,1.87-.32,4.14,4.14,0,0,0,2-2.89,11.27,11.27,0,0,0,0-3.8,16.85,16.85,0,0,0-.88-3.48,13.6,13.6,0,0,0-.86-2q-2.09-5.13-3.77-8.83c-1.12-2.46-2.07-4.6-2.83-6.42a48.38,48.38,0,0,1-1.75-4.71,11.32,11.32,0,0,1-.53-3.59,9.66,9.66,0,0,1,.29-4.07,6,6,0,0,1,1.66-2.67,5.32,5.32,0,0,1,2.57-1.23,6.4,6.4,0,0,1,3,.18,8.81,8.81,0,0,1,3,1.66,10.79,10.79,0,0,1,2.54,3.13L141.52,193c-.61-.53-1.16-1-1.66-1.52a11.59,11.59,0,0,0-1.5-1.23,5.35,5.35,0,0,0-1.53-.73,3.41,3.41,0,0,0-1.68,0,3.79,3.79,0,0,0-2,2,5.89,5.89,0,0,0-.24,2.94,15,15,0,0,0,1,3.56c.52,1.27,1.09,2.56,1.71,3.88s1.25,2.64,1.87,4a27.11,27.11,0,0,1,1.48,3.75,18.46,18.46,0,0,0,1.12,2.54c.57,1.12,1.16,2.4,1.77,3.83a38.38,38.38,0,0,1,1.58,4.54,16,16,0,0,1,.59,4.74,10.06,10.06,0,0,1-1.18,4.39,9,9,0,0,1-3.72,3.51,5.57,5.57,0,0,1-3.08.08,7.61,7.61,0,0,1-2.76-1.37,8,8,0,0,1-2-2.27,5,5,0,0,1-.78-2.54Z"/><path class="cls-2" d="M132.9,225.72a2.64,2.64,0,0,0,.48,1.71,6.74,6.74,0,0,0,1.5,1.71,5.07,5.07,0,0,0,2,1,2.14,2.14,0,0,0,1.87-.32,4.14,4.14,0,0,0,2-2.89,11.27,11.27,0,0,0,0-3.8,16.85,16.85,0,0,0-.88-3.48,13.6,13.6,0,0,0-.86-2q-2.09-5.13-3.77-8.83c-1.12-2.46-2.07-4.6-2.83-6.42a48.38,48.38,0,0,1-1.75-4.71,11.32,11.32,0,0,1-.53-3.59,9.66,9.66,0,0,1,.29-4.07,6,6,0,0,1,1.66-2.67,5.32,5.32,0,0,1,2.57-1.23,6.4,6.4,0,0,1,3,.18,8.81,8.81,0,0,1,3,1.66,10.79,10.79,0,0,1,2.54,3.13L141.52,193c-.61-.53-1.16-1-1.66-1.52a11.59,11.59,0,0,0-1.5-1.23,5.35,5.35,0,0,0-1.53-.73,3.41,3.41,0,0,0-1.68,0,3.79,3.79,0,0,0-2,2,5.89,5.89,0,0,0-.24,2.94,15,15,0,0,0,1,3.56c.52,1.27,1.09,2.56,1.71,3.88s1.25,2.64,1.87,4a27.11,27.11,0,0,1,1.48,3.75,18.46,18.46,0,0,0,1.12,2.54c.57,1.12,1.16,2.4,1.77,3.83a38.38,38.38,0,0,1,1.58,4.54,16,16,0,0,1,.59,4.74,10.06,10.06,0,0,1-1.18,4.39,9,9,0,0,1-3.72,3.51,5.57,5.57,0,0,1-3.08.08,7.61,7.61,0,0,1-2.76-1.37,8,8,0,0,1-2-2.27,5,5,0,0,1-.78-2.54Z"/><path class="cls-3" d="M29.82,153.09a4.42,4.42,0,1,1-4.42-4.41,4.42,4.42,0,0,1,4.42,4.41"/><path class="cls-3" d="M65.56,153.09a4.42,4.42,0,1,1-4.41-4.41,4.41,4.41,0,0,1,4.41,4.41"/><path class="cls-2" d="M120,148.57a18,18,0,1,1-18-18,18,18,0,0,1,18,18"/><path class="cls-3" d="M106.33,148.68a4.42,4.42,0,1,1-4.42-4.42,4.41,4.41,0,0,1,4.42,4.42"/><polygon class="cls-2" points="49.96 86.9 34.83 86.9 29.82 80.53 34.83 74.15 49.96 74.15 54.98 80.21 49.96 86.9"/><polygon class="cls-7" points="29.82 80.53 34.83 74.15 49.96 74.15 54.98 80.22 29.82 80.53"/><path class="cls-5" d="M51.6,36.85c6.71,8.81-3.24,18.77-12.06,12.06C32.83,40.1,42.79,30.14,51.6,36.85"/><path class="cls-5" d="M67.78,15.81c6.72,8.81-3.24,18.77-12.06,12.06C49,19.06,59,9.1,67.78,15.81"/><path class="cls-5" d="M145.81,17.13c6.71,8.82-3.25,18.78-12.07,12.07C127,20.38,137,10.42,145.81,17.13"/><path class="cls-5" d="M116.76,6.38c10.72,14.52-5.49,30.73-20,20a1.92,1.92,0,0,1-.45-.45c-10.73-14.52,5.49-30.74,20-20a2.18,2.18,0,0,1,.45.46"/><path class="cls-5" d="M129.14,2.48c7.56,9.92-3.66,21.14-13.59,13.59C108,6.14,119.21-5.08,129.14,2.48"/><path class="cls-5" d="M133.56,14.5c9.64,12.66-4.67,27-17.33,17.33-9.64-12.66,4.67-27,17.33-17.33"/><path class="cls-5" d="M58.59,20.16c9.64,12.66-4.67,27-17.33,17.33h0c-9.65-12.67,4.67-27,17.33-17.34Z"/></g></g></svg>