<?xml version="1.0" encoding="UTF-8"?><svg xmlns="http://www.w3.org/2000/svg" viewBox="0 0 398.23 178.98"><defs><style>.d{fill:#fff;}</style></defs><g id="a"/><g id="b"><g id="c"><g><path class="d" d="M118.63,44.23c-5.27,2.81-11.16,4.22-17.67,4.22-3.3,0-6.32-.53-9.08-1.6-2.75-1.06-5.13-2.57-7.12-4.52-1.99-1.95-3.55-4.29-4.67-7.03-1.13-2.73-1.69-5.77-1.69-9.11s.56-6.52,1.69-9.32c1.13-2.79,2.68-5.18,4.67-7.15,1.99-1.97,4.36-3.49,7.12-4.55,2.75-1.06,5.78-1.6,9.08-1.6s6.31,.39,9.17,1.18c2.85,.78,5.41,2.18,7.66,4.19l-5.61,5.67c-1.37-1.33-3.03-2.35-4.98-3.08s-4.01-1.09-6.18-1.09-4.21,.39-6,1.18c-1.79,.78-3.33,1.87-4.61,3.26-1.29,1.39-2.28,3.01-2.99,4.85-.7,1.85-1.06,3.84-1.06,5.97,0,2.29,.35,4.4,1.06,6.33,.7,1.93,1.7,3.6,2.99,5.01,1.29,1.41,2.82,2.51,4.61,3.32,1.79,.8,3.79,1.21,6,1.21,1.93,0,3.75-.18,5.46-.54,1.71-.36,3.23-.92,4.55-1.69v-10.07h-8.75v-6.88h16.34v21.83Z"/><path class="d" d="M132.74,35.43c.24,2.17,1.08,3.86,2.53,5.07,1.45,1.21,3.2,1.81,5.25,1.81,1.81,0,3.33-.37,4.55-1.12,1.23-.74,2.3-1.68,3.23-2.8l5.19,3.92c-1.69,2.09-3.58,3.58-5.67,4.46-2.09,.88-4.28,1.33-6.57,1.33-2.17,0-4.22-.36-6.15-1.09-1.93-.72-3.6-1.75-5.01-3.08-1.41-1.33-2.52-2.92-3.35-4.79s-1.24-3.95-1.24-6.24,.41-4.37,1.24-6.24c.82-1.87,1.94-3.47,3.35-4.79,1.41-1.33,3.08-2.35,5.01-3.08,1.93-.72,3.98-1.09,6.15-1.09,2.01,0,3.85,.35,5.52,1.06,1.67,.7,3.1,1.72,4.28,3.05,1.19,1.33,2.11,2.97,2.77,4.92,.66,1.95,1,4.19,1,6.72v1.99h-22.07Zm14.84-5.43c-.04-2.13-.7-3.81-1.99-5.04-1.29-1.23-3.08-1.84-5.37-1.84-2.17,0-3.89,.62-5.16,1.87-1.27,1.25-2.04,2.92-2.32,5.01h14.84Z"/><path class="d" d="M161.27,18.42h6.87v4.52h.12c.64-1.37,1.68-2.58,3.11-3.65,1.43-1.06,3.35-1.6,5.76-1.6,4.54,0,7.56,1.79,9.05,5.37,1.04-1.85,2.35-3.21,3.92-4.07,1.57-.86,3.44-1.3,5.61-1.3,1.93,0,3.56,.32,4.89,.96,1.33,.64,2.4,1.53,3.23,2.65,.82,1.13,1.42,2.44,1.78,3.95,.36,1.51,.54,3.13,.54,4.86v17.25h-7.24V30.96c0-.88-.08-1.74-.24-2.56-.16-.82-.44-1.55-.84-2.17-.4-.62-.95-1.12-1.63-1.48-.68-.36-1.57-.54-2.65-.54s-2.08,.21-2.86,.63c-.78,.42-1.43,.99-1.93,1.69-.5,.7-.87,1.51-1.08,2.41-.22,.9-.33,1.82-.33,2.74v15.68h-7.24V30.12c0-1.81-.38-3.25-1.15-4.31-.76-1.07-2.03-1.6-3.8-1.6-1.21,0-2.22,.2-3.05,.6-.83,.4-1.51,.95-2.05,1.63-.54,.68-.93,1.47-1.18,2.35-.24,.88-.36,1.81-.36,2.77v15.8h-7.24V18.42Z"/><path class="d" d="M219.83,35.43c.24,2.17,1.08,3.86,2.53,5.07,1.45,1.21,3.2,1.81,5.25,1.81,1.81,0,3.33-.37,4.55-1.12,1.23-.74,2.3-1.68,3.23-2.8l5.19,3.92c-1.69,2.09-3.58,3.58-5.67,4.46-2.09,.88-4.28,1.33-6.57,1.33-2.17,0-4.22-.36-6.15-1.09-1.93-.72-3.6-1.75-5.01-3.08-1.41-1.33-2.52-2.92-3.35-4.79-.82-1.87-1.24-3.95-1.24-6.24s.41-4.37,1.24-6.24c.82-1.87,1.94-3.47,3.35-4.79,1.41-1.33,3.08-2.35,5.01-3.08,1.93-.72,3.98-1.09,6.15-1.09,2.01,0,3.85,.35,5.52,1.06,1.67,.7,3.1,1.72,4.28,3.05,1.19,1.33,2.11,2.97,2.77,4.92,.66,1.95,1,4.19,1,6.72v1.99h-22.07Zm14.84-5.43c-.04-2.13-.7-3.81-1.99-5.04-1.29-1.23-3.08-1.84-5.37-1.84-2.17,0-3.89,.62-5.16,1.87-1.27,1.25-2.04,2.92-2.32,5.01h14.84Z"/><path class="d" d="M254.45,35.43c.24,2.17,1.08,3.86,2.53,5.07,1.45,1.21,3.2,1.81,5.25,1.81,1.81,0,3.33-.37,4.55-1.12,1.23-.74,2.3-1.68,3.23-2.8l5.19,3.92c-1.69,2.09-3.58,3.58-5.67,4.46-2.09,.88-4.28,1.33-6.57,1.33-2.17,0-4.22-.36-6.15-1.09-1.93-.72-3.6-1.75-5.01-3.08-1.41-1.33-2.52-2.92-3.35-4.79-.82-1.87-1.24-3.95-1.24-6.24s.41-4.37,1.24-6.24c.82-1.87,1.94-3.47,3.35-4.79,1.41-1.33,3.08-2.35,5.01-3.08,1.93-.72,3.98-1.09,6.15-1.09,2.01,0,3.85,.35,5.52,1.06,1.67,.7,3.1,1.72,4.28,3.05,1.19,1.33,2.11,2.97,2.77,4.92,.66,1.95,1,4.19,1,6.72v1.99h-22.07Zm14.84-5.43c-.04-2.13-.7-3.81-1.99-5.04-1.29-1.23-3.08-1.84-5.37-1.84-2.17,0-3.89,.62-5.16,1.87-1.27,1.25-2.04,2.92-2.32,5.01h14.84Z"/><path class="d" d="M283.28,18.42h6.88v4.64h.12c.68-1.45,1.73-2.7,3.14-3.77,1.41-1.06,3.32-1.6,5.73-1.6,1.93,0,3.57,.32,4.92,.96,1.35,.64,2.44,1.49,3.29,2.53,.84,1.05,1.45,2.25,1.81,3.62,.36,1.37,.54,2.79,.54,4.28v18.27h-7.24v-14.66c0-.8-.04-1.7-.12-2.68-.08-.98-.29-1.91-.63-2.77-.34-.86-.87-1.59-1.6-2.17-.72-.58-1.71-.87-2.96-.87s-2.22,.2-3.05,.6c-.82,.4-1.51,.95-2.05,1.63-.54,.68-.94,1.47-1.18,2.35-.24,.88-.36,1.81-.36,2.77v15.8h-7.24V18.42Z"/><path class="d" d="M314.52,24.57v-6.15h5.97v-7.38l7.24-2v9.38h7.96v6.15h-7.96v12.67c0,1.45,.27,2.59,.81,3.44,.54,.84,1.62,1.27,3.23,1.27,.64,0,1.35-.07,2.11-.21,.76-.14,1.37-.37,1.81-.69v6.09c-.76,.36-1.7,.61-2.8,.75-1.11,.14-2.08,.21-2.92,.21-1.93,0-3.51-.21-4.74-.63-1.23-.42-2.19-1.06-2.89-1.93-.7-.86-1.19-1.94-1.45-3.23-.26-1.29-.39-2.77-.39-4.46v-13.27h-5.97Z"/><path class="d" d="M347.15,35.43c.24,2.17,1.08,3.86,2.53,5.07,1.45,1.21,3.2,1.81,5.25,1.81,1.81,0,3.33-.37,4.55-1.12,1.23-.74,2.3-1.68,3.23-2.8l5.19,3.92c-1.69,2.09-3.58,3.58-5.67,4.46-2.09,.88-4.28,1.33-6.57,1.33-2.17,0-4.22-.36-6.15-1.09-1.93-.72-3.6-1.75-5.01-3.08-1.41-1.33-2.52-2.92-3.35-4.79-.82-1.87-1.24-3.95-1.24-6.24s.41-4.37,1.24-6.24c.82-1.87,1.94-3.47,3.35-4.79,1.41-1.33,3.08-2.35,5.01-3.08,1.93-.72,3.98-1.09,6.15-1.09,2.01,0,3.85,.35,5.52,1.06,1.67,.7,3.1,1.72,4.28,3.05,1.19,1.33,2.11,2.97,2.77,4.92,.66,1.95,1,4.19,1,6.72v1.99h-22.07Zm14.84-5.43c-.04-2.13-.7-3.81-1.99-5.04-1.29-1.23-3.08-1.84-5.37-1.84-2.17,0-3.89,.62-5.16,1.87-1.27,1.25-2.04,2.92-2.32,5.01h14.84Z"/><path class="d" d="M94.5,68.53h6.57l18.39,42.7h-8.68l-3.98-9.77h-18.52l-3.86,9.77h-8.5l18.58-42.7Zm9.65,26.42l-6.57-17.37-6.7,17.37h13.27Z"/><path class="d" d="M123.27,82.28h6.87v4.52h.12c.64-1.37,1.68-2.58,3.11-3.65,1.43-1.07,3.35-1.6,5.76-1.6,4.54,0,7.56,1.79,9.05,5.37,1.04-1.85,2.35-3.21,3.92-4.07,1.57-.86,3.44-1.3,5.61-1.3,1.93,0,3.56,.32,4.89,.96,1.33,.64,2.4,1.53,3.23,2.65,.82,1.13,1.42,2.44,1.78,3.95,.36,1.51,.54,3.13,.54,4.86v17.25h-7.24v-16.41c0-.88-.08-1.74-.24-2.56-.16-.82-.44-1.55-.84-2.17-.4-.62-.95-1.12-1.63-1.48-.68-.36-1.57-.54-2.65-.54s-2.08,.21-2.86,.63c-.78,.42-1.43,.99-1.93,1.69-.5,.7-.87,1.51-1.08,2.41-.22,.9-.33,1.82-.33,2.74v15.68h-7.24v-17.25c0-1.81-.38-3.25-1.15-4.31-.76-1.06-2.03-1.6-3.8-1.6-1.21,0-2.22,.2-3.05,.6-.83,.4-1.51,.95-2.05,1.63-.54,.68-.93,1.47-1.18,2.35-.24,.88-.36,1.81-.36,2.77v15.8h-7.24v-28.95Z"/><path class="d" d="M191.49,90.3c-1.41-1.97-3.3-2.95-5.67-2.95-.96,0-1.91,.24-2.83,.72-.93,.48-1.39,1.27-1.39,2.35,0,.88,.38,1.53,1.15,1.93,.76,.4,1.73,.74,2.89,1.03,1.17,.28,2.42,.57,3.77,.88,1.35,.3,2.6,.76,3.77,1.39,1.17,.62,2.13,1.48,2.9,2.56,.76,1.09,1.15,2.57,1.15,4.46,0,1.73-.37,3.19-1.12,4.37-.75,1.19-1.71,2.14-2.9,2.87-1.19,.72-2.52,1.25-4.01,1.57-1.49,.32-2.98,.48-4.46,.48-2.25,0-4.32-.32-6.21-.96-1.89-.64-3.58-1.81-5.07-3.5l4.83-4.52c.92,1.05,1.92,1.9,2.99,2.56,1.06,.66,2.36,1,3.89,1,.52,0,1.07-.06,1.63-.18,.56-.12,1.08-.32,1.57-.6,.48-.28,.87-.63,1.18-1.06,.3-.42,.45-.91,.45-1.48,0-1-.38-1.75-1.15-2.23-.76-.48-1.73-.88-2.9-1.18-1.17-.3-2.42-.58-3.77-.84-1.35-.26-2.6-.68-3.77-1.27-1.17-.58-2.13-1.4-2.89-2.44-.76-1.04-1.15-2.49-1.15-4.34,0-1.61,.33-3.01,1-4.19,.66-1.19,1.54-2.16,2.62-2.93,1.09-.76,2.33-1.33,3.74-1.69,1.41-.36,2.83-.54,4.28-.54,1.93,0,3.84,.33,5.73,1,1.89,.66,3.42,1.8,4.58,3.41l-4.83,4.34Z"/><path class="d" d="M199.45,88.43v-6.15h5.97v-7.38l7.24-2v9.38h7.96v6.15h-7.96v12.67c0,1.45,.27,2.59,.81,3.44,.54,.84,1.62,1.27,3.23,1.27,.64,0,1.35-.07,2.11-.21,.76-.14,1.37-.37,1.81-.69v6.09c-.76,.36-1.7,.61-2.8,.75-1.11,.14-2.08,.21-2.92,.21-1.93,0-3.51-.21-4.74-.63s-2.19-1.07-2.89-1.93c-.7-.87-1.19-1.94-1.45-3.23-.26-1.29-.39-2.77-.39-4.46v-13.27h-5.97Z"/><path class="d" d="M232.07,99.29c.24,2.17,1.08,3.86,2.53,5.07,1.45,1.21,3.2,1.81,5.25,1.81,1.81,0,3.33-.37,4.55-1.12,1.23-.74,2.3-1.68,3.23-2.8l5.19,3.92c-1.69,2.09-3.58,3.58-5.67,4.46-2.09,.88-4.28,1.33-6.57,1.33-2.17,0-4.22-.36-6.15-1.09-1.93-.72-3.6-1.75-5.01-3.08-1.41-1.33-2.52-2.92-3.35-4.79-.82-1.87-1.24-3.95-1.24-6.24s.41-4.37,1.24-6.24c.82-1.87,1.94-3.47,3.35-4.79,1.41-1.33,3.08-2.35,5.01-3.08,1.93-.72,3.98-1.09,6.15-1.09,2.01,0,3.85,.35,5.52,1.06,1.67,.7,3.1,1.72,4.28,3.05,1.19,1.33,2.11,2.97,2.77,4.91,.66,1.95,1,4.19,1,6.72v1.99h-22.07Zm14.84-5.43c-.04-2.13-.7-3.81-1.99-5.04-1.29-1.23-3.08-1.84-5.37-1.84-2.17,0-3.89,.62-5.16,1.87-1.27,1.25-2.04,2.92-2.32,5.01h14.84Z"/><path class="d" d="M260.9,82.28h7.24v4.58h.12c.8-1.69,1.95-2.99,3.44-3.92,1.49-.92,3.2-1.39,5.13-1.39,.44,0,.87,.04,1.3,.12,.42,.08,.85,.18,1.3,.3v7c-.6-.16-1.2-.29-1.78-.39-.58-.1-1.16-.15-1.72-.15-1.69,0-3.05,.31-4.07,.93-1.03,.62-1.81,1.34-2.35,2.14-.54,.8-.9,1.61-1.08,2.41-.18,.8-.27,1.41-.27,1.81v15.5h-7.24v-28.95Z"/><path class="d" d="M306.2,106.88h-.12c-1.05,1.77-2.45,3.06-4.22,3.86-1.77,.8-3.68,1.21-5.73,1.21-2.25,0-4.25-.39-6-1.18-1.75-.78-3.25-1.86-4.49-3.23-1.25-1.37-2.19-2.98-2.83-4.83-.64-1.85-.97-3.84-.97-5.97s.34-4.12,1.03-5.97c.68-1.85,1.64-3.46,2.87-4.82,1.23-1.37,2.7-2.44,4.43-3.23,1.73-.78,3.62-1.18,5.67-1.18,1.37,0,2.57,.14,3.62,.42,1.04,.28,1.97,.64,2.77,1.09,.8,.44,1.49,.92,2.05,1.42,.56,.5,1.03,1,1.39,1.48h.18v-19.33l7.24-2v46.6h-6.88v-4.34Zm-17.13-10.13c0,1.13,.19,2.21,.57,3.26,.38,1.05,.94,1.97,1.69,2.77,.74,.81,1.64,1.45,2.68,1.93,1.04,.48,2.23,.72,3.56,.72s2.51-.24,3.56-.72,1.94-1.12,2.68-1.93c.74-.8,1.31-1.73,1.69-2.77,.38-1.04,.57-2.13,.57-3.26s-.19-2.21-.57-3.26c-.38-1.04-.95-1.97-1.69-2.77-.75-.8-1.64-1.45-2.68-1.93-1.05-.48-2.23-.72-3.56-.72s-2.51,.24-3.56,.72c-1.05,.48-1.94,1.13-2.68,1.93-.75,.8-1.31,1.73-1.69,2.77-.38,1.05-.57,2.13-.57,3.26Z"/><path class="d" d="M339.37,107.25h-.18c-1.05,1.65-2.37,2.84-3.98,3.59-1.61,.74-3.38,1.12-5.31,1.12-1.33,0-2.62-.18-3.89-.54-1.27-.36-2.39-.9-3.38-1.63-.99-.72-1.78-1.63-2.38-2.71-.6-1.09-.91-2.35-.91-3.8,0-1.57,.28-2.91,.84-4.01,.56-1.11,1.32-2.03,2.26-2.77,.94-.74,2.04-1.34,3.29-1.78,1.25-.44,2.54-.77,3.89-1,1.35-.22,2.7-.36,4.07-.42,1.37-.06,2.65-.09,3.86-.09h1.81v-.78c0-1.81-.62-3.17-1.87-4.07-1.25-.9-2.83-1.36-4.76-1.36-1.53,0-2.96,.27-4.28,.81-1.33,.54-2.47,1.28-3.44,2.2l-3.8-3.8c1.61-1.65,3.49-2.84,5.64-3.56,2.15-.72,4.37-1.09,6.66-1.09,2.05,0,3.78,.23,5.19,.69,1.41,.46,2.57,1.06,3.5,1.78s1.64,1.56,2.14,2.5c.5,.95,.86,1.9,1.08,2.86,.22,.96,.35,1.9,.39,2.8,.04,.9,.06,1.7,.06,2.38v16.65h-6.51v-3.98Zm-.42-8.99h-1.51c-1,0-2.13,.04-3.38,.12-1.25,.08-2.42,.27-3.53,.57-1.11,.3-2.04,.75-2.8,1.33-.76,.58-1.15,1.4-1.15,2.44,0,.68,.15,1.26,.45,1.72,.3,.46,.69,.85,1.18,1.18,.48,.32,1.03,.55,1.63,.69,.6,.14,1.21,.21,1.81,.21,2.49,0,4.33-.59,5.52-1.78s1.78-2.8,1.78-4.86v-1.63Z"/><path class="d" d="M353.36,82.28h6.87v4.52h.12c.64-1.37,1.68-2.58,3.11-3.65,1.43-1.07,3.35-1.6,5.76-1.6,4.54,0,7.56,1.79,9.05,5.37,1.04-1.85,2.35-3.21,3.92-4.07,1.57-.86,3.44-1.3,5.61-1.3,1.93,0,3.56,.32,4.89,.96,1.33,.64,2.4,1.53,3.23,2.65,.82,1.13,1.42,2.44,1.78,3.95s.54,3.13,.54,4.86v17.25h-7.24v-16.41c0-.88-.08-1.74-.24-2.56-.16-.82-.44-1.55-.84-2.17-.4-.62-.95-1.12-1.63-1.48-.68-.36-1.57-.54-2.65-.54s-2.08,.21-2.86,.63c-.78,.42-1.43,.99-1.93,1.69-.5,.7-.87,1.51-1.08,2.41-.22,.9-.33,1.82-.33,2.74v15.68h-7.24v-17.25c0-1.81-.38-3.25-1.15-4.31-.76-1.06-2.03-1.6-3.8-1.6-1.21,0-2.22,.2-3.05,.6-.83,.4-1.51,.95-2.05,1.63-.54,.68-.93,1.47-1.18,2.35-.24,.88-.36,1.81-.36,2.77v15.8h-7.24v-28.95Z"/></g><polygon class="d" points="52.68 73.7 42.13 63.15 26.34 78.94 10.55 63.15 0 73.7 15.79 89.49 0 105.28 10.55 115.83 26.34 100.03 42.13 115.83 52.67 105.28 36.88 89.49 52.68 73.7"/><polygon class="d" points="52.68 136.85 42.13 126.3 26.34 142.09 10.55 126.3 0 136.85 15.79 152.64 0 168.43 10.55 178.98 26.34 163.18 42.13 178.98 52.67 168.43 36.88 152.64 52.68 136.85"/><polygon class="d" points="52.68 10.55 42.13 0 26.34 15.79 10.55 0 0 10.55 15.79 26.34 0 42.13 10.55 52.68 26.34 36.88 42.13 52.68 52.67 42.13 36.88 26.34 52.68 10.55"/></g></g></svg>