<?xml version="1.0" encoding="utf-8"?>
<!-- Generator: Adobe Illustrator 26.3.1, SVG Export Plug-In . SVG Version: 6.00 Build 0)  -->
<svg version="1.1" id="Laag_1" xmlns="http://www.w3.org/2000/svg" xmlns:xlink="http://www.w3.org/1999/xlink" x="0px" y="0px"
	 viewBox="0 0 1123.7 749.8" style="enable-background:new 0 0 1123.7 749.8;" xml:space="preserve">
<style type="text/css">
	.st0{fill-rule:evenodd;clip-rule:evenodd;fill:#FFFFFE;}
	.st1{filter:url(#Adobe_OpacityMaskFilter);}
	.st2{fill-rule:evenodd;clip-rule:evenodd;fill:#FFFFFF;}
	.st3{mask:url(#b_00000008865291815773271040000003430057632227736736_);fill-rule:evenodd;clip-rule:evenodd;fill:#FFFFFF;}
	.st4{filter:url(#Adobe_OpacityMaskFilter_00000003079557088613369830000000412283911749419446_);}
	.st5{mask:url(#b_00000049908127586233538680000006107141214462187394_);fill-rule:evenodd;clip-rule:evenodd;fill:#FFFFFF;}
</style>
<path class="st0" d="M377,579.4c-3.9,24.3-39.5,30.9-53.5,11.9c-12.5-16-4.9-71-6.9-90h16.7c3.3,14.4-10.3,87.3,14.4,85.2
	c24.6,2.2,11.1-71.1,14.4-85.2h16.6C378.1,512.3,380.2,569.8,377,579.4 M438.9,599.7l-28-69.5h-0.4l0.3,69.5h-15.1v-98.5h19.1
	l27.7,69.9h0.4l-0.1-69.9h14.5v98.5L438.9,599.7z"/>
<defs>
	<filter id="Adobe_OpacityMaskFilter" filterUnits="userSpaceOnUse" x="265.6" y="5.1" width="808.9" height="397.7">
		<feColorMatrix  type="matrix" values="1 0 0 0 0  0 1 0 0 0  0 0 1 0 0  0 0 0 1 0"/>
	</filter>
</defs>
<mask maskUnits="userSpaceOnUse" x="265.6" y="5.1" width="808.9" height="397.7" id="b_00000008865291815773271040000003430057632227736736_">
	<g class="st1">
		<path id="a_00000052087769169929680130000003842920420565835176_" class="st2" d="M6.9,740.2h1111.5V5.1H6.9V740.2z"/>
	</g>
</mask>
<path class="st3" d="M1074.5,156.7L315,402.8l-49.4-151.5L1025.1,5.1L1074.5,156.7z"/>
<path class="st2" d="M234.8,620h69.7v-10.4h-69.7V620z M57.4,599.7V556H27.9v43.7H11.3v-98.5h16.6v39.9h29.6v-39.9H74v98.5H57.4z
	 M206.6,599.7l-28-69.5h-0.4l0.3,69.5h-15.1v-98.5h19.1l27.7,69.9h0.4l-0.1-69.9H225v98.5H206.6z M109.8,561.8l9.8-39.3h1l8.2,32.9
	L109.8,561.8z M130.5,501.3h-20.8l-16.5,66.1L79.4,572l4.3,12.9l5.6-1.9l-4.2,16.7h15.2l5.6-22.3l26.3-8.8l7.8,31.1h15.2
	C155.2,599.7,130.5,501.3,130.5,501.3z"/>
<defs>
	
		<filter id="Adobe_OpacityMaskFilter_00000181781371489337502440000004886441462332884130_" filterUnits="userSpaceOnUse" x="6.8" y="498.4" width="1111.6" height="241.7">
		<feColorMatrix  type="matrix" values="1 0 0 0 0  0 1 0 0 0  0 0 1 0 0  0 0 0 1 0"/>
	</filter>
</defs>
<mask maskUnits="userSpaceOnUse" x="6.8" y="498.4" width="1111.6" height="241.7" id="b_00000049908127586233538680000006107141214462187394_">
	<g style="filter:url(#Adobe_OpacityMaskFilter_00000181781371489337502440000004886441462332884130_);">
		<path id="a_00000085952618043763524190000008551576561533953972_" class="st2" d="M6.9,740.2h1111.5V5.1H6.9V740.2z"/>
	</g>
</mask>
<path class="st5" d="M475.1,599.7h16.7v-98.5h-16.7V599.7z M546.9,599.7h-21.2l-24.1-98.5h18.7l16.5,79h0.4l16.4-79h17.8
	L546.9,599.7z M581.2,599.7v-98.5h44.2V516h-28.2v26.1h26.1v13.6h-26.1v29.1h29.6v14.9L581.2,599.7z M679.5,530.2
	c1.2-14.2-12.9-16.2-23.6-15v30.3C666.9,546.5,680.3,544.7,679.5,530.2z M680.6,599.7l-15.3-42h-9.3v42h-16.2v-98.5
	c8.2,0.5,32-1.3,39.5,1.6c21.8,5.9,22.8,44.6,1.3,51.5l17.7,45.3H680.6z M750.6,520.3c-12.6-16.4-36,1.2-22.4,16.9
	c9.1,7.8,24.6,11.3,29.1,24.3c13.3,33-31.2,55.2-52.7,29.5l9.1-12.2c12.8,17.8,40.5,3.4,25.1-15.6c-6.6-6.4-18.5-9.1-24.5-16.9
	c-22.8-30.5,20-65.4,45.5-37.9L750.6,520.3L750.6,520.3z M772,599.7h16.7v-98.5H772V599.7z M833.2,515.4v84.3h-16.5v-84.3h-18.5
	v-14.2h53.5v14.2H833.2z M897.5,562v37.7H881V562l-24.7-60.8h18.1l14.8,43.9l0.4-0.3l15.1-43.7h17.7L897.5,562z M60.7,688.3
	c1.7-47.2-38.4-47.3-36.5,0C22.3,735.8,62.6,735.8,60.7,688.3 M78,688.3c3.3,68.2-74.4,68.2-71.1,0C3.3,620.3,81.4,620.4,78,688.3
	 M108.8,654.2v27h25.4v14.2h-25.2v42.3H92.1v-98.5h44.2v15L108.8,654.2z M205.6,654.9H205l-10.7,48.8H216L205.6,654.9z M223,737.7
	l-4.9-20.9h-25.9l-5,20.9h-16.7l24.5-98.5h21.3l24.1,98.5L223,737.7L223,737.7z M289.4,668.5c1-14.6-11.9-16-22.9-15.1v31.1
	C278,685.8,290.4,683.1,289.4,668.5 M305.2,668.3c1.3,22.4-18.9,33-38.6,29.9v39.5h-16.5v-98.5C272.5,638.5,306.8,635.7,305.2,668.3
	 M355.8,668.5c1-14.6-11.9-16-22.9-15.1v31.1C344.4,685.8,356.8,683.1,355.8,668.5 M371.6,668.3c1.3,22.4-18.9,33-38.6,29.9v39.5
	h-16.4v-98.5C338.9,638.5,373.2,635.7,371.6,668.3 M382.9,737.7v-98.5h16.9v83H427v15.4H382.9z M437,737.7h16.7v-98.5H437V737.7z
	 M471.5,737.7v-98.5h44.2V654h-28.2v26.1h26.1v13.6h-26.1v29.1H517v14.9H471.5z M576.7,688.6c1.2-19.3-8.6-38.7-29.8-34.8v69.3
	C567.9,726.9,577.8,707.8,576.7,688.6 M593.4,688.6c0.9,44.4-25.9,52.5-63.4,49.1v-98.5C568.3,636,593.9,643.6,593.4,688.6
	 M678,658.3c-12.6-16.4-36,1.2-22.4,16.9c9.1,7.8,24.6,11.3,29.1,24.3c13.3,33-31.2,55.2-52.7,29.5l9.1-12.2
	c12.8,17.8,40.5,3.4,25.1-15.6c-6.6-6.4-18.4-9.1-24.5-16.9c-23.2-29.7,20.8-65.7,45.5-37.9L678,658.3L678,658.3z M747.6,736.6
	c-79.7,30.1-58.5-148.9,10.1-87.7l-9.6,11.7c-46.8-43.3-45.9,99.6-0.1,55.3l9.6,11.3C755,731,751.6,734.2,747.6,736.6 M768.1,737.7
	h16.7v-98.5h-16.7V737.7z M802.6,737.7v-98.5h44.2V654h-28.2v26.1h26.1v13.6h-26.1v29.1h29.6v14.9H802.6z M904.4,737.7l-28-69.5
	h-0.4l0.3,69.5h-15.1v-98.5h19.1l27.7,69.9h0.4l-0.1-69.9h14.5v98.5H904.4z M988.3,736.6c-79.7,30.1-58.5-148.9,10.1-87.7l-9.6,11.7
	c-46.8-43.3-45.9,99.6-0.1,55.3l9.6,11.3C995.7,731,992.3,734.2,988.3,736.6 M1008.9,737.7v-98.5h44.2V654h-28.2v26.1h26.1v13.6
	h-26.1v29.1h29.6v14.9H1008.9z M1109.2,658.3c-12.6-16.4-36,1.1-22.4,16.9c9.1,7.7,24.6,11.3,29.1,24.3c13.3,33-31.2,55.2-52.7,29.5
	l9.1-12.2c12.7,17.8,40.5,3.4,25.1-15.6c-6.6-6.4-18.4-9.1-24.5-16.9c-22.8-30.5,20-65.4,45.5-37.9L1109.2,658.3L1109.2,658.3z"/>
</svg>
