<?xml version="1.0" encoding="utf-8"?>
<!-- Generator: Adobe Illustrator 26.3.1, SVG Export Plug-In . SVG Version: 6.00 Build 0)  -->
<svg version="1.1" id="Laag_1" xmlns="http://www.w3.org/2000/svg" xmlns:xlink="http://www.w3.org/1999/xlink" x="0px" y="0px"
	 viewBox="0 0 57 64.5" style="enable-background:new 0 0 57 64.5;" xml:space="preserve">
<style type="text/css">
	.st0{fill:#F28E28;}
	.st1{fill:#1D4867;}
	.st2{fill:#FFFFFF;}
</style>
<path class="st0" d="M28.5,0L0,11.8c0,45.3,28.5,52.7,28.5,52.7S57,57.1,57,11.8L28.5,0z"/>
<path class="st1" d="M28.5,1.2L1.1,12.5c0,43.5,27.4,50.6,27.4,50.6S55.9,56,55.9,12.5L28.5,1.2z"/>
<g>
	<path class="st2" d="M10.8,37.4c1.8,4.7,4.1,8.4,6.5,11.2V21l-6.5,2.7V37.4z"/>
	<polygon class="st2" points="10.8,14.5 10.8,20.7 17.2,18.1 17.2,11.8 	"/>
</g>
<path class="st2" d="M20.6,36.8h19.1v11.8c2.3-2.8,4.6-6.5,6.5-11.3V14.5L42,12.7l-2.5-1L20.6,36.8z M39.7,31h-7.4l7.4-9.9V31z"/>
</svg>
