<?xml version="1.0" encoding="utf-8"?>
<!-- Generator: Adobe Illustrator 26.2.1, SVG Export Plug-In . SVG Version: 6.00 Build 0)  -->
<svg version="1.1" id="Layer_1" xmlns="http://www.w3.org/2000/svg" xmlns:xlink="http://www.w3.org/1999/xlink" x="0px" y="0px"
	 viewBox="0 0 966.2 605.7" style="enable-background:new 0 0 966.2 605.7;" xml:space="preserve">
<style type="text/css">
	.st0{fill:#FFFFFF;}
</style>
<path id="Schermafbeelding_2022-04-11_om_18.38.04" class="st0" d="M299,375.4c-20.4-20.4,0.8-55.1,26.8-67.6
	c46.9-20.2,92.2-43.9,135.6-70.9c17.7-11.8,17.7-35.4-24.4-18.7L36.8,358.4c-16.7,2.6-32.5-8.2-36.3-24.7c-2.7-14.6,5.2-29,19-34.6
	l359.4-148.4c5.8-2.8,11.8-5.7,18-8.2L713.5,13c9.8-4,20-6.8,30.5-8.5c55-14.6,113.3,6.6,146.1,53.1l61.2,14.2
	c6.4-0.3,12.2,3.7,14.2,9.8l0,0c2,5.8,0,12.3-5,16l-44.6,35.3v21.4c-1.7,82.5-31.7,162-85,225c-36.5,41.2-83,72.2-135,90.1
	l55.1,103.2c5.2,11.7,0.1,25.4-11.5,30.8c-3,1.3-6.2,2-9.5,2c-9.3,0-17.6-5.6-21.1-14.2L649,481.8c-14.6,2.6-29.4,4.2-44.2,4.8
	l39.5,86.3c5.3,11.6,0.2,25.3-11.4,30.6c0,0,0,0,0,0l0,0c-3,1.4-6.2,2.1-9.5,2.1c-9.2-0.1-17.5-5.7-21.1-14.2l-50.9-108
	c-35.1-4.5-92.7-15-124.1-30.8c-7.2-4-9.8-13.1-5.9-20.3c1.6-2.9,4.1-5.2,7.1-6.5c80.1-36.3,127.5-65.8,176.3-116.1
	c21.8-20.4-7.7-49.9-30.8-23.2c-54,46.1-140.6,77.2-207,97.2c-23.1,6.9-50.9,8.1-68-9.1L299,375.4z"/>
</svg>
