<svg xmlns="http://www.w3.org/2000/svg" width="32.967" height="32.96" viewBox="0 0 32.967 32.96">
  <path id="Path_100" data-name="Path 100" d="M1694.524,965.1a8.451,8.451,0,1,0,8.451,8.451,8.437,8.437,0,0,0-8.451-8.451m0,13.944a5.493,5.493,0,1,1,5.494-5.493,5.5,5.5,0,0,1-5.494,5.493m10.768-14.29a1.971,1.971,0,1,1-1.971-1.971,1.967,1.967,0,0,1,1.971,1.971m5.6,2a9.129,9.129,0,0,0-9.569-9.568c-2.721-.155-10.877-.155-13.6,0a9.118,9.118,0,0,0-9.569,9.561c-.154,2.721-.154,10.877,0,13.6a9.13,9.13,0,0,0,9.569,9.569c2.721.154,10.877.154,13.6,0a9.13,9.13,0,0,0,9.569-9.569C1711.043,977.624,1711.043,969.475,1710.889,966.754Zm-3.516,16.511a5.564,5.564,0,0,1-3.133,3.133c-2.17.861-7.318.662-9.716.662s-7.553.191-9.715-.662a5.564,5.564,0,0,1-3.133-3.133c-.86-2.17-.662-7.318-.662-9.715s-.191-7.554.662-9.716a5.564,5.564,0,0,1,3.133-3.133c2.17-.86,7.318-.662,9.715-.662s7.554-.191,9.716.662a5.564,5.564,0,0,1,3.133,3.133c.86,2.17.662,7.318.662,9.716s.2,7.553-.662,9.715" transform="translate(-1678.037 -957.069)" fill="#63fabd"/>
</svg>
