<?xml version="1.0" encoding="UTF-8"?>
<svg xmlns="http://www.w3.org/2000/svg" id="Layer_2" viewBox="0 0 398.16 102.94">
  <defs>
    <style>.cls-1{fill:#fff;}</style>
  </defs>
  <g id="Layer_1-2">
    <g>
      <path class="cls-1" d="M13.73,.58l2.13,2.13,.68-2.71h14.02l-.19,.58,8.41,8.12-10.35,38.97c.84,2.32,1.71,4.74,2.61,7.25,.9,2.51,1.82,5.06,2.76,7.64,.93,2.58,1.85,5.14,2.76,7.69,.9,2.55,1.74,4.95,2.51,7.2h-13.92l-3.09-3v3H8.9L.58,69.33H0V0H13.73V.58Zm-1.93,1.35H1.93V67.39H11.8v-16.63l5.9,16.63h10.44l-9.96-27.94L28.14,1.93h-10.15l-6.19,23.21V1.93Z"></path>
      <path class="cls-1" d="M45.44,67.97c-1.48-.84-2.69-2.05-3.63-3.63-.94-1.58-1.4-3.3-1.4-5.17V10.15c0-1.42,.26-2.74,.77-3.96,.52-1.22,1.24-2.29,2.18-3.19,.93-.9,2.01-1.63,3.24-2.18,1.22-.55,2.55-.82,3.96-.82h9.77c1.87,0,3.56,.45,5.08,1.35,1.51,.9,2.72,2.1,3.63,3.58l6.77,6.57c.9,.9,1.63,1.95,2.18,3.14,.55,1.19,.82,2.5,.82,3.92v49.02c0,1.35-.26,2.63-.77,3.82-.52,1.19-1.23,2.24-2.13,3.14-.9,.9-1.95,1.61-3.14,2.13-1.19,.52-2.47,.77-3.82,.77h-9.77c-2.71,0-5-.93-6.87-2.8l-6.87-6.67ZM68.55,10.15c0-2.26-.81-4.19-2.42-5.8-1.61-1.61-3.55-2.42-5.8-2.42h-9.77c-2.26,0-4.19,.81-5.8,2.42s-2.42,3.55-2.42,5.8V59.17c0,2.26,.81,4.19,2.42,5.8,1.61,1.61,3.54,2.42,5.8,2.42h9.77c2.26,0,4.19-.81,5.8-2.42,1.61-1.61,2.42-3.54,2.42-5.8V10.15Zm-9.77,44.48c0,.84-.28,1.53-.83,2.08-.56,.55-1.26,.82-2.11,.82h-.69c-.85,0-1.55-.27-2.11-.82-.56-.55-.83-1.24-.83-2.08V14.7c0-.84,.28-1.55,.83-2.13,.56-.58,1.26-.87,2.11-.87h.69c.85,0,1.55,.29,2.11,.87,.56,.58,.83,1.29,.83,2.13V54.63Z"></path>
      <path class="cls-1" d="M102.78,26.2h1.35v.58l8.31,8.12v13.15h-9.67v7.64h3.38v.58l8.32,8.12v13.05h-24.75l-8.32-8.12h-.58V0h25.33V.58l8.32,8.12v13.15h-11.7v4.35Zm-10.25,31.42v-19.63h9.67v-9.86h-9.67V11.8h11.7V1.93h-21.47V67.39h21.47v-9.77h-11.7Z"></path>
      <path class="cls-1" d="M116.9,69.33h-.58V0h13.63V.58l8.32,8.12V55.69h2.22v.58l8.32,8.12v13.05h-23.59l-8.32-8.12Zm11.12-11.7V1.93h-9.77V67.39h20.3v-9.77h-10.54Z"></path>
      <path class="cls-1" d="M172.4,26.2h1.35v.58l8.31,8.12v13.15h-9.67v7.64h3.38v.58l8.32,8.12v13.05h-24.75l-8.32-8.12h-.58V0h25.33V.58l8.32,8.12v13.15h-11.7v4.35Zm-10.25,31.42v-19.63h9.67v-9.86h-9.67V11.8h11.7V1.93h-21.47V67.39h21.47v-9.77h-11.7Z"></path>
      <path class="cls-1" d="M224.32,0V.58l8.32,8.12V77.45h-13.15l-4.25-4.16-1.45,4.64-5.7-5.61v5.12h-13.15l-8.32-8.12h-.58V0h11.51l.19,.68,8.22,8.03,2.03,6.48c.13-.45,.26-.87,.39-1.26l.39-1.16,4.06-12.76h11.51Zm-10.15,1.93l-8.99,29.01L196.18,1.93h-8.22V67.39h9.86v-27.07l7.35,23.69,7.35-23.69v27.07h9.86V1.93h-8.22Z"></path>
      <path class="cls-1" d="M256.32,26.2h1.35v.58l8.32,8.12v13.15h-9.67v7.64h3.38v.58l8.31,8.12v13.05h-24.75l-8.32-8.12h-.58V0h25.33V.58l8.31,8.12v13.15h-11.7v4.35Zm-10.25,31.42v-19.63h9.67v-9.86h-9.67V11.8h11.7V1.93h-21.47V67.39h21.47v-9.77h-11.7Z"></path>
      <path class="cls-1" d="M283.78,0V.58l8.32,8.12V77.45h-13.15l-8.32-8.12h-.58V0h13.73Zm-11.8,1.93V67.39h9.86V1.93h-9.86Z"></path>
      <path class="cls-1" d="M312.79,.58l8.32,8.12V63.82c0,1.87-.37,3.64-1.11,5.32-.74,1.68-1.74,3.13-3,4.35-1.26,1.22-2.71,2.19-4.35,2.9-1.64,.71-3.4,1.06-5.27,1.06h-4.35l-8.31-8.12h-.58v-13.63c1.03,0,2.11-.05,3.24-.15,1.13-.1,1.69-.4,1.69-.92V0h13.73V.58Zm-1.93,1.35h-9.86V54.63c0,.77-.16,1.37-.48,1.79-.32,.42-.72,.71-1.21,.87-.48,.16-1.01,.26-1.59,.29-.58,.03-1.13,.05-1.64,.05v9.77h2.71c1.68,0,3.24-.31,4.69-.92,1.45-.61,2.72-1.46,3.82-2.56,1.09-1.1,1.96-2.37,2.61-3.82s.97-3.01,.97-4.69V1.93Z"></path>
      <path class="cls-1" d="M345.28,26.2h1.35v.58l8.31,8.12v13.15h-9.67v7.64h3.38v.58l8.32,8.12v13.05h-24.75l-8.31-8.12h-.58V0h25.33V.58l8.32,8.12v13.15h-11.7v4.35Zm-10.25,31.42v-19.63h9.67v-9.86h-9.67V11.8h11.7V1.93h-21.46V67.39h21.46v-9.77h-11.7Z"></path>
      <path class="cls-1" d="M359.87,69.33h-.58V0h19.92c1.87,0,3.56,.45,5.08,1.35,1.52,.9,2.72,2.1,3.63,3.58l6.77,6.57c.9,.9,1.63,1.95,2.18,3.14,.55,1.19,.82,2.5,.82,3.92v26.11c0,1.87-.42,3.56-1.26,5.08-.84,1.52-2.06,2.69-3.67,3.53,.84,3.87,1.74,7.95,2.71,12.23s1.87,8.27,2.71,11.94h-13.63l-3.29-3.19v3.19h-13.05l-8.32-8.12Zm27.56-59.17c0-2.26-.81-4.19-2.42-5.8-1.61-1.61-3.55-2.42-5.8-2.42h-17.98V67.39h9.77v-22.92h1.26l5.03,22.92h10.15l-5.22-23.5c1.55-.58,2.8-1.58,3.77-3,.97-1.42,1.45-2.96,1.45-4.64V10.15Zm-9.86,21.56c0,.77-.29,1.45-.87,2.03s-1.26,.87-2.03,.87h-3.68V11.7h3.68c.84,0,1.53,.31,2.08,.92,.55,.61,.82,1.31,.82,2.08V31.71Z"></path>
    </g>
    <g>
      <path class="cls-1" d="M126.84,102.62c-.49-.22-.88-.52-1.16-.92-.28-.4-.42-.86-.42-1.39h1.61c.04,.4,.19,.72,.47,.98s.67,.38,1.17,.38,.92-.13,1.22-.38,.44-.57,.44-.97c0-.31-.09-.56-.27-.75-.18-.19-.41-.34-.67-.45-.27-.11-.64-.22-1.12-.34-.6-.16-1.09-.32-1.46-.48-.37-.16-.69-.42-.96-.76-.26-.34-.4-.8-.4-1.37,0-.53,.13-.99,.4-1.39,.26-.4,.63-.7,1.11-.91,.48-.21,1.03-.32,1.65-.32,.89,0,1.62,.22,2.19,.67s.88,1.05,.94,1.83h-1.66c-.03-.33-.19-.62-.48-.86s-.67-.36-1.15-.36c-.43,0-.78,.11-1.06,.33-.27,.22-.41,.54-.41,.95,0,.28,.09,.51,.26,.69,.17,.18,.39,.32,.65,.43s.63,.22,1.08,.34c.61,.17,1.1,.33,1.49,.5,.38,.17,.71,.43,.98,.77s.4,.81,.4,1.39c0,.47-.13,.91-.38,1.32-.25,.41-.62,.75-1.1,1-.48,.25-1.05,.38-1.7,.38-.62,0-1.17-.11-1.66-.32Z"></path>
      <path class="cls-1" d="M136.22,95.82c.42-.71,.99-1.27,1.7-1.67,.72-.4,1.5-.6,2.36-.6,.98,0,1.85,.24,2.61,.72,.76,.48,1.31,1.16,1.66,2.04h-1.81c-.24-.48-.57-.85-.99-1.08s-.91-.36-1.47-.36c-.61,0-1.15,.14-1.62,.41-.48,.27-.85,.67-1.12,1.18-.27,.51-.4,1.11-.4,1.78s.13,1.27,.4,1.78,.64,.9,1.12,1.18c.48,.28,1.02,.42,1.62,.42,.56,0,1.04-.12,1.47-.36s.75-.6,.99-1.08h1.81c-.34,.88-.9,1.56-1.66,2.03-.76,.48-1.63,.71-2.61,.71-.86,0-1.65-.2-2.36-.6-.71-.4-1.28-.96-1.7-1.67-.42-.71-.63-1.52-.63-2.42s.21-1.7,.63-2.42Z"></path>
      <path class="cls-1" d="M156.28,93.67v9.18h-1.51v-4.02h-4.32v4.02h-1.51v-9.18h1.51v3.94h4.32v-3.94h1.51Z"></path>
      <path class="cls-1" d="M162.41,93.67v9.18h-1.51v-9.18h1.51Z"></path>
      <path class="cls-1" d="M168.54,101.64h3.1v1.22h-4.61v-9.18h1.51v7.97Z"></path>
      <path class="cls-1" d="M181.11,94.23c.74,.37,1.3,.91,1.7,1.61,.4,.7,.6,1.52,.6,2.45s-.2,1.74-.6,2.43c-.4,.69-.97,1.21-1.7,1.58-.74,.37-1.59,.55-2.57,.55h-3v-9.18h3c.98,0,1.83,.19,2.57,.56Zm-.1,6.52c.57-.58,.86-1.4,.86-2.46s-.29-1.9-.86-2.5c-.57-.6-1.4-.9-2.47-.9h-1.49v6.72h1.49c1.07,0,1.9-.29,2.47-.87Z"></path>
      <path class="cls-1" d="M189.06,94.88v2.7h3.17v1.23h-3.17v2.81h3.57v1.23h-5.07v-9.19h5.07v1.23h-3.57Z"></path>
      <path class="cls-1" d="M201.89,102.85l-2.11-3.67h-1.15v3.67h-1.51v-9.18h3.17c.7,0,1.3,.12,1.79,.37,.49,.25,.85,.58,1.1,.99s.36,.88,.36,1.39c0,.6-.17,1.14-.52,1.63-.35,.49-.88,.82-1.61,1l2.27,3.8h-1.8Zm-3.26-4.87h1.66c.56,0,.99-.14,1.27-.42,.29-.28,.43-.66,.43-1.14s-.14-.85-.42-1.12c-.28-.27-.71-.4-1.28-.4h-1.66v3.08Z"></path>
      <path class="cls-1" d="M220.07,93.67l-2.72,9.18h-1.7l-1.93-6.95-2.05,6.95h-1.69s-2.6-9.18-2.6-9.18h1.6l1.9,7.48,2.06-7.48h1.69l1.92,7.44,1.92-7.44h1.61Z"></path>
      <path class="cls-1" d="M225.46,94.88v2.7h3.17v1.23h-3.17v2.81h3.57v1.23h-5.07v-9.19h5.07v1.23h-3.57Z"></path>
      <path class="cls-1" d="M238.28,102.85l-2.11-3.67h-1.15v3.67h-1.51v-9.18h3.17c.7,0,1.3,.12,1.79,.37,.49,.25,.85,.58,1.1,.99s.36,.88,.36,1.39c0,.6-.17,1.14-.52,1.63-.35,.49-.88,.82-1.61,1l2.27,3.8h-1.8Zm-3.26-4.87h1.66c.56,0,.99-.14,1.27-.42,.29-.28,.43-.66,.43-1.14s-.14-.85-.42-1.12c-.28-.27-.71-.4-1.28-.4h-1.66v3.08Z"></path>
      <path class="cls-1" d="M249.57,102.85l-3.55-4.11v4.11h-1.51v-9.18h1.51v4.19l3.57-4.19h1.89l-3.99,4.6,4.06,4.58h-1.97Z"></path>
      <path class="cls-1" d="M257.02,94.88v2.7h3.17v1.23h-3.17v2.81h3.57v1.23h-5.07v-9.19h5.07v1.23h-3.57Z"></path>
      <path class="cls-1" d="M272.62,102.85h-1.51l-4.53-6.86v6.86h-1.51v-9.19h1.51l4.53,6.84v-6.84h1.51v9.19Z"></path>
    </g>
  </g>
</svg>
