<?xml version="1.0" standalone="no"?>
<!DOCTYPE svg PUBLIC "-//W3C//DTD SVG 1.1//EN" "http://www.w3.org/Graphics/SVG/1.1/DTD/svg11.dtd" >
<svg xmlns="http://www.w3.org/2000/svg" xmlns:xlink="http://www.w3.org/1999/xlink" version="1.1">
<metadata>
Created by FontForge 20170731 at Tue Apr 26 09:02:55 2022
 By Aleksey,,,
Copyright (c) 2019 by Emil Bertell. All rights reserved.
</metadata>
<defs>
<font id="Laurel-Medium" horiz-adv-x="0" >
  <font-face 
    font-family="Laurel-Medium"
    font-weight="500"
    font-stretch="normal"
    units-per-em="2048"
    panose-1="1 0 0 0 0 0 0 0 0 0"
    ascent="1638"
    descent="-410"
    x-height="1094"
    cap-height="1403"
    bbox="-987 -672 2402 2120"
    underline-thickness="102"
    underline-position="-358"
    unicode-range="U+0020-FB02"
  />
<missing-glyph horiz-adv-x="1024" 
d="M190 1638h650v-2048h-650v2048zM682 1434v67h-338v-67h133v-76h-135v-68h340v68h-135v76h135zM547 1094v143h-205v-213h340v70h-135zM410 1167h67v-73h-67v73zM682 901v68h-340v-68h135v-76h-135v-67h205v143h135zM682 641v205h-68v-135h-272v-70h340zM682 365v231h-205
v-115h70v47h67v-96h-204v164h-68v-231h340zM682 10v232h-340v-232h340zM410 174h204v-96h-204v96zM682 -104v67h-340v-67h143l-143 -97v-67h340v67h-209l143 97h66z" />
    <glyph glyph-name="fi" unicode="fi" horiz-adv-x="1366" 
d="M1225 1094v-1094h-338v948h-338v-948h-338v948h-193v146h193q0 411 401 411q213 0 359 -41v-297l-344 224q-78 -32 -78 -158v-139h676z" />
    <glyph glyph-name="fl" unicode="fl" horiz-adv-x="1490" 
d="M18 1094h193q0 411 389 411q175 0 287 -41v-364l-297 260q-41 -50 -41 -186v-80h262v-146h-262v-948h-338v948h-193v146zM1022 0v1475h338v-1475h-338z" />
    <glyph glyph-name=".notdef" horiz-adv-x="1024" 
d="M190 1638h650v-2048h-650v2048zM682 1434v67h-338v-67h133v-76h-135v-68h340v68h-135v76h135zM547 1094v143h-205v-213h340v70h-135zM410 1167h67v-73h-67v73zM682 901v68h-340v-68h135v-76h-135v-67h205v143h135zM682 641v205h-68v-135h-272v-70h340zM682 365v231h-205
v-115h70v47h67v-96h-204v164h-68v-231h340zM682 10v232h-340v-232h340zM410 174h204v-96h-204v96zM682 -104v67h-340v-67h143l-143 -97v-67h340v67h-209l143 97h66z" />
    <glyph glyph-name=".null" 
 />
    <glyph glyph-name="nonmarkingreturn" horiz-adv-x="682" 
 />
    <glyph glyph-name="space" unicode=" " horiz-adv-x="337" 
 />
    <glyph glyph-name="exclam" unicode="!" horiz-adv-x="704" 
d="M530 864l-178 -415l-180 415v539h358v-539zM356 -29q-75 0 -127.5 53.5t-52.5 127.5q0 75 52.5 127.5t127.5 52.5q74 0 127.5 -52.5t53.5 -127.5q0 -74 -53.5 -127.5t-127.5 -53.5z" />
    <glyph glyph-name="quotedbl" unicode="&#x22;" horiz-adv-x="868" 
d="M96 1403h307v-377l-155 -266l-152 266v377zM465 1403h307v-377l-156 -266l-151 266v377z" />
    <glyph glyph-name="numbersign" unicode="#" horiz-adv-x="1632" 
d="M1542 1016v-121h-196l-95 -387h170v-121h-200l-95 -387h-354l94 387h-254l-94 -387h-358l94 387h-164v121h195l94 387h-168v121h199l94 387h358l-94 -387h254l94 387h354l-94 -387h166zM643 508h254l94 387h-254z" />
    <glyph glyph-name="dollar" unicode="$" horiz-adv-x="1175" 
d="M1085 483q0 -179 -111 -279.5t-304 -121.5v-186h-146v182q-237 8 -407 67v410l272 -319q85 -13 135 -15v354q-432 63 -432 383q0 163 115 257.5t317 109.5v186h146v-184q225 -6 342 -59v-381l-250 293q-87 6 -92 6v-328q217 -30 316 -121.5t99 -253.5zM354 1040
q0 -59 38.5 -96t131.5 -61v301q-170 -21 -170 -144zM670 553v-322q77 17 119 59.5t42 106.5q0 62 -35 98.5t-126 57.5z" />
    <glyph glyph-name="percent" unicode="%" horiz-adv-x="1650" 
d="M422 692q160 0 266.5 100.5t106.5 270.5t-106.5 270.5t-266.5 100.5t-265.5 -100.5t-105.5 -270.5t105.5 -270.5t265.5 -100.5zM197 0l1040 1403h219l-1040 -1403h-219zM422 1298q115 0 115 -235q0 -236 -115 -236q-56 0 -85.5 60.5t-29.5 175.5t29.5 175t85.5 60z
M1227 -31q160 0 266 100t106 269q0 172 -106 272.5t-266 100.5t-265.5 -100.5t-105.5 -272.5q0 -169 105.5 -269t265.5 -100zM1227 575q114 0 114 -237q0 -234 -114 -234q-56 0 -85.5 60t-29.5 174q0 116 29.5 176.5t85.5 60.5z" />
    <glyph glyph-name="ampersand" unicode="&#x26;" horiz-adv-x="1656" 
d="M1366 254l248 -254h-447l-63 66q-215 -97 -490 -97q-271 0 -415 93.5t-144 263.5q0 143 104.5 246t309.5 161q-73 91 -110 171t-37 173q0 162 117.5 258.5t332.5 96.5q232 0 348.5 -89t116.5 -225q0 -256 -365 -362l39 -39l342 -348q44 47 62 100l-191 270h453
q-28 -291 -211 -485zM772 1266q-64 0 -100.5 -41t-36.5 -111q0 -68 35 -128t106 -134q67 43 105.5 108.5t38.5 147.5q0 75 -39 116.5t-109 41.5zM745 156q121 0 236 39l-334 346q-58 62 -82 86q-73 -55 -104 -114.5t-31 -133.5q0 -106 77.5 -164.5t237.5 -58.5z" />
    <glyph glyph-name="quotesingle" unicode="'" horiz-adv-x="499" 
d="M96 1403h307v-377l-155 -266l-152 266v377z" />
    <glyph glyph-name="parenleft" unicode="(" horiz-adv-x="937" 
d="M170 700q0 187 54 346.5t148.5 271.5t219 184t268.5 97q-167 -161 -247.5 -380t-80.5 -519t80.5 -519t247.5 -380q-144 25 -268.5 97t-219 184t-148.5 271.5t-54 346.5z" />
    <glyph glyph-name="parenright" unicode=")" horiz-adv-x="937" 
d="M768 700q0 -187 -54 -346.5t-148.5 -271.5t-219 -184t-268.5 -97q167 161 248.5 380t81.5 519t-81.5 519t-248.5 380q144 -25 268.5 -97t219 -184t148.5 -271.5t54 -346.5z" />
    <glyph glyph-name="asterisk" unicode="*" horiz-adv-x="718" 
d="M575 1413l89 -160l-203 -73l203 -64l-89 -162l-159 142l37 -201h-185l37 201l-162 -142l-86 162l201 64l-201 73l86 160l164 -141l-39 203h185l-39 -203z" />
    <glyph glyph-name="plus" unicode="+" horiz-adv-x="1196" 
d="M684 729h371v-162h-371v-348h-172v348h-371v162h371v350h172v-350z" />
    <glyph glyph-name="comma" unicode="," horiz-adv-x="600" 
d="M276 334q84 0 133.5 -52t49.5 -130q0 -193 -226 -385l-151 -132l113 359q-45 24 -73 66.5t-28 91.5q0 77 49.5 129.5t132.5 52.5z" />
    <glyph glyph-name="hyphen" unicode="-" horiz-adv-x="989" 
d="M856 553v145h-723v-145h723z" />
    <glyph glyph-name="period" unicode="." horiz-adv-x="669" 
d="M336 -31q-82 0 -139.5 57.5t-57.5 139.5q0 80 57.5 137t139.5 57q80 0 137 -57t57 -137q0 -82 -57 -139.5t-137 -57.5z" />
    <glyph glyph-name="slash" unicode="/" horiz-adv-x="1460" 
d="M98 -168l906 1739h358l-905 -1739h-359z" />
    <glyph glyph-name="zero" unicode="0" horiz-adv-x="1454" 
d="M723 -31q-132 0 -247 50t-200.5 142t-134.5 231t-49 308q0 170 49 309.5t134.5 232t200.5 142.5t247 50t248 -50.5t202.5 -142.5t136.5 -232t50 -309t-50 -308t-136.5 -231t-202.5 -142t-248 -50zM723 135q115 0 178.5 140.5t63.5 424.5q0 285 -63.5 426.5t-178.5 141.5
q-112 0 -173 -141.5t-61 -426.5q0 -284 61 -424.5t173 -140.5z" />
    <glyph glyph-name="one" unicode="1" horiz-adv-x="718" 
d="M180 1124l-143 162l506 156v-1442h-363v1124z" />
    <glyph glyph-name="two" unicode="2" horiz-adv-x="1241" 
d="M684 416l-352 -256l819 205v-365h-1049v160l267 252q181 171 253 298.5t72 272.5q0 284 -270 287l-334 -412v512q59 23 189.5 43.5t267.5 20.5q260 0 402.5 -113t142.5 -317q0 -74 -19 -139.5t-50.5 -120t-86 -112t-111.5 -105.5t-141 -111z" />
    <glyph glyph-name="three" unicode="3" horiz-adv-x="1196" 
d="M739 705q191 -25 289 -117.5t98 -227.5q0 -186 -153 -287.5t-441 -101.5q-296 0 -456 60v463l375 -365q153 1 227 76t74 190q0 102 -73 162.5t-230 60.5h-168v162h157q146 0 218.5 73t72.5 191q0 107 -68 167.5t-204 60.5h-6l-355 -357v459q60 23 185.5 41.5t269.5 18.5
q263 0 408 -91t145 -266q0 -141 -93 -241.5t-272 -130.5z" />
    <glyph glyph-name="four" unicode="4" horiz-adv-x="1349" 
d="M1053 426l241 315v-508h-268v-233h-360v233h-650v189l619 981h391v-977h27zM666 1180l-473 -754h473v754z" />
    <glyph glyph-name="five" unicode="5" horiz-adv-x="1224" 
d="M670 852q235 0 362 -111.5t127 -316.5q0 -224 -167.5 -338.5t-477.5 -114.5q-125 0 -242 19t-182 47v409l404 -321q270 23 270 297q0 131 -69.5 199.5t-190.5 70.5l-383 -153v864h760l174 86v-418h-752v-293q180 74 367 74z" />
    <glyph glyph-name="six" unicode="6" horiz-adv-x="1398" 
d="M866 858q83 0 156.5 -24t134 -72t96 -129.5t35.5 -186.5q0 -216 -156 -346.5t-427 -130.5q-282 0 -447.5 193t-165.5 534q0 348 190 543t525 195q228 0 381 -64v-473l-359 371h-12q-176 0 -254 -140.5t-80 -416.5q147 147 383 147zM705 135q97 0 153.5 82.5t56.5 220.5
q0 125 -50.5 184.5t-139.5 59.5q-69 0 -131.5 -37t-106.5 -104q29 -406 218 -406z" />
    <glyph glyph-name="seven" unicode="7" horiz-adv-x="1114" 
d="M61 838v565h1037l-371 -1403h-448l589 1085h-538z" />
    <glyph glyph-name="eight" unicode="8" horiz-adv-x="1320" 
d="M659 1434q-260 0 -399 -100.5t-139 -270.5q0 -122 73 -212t212 -124q-173 -32 -261 -126t-88 -234q0 -190 157 -293t445 -103q289 0 446 103t157 293q0 138 -89 232.5t-260 127.5q139 34 212 124t73 212q0 170 -139 270.5t-400 100.5zM659 801q-161 0 -161 235
q0 234 161 234q80 0 122 -59.5t42 -174.5q0 -235 -164 -235zM659 133q-105 0 -159 72.5t-54 189.5t53 184.5t160 67.5q109 0 162 -67.5t53 -184.5t-54 -189.5t-161 -72.5z" />
    <glyph glyph-name="nine" unicode="9" horiz-adv-x="1363" 
d="M666 1434q283 0 444.5 -192t161.5 -535q0 -351 -191.5 -544.5t-535.5 -193.5q-120 0 -227 19.5t-166 44.5v473l399 -375q165 6 243 141t83 400q-136 -127 -361 -127q-185 0 -303 114t-117 318q3 208 156 332.5t414 124.5zM653 735q143 0 217 127q-27 406 -208 406
q-87 0 -137 -80t-50 -215q0 -122 47 -180t131 -58z" />
    <glyph glyph-name="colon" unicode=":" horiz-adv-x="704" 
d="M352 668q-81 0 -138.5 57t-57.5 137t57.5 137.5t138.5 57.5q80 0 137.5 -57.5t57.5 -137.5q0 -79 -57.5 -136.5t-137.5 -57.5zM352 -31q-82 0 -139 57.5t-57 139.5q0 80 57.5 137t138.5 57q80 0 137.5 -57.5t57.5 -136.5q0 -81 -57.5 -139t-137.5 -58z" />
    <glyph glyph-name="semicolon" unicode=";" horiz-adv-x="722" 
d="M362 668q-81 0 -138.5 57t-57.5 137t57.5 137.5t138.5 57.5q80 0 137.5 -57.5t57.5 -137.5q0 -79 -57.5 -136.5t-137.5 -57.5zM373 334q82 0 131 -52t49 -130q0 -194 -223 -385l-152 -132l111 359q-45 24 -73 66.5t-28 91.5q0 77 51 129.5t134 52.5z" />
    <glyph glyph-name="less" unicode="&#x3c;" horiz-adv-x="1040" 
d="M141 711l727 319v-201l-520 -202l520 -205v-201l-727 320v170z" />
    <glyph glyph-name="equal" unicode="=" horiz-adv-x="1171" 
d="M129 711v159h913v-159h-913zM129 356v160h913v-160h-913z" />
    <glyph glyph-name="greater" unicode="&#x3e;" horiz-adv-x="1040" 
d="M172 829v201l727 -319v-170l-727 -320v201l520 203z" />
    <glyph glyph-name="question" unicode="?" horiz-adv-x="1155" 
d="M578 1434q257 0 396.5 -90.5t139.5 -262.5q0 -166 -109.5 -266.5t-361.5 -134.5l-168 -260l-158 313l95 27q162 46 234.5 121.5t72.5 187.5q0 100 -69.5 156t-200.5 57l-336 -393v495q63 18 190 34t275 16zM483 326q72 0 125.5 -53t53.5 -126t-53.5 -125.5t-125.5 -52.5
q-73 0 -125.5 52.5t-52.5 125.5q0 74 52.5 126.5t125.5 52.5z" />
    <glyph glyph-name="at" unicode="@" horiz-adv-x="1769" 
d="M1038 864l207 176v-520q0 -103 23.5 -152t87.5 -49q93 0 139.5 97t46.5 256q0 265 -180.5 428.5t-466.5 163.5q-191 0 -336 -74.5t-228 -222.5t-83 -353q0 -312 178 -483.5t487 -171.5q251 0 400 96q-58 -98 -178.5 -156.5t-290.5 -58.5q-154 0 -289 53t-236 150.5
t-159 245t-58 325.5q0 181 60.5 329.5t167 247t251.5 151.5t314 53q224 0 404.5 -89.5t284.5 -255t104 -378.5q0 -243 -98 -363.5t-279 -120.5q-110 0 -176 50t-86 129q-50 -189 -248 -189q-149 0 -240.5 113.5t-91.5 308.5q0 196 91.5 310t240.5 114q180 0 237 -160z
M860 315q119 0 119 285q0 287 -119 287t-119 -287q0 -285 119 -285z" />
    <glyph glyph-name="A" unicode="A" horiz-adv-x="1478" 
d="M1436 0h-373l-143 426h-551l88 -426h-416l489 1403h433zM639 1255l-219 -675h448z" />
    <glyph glyph-name="B" unicode="B" horiz-adv-x="1441" 
d="M942 735q201 -18 304.5 -104t103.5 -223q0 -209 -147.5 -308.5t-418.5 -99.5h-610v1403h580q251 0 383.5 -79t132.5 -255q0 -132 -83.5 -217.5t-244.5 -116.5zM633 1245h-96v-457l55 7q151 14 222 70t71 169q0 114 -59 162.5t-193 48.5zM537 158h112q314 0 314 250
q0 106 -75.5 160t-240.5 69l-110 10v-489z" />
    <glyph glyph-name="C" unicode="C" horiz-adv-x="1468" 
d="M924 133q-214 0 -321 148.5t-107 418.5t108.5 420t319.5 150q33 0 47 -2l352 -410v512q-58 27 -170.5 45.5t-263.5 18.5q-234 0 -411.5 -86t-277.5 -253.5t-100 -394.5q0 -228 99 -394t276.5 -251.5t413.5 -85.5q150 0 262.5 18t171.5 44v481l-344 -377q-9 0 -27.5 -1
t-27.5 -1z" />
    <glyph glyph-name="D" unicode="D" horiz-adv-x="1599" 
d="M682 1403q397 0 607 -175t210 -528q0 -700 -817 -700h-508v1403h508zM537 160h104q247 0 355 132t108 408q0 275 -110 409t-353 134h-104v-1083z" />
    <glyph glyph-name="E" unicode="E" horiz-adv-x="1239" 
d="M1165 1403v-162h-628v-420h485v-159h-485v-500h628v-162h-991v1403h991z" />
    <glyph glyph-name="F" unicode="F" horiz-adv-x="1212" 
d="M1157 1403v-162h-620v-418h477v-166h-477v-657h-363v1403h983z" />
    <glyph glyph-name="G" unicode="G" horiz-adv-x="1542" 
d="M1436 815v-815l-277 115q-153 -146 -411 -146q-297 0 -472.5 197.5t-175.5 531.5q0 338 212.5 537t572.5 199q133 0 257 -19t181 -45v-389l-399 293h-39q-192 0 -289.5 -151.5t-97.5 -424.5q0 -262 88 -407.5t260 -145.5q146 0 231 91v417h-364v162h723z" />
    <glyph glyph-name="H" unicode="H" horiz-adv-x="1572" 
d="M1036 819v584h363v-1403h-363v659h-499v-659h-363v1403h363v-584h499z" />
    <glyph glyph-name="I" unicode="I" horiz-adv-x="710" 
d="M174 0v1403h363v-1403h-363z" />
    <glyph glyph-name="J" unicode="J" horiz-adv-x="1048" 
d="M557 412v991h365v-854q0 -134 -31 -237t-81.5 -167t-122.5 -104.5t-146.5 -56t-161.5 -15.5q-201 0 -316 45v379l367 -270q127 58 127 289z" />
    <glyph glyph-name="K" unicode="K" horiz-adv-x="1452" 
d="M1034 1403h375l-467 -492l465 -911h-406l-321 635l-143 -152v-483h-363v1403h363v-684z" />
    <glyph glyph-name="L" unicode="L" horiz-adv-x="1261" 
d="M537 160h307l348 291v-451h-1018v1403h363v-1243z" />
    <glyph glyph-name="M" unicode="M" horiz-adv-x="2054" 
d="M1880 1403v-1403h-362v1141l-400 -1141h-377l-381 1145v-615l168 -530h-354v1403h473l381 -1131l397 1131h455z" />
    <glyph glyph-name="N" unicode="N" horiz-adv-x="1505" 
d="M1145 330v1073h188v-1403h-405l-568 1071v-1071h-186v1403h395z" />
    <glyph glyph-name="O" unicode="O" horiz-adv-x="1650" 
d="M825 -31q-206 0 -370 88t-259.5 255.5t-95.5 387.5q0 221 95.5 389t259.5 256.5t370 88.5q205 0 368.5 -88.5t259 -256.5t95.5 -389q0 -220 -95.5 -387.5t-259 -255.5t-368.5 -88zM825 135q154 0 241 146t87 419q0 274 -87 421t-241 147q-155 0 -241 -147t-86 -421
t86 -419.5t241 -145.5z" />
    <glyph glyph-name="P" unicode="P" horiz-adv-x="1400" 
d="M791 1403q259 0 402.5 -110t143.5 -341t-143 -340.5t-403 -109.5h-254v-502h-363v1403h617zM537 662h120q283 0 283 290q0 144 -69 216.5t-214 72.5h-120v-579z" />
    <glyph glyph-name="Q" unicode="Q" horiz-adv-x="1650" 
d="M1548 700q0 -279 -151 -468.5t-396 -243.5h455v-258q-203 -9 -385.5 57.5t-320.5 185.5q-140 12 -259 68.5t-206 149t-136 224t-49 285.5q0 221 95.5 389t259.5 256.5t370 88.5q205 0 368.5 -88.5t259 -256.5t95.5 -389zM498 700q0 -274 86 -419.5t241 -145.5
q154 0 241 146t87 419q0 274 -87 421t-241 147q-155 0 -241 -147t-86 -421z" />
    <glyph glyph-name="R" unicode="R" horiz-adv-x="1492" 
d="M1188 135l223 258v-366q-29 -25 -98.5 -41.5t-130.5 -16.5q-65 0 -118.5 13t-103 43.5t-83.5 88t-50 140.5l-30 192q-21 117 -69.5 155t-158.5 38h-32v-639h-363v1403h567q131 0 230.5 -18.5t174 -58.5t113.5 -107.5t39 -161.5q0 -159 -112 -254t-312 -117
q246 -66 279 -321l18 -144q6 -55 17 -86zM537 1243v-442h116q127 0 192.5 65t65.5 174q0 203 -258 203h-116z" />
    <glyph glyph-name="S" unicode="S" horiz-adv-x="1361" 
d="M766 885q250 -42 357.5 -148t107.5 -295q0 -473 -592 -473q-165 0 -293.5 22.5t-200.5 49.5v477l408 -395q16 -2 53 -2q155 0 238.5 59t83.5 160q0 91 -63.5 138.5t-233.5 74.5q-270 40 -390 148t-120 309t155.5 312.5t442.5 111.5q281 0 430 -64v-438l-354 348
q-20 2 -66 2q-146 0 -225.5 -46t-79.5 -134q0 -91 75.5 -138.5t266.5 -78.5z" />
    <glyph glyph-name="T" unicode="T" horiz-adv-x="1232" 
d="M23 1403h1187v-162h-411v-1243h-365v1243h-411v162z" />
    <glyph glyph-name="U" unicode="U" horiz-adv-x="1529" 
d="M764 -31q-142 0 -255 38t-196.5 114.5t-128.5 200.5t-45 288v793h363v-844q0 -224 66.5 -324t195.5 -100t195.5 100t66.5 324v844h365v-793q0 -164 -45 -288t-129 -200.5t-197.5 -114.5t-255.5 -38z" />
    <glyph glyph-name="V" unicode="V" horiz-adv-x="1413" 
d="M1073 991l-106 412h426l-480 -1403h-426l-467 1403h367l418 -1249z" />
    <glyph glyph-name="W" unicode="W" horiz-adv-x="2306" 
d="M1974 983l-106 420h405l-407 -1403h-402l-315 1042l-344 -1042h-381l-391 1403h364l318 -1155l368 1155h334l342 -1182z" />
    <glyph glyph-name="X" unicode="X" horiz-adv-x="1394" 
d="M883 745l473 -745h-416l-336 528l-368 -528h-199l475 674l-463 729h416l323 -510l353 510h198z" />
    <glyph glyph-name="Y" unicode="Y" horiz-adv-x="1400" 
d="M977 1403h424l-527 -807v-596h-362v590l-512 813h432l373 -625l180 293z" />
    <glyph glyph-name="Z" unicode="Z" horiz-adv-x="1312" 
d="M514 160h404l321 530v-690h-1124l-2 166l655 1077h-362l-322 -532v692h1110v-135z" />
    <glyph glyph-name="bracketleft" unicode="[" horiz-adv-x="946" 
d="M813 1661l-256 -180v-1504l256 -180h-592v1864h592z" />
    <glyph glyph-name="backslash" unicode="\" horiz-adv-x="1460" 
d="M98 1571h359l905 -1739h-358z" />
    <glyph glyph-name="bracketright" unicode="]" horiz-adv-x="946" 
d="M723 1661v-1864h-590l254 180v1504l-254 180h590z" />
    <glyph glyph-name="asciicircum" unicode="^" horiz-adv-x="1153" 
d="M670 1403l409 -721h-188l-313 571l-316 -571h-188l411 721h185z" />
    <glyph glyph-name="underscore" unicode="_" horiz-adv-x="722" 
d="M723 -248v148h-723v-148h723z" />
    <glyph glyph-name="a" unicode="a" horiz-adv-x="1173" 
d="M1038 739l2 -737l-301 145q-51 -74 -146.5 -122t-219.5 -48q-145 0 -220 76t-75 201q3 144 91 221.5t284 142.5q50 17 83.5 30.5t69 33.5t56 41.5t34 52t13.5 66.5q0 72 -47 105.5t-146 33.5h-31l-299 -336v410q58 26 172.5 47.5t239.5 21.5q86 0 151 -10.5t121 -36.5
t91.5 -69t55.5 -110.5t21 -158.5zM537 182q95 0 165 66v362q-55 -52 -151 -106q-72 -41 -103.5 -89.5t-31.5 -115.5q0 -56 31 -86.5t90 -30.5z" />
    <glyph glyph-name="b" unicode="b" horiz-adv-x="1273" 
d="M770 1122q197 0 316.5 -130t119.5 -388q0 -303 -138 -469t-370 -166q-210 0 -315 164l-250 -133v1475h336v-453q119 100 301 100zM618 127q108 0 170 122t62 339q0 370 -201 370q-121 0 -180 -112v-572q39 -147 149 -147z" />
    <glyph glyph-name="c" unicode="c" horiz-adv-x="1144" 
d="M719 217q227 0 334 209q0 -224 -129.5 -340.5t-354.5 -116.5q-234 0 -366.5 147.5t-132.5 403.5q0 276 161.5 440t442.5 164q105 0 198.5 -18.5t145.5 -44.5v-465l-330 377q-127 -10 -195.5 -118t-68.5 -273q0 -175 73.5 -270t221.5 -95z" />
    <glyph glyph-name="d" unicode="d" horiz-adv-x="1271" 
d="M797 1475h344v-1475l-250 137q-51 -75 -140.5 -121.5t-218.5 -46.5q-224 0 -343 139.5t-119 411.5q0 278 139.5 441t370.5 163q130 0 217 -61v412zM639 139q88 0 158 74v696q-55 68 -133 68q-112 0 -176 -121.5t-64 -335.5q0 -191 57 -286t158 -95z" />
    <glyph glyph-name="e" unicode="e" horiz-adv-x="1163" 
d="M614 1124q545 0 451 -624h-637q15 -150 82.5 -215.5t198.5 -65.5q242 0 350 193q0 -115 -37 -202t-103 -138.5t-149 -77t-182 -25.5q-252 0 -385 145t-133 427q0 277 150.5 430t393.5 153zM614 977q-84 0 -136.5 -96.5t-53.5 -272.5l330 72q-1 165 -33 231t-107 66z" />
    <glyph glyph-name="f" unicode="f" horiz-adv-x="888" 
d="M887 1100l-297 260q-41 -50 -41 -186v-80h262v-146h-262v-948h-338v948h-193v146h193q0 411 389 411q175 0 287 -41v-364z" />
    <glyph glyph-name="g" unicode="g" horiz-adv-x="1173" 
d="M551 385l-33 -57q348 -23 499.5 -112.5t151.5 -260.5q0 -78 -29.5 -139t-83 -103t-131 -69t-169.5 -39.5t-203 -12.5q-272 0 -405.5 56.5t-133.5 185.5q0 105 101.5 174t312.5 88q-116 11 -311 17l278 290q-141 35 -224 126t-83 225q0 170 134 270t339 100q60 0 107 -8
l100 262h379l-350 -297q111 -44 174 -128t63 -199q0 -172 -133.5 -270.5t-339.5 -98.5h-10zM561 977q-69 0 -110 -59t-41 -164q0 -104 41 -163t110 -59q68 0 109 59t41 163q0 106 -40.5 164.5t-109.5 58.5zM573 -266q133 0 215 44t82 118q0 57 -42.5 95t-139.5 64
q-182 -26 -258 -79t-76 -119q0 -64 48 -93.5t171 -29.5z" />
    <glyph glyph-name="h" unicode="h" horiz-adv-x="1253" 
d="M795 1124q321 0 321 -340v-784h-338v748q0 83 -32 118t-95 35q-118 0 -180 -110v-791h-338v1475h338v-490q55 63 138 101t186 38z" />
    <glyph glyph-name="i" unicode="i" horiz-adv-x="641" 
d="M319 1174q-75 0 -127.5 53.5t-52.5 128.5q0 74 52.5 127t127.5 53q74 0 127.5 -53.5t53.5 -126.5q0 -75 -53.5 -128.5t-127.5 -53.5zM489 1094v-1094h-337v1094h337z" />
    <glyph glyph-name="j" unicode="j" horiz-adv-x="659" 
d="M330 1198q-74 0 -127 53t-53 127q0 75 53 128t127 53t127 -53t53 -128q0 -74 -53 -127t-127 -53zM160 -88v1182h338v-1045q0 -237 -108.5 -347t-317.5 -110q-83 0 -154 21v295l223 -172q19 68 19 176z" />
    <glyph glyph-name="k" unicode="k" horiz-adv-x="1243" 
d="M870 1094h310l-344 -359l344 -735h-379l-211 479l-119 -123v-356h-338v1475h338v-926z" />
    <glyph glyph-name="l" unicode="l" horiz-adv-x="602" 
d="M471 1475v-1475h-338v1475h338z" />
    <glyph glyph-name="m" unicode="m" horiz-adv-x="1918" 
d="M1460 1124q70 0 127 -19t102 -58.5t70 -106t25 -156.5v-784h-338v733q0 95 -32.5 132.5t-92.5 37.5q-120 0 -184 -117v-2v-784h-338v733q0 95 -32.5 132.5t-92.5 37.5q-118 0 -185 -117v-786h-337v1118l294 -190q48 85 144 140.5t225 55.5q104 0 181 -43.5t114 -136.5
q49 79 140 129.5t210 50.5z" />
    <glyph glyph-name="n" unicode="n" horiz-adv-x="1271" 
d="M815 1124q322 0 322 -340v-784h-338v748q0 83 -32 118t-95 35q-120 0 -183 -115v-786h-337v1112l305 -178q51 81 143.5 135.5t214.5 54.5z" />
    <glyph glyph-name="o" unicode="o" horiz-adv-x="1257" 
d="M629 -31q-117 0 -218 38t-177.5 109.5t-120 183t-43.5 249.5q0 137 43.5 247.5t120 181.5t177.5 108.5t218 37.5t218 -37.5t177.5 -108.5t120 -181.5t43.5 -247.5q0 -138 -43.5 -249.5t-120 -183t-177.5 -109.5t-218 -38zM629 123q95 0 151 104.5t56 321.5t-56.5 323.5
t-150.5 106.5t-150.5 -106.5t-56.5 -323.5t56 -321.5t151 -104.5z" />
    <glyph glyph-name="p" unicode="p" horiz-adv-x="1269" 
d="M764 1124q94 0 171.5 -30t138.5 -91.5t94.5 -165t33.5 -241.5q0 -155 -38 -276t-107 -197t-160.5 -115t-202.5 -39q-130 0 -221 68v-416h-336v1493l287 -153q125 163 340 163zM618 127q108 0 168 124.5t60 344.5q0 178 -51 270t-148 92q-109 0 -174 -112v-617
q42 -102 145 -102z" />
    <glyph glyph-name="q" unicode="q" horiz-adv-x="1261" 
d="M879 989l245 123v-1491h-336v418q-113 -70 -258 -70q-222 0 -341 140t-119 409q0 277 139.5 441.5t368.5 164.5q196 0 301 -135zM639 139q83 0 149 66v702q-53 70 -126 70q-113 0 -175.5 -121.5t-62.5 -329.5q0 -196 56.5 -291.5t158.5 -95.5z" />
    <glyph glyph-name="r" unicode="r" horiz-adv-x="911" 
d="M846 1094v-463l-275 252q-52 -75 -82 -140v-743h-337v1122l305 -168q84 164 237 164q75 0 152 -24z" />
    <glyph glyph-name="s" unicode="s" horiz-adv-x="1015" 
d="M453 113q-23 0 -33 2l-328 307v-406q63 -21 165.5 -34t201.5 -13q245 0 363 97t118 270q0 155 -86 237t-258 121q-141 35 -196.5 71t-55.5 99q0 119 193 119h22l303 -289v383q-52 20 -146 33.5t-190 13.5q-228 0 -342 -92.5t-114 -249.5q0 -150 88.5 -236t265.5 -126
q143 -32 192.5 -66.5t49.5 -101.5t-58.5 -103t-154.5 -36z" />
    <glyph glyph-name="t" unicode="t" horiz-adv-x="991" 
d="M606 115l320 352v-449q-139 -49 -314 -49q-393 0 -393 416v563h-201v146h201v280h338v-280h324v-146h-324v-633q0 -148 49 -200z" />
    <glyph glyph-name="u" unicode="u" horiz-adv-x="1255" 
d="M782 1094h338v-1112l-303 176q-50 -82 -142.5 -135.5t-215.5 -53.5q-324 0 -324 340v785h338v-746q0 -84 33 -119.5t96 -35.5q116 0 180 114v787z" />
    <glyph glyph-name="v" unicode="v" horiz-adv-x="1155" 
d="M674 158l289 936h167l-366 -1094h-375l-366 1094h364z" />
    <glyph glyph-name="w" unicode="w" horiz-adv-x="1849" 
d="M1425 326l236 768h166l-367 -1094h-268l-264 758l-262 -758h-277l-366 1094h364l242 -789l250 789h297z" />
    <glyph glyph-name="x" unicode="x" horiz-adv-x="1103" 
d="M721 588l356 -588h-354l-254 412l-258 -412h-182l354 532l-352 562h375l227 -379l231 379h185z" />
    <glyph glyph-name="y" unicode="y" horiz-adv-x="1148" 
d="M672 158l289 936h167l-481 -1473h-366l333 379h-227l-367 1094h365z" />
    <glyph glyph-name="z" unicode="z" horiz-adv-x="1112" 
d="M504 145h237l291 383v-528h-936v106l500 842h-244l-280 -399v545h927v-107z" />
    <glyph glyph-name="braceleft" unicode="{" horiz-adv-x="931" 
d="M559 86q0 -39 3.5 -67.5t19 -67t43 -66t80 -52.5t126.5 -38q-97 -15 -178 -15t-139 12.5t-103 35t-73 51t-46 64t-25 70.5t-7 73q0 85 46 225t46 213q0 58 -29.5 88.5t-103.5 30.5h-119v145h119q74 0 103.5 30.5t29.5 90.5q0 64 -46 205t-46 227q0 38 6.5 72.5t24.5 70.5
t45.5 64.5t72.5 51.5t103 35t139.5 12t179.5 -15q-74 -13 -126.5 -38t-80 -52.5t-43 -66t-19 -67t-3.5 -67.5q0 -65 37 -210t37 -216q0 -95 -50 -142.5t-128 -57.5q79 -12 128.5 -60t49.5 -143q0 -72 -37 -216.5t-37 -209.5z" />
    <glyph glyph-name="bar" unicode="|" horiz-adv-x="821" 
d="M317 -307v2015h187v-2015h-187z" />
    <glyph glyph-name="braceright" unicode="}" horiz-adv-x="931" 
d="M713 788h118v-145h-118q-74 0 -104.5 -30.5t-30.5 -88.5q0 -73 47 -213t47 -225q0 -38 -7 -73t-25.5 -70.5t-46.5 -64t-73.5 -51t-103.5 -35t-139 -12.5t-177 15q74 13 126.5 38t80.5 52.5t43.5 66t19 67t3.5 67.5q0 65 -38 209.5t-38 216.5q0 95 50 143t128 60
q-77 10 -127.5 57.5t-50.5 142.5q0 71 38 216t38 210q0 39 -3.5 67.5t-19 67t-43.5 66t-80.5 52.5t-126.5 38q98 15 179.5 15t140 -12t103.5 -35t72.5 -51.5t45 -64.5t24.5 -70.5t7 -72.5q0 -86 -47 -227t-47 -205q0 -59 30.5 -90t104.5 -31z" />
    <glyph glyph-name="asciitilde" unicode="~" horiz-adv-x="1132" 
d="M373 604q-78 0 -135.5 -24t-114.5 -72v184q58 39 115.5 58.5t138.5 19.5q59 0 113.5 -16.5t89.5 -36.5t83.5 -36.5t96.5 -16.5q78 0 135.5 24t114.5 72v-185q-59 -40 -116.5 -59t-137.5 -18q-57 0 -110 16.5t-87.5 36.5t-84.5 36.5t-101 16.5z" />
    <glyph glyph-name="exclamdown" unicode="&#xa1;" horiz-adv-x="704" 
d="M356 1126q74 0 127.5 -53.5t53.5 -126.5q0 -75 -53.5 -127.5t-127.5 -52.5q-75 0 -127.5 52.5t-52.5 127.5q0 74 52.5 127t127.5 53zM172 233l180 416l178 -416v-538h-358v538z" />
    <glyph glyph-name="cent" unicode="&#xa2;" horiz-adv-x="1126" 
d="M1030 598q1 -161 -82 -262t-223 -133v-203h-143v188q-237 3 -371.5 135t-134.5 345q0 222 135.5 359.5t370.5 162.5v215h143v-211q191 -9 291 -51v-385l-291 289v-635q213 6 305 186zM416 723q0 -109 42 -183t124 -106v596q-82 -35 -124 -115t-42 -192z" />
    <glyph glyph-name="sterling" unicode="&#xa3;" horiz-adv-x="1306" 
d="M436 195l811 180v-375h-1192v176q175 46 248.5 108t73.5 156q0 81 -64 193h-252v145h175q-48 112 -48 232q0 194 145 308t423 114q137 0 250.5 -17.5t171.5 -42.5v-526l-351 428h-26q-107 0 -163 -65t-56 -175q0 -47 8 -96t16 -77.5t25 -82.5h383v-145h-348q6 -47 6 -98
q0 -111 -62.5 -197.5t-173.5 -142.5z" />
    <glyph glyph-name="yen" unicode="&#xa5;" horiz-adv-x="1380" 
d="M928 1403h426l-434 -678h274v-162h-330v-168h330v-159h-330v-236h-362v236h-330v159h330v168h-330v162h272l-417 678h430l327 -598l160 266z" />
    <glyph glyph-name="brokenbar" unicode="&#xa6;" horiz-adv-x="821" 
d="M504 801h-187v907h187v-907zM317 598h187v-905h-187v905z" />
    <glyph glyph-name="section" unicode="&#xa7;" horiz-adv-x="1355" 
d="M1288 670q0 -119 -79 -190t-238 -101q176 -93 176 -293q0 -170 -120.5 -260t-364.5 -90q-128 0 -243 14.5t-171 34.5v375l375 -277h10q239 0 239 135q0 44 -26 71.5t-96.5 49t-200.5 37.5q-249 33 -364 111t-115 219q0 115 80 185t239 100q-176 95 -176 299
q0 163 126 253.5t374 90.5q249 0 399 -52v-372l-377 276h-12q-236 0 -236 -133q0 -45 26 -73.5t96.5 -50t199.5 -36.5q253 -32 366 -108.5t113 -214.5zM731 453q137 7 197.5 36t60.5 82q0 59 -66.5 88.5t-226.5 47.5q-30 3 -67 10q-260 -16 -260 -117q0 -59 66.5 -89
t226.5 -48q21 -2 69 -10z" />
    <glyph glyph-name="copyright" unicode="&#xa9;" horiz-adv-x="1759" 
d="M879 1434q162 0 302 -50t244 -142t164 -232t60 -310t-60 -309t-164 -230.5t-244 -141.5t-302 -50q-161 0 -300.5 50t-243.5 141.5t-164 230.5t-60 309t60 310t164 232t243.5 142t300.5 50zM879 90q183 0 325 70t225.5 209.5t83.5 330.5q0 145 -48 262t-133.5 193
t-201 117t-251.5 41t-251 -41t-200.5 -117t-133.5 -193t-48 -262q0 -191 83.5 -330.5t225.5 -209.5t324 -70zM436 709q0 216 130.5 334t357.5 118q190 0 293 -47v-334l-259 252q-99 -9 -150.5 -96.5t-51.5 -226.5q0 -134 48 -221.5t142 -100.5l271 250v-332
q-108 -49 -293 -49q-227 0 -357.5 118.5t-130.5 334.5z" />
    <glyph glyph-name="ordfeminine" unicode="&#xaa;" horiz-adv-x="763" 
d="M664 1202v-461l-199 99q-33 -44 -90 -71.5t-127 -27.5q-90 0 -135 47t-45 123q0 84 53 135t170 87q82 26 116.5 51t34.5 73q0 78 -106 78h-12l-203 -196v256q35 15 110.5 27t153.5 12q146 0 212.5 -52t66.5 -180zM293 938q0 -64 63 -64q48 0 82 31v203q-28 -31 -73 -57
q-72 -45 -72 -113z" />
    <glyph glyph-name="guillemotleft" unicode="&#xab;" horiz-adv-x="1126" 
d="M72 596l600 440l-240 -438l240 -422zM510 596l532 440l-178 -438l178 -422z" />
    <glyph glyph-name="logicalnot" unicode="&#xac;" horiz-adv-x="1171" 
d="M129 729h913v-444h-172v282h-741v162z" />
    <glyph glyph-name="registered" unicode="&#xae;" horiz-adv-x="1161" 
d="M580 1434q93 0 175.5 -30.5t145.5 -86.5t100 -142t37 -190t-37 -189.5t-100 -141t-145.5 -85.5t-175.5 -30q-125 0 -227.5 51t-166 154t-63.5 241q0 104 36.5 190t99.5 142t145.5 86.5t175.5 30.5zM580 629q156 0 257 94.5t101 261.5q0 168 -101 263t-257 95t-256.5 -95
t-100.5 -263q0 -167 100.5 -261.5t256.5 -94.5zM750 885l8 -41l59 63v-149q-25 -15 -72 -15q-109 0 -127 105l-10 43q-6 37 -20 49t-51 12h-15v-196h-143v475h250q159 0 159 -117q0 -55 -35.5 -87t-99.5 -40q38 -5 62 -28t35 -74zM522 1026h33q82 0 82 68q0 34 -20 46.5
t-62 12.5h-33v-127z" />
    <glyph glyph-name="degree" unicode="&#xb0;" horiz-adv-x="1040" 
d="M520 721q154 0 259.5 95.5t105.5 260.5q0 164 -106 260.5t-259 96.5t-258.5 -96.5t-105.5 -260.5q0 -165 105.5 -260.5t258.5 -95.5zM520 1266q78 0 129 -50.5t51 -138.5q0 -89 -51 -138.5t-129 -49.5t-129 49.5t-51 138.5q0 88 51 138.5t129 50.5z" />
    <glyph glyph-name="plusminus" unicode="&#xb1;" horiz-adv-x="1196" 
d="M684 1059v-264h371v-162h-371v-264h-172v264h-371v162h371v264h172zM1055 102h-914v162h914v-162z" />
    <glyph glyph-name="paragraph" unicode="&#xb6;" horiz-adv-x="1449" 
d="M1237 1403v-932q0 -110 -17.5 -201t-49 -157.5t-77.5 -117t-99 -82.5t-119 -52.5t-132 -28.5t-143 -8q-96 0 -199.5 14t-171.5 31v446l424 -348q91 4 159.5 30t121 80t79.5 146.5t27 222.5v789h-137v-1028h-196v319h-56q-253 0 -393.5 108t-140.5 331t140.5 330.5
t393.5 107.5h586z" />
    <glyph glyph-name="periodcentered" unicode="&#xb7;" horiz-adv-x="669" 
d="M336 496q-82 0 -139.5 57t-57.5 139q0 80 58 137.5t139 57.5q79 0 136.5 -57.5t57.5 -137.5q0 -81 -57 -138.5t-137 -57.5z" />
    <glyph glyph-name="ordmasculine" unicode="&#xba;" horiz-adv-x="819" 
d="M412 733q-151 0 -250 93t-99 257q0 163 99 255t250 92q147 0 245.5 -92t98.5 -255q0 -164 -98.5 -257t-245.5 -93zM412 838q106 0 106 245q0 128 -28.5 189t-77.5 61q-50 0 -80.5 -61.5t-30.5 -188.5t30 -186t81 -59z" />
    <glyph glyph-name="guillemotright" unicode="&#xbb;" horiz-adv-x="1126" 
d="M84 1036l532 -440l-532 -420l178 422zM694 598l-239 438l600 -440l-600 -420z" />
    <glyph glyph-name="onequarter" unicode="&#xbc;" horiz-adv-x="1730" 
d="M375 1438v-865h-244v666l-86 96zM137 0l1041 1403h219l-1041 -1403h-219zM1518 262l151 195v-322h-156v-135h-243v135h-381v125l360 582h264v-580h5zM1270 690l-264 -428h264v428z" />
    <glyph glyph-name="onehalf" unicode="&#xbd;" horiz-adv-x="1773" 
d="M375 573h-244v666l-86 96l330 103v-865zM113 0l1040 1403h219l-1040 -1403h-219zM1419 252l-217 -152l496 138v-238h-645v106l159 148q104 96 146.5 171t42.5 163q0 154 -139 166l-211 -250v317q36 14 116 26.5t166 12.5q158 0 245 -68.5t87 -191.5q0 -109 -59 -183.5
t-187 -164.5z" />
    <glyph glyph-name="threequarters" unicode="&#xbe;" horiz-adv-x="1937" 
d="M713 786q0 -114 -93 -174.5t-270 -60.5q-171 0 -278 35v286l229 -219q83 3 123.5 46t40.5 108q0 60 -42 93.5t-130 33.5h-107v108h99q83 0 124.5 42t41.5 110q0 59 -36 93.5t-106 37.5l-225 -211v283q38 13 115 24t166 11q157 0 245 -55.5t88 -159.5q0 -85 -54.5 -145.5
t-158.5 -80.5q111 -15 169.5 -70.5t58.5 -134.5zM346 0l1040 1403h220l-1041 -1403h-219zM1724 262l152 195v-322h-158v-135h-241v135h-381v125l360 582h262v-580h6zM1477 690l-267 -428h267v428z" />
    <glyph glyph-name="questiondown" unicode="&#xbf;" horiz-adv-x="1150" 
d="M686 770q-74 0 -126 52t-52 126t52 126t126 52t126 -52t52 -126t-52 -126t-126 -52zM719 -188l336 393v-494q-62 -18 -188.5 -33.5t-274.5 -15.5q-259 0 -399 90t-140 262q0 166 110.5 268t362.5 134l166 260l160 -314l-94 -26q-162 -46 -234.5 -121.5t-72.5 -187.5
q0 -101 69.5 -157.5t198.5 -57.5z" />
    <glyph glyph-name="Agrave" unicode="&#xc0;" horiz-adv-x="1478" 
d="M315 1774h396l145 -299zM1436 0h-373l-143 426h-551l88 -426h-416l489 1403h433zM639 1255l-219 -675h448z" />
    <glyph glyph-name="Aacute" unicode="&#xc1;" horiz-adv-x="1478" 
d="M608 1475l146 299h397zM1436 0h-373l-143 426h-551l88 -426h-416l489 1403h433zM639 1255l-219 -675h448z" />
    <glyph glyph-name="Acircumflex" unicode="&#xc2;" horiz-adv-x="1478" 
d="M748 1952l360 -412l-360 135l-359 -135zM1436 0h-373l-143 426h-551l88 -426h-416l489 1403h433zM639 1255l-219 -675h448z" />
    <glyph glyph-name="Atilde" unicode="&#xc3;" horiz-adv-x="1478" 
d="M575 1757q-55 0 -89.5 -35t-69.5 -114q0 166 54 247.5t146 81.5q50 0 93 -23.5t68.5 -51t63.5 -51t79 -23.5q54 0 87 34.5t70 114.5q0 -166 -54 -247.5t-146 -81.5q-41 0 -76.5 15.5t-60 37t-48.5 43.5t-53.5 37.5t-63.5 15.5zM1436 0h-373l-143 426h-551l88 -426h-416
l489 1403h433zM639 1255l-219 -675h448z" />
    <glyph glyph-name="Adieresis" unicode="&#xc4;" horiz-adv-x="1478" 
d="M489 1518q-69 0 -116 47.5t-47 115.5t47 116t116 48q66 0 114 -48.5t48 -115.5t-48 -115t-114 -48zM1008 1518q-69 0 -117.5 47.5t-48.5 115.5t48.5 116t117.5 48q66 0 112.5 -48t46.5 -116t-46.5 -115.5t-112.5 -47.5zM1436 0h-373l-143 426h-551l88 -426h-416l489 1403
h433zM639 1255l-219 -675h448z" />
    <glyph glyph-name="Aring" unicode="&#xc5;" horiz-adv-x="1478" 
d="M745 1516q-113 0 -192.5 70.5t-79.5 191.5q0 119 80 190.5t192 71.5q113 0 193 -71.5t80 -190.5q0 -121 -79.5 -191.5t-193.5 -70.5zM745 1929q-67 0 -109 -40t-42 -111q0 -73 42 -113.5t109 -40.5q68 0 111 40.5t43 113.5q0 71 -43 111t-111 40zM1436 0h-373l-143 426
h-551l88 -426h-416l489 1403h433zM639 1255l-219 -675h448z" />
    <glyph glyph-name="AE" unicode="&#xc6;" horiz-adv-x="1935" 
d="M1864 1403v-160h-654l31 -426h479v-160h-467l35 -497h576v-160h-928l-33 438h-487l-45 -80l20 -358h-424l791 1403h1106zM848 1219l-348 -627h393z" />
    <glyph glyph-name="Ccedilla" unicode="&#xc7;" horiz-adv-x="1468" 
d="M924 1270q-211 0 -319.5 -150t-108.5 -420t107 -418.5t321 -148.5q9 0 27.5 1t27.5 1l344 377v-481q-59 -26 -171.5 -44t-262.5 -18h-41l-29 -65q137 2 217 -47t80 -146q0 -102 -68.5 -154.5t-185.5 -52.5q-122 0 -202 53.5t-115 137.5q60 -34 109.5 -49t109.5 -15
q139 0 139 93q0 29 -16 49.5t-47.5 32t-72 17t-97.5 7.5l65 150q-294 40 -464.5 228t-170.5 492q0 227 100 394.5t277.5 253.5t411.5 86q151 0 263.5 -18.5t170.5 -45.5v-512l-352 410q-14 2 -47 2z" />
    <glyph glyph-name="Egrave" unicode="&#xc8;" horiz-adv-x="1239" 
d="M272 1774h396l145 -299zM1165 1403v-162h-628v-420h485v-159h-485v-500h628v-162h-991v1403h991z" />
    <glyph glyph-name="Eacute" unicode="&#xc9;" horiz-adv-x="1239" 
d="M565 1475l146 299h397zM1165 1403v-162h-628v-420h485v-159h-485v-500h628v-162h-991v1403h991z" />
    <glyph glyph-name="Ecircumflex" unicode="&#xca;" horiz-adv-x="1239" 
d="M702 1952l361 -412l-361 135l-358 -135zM1165 1403v-162h-628v-420h485v-159h-485v-500h628v-162h-991v1403h991z" />
    <glyph glyph-name="Edieresis" unicode="&#xcb;" horiz-adv-x="1239" 
d="M446 1518q-69 0 -116 47.5t-47 115.5t47 116t116 48q66 0 114 -48.5t48 -115.5t-48 -115t-114 -48zM965 1518q-69 0 -117.5 47.5t-48.5 115.5t48.5 116t117.5 48q66 0 112.5 -48t46.5 -116t-46.5 -115.5t-112.5 -47.5zM1165 1403v-162h-628v-420h485v-159h-485v-500h628
v-162h-991v1403h991z" />
    <glyph glyph-name="Igrave" unicode="&#xcc;" horiz-adv-x="710" 
d="M465 1475l-541 299h395zM174 0v1403h363v-1403h-363z" />
    <glyph glyph-name="Iacute" unicode="&#xcd;" horiz-adv-x="710" 
d="M362 1774h398l-543 -299zM174 0v1403h363v-1403h-363z" />
    <glyph glyph-name="Icircumflex" unicode="&#xce;" horiz-adv-x="710" 
d="M354 1952l361 -412l-361 135l-358 -135zM537 0h-363v1403h363v-1403z" />
    <glyph glyph-name="Idieresis" unicode="&#xcf;" horiz-adv-x="710" 
d="M98 1518q-69 0 -116.5 47.5t-47.5 115.5t47.5 116t116.5 48q66 0 114 -48.5t48 -115.5t-48 -115t-114 -48zM616 1518q-69 0 -117 47.5t-48 115.5t48 116t117 48q66 0 113 -48t47 -116q0 -67 -47 -115t-113 -48zM174 0v1403h363v-1403h-363z" />
    <glyph glyph-name="Eth" unicode="&#xd0;" horiz-adv-x="1638" 
d="M723 1403q396 0 605.5 -175t209.5 -528q0 -700 -815 -700h-510v670h-221v147h221v586h510zM575 160h107q246 0 353.5 132t107.5 408t-109 409.5t-352 133.5h-107v-426h310v-147h-310v-510z" />
    <glyph glyph-name="Ntilde" unicode="&#xd1;" horiz-adv-x="1505" 
d="M664 1757q-56 0 -90.5 -35t-69.5 -114q0 166 54.5 247.5t146.5 81.5q41 0 76 -15.5t60 -37.5t49 -43.5t54 -37t64 -15.5q54 0 87 34.5t70 114.5q0 -166 -54 -247.5t-146 -81.5q-41 0 -76 15.5t-60 37t-48.5 43.5t-53 37.5t-63.5 15.5zM1145 330v1073h188v-1403h-405
l-568 1071v-1071h-186v1403h395z" />
    <glyph glyph-name="Ograve" unicode="&#xd2;" horiz-adv-x="1650" 
d="M934 1475l-541 299h395zM825 -31q-206 0 -370 88t-259.5 255.5t-95.5 387.5q0 221 95.5 389t259.5 256.5t370 88.5q205 0 368.5 -88.5t259 -256.5t95.5 -389q0 -220 -95.5 -387.5t-259 -255.5t-368.5 -88zM825 135q154 0 241 146t87 419q0 274 -87 421t-241 147
q-155 0 -241 -147t-86 -421t86 -419.5t241 -145.5z" />
    <glyph glyph-name="Oacute" unicode="&#xd3;" horiz-adv-x="1650" 
d="M831 1774h398l-543 -299zM825 -31q-206 0 -370 88t-259.5 255.5t-95.5 387.5q0 221 95.5 389t259.5 256.5t370 88.5q205 0 368.5 -88.5t259 -256.5t95.5 -389q0 -220 -95.5 -387.5t-259 -255.5t-368.5 -88zM825 135q154 0 241 146t87 419q0 274 -87 421t-241 147
q-155 0 -241 -147t-86 -421t86 -419.5t241 -145.5z" />
    <glyph glyph-name="Ocircumflex" unicode="&#xd4;" horiz-adv-x="1650" 
d="M825 1952l361 -412l-361 135l-358 -135zM825 1434q205 0 368.5 -88.5t259 -256.5t95.5 -389q0 -220 -95.5 -387.5t-259 -255.5t-368.5 -88q-206 0 -370 88t-259.5 255.5t-95.5 387.5q0 221 95.5 389t259.5 256.5t370 88.5zM825 135q154 0 241 146t87 419q0 274 -87 421
t-241 147q-155 0 -241 -147t-86 -421t86 -419.5t241 -145.5z" />
    <glyph glyph-name="Otilde" unicode="&#xd5;" horiz-adv-x="1650" 
d="M494 1608q35 79 69.5 114t89.5 35q34 0 63.5 -15.5t53 -37.5t48.5 -43.5t60 -37t76 -15.5q92 0 146.5 81.5t54.5 247.5q-37 -80 -70.5 -114.5t-87.5 -34.5q-34 0 -64 15.5t-54 37t-49 43.5t-60 37.5t-76 15.5q-92 0 -146 -81.5t-54 -247.5zM825 -31q-206 0 -370 88
t-259.5 255.5t-95.5 387.5q0 221 95.5 389t259.5 256.5t370 88.5q205 0 368.5 -88.5t259 -256.5t95.5 -389q0 -220 -95.5 -387.5t-259 -255.5t-368.5 -88zM825 135q154 0 241 146t87 419q0 274 -87 421t-241 147q-155 0 -241 -147t-86 -421t86 -419.5t241 -145.5z" />
    <glyph glyph-name="Odieresis" unicode="&#xd6;" horiz-adv-x="1650" 
d="M567 1518q-69 0 -116.5 47.5t-47.5 115.5t47.5 116t116.5 48q66 0 114 -48.5t48 -115.5t-48 -115t-114 -48zM1085 1518q-69 0 -117 47.5t-48 115.5t48 116t117 48q66 0 113 -48t47 -116q0 -67 -47 -115t-113 -48zM825 -31q-206 0 -370 88t-259.5 255.5t-95.5 387.5
q0 221 95.5 389t259.5 256.5t370 88.5q205 0 368.5 -88.5t259 -256.5t95.5 -389q0 -220 -95.5 -387.5t-259 -255.5t-368.5 -88zM825 135q154 0 241 146t87 419q0 274 -87 421t-241 147q-155 0 -241 -147t-86 -421t86 -419.5t241 -145.5z" />
    <glyph glyph-name="multiply" unicode="&#xd7;" horiz-adv-x="1054" 
d="M795 1022l112 -113l-266 -266l266 -266l-114 -115l-265 266l-266 -266l-115 115l267 266l-267 266l113 113l268 -266z" />
    <glyph glyph-name="Oslash" unicode="&#xd8;" horiz-adv-x="1650" 
d="M1497 1294l-108 -110q159 -196 159 -484q0 -220 -95.5 -387.5t-259 -255.5t-368.5 -88q-277 0 -473 160l-106 -109l-129 125l112 115q-129 184 -129 440q0 221 95.5 389t259.5 256.5t370 88.5q247 0 430 -129l113 114zM498 700q0 -94 8 -157l563 573q-87 152 -244 152
q-155 0 -241 -147t-86 -421zM825 135q154 0 241 146t87 419q0 124 -18 226l-578 -590q84 -201 268 -201z" />
    <glyph glyph-name="Ugrave" unicode="&#xd9;" horiz-adv-x="1529" 
d="M874 1475l-540 299h395zM764 -31q-142 0 -255 38t-196.5 114.5t-128.5 200.5t-45 288v793h363v-844q0 -224 66.5 -324t195.5 -100t195.5 100t66.5 324v844h365v-793q0 -164 -45 -288t-129 -200.5t-197.5 -114.5t-255.5 -38z" />
    <glyph glyph-name="Uacute" unicode="&#xda;" horiz-adv-x="1529" 
d="M772 1774h397l-542 -299zM764 -31q-142 0 -255 38t-196.5 114.5t-128.5 200.5t-45 288v793h363v-844q0 -224 66.5 -324t195.5 -100t195.5 100t66.5 324v844h365v-793q0 -164 -45 -288t-129 -200.5t-197.5 -114.5t-255.5 -38z" />
    <glyph glyph-name="Ucircumflex" unicode="&#xdb;" horiz-adv-x="1529" 
d="M764 1952l360 -412l-360 135l-358 -135zM1026 559v844h365v-793q0 -164 -45 -288t-129 -200.5t-197.5 -114.5t-255.5 -38t-255 38t-196.5 114.5t-128.5 200.5t-45 288v793h363v-844q0 -224 66.5 -324t195.5 -100t195.5 100t66.5 324z" />
    <glyph glyph-name="Udieresis" unicode="&#xdc;" horiz-adv-x="1529" 
d="M508 1518q-69 0 -116.5 47.5t-47.5 115.5t47.5 116t116.5 48q66 0 114 -48.5t48 -115.5t-48 -115t-114 -48zM1026 1518q-69 0 -117.5 47.5t-48.5 115.5t48.5 116t117.5 48q66 0 113 -48t47 -116q0 -67 -47 -115t-113 -48zM764 -31q-142 0 -255 38t-196.5 114.5
t-128.5 200.5t-45 288v793h363v-844q0 -224 66.5 -324t195.5 -100t195.5 100t66.5 324v844h365v-793q0 -164 -45 -288t-129 -200.5t-197.5 -114.5t-255.5 -38z" />
    <glyph glyph-name="Yacute" unicode="&#xdd;" horiz-adv-x="1400" 
d="M590 1475l145 299h398zM977 1403h424l-527 -807v-596h-362v590l-512 813h432l373 -625l180 293z" />
    <glyph glyph-name="Thorn" unicode="&#xde;" horiz-adv-x="1394" 
d="M537 1159h241q271 0 415 -106t144 -344q0 -237 -144.5 -344t-414.5 -107h-241v-258h-363v1403h363v-244zM537 420h108q154 0 224.5 72.5t70.5 216.5t-71 217t-224 73h-108v-579z" />
    <glyph glyph-name="germandbls" unicode="&#xdf;" horiz-adv-x="1466" 
d="M772 1348q70 0 150 -17l-230 -502v-143q373 0 373 -297q0 -95 -38.5 -166.5t-111.5 -101.5l-253 239v-354q130 -33 278 -33q101 0 183 25t144 75.5t96 131.5t34 188q0 89 -31.5 160t-87.5 119t-126 78.5t-155 44.5l287 612q-231 98 -536 98q-306 0 -438 -132.5
t-132 -424.5v-948h338v1047q0 150 60.5 225.5t195.5 75.5z" />
    <glyph glyph-name="agrave" unicode="&#xe0;" horiz-adv-x="1173" 
d="M168 1612h362l111 -373zM1038 739l2 -737l-301 145q-51 -74 -146.5 -122t-219.5 -48q-145 0 -220 76t-75 201q3 144 91 221.5t284 142.5q50 17 83.5 30.5t69 33.5t56 41.5t34 52t13.5 66.5q0 72 -47 105.5t-146 33.5h-31l-299 -336v410q58 26 172.5 47.5t239.5 21.5
q86 0 151 -10.5t121 -36.5t91.5 -69t55.5 -110.5t21 -158.5zM537 182q95 0 165 66v362q-55 -52 -151 -106q-72 -41 -103.5 -89.5t-31.5 -115.5q0 -56 31 -86.5t90 -30.5z" />
    <glyph glyph-name="aacute" unicode="&#xe1;" horiz-adv-x="1173" 
d="M504 1239l110 373h363zM1038 739l2 -737l-301 145q-51 -74 -146.5 -122t-219.5 -48q-145 0 -220 76t-75 201q3 144 91 221.5t284 142.5q50 17 83.5 30.5t69 33.5t56 41.5t34 52t13.5 66.5q0 72 -47 105.5t-146 33.5h-31l-299 -336v410q58 26 172.5 47.5t239.5 21.5
q86 0 151 -10.5t121 -36.5t91.5 -69t55.5 -110.5t21 -158.5zM537 182q95 0 165 66v362q-55 -52 -151 -106q-72 -41 -103.5 -89.5t-31.5 -115.5q0 -56 31 -86.5t90 -30.5z" />
    <glyph glyph-name="acircumflex" unicode="&#xe2;" horiz-adv-x="1173" 
d="M586 1642l360 -411l-360 155l-359 -155zM1038 739l2 -737l-301 145q-51 -74 -146.5 -122t-219.5 -48q-145 0 -220 76t-75 201q3 144 91 221.5t284 142.5q50 17 83.5 30.5t69 33.5t56 41.5t34 52t13.5 66.5q0 72 -47 105.5t-146 33.5h-31l-299 -336v410q58 26 172.5 47.5
t239.5 21.5q86 0 151 -10.5t121 -36.5t91.5 -69t55.5 -110.5t21 -158.5zM537 182q95 0 165 66v362q-55 -52 -151 -106q-72 -41 -103.5 -89.5t-31.5 -115.5q0 -56 31 -86.5t90 -30.5z" />
    <glyph glyph-name="atilde" unicode="&#xe3;" horiz-adv-x="1173" 
d="M418 1466q-57 0 -92 -40t-70 -128q0 166 54.5 248t146.5 82q41 0 76 -17.5t60 -42t48 -49t52.5 -42t62.5 -17.5q57 0 91 39t71 129q0 -166 -54.5 -248t-146.5 -82q-41 0 -76 17.5t-60 42t-48 49t-52.5 42t-62.5 17.5zM1038 739l2 -737l-301 145q-51 -74 -146.5 -122
t-219.5 -48q-145 0 -220 76t-75 201q3 144 91 221.5t284 142.5q50 17 83.5 30.5t69 33.5t56 41.5t34 52t13.5 66.5q0 72 -47 105.5t-146 33.5h-31l-299 -336v410q58 26 172.5 47.5t239.5 21.5q86 0 151 -10.5t121 -36.5t91.5 -69t55.5 -110.5t21 -158.5zM537 182
q95 0 165 66v362q-55 -52 -151 -106q-72 -41 -103.5 -89.5t-31.5 -115.5q0 -56 31 -86.5t90 -30.5z" />
    <glyph glyph-name="adieresis" unicode="&#xe4;" horiz-adv-x="1173" 
d="M338 1251q-67 0 -114.5 47t-47.5 113t47.5 114t114.5 48q66 0 112 -48t46 -114t-46 -113t-112 -47zM840 1251q-69 0 -116.5 47t-47.5 113q0 67 48 114.5t116 47.5q64 0 110.5 -48t46.5 -114t-46 -113t-111 -47zM1038 739l2 -737l-301 145q-51 -74 -146.5 -122t-219.5 -48
q-145 0 -220 76t-75 201q3 144 91 221.5t284 142.5q50 17 83.5 30.5t69 33.5t56 41.5t34 52t13.5 66.5q0 72 -47 105.5t-146 33.5h-31l-299 -336v410q58 26 172.5 47.5t239.5 21.5q86 0 151 -10.5t121 -36.5t91.5 -69t55.5 -110.5t21 -158.5zM537 182q95 0 165 66v362
q-55 -52 -151 -106q-72 -41 -103.5 -89.5t-31.5 -115.5q0 -56 31 -86.5t90 -30.5z" />
    <glyph glyph-name="aring" unicode="&#xe5;" horiz-adv-x="1173" 
d="M586 1233q-106 0 -180 66.5t-74 179.5t74 179t180 66t181 -66.5t75 -178.5q0 -113 -75 -179.5t-181 -66.5zM586 1636q-70 0 -113 -41.5t-43 -115.5q0 -75 43.5 -116.5t112.5 -41.5q70 0 113.5 42t43.5 116t-43.5 115.5t-113.5 41.5zM1038 739l2 -737l-301 145
q-51 -74 -146.5 -122t-219.5 -48q-145 0 -220 76t-75 201q3 144 91 221.5t284 142.5q50 17 83.5 30.5t69 33.5t56 41.5t34 52t13.5 66.5q0 72 -47 105.5t-146 33.5h-31l-299 -336v410q58 26 172.5 47.5t239.5 21.5q86 0 151 -10.5t121 -36.5t91.5 -69t55.5 -110.5t21 -158.5
zM537 182q95 0 165 66v362q-55 -52 -151 -106q-72 -41 -103.5 -89.5t-31.5 -115.5q0 -56 31 -86.5t90 -30.5z" />
    <glyph glyph-name="ae" unicode="&#xe6;" horiz-adv-x="1796" 
d="M1247 1124q545 0 449 -624h-635q15 -150 82 -215.5t198 -65.5q243 0 349 193q1 -115 -36 -202t-102.5 -138.5t-148.5 -77t-182 -25.5q-292 0 -422 189q-62 -78 -168 -129.5t-238 -51.5q-159 0 -237 74.5t-78 200.5q1 74 25.5 130.5t75 99.5t117 74.5t163.5 61.5
q130 42 193 89.5t63 132.5q0 72 -47 104.5t-146 32.5h-16l-334 -332v410q58 26 177.5 47.5t238.5 21.5q120 0 201 -21.5t131 -74.5q137 96 327 96zM1247 977q-84 0 -136.5 -96.5t-53.5 -272.5l329 72q-1 165 -33 231t-106 66zM551 180q110 0 197 76q-48 121 -48 285
q0 33 2 47q-53 -53 -153 -109q-72 -39 -102.5 -80.5t-30.5 -97.5q0 -121 135 -121z" />
    <glyph glyph-name="ccedilla" unicode="&#xe7;" horiz-adv-x="1144" 
d="M1053 426q0 -210 -114 -325.5t-314 -129.5l-31 -67q133 0 210 -48.5t77 -144.5q0 -103 -65 -155t-181 -52t-195 54t-114 137q61 -35 111 -49.5t110 -14.5q121 0 121 88q0 54 -59 77t-173 26l64 151q-202 22 -316 167t-114 380q0 276 161.5 440t442.5 164
q105 0 198.5 -18.5t145.5 -44.5v-465l-330 377q-127 -10 -195.5 -118t-68.5 -273q0 -175 73.5 -270t221.5 -95q227 0 334 209z" />
    <glyph glyph-name="egrave" unicode="&#xe8;" horiz-adv-x="1163" 
d="M203 1612h362l111 -373zM614 1124q545 0 451 -624h-637q15 -150 82.5 -215.5t198.5 -65.5q242 0 350 193q0 -115 -37 -202t-103 -138.5t-149 -77t-182 -25.5q-252 0 -385 145t-133 427q0 277 150.5 430t393.5 153zM614 977q-84 0 -136.5 -96.5t-53.5 -272.5l330 72
q-1 165 -33 231t-107 66z" />
    <glyph glyph-name="eacute" unicode="&#xe9;" horiz-adv-x="1163" 
d="M539 1239l110 373h363zM614 1124q545 0 451 -624h-637q15 -150 82.5 -215.5t198.5 -65.5q242 0 350 193q0 -115 -37 -202t-103 -138.5t-149 -77t-182 -25.5q-252 0 -385 145t-133 427q0 277 150.5 430t393.5 153zM614 977q-84 0 -136.5 -96.5t-53.5 -272.5l330 72
q-1 165 -33 231t-107 66z" />
    <glyph glyph-name="ecircumflex" unicode="&#xea;" horiz-adv-x="1163" 
d="M623 1642l360 -411l-360 155l-359 -155zM614 1124q545 0 451 -624h-637q15 -150 82.5 -215.5t198.5 -65.5q242 0 350 193q0 -115 -37 -202t-103 -138.5t-149 -77t-182 -25.5q-252 0 -385 145t-133 427q0 277 150.5 430t393.5 153zM614 977q-84 0 -136.5 -96.5
t-53.5 -272.5l330 72q-1 165 -33 231t-107 66z" />
    <glyph glyph-name="edieresis" unicode="&#xeb;" horiz-adv-x="1163" 
d="M373 1251q-67 0 -114.5 47t-47.5 113t47.5 114t114.5 48q66 0 111.5 -48t45.5 -114t-45.5 -113t-111.5 -47zM874 1251q-69 0 -116 47t-47 113q0 67 47.5 114.5t115.5 47.5q64 0 111 -48t47 -114t-46.5 -113t-111.5 -47zM614 1124q545 0 451 -624h-637
q15 -150 82.5 -215.5t198.5 -65.5q242 0 350 193q0 -115 -37 -202t-103 -138.5t-149 -77t-182 -25.5q-252 0 -385 145t-133 427q0 277 150.5 430t393.5 153zM614 977q-84 0 -136.5 -96.5t-53.5 -272.5l330 72q-1 165 -33 231t-107 66z" />
    <glyph glyph-name="igrave" unicode="&#xec;" horiz-adv-x="641" 
d="M264 1612l111 -373l-473 373h362zM489 1094v-1094h-337v1094h337z" />
    <glyph glyph-name="iacute" unicode="&#xed;" horiz-adv-x="641" 
d="M238 1239l110 373h363zM489 1094v-1094h-337v1094h337z" />
    <glyph glyph-name="icircumflex" unicode="&#xee;" horiz-adv-x="641" 
d="M-39 1231l358 411l361 -411l-361 155zM489 1094v-1094h-337v1094h337z" />
    <glyph glyph-name="idieresis" unicode="&#xef;" horiz-adv-x="641" 
d="M72 1251q-67 0 -114.5 47t-47.5 113t47.5 114t114.5 48q66 0 111.5 -48t45.5 -114t-45.5 -113t-111.5 -47zM573 1251q-69 0 -116 47t-47 113q0 67 47.5 114.5t115.5 47.5q64 0 111 -48t47 -114t-46.5 -113t-111.5 -47zM489 1094v-1094h-337v1094h337z" />
    <glyph glyph-name="eth" unicode="&#xf0;" horiz-adv-x="1296" 
d="M1178 1462l63 -127l-197 -104q175 -197 175 -535q0 -348 -164.5 -537.5t-450.5 -189.5q-269 0 -408 128t-139 343q0 207 130.5 318.5t336.5 111.5q210 0 332 -131q-6 207 -78 348l-260 -139l-61 125l237 129q-171 174 -544 168q157 64 382 64q234 0 398 -105zM610 135
q216 0 242 428q-37 72 -96.5 111t-132.5 39q-106 0 -161.5 -68.5t-55.5 -204.5q0 -142 53.5 -223.5t150.5 -81.5z" />
    <glyph glyph-name="ntilde" unicode="&#xf1;" horiz-adv-x="1271" 
d="M467 1466q-57 0 -92 -40t-70 -128q0 166 54.5 248t146.5 82q41 0 76 -17.5t60 -42t48 -49t52.5 -42t62.5 -17.5q57 0 91 39t71 129q0 -166 -54.5 -248t-146.5 -82q-41 0 -76 17.5t-60 42t-48 49t-52.5 42t-62.5 17.5zM815 1124q322 0 322 -340v-784h-338v748
q0 83 -32 118t-95 35q-120 0 -183 -115v-786h-337v1112l305 -178q51 81 143.5 135.5t214.5 54.5z" />
    <glyph glyph-name="ograve" unicode="&#xf2;" horiz-adv-x="1257" 
d="M571 1612l111 -373l-473 373h362zM629 -31q-117 0 -218 38t-177.5 109.5t-120 183t-43.5 249.5q0 137 43.5 247.5t120 181.5t177.5 108.5t218 37.5t218 -37.5t177.5 -108.5t120 -181.5t43.5 -247.5q0 -138 -43.5 -249.5t-120 -183t-177.5 -109.5t-218 -38zM629 123
q95 0 151 104.5t56 321.5t-56.5 323.5t-150.5 106.5t-150.5 -106.5t-56.5 -323.5t56 -321.5t151 -104.5z" />
    <glyph glyph-name="oacute" unicode="&#xf3;" horiz-adv-x="1257" 
d="M545 1239l110 373h363zM629 -31q-117 0 -218 38t-177.5 109.5t-120 183t-43.5 249.5q0 137 43.5 247.5t120 181.5t177.5 108.5t218 37.5t218 -37.5t177.5 -108.5t120 -181.5t43.5 -247.5q0 -138 -43.5 -249.5t-120 -183t-177.5 -109.5t-218 -38zM629 123q95 0 151 104.5
t56 321.5t-56.5 323.5t-150.5 106.5t-150.5 -106.5t-56.5 -323.5t56 -321.5t151 -104.5z" />
    <glyph glyph-name="ocircumflex" unicode="&#xf4;" horiz-adv-x="1257" 
d="M270 1231l359 411l360 -411l-360 155zM629 -31q-117 0 -218 38t-177.5 109.5t-120 183t-43.5 249.5q0 137 43.5 247.5t120 181.5t177.5 108.5t218 37.5t218 -37.5t177.5 -108.5t120 -181.5t43.5 -247.5q0 -138 -43.5 -249.5t-120 -183t-177.5 -109.5t-218 -38zM629 123
q95 0 151 104.5t56 321.5t-56.5 323.5t-150.5 106.5t-150.5 -106.5t-56.5 -323.5t56 -321.5t151 -104.5z" />
    <glyph glyph-name="otilde" unicode="&#xf5;" horiz-adv-x="1257" 
d="M299 1298q35 88 70 128t92 40q33 0 62.5 -17.5t52.5 -42t48 -49t60 -42t76 -17.5q92 0 146.5 82t54.5 248q-37 -90 -71 -129t-91 -39q-33 0 -62.5 17.5t-52.5 42t-48 49t-60 42t-76 17.5q-92 0 -146.5 -82t-54.5 -248zM629 -31q-117 0 -218 38t-177.5 109.5t-120 183
t-43.5 249.5q0 137 43.5 247.5t120 181.5t177.5 108.5t218 37.5t218 -37.5t177.5 -108.5t120 -181.5t43.5 -247.5q0 -138 -43.5 -249.5t-120 -183t-177.5 -109.5t-218 -38zM629 123q95 0 151 104.5t56 321.5t-56.5 323.5t-150.5 106.5t-150.5 -106.5t-56.5 -323.5t56 -321.5
t151 -104.5z" />
    <glyph glyph-name="odieresis" unicode="&#xf6;" horiz-adv-x="1257" 
d="M379 1251q-67 0 -114.5 47t-47.5 113t47.5 114t114.5 48q66 0 112 -48t46 -114t-46 -113t-112 -47zM881 1251q-69 0 -116.5 47t-47.5 113q0 67 47.5 114.5t116.5 47.5q64 0 110.5 -48t46.5 -114t-46 -113t-111 -47zM629 -31q-117 0 -218 38t-177.5 109.5t-120 183
t-43.5 249.5q0 137 43.5 247.5t120 181.5t177.5 108.5t218 37.5t218 -37.5t177.5 -108.5t120 -181.5t43.5 -247.5q0 -138 -43.5 -249.5t-120 -183t-177.5 -109.5t-218 -38zM629 123q95 0 151 104.5t56 321.5t-56.5 323.5t-150.5 106.5t-150.5 -106.5t-56.5 -323.5t56 -321.5
t151 -104.5z" />
    <glyph glyph-name="divide" unicode="&#xf7;" horiz-adv-x="1171" 
d="M772 950l-186 -188l-189 188l189 189zM129 557v160h913v-160h-913zM772 336l-186 -186l-189 186l189 188z" />
    <glyph glyph-name="oslash" unicode="&#xf8;" horiz-adv-x="1257" 
d="M1176 975l-82 -82q94 -143 94 -344q0 -138 -43.5 -249.5t-120 -183t-177.5 -109.5t-218 -38q-200 0 -342 103l-68 -70l-129 125l74 74q-94 147 -94 348q0 137 43.5 247.5t120 181.5t177.5 108.5t218 37.5q199 0 340 -102l84 86zM422 549q0 -55 2 -82l369 377
q-54 135 -164 135q-94 0 -150.5 -106.5t-56.5 -323.5zM629 123q95 0 151 104.5t56 321.5q0 53 -2 78l-367 -373q53 -131 162 -131z" />
    <glyph glyph-name="ugrave" unicode="&#xf9;" horiz-adv-x="1255" 
d="M209 1612h362l111 -373zM782 1094h338v-1112l-303 176q-50 -82 -142.5 -135.5t-215.5 -53.5q-324 0 -324 340v785h338v-746q0 -84 33 -119.5t96 -35.5q116 0 180 114v787z" />
    <glyph glyph-name="uacute" unicode="&#xfa;" horiz-adv-x="1255" 
d="M545 1239l110 373h363zM782 1094h338v-1112l-303 176q-50 -82 -142.5 -135.5t-215.5 -53.5q-324 0 -324 340v785h338v-746q0 -84 33 -119.5t96 -35.5q116 0 180 114v787z" />
    <glyph glyph-name="ucircumflex" unicode="&#xfb;" horiz-adv-x="1255" 
d="M627 1642l360 -411l-360 155l-359 -155zM782 1094h338v-1112l-303 176q-50 -82 -142.5 -135.5t-215.5 -53.5q-324 0 -324 340v785h338v-746q0 -84 33 -119.5t96 -35.5q116 0 180 114v787z" />
    <glyph glyph-name="udieresis" unicode="&#xfc;" horiz-adv-x="1255" 
d="M379 1251q-67 0 -114.5 47t-47.5 113t47.5 114t114.5 48q66 0 112 -48t46 -114t-46 -113t-112 -47zM881 1251q-69 0 -116.5 47t-47.5 113q0 67 47.5 114.5t116.5 47.5q64 0 110.5 -48t46.5 -114t-46 -113t-111 -47zM782 1094h338v-1112l-303 176q-50 -82 -142.5 -135.5
t-215.5 -53.5q-324 0 -324 340v785h338v-746q0 -84 33 -119.5t96 -35.5q116 0 180 114v787z" />
    <glyph glyph-name="yacute" unicode="&#xfd;" horiz-adv-x="1148" 
d="M553 1239l111 373h362zM672 158l289 936h167l-481 -1473h-366l333 379h-227l-367 1094h365z" />
    <glyph glyph-name="thorn" unicode="&#xfe;" horiz-adv-x="1269" 
d="M764 1130q94 0 171.5 -30t138.5 -92t94.5 -167.5t33.5 -246.5q0 -302 -140 -460.5t-368 -158.5q-130 0 -221 68v-422h-336v1854h336v-453q117 108 291 108zM618 133q108 0 168 123t60 338q0 183 -51 277t-148 94q-109 0 -174 -113v-616q42 -103 145 -103z" />
    <glyph glyph-name="ydieresis" unicode="&#xff;" horiz-adv-x="1148" 
d="M385 1251q-67 0 -114.5 47t-47.5 113t47.5 114t114.5 48q66 0 112 -48t46 -114t-46 -113t-112 -47zM887 1251q-69 0 -116.5 47t-47.5 113q0 67 47.5 114.5t116.5 47.5q64 0 110.5 -48t46.5 -114t-46 -113t-111 -47zM672 158l289 936h167l-481 -1473h-366l333 379h-227
l-367 1094h365z" />
    <glyph glyph-name="Amacron" unicode="&#x100;" horiz-adv-x="1478" 
d="M399 1829h697v-150h-697v150zM1436 0h-373l-143 426h-551l88 -426h-416l489 1403h433zM639 1255l-219 -675h448z" />
    <glyph glyph-name="amacron" unicode="&#x101;" horiz-adv-x="1173" 
d="M240 1520h696v-150h-696v150zM1038 739l2 -737l-301 145q-51 -74 -146.5 -122t-219.5 -48q-145 0 -220 76t-75 201q3 144 91 221.5t284 142.5q50 17 83.5 30.5t69 33.5t56 41.5t34 52t13.5 66.5q0 72 -47 105.5t-146 33.5h-31l-299 -336v410q58 26 172.5 47.5t239.5 21.5
q86 0 151 -10.5t121 -36.5t91.5 -69t55.5 -110.5t21 -158.5zM537 182q95 0 165 66v362q-55 -52 -151 -106q-72 -41 -103.5 -89.5t-31.5 -115.5q0 -56 31 -86.5t90 -30.5z" />
    <glyph glyph-name="Abreve" unicode="&#x102;" horiz-adv-x="1478" 
d="M748 1573q-159 0 -237.5 99t-70.5 265q77 -180 308 -180q224 0 307 180q6 -166 -72.5 -265t-234.5 -99zM1436 0h-373l-143 426h-551l88 -426h-416l489 1403h433zM639 1255l-219 -675h448z" />
    <glyph glyph-name="abreve" unicode="&#x103;" horiz-adv-x="1173" 
d="M588 1257q-159 0 -237 101.5t-70 269.5q77 -184 307 -184q224 0 307 184q6 -168 -72.5 -269.5t-234.5 -101.5zM1038 739l2 -737l-301 145q-51 -74 -146.5 -122t-219.5 -48q-145 0 -220 76t-75 201q3 144 91 221.5t284 142.5q50 17 83.5 30.5t69 33.5t56 41.5t34 52
t13.5 66.5q0 72 -47 105.5t-146 33.5h-31l-299 -336v410q58 26 172.5 47.5t239.5 21.5q86 0 151 -10.5t121 -36.5t91.5 -69t55.5 -110.5t21 -158.5zM537 182q95 0 165 66v362q-55 -52 -151 -106q-72 -41 -103.5 -89.5t-31.5 -115.5q0 -56 31 -86.5t90 -30.5z" />
    <glyph glyph-name="Aogonek" unicode="&#x104;" horiz-adv-x="1478" 
d="M1436 0h-6q-222 -101 -222 -250q0 -84 90 -84q75 0 129 43q-22 -75 -86 -120.5t-157 -45.5q-85 0 -137 42t-52 118q0 90 67.5 166t190.5 131h-190l-143 426h-551l88 -426h-416l489 1403h433zM639 1255l-219 -675h448z" />
    <glyph glyph-name="aogonek" unicode="&#x105;" horiz-adv-x="1173" 
d="M1038 4v-2q-221 -101 -221 -254q0 -40 25 -61t69 -21q68 0 125 45q-23 -77 -82 -121.5t-153 -44.5q-85 0 -135 41.5t-50 118.5q0 108 91 195.5t254 140.5l-222 106q-51 -74 -146.5 -122t-219.5 -48q-145 0 -220 76t-75 201q3 144 91 221.5t284 142.5q50 17 83.5 30.5
t69 33.5t56 41.5t34 52t13.5 66.5q0 72 -47 105.5t-146 33.5h-31l-299 -336v410q58 26 172.5 47.5t239.5 21.5q86 0 151 -10.5t121 -36.5t91.5 -69t55.5 -110.5t21 -158.5l2 -737zM537 182q95 0 165 66v362q-55 -52 -151 -106q-72 -41 -103.5 -89.5t-31.5 -115.5
q0 -56 31 -86.5t90 -30.5z" />
    <glyph glyph-name="Cacute" unicode="&#x106;" horiz-adv-x="1468" 
d="M885 1774h397l-543 -299zM924 133q-214 0 -321 148.5t-107 418.5t108.5 420t319.5 150q33 0 47 -2l352 -410v512q-58 27 -170.5 45.5t-263.5 18.5q-234 0 -411.5 -86t-277.5 -253.5t-100 -394.5q0 -228 99 -394t276.5 -251.5t413.5 -85.5q150 0 262.5 18t171.5 44v481
l-344 -377q-9 0 -27.5 -1t-27.5 -1z" />
    <glyph glyph-name="cacute" unicode="&#x107;" horiz-adv-x="1144" 
d="M584 1239l110 373h363zM719 217q227 0 334 209q0 -224 -129.5 -340.5t-354.5 -116.5q-234 0 -366.5 147.5t-132.5 403.5q0 276 161.5 440t442.5 164q105 0 198.5 -18.5t145.5 -44.5v-465l-330 377q-127 -10 -195.5 -118t-68.5 -273q0 -175 73.5 -270t221.5 -95z" />
    <glyph glyph-name="Ccircumflex" unicode="&#x108;" horiz-adv-x="1468" 
d="M877 1952l360 -412l-360 135l-359 -135zM924 1270q-211 0 -319.5 -150t-108.5 -420t107 -418.5t321 -148.5q9 0 27.5 1t27.5 1l344 377v-481q-59 -26 -171.5 -44t-262.5 -18q-236 0 -413.5 85.5t-276.5 251.5t-99 394q0 227 100 394.5t277.5 253.5t411.5 86
q151 0 263.5 -18.5t170.5 -45.5v-512l-352 410q-14 2 -47 2z" />
    <glyph glyph-name="ccircumflex" unicode="&#x109;" horiz-adv-x="1144" 
d="M666 1642l360 -411l-360 155l-359 -155zM719 217q227 0 334 209q0 -224 -129.5 -340.5t-354.5 -116.5q-234 0 -366.5 147.5t-132.5 403.5q0 276 161.5 440t442.5 164q105 0 198.5 -18.5t145.5 -44.5v-465l-330 377q-127 -10 -195.5 -118t-68.5 -273q0 -175 73.5 -270
t221.5 -95z" />
    <glyph glyph-name="Cdotaccent" unicode="&#x10a;" horiz-adv-x="1468" 
d="M879 1513q-78 0 -133.5 55t-55.5 132q0 78 55.5 133t133.5 55q75 0 129.5 -55t54.5 -133q0 -76 -54.5 -131.5t-129.5 -55.5zM924 133q-214 0 -321 148.5t-107 418.5t108.5 420t319.5 150q33 0 47 -2l352 -410v512q-58 27 -170.5 45.5t-263.5 18.5q-234 0 -411.5 -86
t-277.5 -253.5t-100 -394.5q0 -228 99 -394t276.5 -251.5t413.5 -85.5q150 0 262.5 18t171.5 44v481l-344 -377q-9 0 -27.5 -1t-27.5 -1z" />
    <glyph glyph-name="cdotaccent" unicode="&#x10b;" horiz-adv-x="1144" 
d="M668 1225q-72 0 -123 50.5t-51 121.5t51 122.5t123 51.5q69 0 119.5 -51.5t50.5 -122.5q0 -70 -50.5 -121t-119.5 -51zM719 217q227 0 334 209q0 -224 -129.5 -340.5t-354.5 -116.5q-234 0 -366.5 147.5t-132.5 403.5q0 276 161.5 440t442.5 164q105 0 198.5 -18.5
t145.5 -44.5v-465l-330 377q-127 -10 -195.5 -118t-68.5 -273q0 -175 73.5 -270t221.5 -95z" />
    <glyph glyph-name="Ccaron" unicode="&#x10c;" horiz-adv-x="1468" 
d="M1237 1939l-360 -413l-359 413l359 -155zM924 1270q-211 0 -319.5 -150t-108.5 -420t107 -418.5t321 -148.5q9 0 27.5 1t27.5 1l344 377v-481q-59 -26 -171.5 -44t-262.5 -18q-236 0 -413.5 85.5t-276.5 251.5t-99 394q0 227 100 394.5t277.5 253.5t411.5 86
q151 0 263.5 -18.5t170.5 -45.5v-512l-352 410q-14 2 -47 2z" />
    <glyph glyph-name="ccaron" unicode="&#x10d;" horiz-adv-x="1144" 
d="M666 1499l360 156l-360 -412l-359 412zM719 217q227 0 334 209q0 -224 -129.5 -340.5t-354.5 -116.5q-234 0 -366.5 147.5t-132.5 403.5q0 276 161.5 440t442.5 164q105 0 198.5 -18.5t145.5 -44.5v-465l-330 377q-127 -10 -195.5 -118t-68.5 -273q0 -175 73.5 -270
t221.5 -95z" />
    <glyph glyph-name="Dcaron" unicode="&#x10e;" horiz-adv-x="1599" 
d="M1163 1939l-360 -413l-359 413l359 -155zM682 1403q397 0 607 -175t210 -528q0 -700 -817 -700h-508v1403h508zM537 160h104q247 0 355 132t108 408q0 275 -110 409t-353 134h-104v-1083z" />
    <glyph glyph-name="dcaron" unicode="&#x10f;" horiz-adv-x="1271" 
d="M1194 1012l47 506h285zM797 1063v412h344v-1475l-250 137q-51 -75 -140.5 -121.5t-218.5 -46.5q-224 0 -343 139.5t-119 411.5q0 278 139.5 441t370.5 163q130 0 217 -61zM639 139q88 0 158 74v696q-55 68 -133 68q-112 0 -176 -121.5t-64 -335.5q0 -191 57 -286t158 -95
z" />
    <glyph glyph-name="Dcroat" unicode="&#x110;" horiz-adv-x="1638" 
d="M723 1403q396 0 605.5 -175t209.5 -528q0 -700 -815 -700h-510v670h-221v147h221v586h510zM575 160h107q246 0 353.5 132t107.5 408t-109 409.5t-352 133.5h-107v-426h310v-147h-310v-510z" />
    <glyph glyph-name="dcroat" unicode="&#x111;" horiz-adv-x="1271" 
d="M797 1475h344v-1475l-250 137q-51 -75 -140.5 -121.5t-218.5 -46.5q-224 0 -343 139.5t-119 411.5q0 278 139.5 441t370.5 163q130 0 217 -61v412zM639 139q88 0 158 74v696q-55 68 -133 68q-112 0 -176 -121.5t-64 -335.5q0 -191 57 -286t158 -95z" />
    <glyph glyph-name="Emacron" unicode="&#x112;" horiz-adv-x="1239" 
d="M354 1829h697v-150h-697v150zM1165 1403v-162h-628v-420h485v-159h-485v-500h628v-162h-991v1403h991z" />
    <glyph glyph-name="emacron" unicode="&#x113;" horiz-adv-x="1163" 
d="M274 1520h697v-150h-697v150zM614 1124q545 0 451 -624h-637q15 -150 82.5 -215.5t198.5 -65.5q242 0 350 193q0 -115 -37 -202t-103 -138.5t-149 -77t-182 -25.5q-252 0 -385 145t-133 427q0 277 150.5 430t393.5 153zM614 977q-84 0 -136.5 -96.5t-53.5 -272.5l330 72
q-1 165 -33 231t-107 66z" />
    <glyph glyph-name="Ebreve" unicode="&#x114;" horiz-adv-x="1239" 
d="M705 1573q-159 0 -237.5 99t-70.5 265q77 -180 308 -180q224 0 307 180q6 -166 -72.5 -265t-234.5 -99zM1165 1403v-162h-628v-420h485v-159h-485v-500h628v-162h-991v1403h991z" />
    <glyph glyph-name="ebreve" unicode="&#x115;" horiz-adv-x="1163" 
d="M623 1257q-159 0 -237.5 101.5t-70.5 269.5q77 -184 308 -184q224 0 307 184q6 -168 -72.5 -269.5t-234.5 -101.5zM614 1124q545 0 451 -624h-637q15 -150 82.5 -215.5t198.5 -65.5q242 0 350 193q0 -115 -37 -202t-103 -138.5t-149 -77t-182 -25.5q-252 0 -385 145
t-133 427q0 277 150.5 430t393.5 153zM614 977q-84 0 -136.5 -96.5t-53.5 -272.5l330 72q-1 165 -33 231t-107 66z" />
    <glyph glyph-name="Edotaccent" unicode="&#x116;" horiz-adv-x="1239" 
d="M705 1513q-78 0 -133.5 55t-55.5 132q0 78 55.5 133t133.5 55q75 0 129.5 -55t54.5 -133q0 -76 -54.5 -131.5t-129.5 -55.5zM1165 1403v-162h-628v-420h485v-159h-485v-500h628v-162h-991v1403h991z" />
    <glyph glyph-name="edotaccent" unicode="&#x117;" horiz-adv-x="1163" 
d="M625 1225q-72 0 -123 50.5t-51 121.5t51 122.5t123 51.5q69 0 119.5 -51.5t50.5 -122.5q0 -70 -50.5 -121t-119.5 -51zM614 1124q545 0 451 -624h-637q15 -150 82.5 -215.5t198.5 -65.5q242 0 350 193q0 -115 -37 -202t-103 -138.5t-149 -77t-182 -25.5q-252 0 -385 145
t-133 427q0 277 150.5 430t393.5 153zM614 977q-84 0 -136.5 -96.5t-53.5 -272.5l330 72q-1 165 -33 231t-107 66z" />
    <glyph glyph-name="Eogonek" unicode="&#x118;" horiz-adv-x="1239" 
d="M1165 1403v-162h-628v-420h485v-159h-485v-500h628v-162q-221 -101 -221 -250q0 -84 90 -84q75 0 129 43q-22 -75 -86 -120.5t-157 -45.5q-85 0 -137 42t-52 118q0 90 67.5 166t190.5 131h-815v1403h991z" />
    <glyph glyph-name="eogonek" unicode="&#x119;" horiz-adv-x="1163" 
d="M614 1124q545 0 451 -624h-637q15 -150 82.5 -215.5t198.5 -65.5q242 0 350 193q0 -163 -71.5 -265.5t-194.5 -144.5q-117 -60 -168.5 -122t-51.5 -134q0 -40 25.5 -61t69.5 -21q68 0 125 45q-23 -77 -82 -121.5t-154 -44.5q-85 0 -134.5 41.5t-49.5 118.5q0 157 186 266
q-238 9 -363.5 153.5t-125.5 418.5q0 277 150.5 430t393.5 153zM614 977q-84 0 -136.5 -96.5t-53.5 -272.5l330 72q-1 165 -33 231t-107 66z" />
    <glyph glyph-name="Ecaron" unicode="&#x11a;" horiz-adv-x="1239" 
d="M1063 1939l-361 -413l-358 413l358 -155zM1165 1403v-162h-628v-420h485v-159h-485v-500h628v-162h-991v1403h991z" />
    <glyph glyph-name="ecaron" unicode="&#x11b;" horiz-adv-x="1163" 
d="M621 1499l360 156l-360 -412l-359 412zM614 1124q545 0 451 -624h-637q15 -150 82.5 -215.5t198.5 -65.5q242 0 350 193q0 -115 -37 -202t-103 -138.5t-149 -77t-182 -25.5q-252 0 -385 145t-133 427q0 277 150.5 430t393.5 153zM614 977q-84 0 -136.5 -96.5
t-53.5 -272.5l330 72q-1 165 -33 231t-107 66z" />
    <glyph glyph-name="Gcircumflex" unicode="&#x11c;" horiz-adv-x="1542" 
d="M819 1952l361 -412l-361 135l-358 -135zM1436 815v-815l-277 115q-153 -146 -411 -146q-297 0 -472.5 197.5t-175.5 531.5q0 338 212.5 537t572.5 199q133 0 257 -19t181 -45v-389l-399 293h-39q-192 0 -289.5 -151.5t-97.5 -424.5q0 -262 88 -407.5t260 -145.5
q146 0 231 91v417h-364v162h723z" />
    <glyph glyph-name="Gbreve" unicode="&#x11e;" horiz-adv-x="1542" 
d="M819 1573q-159 0 -237 99t-70 265q77 -180 307 -180q224 0 307 180q6 -166 -72.5 -265t-234.5 -99zM1436 815v-815l-277 115q-153 -146 -411 -146q-297 0 -472.5 197.5t-175.5 531.5q0 338 212.5 537t572.5 199q133 0 257 -19t181 -45v-389l-399 293h-39
q-192 0 -289.5 -151.5t-97.5 -424.5q0 -262 88 -407.5t260 -145.5q146 0 231 91v417h-364v162h723z" />
    <glyph glyph-name="gbreve" unicode="&#x11f;" horiz-adv-x="1173" 
d="M479 1257q-130 0 -194.5 101.5t-59.5 269.5q68 -184 254 -184q185 0 256 184q5 -168 -60.5 -269.5t-195.5 -101.5zM551 385l-33 -57q348 -23 499.5 -112.5t151.5 -260.5q0 -78 -29.5 -139t-83 -103t-131 -69t-169.5 -39.5t-203 -12.5q-272 0 -405.5 56.5t-133.5 185.5
q0 105 101.5 174t312.5 88q-116 11 -311 17l278 290q-141 35 -224 126t-83 225q0 170 134 270t339 100q60 0 107 -8l100 262h379l-350 -297q111 -44 174 -128t63 -199q0 -172 -133.5 -270.5t-339.5 -98.5h-10zM561 977q-69 0 -110 -59t-41 -164q0 -104 41 -163t110 -59
q68 0 109 59t41 163q0 106 -40.5 164.5t-109.5 58.5zM573 -266q133 0 215 44t82 118q0 57 -42.5 95t-139.5 64q-182 -26 -258 -79t-76 -119q0 -64 48 -93.5t171 -29.5z" />
    <glyph glyph-name="Gdotaccent" unicode="&#x120;" horiz-adv-x="1542" 
d="M821 1513q-78 0 -133 55t-55 132q0 78 55 133t133 55q75 0 130 -55t55 -133q0 -76 -55 -131.5t-130 -55.5zM1436 815v-815l-277 115q-153 -146 -411 -146q-297 0 -472.5 197.5t-175.5 531.5q0 338 212.5 537t572.5 199q133 0 257 -19t181 -45v-389l-399 293h-39
q-192 0 -289.5 -151.5t-97.5 -424.5q0 -262 88 -407.5t260 -145.5q146 0 231 91v417h-364v162h723z" />
    <glyph glyph-name="gdotaccent" unicode="&#x121;" horiz-adv-x="1173" 
d="M492 1225q-72 0 -123.5 50.5t-51.5 121.5t51.5 122.5t123.5 51.5q69 0 119.5 -51.5t50.5 -122.5q0 -70 -50.5 -121t-119.5 -51zM551 385l-33 -57q348 -23 499.5 -112.5t151.5 -260.5q0 -78 -29.5 -139t-83 -103t-131 -69t-169.5 -39.5t-203 -12.5q-272 0 -405.5 56.5
t-133.5 185.5q0 105 101.5 174t312.5 88q-116 11 -311 17l278 290q-141 35 -224 126t-83 225q0 170 134 270t339 100q60 0 107 -8l100 262h379l-350 -297q111 -44 174 -128t63 -199q0 -172 -133.5 -270.5t-339.5 -98.5h-10zM561 977q-69 0 -110 -59t-41 -164q0 -104 41 -163
t110 -59q68 0 109 59t41 163q0 106 -40.5 164.5t-109.5 58.5zM573 -266q133 0 215 44t82 118q0 57 -42.5 95t-139.5 64q-182 -26 -258 -79t-76 -119q0 -64 48 -93.5t171 -29.5z" />
    <glyph glyph-name="uni0122" unicode="&#x122;" horiz-adv-x="1542" 
d="M1436 815v-815l-277 115q-153 -146 -411 -146q-297 0 -472.5 197.5t-175.5 531.5q0 338 212.5 537t572.5 199q133 0 257 -19t181 -45v-389l-399 293h-39q-192 0 -289.5 -151.5t-97.5 -424.5q0 -262 88 -407.5t260 -145.5q146 0 231 91v417h-364v162h723zM817 -106
q72 0 114 -46t42 -116q0 -74 -49.5 -154t-153.5 -156l-94 -67l72 250q-40 17 -64.5 53t-24.5 80q0 65 43.5 110.5t114.5 45.5z" />
    <glyph glyph-name="uni0123" unicode="&#x123;" horiz-adv-x="1173" 
d="M461 1227q-71 0 -113.5 45t-42.5 112q0 75 53 152.5t164 171.5l103 88l-93 -280q39 -19 62.5 -55t23.5 -77q0 -66 -43.5 -111.5t-113.5 -45.5zM551 385l-33 -57q348 -23 499.5 -112.5t151.5 -260.5q0 -78 -29.5 -139t-83 -103t-131 -69t-169.5 -39.5t-203 -12.5
q-272 0 -405.5 56.5t-133.5 185.5q0 105 101.5 174t312.5 88q-116 11 -311 17l278 290q-141 35 -224 126t-83 225q0 170 134 270t339 100q60 0 107 -8l100 262h379l-350 -297q111 -44 174 -128t63 -199q0 -172 -133.5 -270.5t-339.5 -98.5h-10zM561 977q-69 0 -110 -59
t-41 -164q0 -104 41 -163t110 -59q68 0 109 59t41 163q0 106 -40.5 164.5t-109.5 58.5zM573 -266q133 0 215 44t82 118q0 57 -42.5 95t-139.5 64q-182 -26 -258 -79t-76 -119q0 -64 48 -93.5t171 -29.5z" />
    <glyph glyph-name="Hcircumflex" unicode="&#x124;" horiz-adv-x="1572" 
d="M786 1952l361 -412l-361 135l-358 -135zM1036 819v584h363v-1403h-363v659h-499v-659h-363v1403h363v-584h499z" />
    <glyph glyph-name="hcircumflex" unicode="&#x125;" horiz-adv-x="1253" 
d="M297 1935l360 -411l-360 135l-358 -135zM795 1124q321 0 321 -340v-784h-338v748q0 83 -32 118t-95 35q-118 0 -180 -110v-791h-338v1475h338v-490q55 63 138 101t186 38z" />
    <glyph glyph-name="Hbar" unicode="&#x126;" horiz-adv-x="1556" 
d="M1393 1112h110v-162h-110v-950h-365v444h-500v-444h-362v950h-113v162h113v291h362v-291h500v291h365v-291zM528 606h500v344h-500v-344z" />
    <glyph glyph-name="hbar" unicode="&#x127;" horiz-adv-x="1253" 
d="M795 1124q321 0 321 -340v-784h-338v748q0 83 -32 118t-95 35q-118 0 -180 -110v-791h-338v1237h-164v131h164v107h338v-107h266v-131h-266v-252q55 63 138 101t186 38z" />
    <glyph glyph-name="Itilde" unicode="&#x128;" horiz-adv-x="710" 
d="M25 1608q35 79 69.5 114t89.5 35q34 0 63.5 -15.5t53 -37.5t48.5 -43.5t60 -37t76 -15.5q92 0 146.5 81.5t54.5 247.5q-37 -80 -70.5 -114.5t-87.5 -34.5q-34 0 -64 15.5t-54 37t-49 43.5t-60 37.5t-76 15.5q-92 0 -146 -81.5t-54 -247.5zM174 0v1403h363v-1403h-363z
" />
    <glyph glyph-name="itilde" unicode="&#x129;" horiz-adv-x="641" 
d="M-10 1298q35 88 70 128t92 40q33 0 62.5 -17.5t52.5 -42t48 -49t60 -42t76 -17.5q92 0 146 81.5t54 248.5q-37 -90 -71 -129t-91 -39q-33 0 -62.5 17.5t-52.5 42t-48 49t-60 42t-76 17.5q-92 0 -146 -81.5t-54 -248.5zM489 1094v-1094h-337v1094h337z" />
    <glyph glyph-name="Imacron" unicode="&#x12a;" horiz-adv-x="710" 
d="M6 1679v150h696v-150h-696zM174 0v1403h363v-1403h-363z" />
    <glyph glyph-name="imacron" unicode="&#x12b;" horiz-adv-x="641" 
d="M670 1370h-697v150h697v-150zM489 1094v-1094h-337v1094h337z" />
    <glyph glyph-name="Ibreve" unicode="&#x12c;" horiz-adv-x="710" 
d="M356 1757q225 0 308 180q6 -165 -72.5 -264.5t-235.5 -99.5q-159 0 -237 99t-70 265q77 -180 307 -180zM174 0v1403h363v-1403h-363z" />
    <glyph glyph-name="ibreve" unicode="&#x12d;" horiz-adv-x="641" 
d="M322 1444q224 0 307 184q6 -168 -72.5 -269.5t-234.5 -101.5q-159 0 -237.5 101.5t-70.5 269.5q77 -184 308 -184zM489 1094v-1094h-337v1094h337z" />
    <glyph glyph-name="Iogonek" unicode="&#x12e;" horiz-adv-x="710" 
d="M174 0v1403h363v-1403h-11q-221 -101 -221 -250q0 -84 90 -84q75 0 129 43q-22 -75 -86 -120.5t-157 -45.5q-85 0 -137 42t-52 118q0 90 67.5 166t190.5 131h-176z" />
    <glyph glyph-name="iogonek" unicode="&#x12f;" horiz-adv-x="641" 
d="M324 1225q-72 0 -123 50.5t-51 121.5t51 122.5t123 51.5q69 0 119.5 -51.5t50.5 -122.5q0 -70 -50.5 -121t-119.5 -51zM311 0h-159v1094h337v-1094q-221 -101 -221 -254q0 -40 25 -61t69 -21q68 0 125 45q-23 -77 -82 -121.5t-153 -44.5q-85 0 -134.5 41.5t-49.5 118.5
q0 90 63 166t180 131z" />
    <glyph glyph-name="Idotaccent" unicode="&#x130;" horiz-adv-x="710" 
d="M356 1513q-78 0 -133 55t-55 132q0 78 55 133t133 55q75 0 130 -55t55 -133q0 -76 -55 -131.5t-130 -55.5zM174 0v1403h363v-1403h-363z" />
    <glyph glyph-name="dotlessi" unicode="&#x131;" horiz-adv-x="641" 
d="M489 1094v-1094h-337v1094h337z" />
    <glyph glyph-name="IJ" unicode="&#x132;" horiz-adv-x="1585" 
d="M537 0h-363v1403h363v-1403zM1096 412v991h362v-854q0 -133 -29.5 -236.5t-76.5 -167t-113 -104.5t-132.5 -56.5t-141.5 -15.5q-142 0 -267 41v385l306 -252q92 69 92 269z" />
    <glyph glyph-name="ij" unicode="&#x133;" horiz-adv-x="1234" 
d="M907 1198q-75 0 -128.5 53t-53.5 127q0 75 53.5 128t128.5 53q74 0 126 -53t52 -128q0 -74 -52.5 -127t-125.5 -53zM319 1174q-75 0 -127.5 53.5t-52.5 128.5q0 74 52.5 127t127.5 53q74 0 127.5 -53.5t53.5 -126.5q0 -75 -53.5 -128.5t-127.5 -53.5zM489 0h-337v1094
h337v-1094zM735 -88v1182h338v-1045q0 -237 -108.5 -347t-317.5 -110q-83 0 -151 21v295l221 -172q18 68 18 176z" />
    <glyph glyph-name="Jcircumflex" unicode="&#x134;" horiz-adv-x="1048" 
d="M733 1952l361 -412l-361 135l-358 -135zM557 412v991h365v-854q0 -134 -31 -237t-81.5 -167t-122.5 -104.5t-146.5 -56t-161.5 -15.5q-201 0 -316 45v379l367 -270q127 58 127 289z" />
    <glyph glyph-name="jcircumflex" unicode="&#x135;" horiz-adv-x="657" 
d="M330 1642l360 -411l-360 155l-359 -155zM160 -88v1182h338v-1045q0 -237 -108.5 -347t-317.5 -110q-83 0 -154 21v295l223 -172q19 68 19 176z" />
    <glyph glyph-name="uni0136" unicode="&#x136;" horiz-adv-x="1452" 
d="M1034 1403h375l-467 -492l465 -911h-406l-321 635l-143 -152v-483h-363v1403h363v-684zM754 -106q71 0 113 -46t42 -116q0 -74 -49.5 -154t-152.5 -156l-95 -67l72 250q-40 17 -64 53t-24 80q0 65 43.5 110.5t114.5 45.5z" />
    <glyph glyph-name="uni0137" unicode="&#x137;" horiz-adv-x="1243" 
d="M870 1094h310l-344 -359l344 -735h-379l-211 479l-119 -123v-356h-338v1475h338v-926zM629 -115q69 0 110 -43t41 -108q0 -82 -47.5 -162.5t-161.5 -173.5l-88 -70l86 279q-44 13 -69 49t-25 82q0 62 42.5 104.5t111.5 42.5z" />
    <glyph glyph-name="kgreenlandic" unicode="&#x138;" horiz-adv-x="1263" 
d="M1200 0h-381l-209 479l-121 -125v-354h-337v1094h337v-547l402 547h307l-342 -357z" />
    <glyph glyph-name="Lacute" unicode="&#x139;" horiz-adv-x="1261" 
d="M207 1475l145 299h398zM537 160h307l348 291v-451h-1018v1403h363v-1243z" />
    <glyph glyph-name="lacute" unicode="&#x13a;" horiz-adv-x="602" 
d="M309 1845h398l-543 -299zM471 1475v-1475h-338v1475h338z" />
    <glyph glyph-name="uni013B" unicode="&#x13b;" horiz-adv-x="1261" 
d="M537 160h307l348 291v-451h-1018v1403h363v-1243zM690 -106q72 0 114 -46t42 -116q0 -74 -49.5 -154t-153.5 -156l-94 -67l72 250q-40 17 -64.5 53t-24.5 80q0 65 43.5 110.5t114.5 45.5z" />
    <glyph glyph-name="uni013C" unicode="&#x13c;" horiz-adv-x="602" 
d="M133 0v1475h338v-1475h-338zM307 -115q69 0 110.5 -43t41.5 -108q0 -82 -47.5 -162.5t-161.5 -173.5l-88 -70l86 279q-44 13 -69 49t-25 82q0 62 42 104.5t111 42.5z" />
    <glyph glyph-name="Lcaron" unicode="&#x13d;" horiz-adv-x="1261" 
d="M813 940l47 506h285zM537 160h307l348 291v-451h-1018v1403h363v-1243z" />
    <glyph glyph-name="lcaron" unicode="&#x13e;" horiz-adv-x="602" 
d="M616 1518h285l-332 -506zM471 1475v-1475h-338v1475h338z" />
    <glyph glyph-name="Ldot" unicode="&#x13f;" horiz-adv-x="1228" 
d="M537 1403v-1243h307l348 291v-451h-1018v1403h363zM1012 702q-75 0 -130 55t-55 130t55 129.5t130 54.5q76 0 130 -54.5t54 -129.5t-54 -130t-130 -55z" />
    <glyph glyph-name="ldot" unicode="&#x140;" horiz-adv-x="946" 
d="M471 1475v-1475h-338v1475h338zM764 588q-78 0 -134.5 56t-56.5 134q0 77 56.5 133t134.5 56q76 0 132 -56t56 -133q0 -78 -55.5 -134t-132.5 -56z" />
    <glyph glyph-name="Lslash" unicode="&#x141;" horiz-adv-x="1261" 
d="M537 160h307l348 291v-451h-1018v1403h363v-1243z" />
    <glyph glyph-name="lslash" unicode="&#x142;" horiz-adv-x="700" 
d="M520 1020l150 82v-154l-150 -82v-866h-338v682l-151 -82v154l151 82v639h338v-455z" />
    <glyph glyph-name="Nacute" unicode="&#x143;" horiz-adv-x="1505" 
d="M696 1475l146 299h397zM1145 330v1073h188v-1403h-405l-568 1071v-1071h-186v1403h395z" />
    <glyph glyph-name="nacute" unicode="&#x144;" horiz-adv-x="1271" 
d="M553 1239l111 373h362zM815 1124q322 0 322 -340v-784h-338v748q0 83 -32 118t-95 35q-120 0 -183 -115v-786h-337v1112l305 -178q51 81 143.5 135.5t214.5 54.5z" />
    <glyph glyph-name="uni0145" unicode="&#x145;" horiz-adv-x="1505" 
d="M1145 330v1073h188v-1403h-405l-568 1071v-1071h-186v1403h395zM717 -106q71 0 113 -46t42 -116q0 -74 -49.5 -154t-152.5 -156l-95 -67l72 250q-40 17 -64 53t-24 80q0 65 43.5 110.5t114.5 45.5z" />
    <glyph glyph-name="uni0146" unicode="&#x146;" horiz-adv-x="1271" 
d="M815 1124q322 0 322 -340v-784h-338v748q0 83 -32 118t-95 35q-120 0 -183 -115v-786h-337v1112l305 -178q51 81 143.5 135.5t214.5 54.5zM659 -115q69 0 110.5 -43t41.5 -108q0 -82 -47.5 -162.5t-161.5 -173.5l-88 -70l86 279q-44 13 -69 49t-25 82q0 62 42 104.5
t111 42.5z" />
    <glyph glyph-name="Ncaron" unicode="&#x147;" horiz-adv-x="1505" 
d="M1194 1939l-360 -413l-359 413l359 -155zM1145 330v1073h188v-1403h-405l-568 1071v-1071h-186v1403h395z" />
    <glyph glyph-name="ncaron" unicode="&#x148;" horiz-adv-x="1271" 
d="M635 1499l360 156l-360 -412l-359 412zM815 1124q322 0 322 -340v-784h-338v748q0 83 -32 118t-95 35q-120 0 -183 -115v-786h-337v1112l305 -178q51 81 143.5 135.5t214.5 54.5z" />
    <glyph glyph-name="napostrophe" unicode="&#x149;" horiz-adv-x="1271" 
d="M102 1669q72 0 115 -45t43 -111q0 -164 -197 -346l-122 -112l92 319q-39 19 -63.5 56.5t-24.5 82.5q0 66 43.5 111t113.5 45zM815 1124q322 0 322 -340v-784h-338v748q0 83 -32 118t-95 35q-120 0 -183 -115v-786h-337v1112l305 -178q51 81 143.5 135.5t214.5 54.5z" />
    <glyph glyph-name="Eng" unicode="&#x14a;" horiz-adv-x="1490" 
d="M1137 330v1073h188v-1782h-377l189 379h-217l-568 1071v-1071h-186v1403h397z" />
    <glyph glyph-name="eng" unicode="&#x14b;" horiz-adv-x="1263" 
d="M815 1124q322 0 322 -340v-727q0 -465 -426 -465q-73 0 -152 21v295l221 -172q19 68 19 176v836q0 83 -32 118t-95 35q-120 0 -183 -115v-786h-337v1112l305 -178q51 81 143.5 135.5t214.5 54.5z" />
    <glyph glyph-name="Omacron" unicode="&#x14c;" horiz-adv-x="1650" 
d="M477 1679v150h697v-150h-697zM825 -31q-206 0 -370 88t-259.5 255.5t-95.5 387.5q0 221 95.5 389t259.5 256.5t370 88.5q205 0 368.5 -88.5t259 -256.5t95.5 -389q0 -220 -95.5 -387.5t-259 -255.5t-368.5 -88zM825 135q154 0 241 146t87 419q0 274 -87 421t-241 147
q-155 0 -241 -147t-86 -421t86 -419.5t241 -145.5z" />
    <glyph glyph-name="omacron" unicode="&#x14d;" horiz-adv-x="1257" 
d="M977 1370h-696v150h696v-150zM629 -31q-117 0 -218 38t-177.5 109.5t-120 183t-43.5 249.5q0 137 43.5 247.5t120 181.5t177.5 108.5t218 37.5t218 -37.5t177.5 -108.5t120 -181.5t43.5 -247.5q0 -138 -43.5 -249.5t-120 -183t-177.5 -109.5t-218 -38zM629 123
q95 0 151 104.5t56 321.5t-56.5 323.5t-150.5 106.5t-150.5 -106.5t-56.5 -323.5t56 -321.5t151 -104.5z" />
    <glyph glyph-name="Obreve" unicode="&#x14e;" horiz-adv-x="1650" 
d="M825 1757q225 0 308 180q6 -165 -72.5 -264.5t-235.5 -99.5q-159 0 -237 99t-70 265q77 -180 307 -180zM825 -31q-206 0 -370 88t-259.5 255.5t-95.5 387.5q0 221 95.5 389t259.5 256.5t370 88.5q205 0 368.5 -88.5t259 -256.5t95.5 -389q0 -220 -95.5 -387.5
t-259 -255.5t-368.5 -88zM825 135q154 0 241 146t87 419q0 274 -87 421t-241 147q-155 0 -241 -147t-86 -421t86 -419.5t241 -145.5z" />
    <glyph glyph-name="obreve" unicode="&#x14f;" horiz-adv-x="1257" 
d="M629 1444q224 0 307 184q6 -168 -72.5 -269.5t-234.5 -101.5q-159 0 -237 101.5t-70 269.5q77 -184 307 -184zM629 -31q-117 0 -218 38t-177.5 109.5t-120 183t-43.5 249.5q0 137 43.5 247.5t120 181.5t177.5 108.5t218 37.5t218 -37.5t177.5 -108.5t120 -181.5
t43.5 -247.5q0 -138 -43.5 -249.5t-120 -183t-177.5 -109.5t-218 -38zM629 123q95 0 151 104.5t56 321.5t-56.5 323.5t-150.5 106.5t-150.5 -106.5t-56.5 -323.5t56 -321.5t151 -104.5z" />
    <glyph glyph-name="Ohungarumlaut" unicode="&#x150;" horiz-adv-x="1650" 
d="M688 1921h322l-420 -373zM1141 1921h342l-527 -373zM825 -31q-206 0 -370 88t-259.5 255.5t-95.5 387.5q0 221 95.5 389t259.5 256.5t370 88.5q205 0 368.5 -88.5t259 -256.5t95.5 -389q0 -220 -95.5 -387.5t-259 -255.5t-368.5 -88zM825 135q154 0 241 146t87 419
q0 274 -87 421t-241 147q-155 0 -241 -147t-86 -421t86 -419.5t241 -145.5z" />
    <glyph glyph-name="ohungarumlaut" unicode="&#x151;" horiz-adv-x="1257" 
d="M492 1612h321l-420 -373zM944 1612h342l-526 -373zM629 -31q-117 0 -218 38t-177.5 109.5t-120 183t-43.5 249.5q0 137 43.5 247.5t120 181.5t177.5 108.5t218 37.5t218 -37.5t177.5 -108.5t120 -181.5t43.5 -247.5q0 -138 -43.5 -249.5t-120 -183t-177.5 -109.5
t-218 -38zM629 123q95 0 151 104.5t56 321.5t-56.5 323.5t-150.5 106.5t-150.5 -106.5t-56.5 -323.5t56 -321.5t151 -104.5z" />
    <glyph glyph-name="OE" unicode="&#x152;" horiz-adv-x="2107" 
d="M2034 1403v-160h-604v-422h509v-159h-509v-502h604v-160h-1139q-367 0 -581 183t-214 517q0 223 98.5 382.5t277 240t419.5 80.5h1139zM969 160h96v1083h-96q-471 0 -471 -543q0 -540 471 -540z" />
    <glyph glyph-name="oe" unicode="&#x153;" horiz-adv-x="1921" 
d="M1380 1124q539 0 443 -624h-637q15 -150 82 -215.5t198 -65.5q245 0 351 193q0 -115 -37 -202.5t-102 -138.5t-146 -76.5t-176 -25.5q-239 0 -365 135q-141 -135 -362 -135q-117 0 -218 38t-177.5 109.5t-120 183t-43.5 249.5q0 137 43.5 247.5t120 181.5t177.5 108.5
t218 37.5q230 0 377 -147q141 147 374 147zM629 123q95 0 151 104.5t56 321.5t-56.5 323.5t-150.5 106.5t-150.5 -106.5t-56.5 -323.5t56 -321.5t151 -104.5zM1374 977q-84 0 -136.5 -96t-55.5 -273l329 72q-1 165 -32.5 231t-104.5 66z" />
    <glyph glyph-name="Racute" unicode="&#x154;" horiz-adv-x="1492" 
d="M588 1475l145 299h397zM1188 135l223 258v-366q-29 -25 -98.5 -41.5t-130.5 -16.5q-65 0 -118.5 13t-103 43.5t-83.5 88t-50 140.5l-30 192q-21 117 -69.5 155t-158.5 38h-32v-639h-363v1403h567q131 0 230.5 -18.5t174 -58.5t113.5 -107.5t39 -161.5q0 -159 -112 -254
t-312 -117q246 -66 279 -321l18 -144q6 -55 17 -86zM537 1243v-442h116q127 0 192.5 65t65.5 174q0 203 -258 203h-116z" />
    <glyph glyph-name="racute" unicode="&#x155;" horiz-adv-x="911" 
d="M371 1239l110 373h363zM846 1094v-463l-275 252q-52 -75 -82 -140v-743h-337v1122l305 -168q84 164 237 164q75 0 152 -24z" />
    <glyph glyph-name="uni0156" unicode="&#x156;" horiz-adv-x="1492" 
d="M1188 135l223 258v-366q-29 -25 -98.5 -41.5t-130.5 -16.5q-65 0 -118.5 13t-103 43.5t-83.5 88t-50 140.5l-30 192q-21 117 -69.5 155t-158.5 38h-32v-639h-363v1403h567q131 0 230.5 -18.5t174 -58.5t113.5 -107.5t39 -161.5q0 -159 -112 -254t-312 -117
q246 -66 279 -321l18 -144q6 -55 17 -86zM537 1243v-442h116q127 0 192.5 65t65.5 174q0 203 -258 203h-116zM770 -106q72 0 114 -46t42 -116q0 -74 -49.5 -154t-153.5 -156l-94 -67l71 250q-40 17 -64 53t-24 80q0 65 43.5 110.5t114.5 45.5z" />
    <glyph glyph-name="uni0157" unicode="&#x157;" horiz-adv-x="911" 
d="M846 1094v-463l-275 252q-52 -75 -82 -140v-743h-337v1122l305 -168q84 164 237 164q75 0 152 -24zM326 -115q69 0 110 -43t41 -108q0 -82 -47.5 -162.5t-161.5 -173.5l-88 -70l86 279q-44 13 -69 49t-25 82q0 62 42.5 104.5t111.5 42.5z" />
    <glyph glyph-name="Rcaron" unicode="&#x158;" horiz-adv-x="1492" 
d="M1085 1939l-360 -413l-358 413l358 -155zM1188 135l223 258v-366q-29 -25 -98.5 -41.5t-130.5 -16.5q-65 0 -118.5 13t-103 43.5t-83.5 88t-50 140.5l-30 192q-21 117 -69.5 155t-158.5 38h-32v-639h-363v1403h567q131 0 230.5 -18.5t174 -58.5t113.5 -107.5t39 -161.5
q0 -159 -112 -254t-312 -117q246 -66 279 -321l18 -144q6 -55 17 -86zM537 1243v-442h116q127 0 192.5 65t65.5 174q0 203 -258 203h-116z" />
    <glyph glyph-name="rcaron" unicode="&#x159;" horiz-adv-x="911" 
d="M453 1499l360 156l-360 -412l-359 412zM846 1094v-463l-275 252q-52 -75 -82 -140v-743h-337v1122l305 -168q84 164 237 164q75 0 152 -24z" />
    <glyph glyph-name="Sacute" unicode="&#x15a;" horiz-adv-x="1361" 
d="M553 1475l145 299h398zM766 885q250 -42 357.5 -148t107.5 -295q0 -473 -592 -473q-165 0 -293.5 22.5t-200.5 49.5v477l408 -395q16 -2 53 -2q155 0 238.5 59t83.5 160q0 91 -63.5 138.5t-233.5 74.5q-270 40 -390 148t-120 309t155.5 312.5t442.5 111.5q281 0 430 -64
v-438l-354 348q-20 2 -66 2q-146 0 -225.5 -46t-79.5 -134q0 -91 75.5 -138.5t266.5 -78.5z" />
    <glyph glyph-name="sacute" unicode="&#x15b;" horiz-adv-x="1015" 
d="M432 1239l111 373h362zM453 113q-23 0 -33 2l-328 307v-406q63 -21 165.5 -34t201.5 -13q245 0 363 97t118 270q0 155 -86 237t-258 121q-141 35 -196.5 71t-55.5 99q0 119 193 119h22l303 -289v383q-52 20 -146 33.5t-190 13.5q-228 0 -342 -92.5t-114 -249.5
q0 -150 88.5 -236t265.5 -126q143 -32 192.5 -66.5t49.5 -101.5t-58.5 -103t-154.5 -36z" />
    <glyph glyph-name="Scircumflex" unicode="&#x15c;" horiz-adv-x="1361" 
d="M690 1952l361 -412l-361 135l-358 -135zM766 885q250 -42 357.5 -148t107.5 -295q0 -473 -592 -473q-165 0 -293.5 22.5t-200.5 49.5v477l408 -395q16 -2 53 -2q155 0 238.5 59t83.5 160q0 91 -63.5 138.5t-233.5 74.5q-270 40 -390 148t-120 309t155.5 312.5
t442.5 111.5q281 0 430 -64v-438l-354 348q-20 2 -66 2q-146 0 -225.5 -46t-79.5 -134q0 -91 75.5 -138.5t266.5 -78.5z" />
    <glyph glyph-name="scircumflex" unicode="&#x15d;" horiz-adv-x="1015" 
d="M156 1231l358 411l360 -411l-360 155zM453 113q-23 0 -33 2l-328 307v-406q63 -21 165.5 -34t201.5 -13q245 0 363 97t118 270q0 155 -86 237t-258 121q-141 35 -196.5 71t-55.5 99q0 119 193 119h22l303 -289v383q-52 20 -146 33.5t-190 13.5q-228 0 -342 -92.5
t-114 -249.5q0 -150 88.5 -236t265.5 -126q143 -32 192.5 -66.5t49.5 -101.5t-58.5 -103t-154.5 -36z" />
    <glyph glyph-name="Scedilla" unicode="&#x15e;" horiz-adv-x="1361" 
d="M1231 442q0 -220 -128.5 -335.5t-371.5 -133.5l-31 -69q137 2 217 -47t80 -146q0 -102 -68.5 -154.5t-185.5 -52.5q-122 0 -202 53.5t-115 137.5q60 -34 109.5 -49t109.5 -15q139 0 139 93q0 29 -16 49.5t-47.5 32t-72 17t-97.5 7.5l61 139q-157 3 -278.5 24.5
t-188.5 47.5v477l408 -395q16 -2 53 -2q155 0 238.5 59t83.5 160q0 91 -63.5 138.5t-233.5 74.5q-270 40 -390 148t-120 309t155.5 312.5t442.5 111.5q281 0 430 -64v-438l-354 348q-20 2 -66 2q-146 0 -225.5 -46t-79.5 -134q0 -91 75.5 -138.5t266.5 -78.5
q250 -42 357.5 -148t107.5 -295z" />
    <glyph glyph-name="scedilla" unicode="&#x15f;" horiz-adv-x="1015" 
d="M940 336q0 -160 -101 -256t-311 -109l-30 -67q133 0 209.5 -48.5t76.5 -144.5q0 -103 -64.5 -155t-180.5 -52t-195.5 54t-114.5 137q61 -34 111.5 -49t110.5 -15q120 0 120 88q0 54 -58.5 77t-172.5 26l63 149q-198 7 -311 45v406l328 -307q10 -2 33 -2q96 0 154.5 36
t58.5 103t-49.5 101.5t-192.5 66.5q-177 40 -265.5 126t-88.5 236q0 157 114 249.5t342 92.5q96 0 190 -13.5t146 -33.5v-383l-303 289h-22q-193 0 -193 -119q0 -63 55.5 -99t196.5 -71q172 -39 258 -121t86 -237z" />
    <glyph glyph-name="Scaron" unicode="&#x160;" horiz-adv-x="1361" 
d="M1051 1939l-361 -413l-358 413l358 -155zM766 885q250 -42 357.5 -148t107.5 -295q0 -473 -592 -473q-165 0 -293.5 22.5t-200.5 49.5v477l408 -395q16 -2 53 -2q155 0 238.5 59t83.5 160q0 91 -63.5 138.5t-233.5 74.5q-270 40 -390 148t-120 309t155.5 312.5
t442.5 111.5q281 0 430 -64v-438l-354 348q-20 2 -66 2q-146 0 -225.5 -46t-79.5 -134q0 -91 75.5 -138.5t266.5 -78.5z" />
    <glyph glyph-name="scaron" unicode="&#x161;" horiz-adv-x="1015" 
d="M874 1655l-360 -412l-358 412l358 -156zM453 113q-23 0 -33 2l-328 307v-406q63 -21 165.5 -34t201.5 -13q245 0 363 97t118 270q0 155 -86 237t-258 121q-141 35 -196.5 71t-55.5 99q0 119 193 119h22l303 -289v383q-52 20 -146 33.5t-190 13.5q-228 0 -342 -92.5
t-114 -249.5q0 -150 88.5 -236t265.5 -126q143 -32 192.5 -66.5t49.5 -101.5t-58.5 -103t-154.5 -36z" />
    <glyph glyph-name="uni0162" unicode="&#x162;" horiz-adv-x="1232" 
d="M799 1241v-1243h-123l-41 -94q137 2 217 -47t80 -146q0 -102 -68.5 -154.5t-185.5 -52.5q-122 0 -202.5 53.5t-115.5 137.5q111 -64 220 -64q139 0 139 93q0 39 -30 62t-78.5 32.5t-125.5 11.5l74 168h-125v1243h-411v162h1187v-162h-411z" />
    <glyph glyph-name="uni0163" unicode="&#x163;" horiz-adv-x="991" 
d="M926 467v-449q-119 -43 -281 -49l-29 -65q133 0 210 -48.5t77 -144.5q0 -103 -65 -155t-181 -52t-195 54t-114 137q61 -35 111 -49.5t110 -14.5q121 0 121 88q0 54 -58.5 77t-172.5 26l65 153q-305 44 -305 410v563h-201v146h201v280h338v-280h324v-146h-324v-633
q0 -148 49 -200z" />
    <glyph glyph-name="Tcaron" unicode="&#x164;" horiz-adv-x="1232" 
d="M977 1939l-361 -413l-358 413l358 -155zM23 1403h1187v-162h-411v-1243h-365v1243h-411v162z" />
    <glyph glyph-name="tcaron" unicode="&#x165;" horiz-adv-x="991" 
d="M715 1153l47 506h285zM557 948v-633q0 -148 49 -200l320 352v-449q-139 -49 -314 -49q-393 0 -393 416v563h-201v146h201v280h338v-280h324v-146h-324z" />
    <glyph glyph-name="Tbar" unicode="&#x166;" horiz-adv-x="1232" 
d="M1210 1403v-162h-411v-442h276v-146h-276v-655h-365v655h-276v146h276v442h-411v162h1187z" />
    <glyph glyph-name="tbar" unicode="&#x167;" horiz-adv-x="991" 
d="M606 115l320 352v-449q-139 -49 -314 -49q-393 0 -393 416v178h-178v148h178v237h-201v146h201v280h338v-280h324v-146h-324v-237h268v-148h-268v-248q0 -148 49 -200z" />
    <glyph glyph-name="Utilde" unicode="&#x168;" horiz-adv-x="1529" 
d="M434 1608q35 79 69.5 114t90.5 35q34 0 63.5 -15.5t53 -37.5t48.5 -43.5t60 -37t76 -15.5q92 0 146.5 81.5t54.5 247.5q-37 -80 -70.5 -114.5t-87.5 -34.5q-34 0 -64 15.5t-54 37t-49 43.5t-60 37.5t-76 15.5q-92 0 -146.5 -81.5t-54.5 -247.5zM764 -31q-142 0 -255 38
t-196.5 114.5t-128.5 200.5t-45 288v793h363v-844q0 -224 66.5 -324t195.5 -100t195.5 100t66.5 324v844h365v-793q0 -164 -45 -288t-129 -200.5t-197.5 -114.5t-255.5 -38z" />
    <glyph glyph-name="utilde" unicode="&#x169;" horiz-adv-x="1255" 
d="M459 1466q-57 0 -92 -40t-70 -128q0 166 54.5 248t146.5 82q41 0 76 -17.5t60 -42t48 -49t52.5 -42t62.5 -17.5q57 0 90.5 38.5t70.5 129.5q0 -167 -54 -248.5t-146 -81.5q-41 0 -76 17.5t-60 42t-48 49t-52.5 42t-62.5 17.5zM782 1094h338v-1112l-303 176
q-50 -82 -142.5 -135.5t-215.5 -53.5q-324 0 -324 340v785h338v-746q0 -84 33 -119.5t96 -35.5q116 0 180 114v787z" />
    <glyph glyph-name="Umacron" unicode="&#x16a;" horiz-adv-x="1529" 
d="M416 1679v150h696v-150h-696zM764 -31q-142 0 -255 38t-196.5 114.5t-128.5 200.5t-45 288v793h363v-844q0 -224 66.5 -324t195.5 -100t195.5 100t66.5 324v844h365v-793q0 -164 -45 -288t-129 -200.5t-197.5 -114.5t-255.5 -38z" />
    <glyph glyph-name="umacron" unicode="&#x16b;" horiz-adv-x="1255" 
d="M279 1520h696v-150h-696v150zM782 1094h338v-1112l-303 176q-50 -82 -142.5 -135.5t-215.5 -53.5q-324 0 -324 340v785h338v-746q0 -84 33 -119.5t96 -35.5q116 0 180 114v787z" />
    <glyph glyph-name="Ubreve" unicode="&#x16c;" horiz-adv-x="1529" 
d="M766 1757q224 0 307 180q6 -166 -72.5 -265t-234.5 -99q-159 0 -237 99t-70 265q77 -180 307 -180zM764 -31q-142 0 -255 38t-196.5 114.5t-128.5 200.5t-45 288v793h363v-844q0 -224 66.5 -324t195.5 -100t195.5 100t66.5 324v844h365v-793q0 -164 -45 -288t-129 -200.5
t-197.5 -114.5t-255.5 -38z" />
    <glyph glyph-name="Uring" unicode="&#x16e;" horiz-adv-x="1529" 
d="M764 1516q114 0 193 70.5t79 191.5q0 119 -79.5 190.5t-192.5 71.5q-112 0 -192 -71.5t-80 -190.5q0 -121 79.5 -191.5t192.5 -70.5zM764 1929q68 0 111 -40t43 -111q0 -73 -43 -113.5t-111 -40.5q-67 0 -109.5 40.5t-42.5 113.5q0 71 42.5 111t109.5 40zM764 -31
q-142 0 -255 38t-196.5 114.5t-128.5 200.5t-45 288v793h363v-844q0 -224 66.5 -324t195.5 -100t195.5 100t66.5 324v844h365v-793q0 -164 -45 -288t-129 -200.5t-197.5 -114.5t-255.5 -38z" />
    <glyph glyph-name="uring" unicode="&#x16f;" horiz-adv-x="1255" 
d="M627 1233q-106 0 -180 66.5t-74 179.5t74 179t180 66t181 -66.5t75 -178.5q0 -113 -75 -179.5t-181 -66.5zM627 1636q-70 0 -113 -41.5t-43 -115.5q0 -75 43.5 -116.5t112.5 -41.5q70 0 113.5 42t43.5 116t-43.5 115.5t-113.5 41.5zM782 1094h338v-1112l-303 176
q-50 -82 -142.5 -135.5t-215.5 -53.5q-324 0 -324 340v785h338v-746q0 -84 33 -119.5t96 -35.5q116 0 180 114v787z" />
    <glyph glyph-name="Uhungarumlaut" unicode="&#x170;" horiz-adv-x="1529" 
d="M629 1921h321l-420 -373zM1081 1921h342l-526 -373zM764 -31q-142 0 -255 38t-196.5 114.5t-128.5 200.5t-45 288v793h363v-844q0 -224 66.5 -324t195.5 -100t195.5 100t66.5 324v844h365v-793q0 -164 -45 -288t-129 -200.5t-197.5 -114.5t-255.5 -38z" />
    <glyph glyph-name="uhungarumlaut" unicode="&#x171;" horiz-adv-x="1255" 
d="M393 1239l99 373h321zM944 1612h342l-526 -373zM782 307v787h338v-1112l-303 176q-50 -82 -142.5 -135.5t-215.5 -53.5q-324 0 -324 340v785h338v-746q0 -84 33 -119.5t96 -35.5q116 0 180 114z" />
    <glyph glyph-name="Uogonek" unicode="&#x172;" horiz-adv-x="1529" 
d="M1026 559v844h365v-793q0 -255 -106.5 -408t-299.5 -206q-205 -98 -205 -242q0 -84 90 -84q75 0 129 43q-22 -75 -86 -120.5t-157 -45.5q-85 0 -137 42t-52 118q0 153 189 262q-287 2 -452 161t-165 480v793h363v-844q0 -224 66.5 -324t195.5 -100t195.5 100t66.5 324z
" />
    <glyph glyph-name="uogonek" unicode="&#x173;" horiz-adv-x="1255" 
d="M1120 1094v-1112q-221 -101 -221 -254q0 -40 25 -61t69 -21q68 0 125 45q-23 -77 -82 -121.5t-153 -44.5q-85 0 -135 41.5t-50 118.5q0 109 93 197t260 141l-234 135q-50 -82 -142.5 -135.5t-215.5 -53.5q-324 0 -324 340v785h338v-746q0 -84 33 -119.5t96 -35.5
q116 0 180 114v787h338z" />
    <glyph glyph-name="Wcircumflex" unicode="&#x174;" horiz-adv-x="2306" 
d="M1241 1952l361 -412l-361 135l-358 -135zM1974 983l-106 420h405l-407 -1403h-402l-315 1042l-344 -1042h-381l-391 1403h364l318 -1155l368 1155h334l342 -1182z" />
    <glyph glyph-name="wcircumflex" unicode="&#x175;" horiz-adv-x="1849" 
d="M979 1642l360 -411l-360 155l-358 -155zM1425 326l236 768h166l-367 -1094h-268l-264 758l-262 -758h-277l-366 1094h364l242 -789l250 789h297z" />
    <glyph glyph-name="Ycircumflex" unicode="&#x176;" horiz-adv-x="1400" 
d="M727 1952l360 -412l-360 135l-358 -135zM977 1403h424l-527 -807v-596h-362v590l-512 813h432l373 -625l180 293z" />
    <glyph glyph-name="ycircumflex" unicode="&#x177;" horiz-adv-x="1148" 
d="M635 1642l360 -411l-360 155l-359 -155zM672 158l289 936h167l-481 -1473h-366l333 379h-227l-367 1094h365z" />
    <glyph glyph-name="Ydieresis" unicode="&#x178;" horiz-adv-x="1400" 
d="M469 1518q-69 0 -116.5 47.5t-47.5 115.5t47.5 116t116.5 48q66 0 114 -48.5t48 -115.5t-48 -115t-114 -48zM987 1518q-69 0 -117.5 47.5t-48.5 115.5t48.5 116t117.5 48q66 0 113 -48t47 -116q0 -67 -47 -115t-113 -48zM977 1403h424l-527 -807v-596h-362v590l-512 813
h432l373 -625l180 293z" />
    <glyph glyph-name="Zacute" unicode="&#x179;" horiz-adv-x="1312" 
d="M494 1475l145 299h397zM514 160h404l321 530v-690h-1124l-2 166l655 1077h-362l-322 -532v692h1110v-135z" />
    <glyph glyph-name="zacute" unicode="&#x17a;" horiz-adv-x="1112" 
d="M473 1239l111 373h362zM504 145h237l291 383v-528h-936v106l500 842h-244l-280 -399v545h927v-107z" />
    <glyph glyph-name="Zdotaccent" unicode="&#x17b;" horiz-adv-x="1312" 
d="M633 1513q-78 0 -133.5 55t-55.5 132q0 78 55.5 133t133.5 55q75 0 129.5 -55t54.5 -133q0 -76 -54.5 -131.5t-129.5 -55.5zM514 160h404l321 530v-690h-1124l-2 166l655 1077h-362l-322 -532v692h1110v-135z" />
    <glyph glyph-name="zdotaccent" unicode="&#x17c;" horiz-adv-x="1112" 
d="M559 1225q-72 0 -123 50.5t-51 121.5t51 122.5t123 51.5q69 0 119.5 -51.5t50.5 -122.5q0 -70 -50.5 -121t-119.5 -51zM504 145h237l291 383v-528h-936v106l500 842h-244l-280 -399v545h927v-107z" />
    <glyph glyph-name="Zcaron" unicode="&#x17d;" horiz-adv-x="1312" 
d="M991 1939l-360 -413l-359 413l359 -155zM514 160h404l321 530v-690h-1124l-2 166l655 1077h-362l-322 -532v692h1110v-135z" />
    <glyph glyph-name="zcaron" unicode="&#x17e;" horiz-adv-x="1112" 
d="M555 1499l360 156l-360 -412l-358 412zM504 145h237l291 383v-528h-936v106l500 842h-244l-280 -399v545h927v-107z" />
    <glyph glyph-name="Aringacute" unicode="&#x1fa;" horiz-adv-x="1478" 
d="M735 1466q-113 0 -192.5 70t-79.5 190q0 165 229 394h328l-252 -133q103 -9 171.5 -79.5t68.5 -181.5q0 -120 -79.5 -190t-193.5 -70zM735 1880q-68 0 -109.5 -40.5t-41.5 -113.5q0 -72 41.5 -111.5t109.5 -39.5t111 40t43 111q0 73 -43 113.5t-111 40.5zM1436 0h-373
l-143 426h-551l88 -426h-416l489 1403h433zM639 1255l-219 -675h448z" />
    <glyph glyph-name="aringacute" unicode="&#x1fb;" horiz-adv-x="1173" 
d="M588 1233q-106 0 -181 66.5t-75 179.5q0 93 54.5 185t166.5 226h246l-262 -170q32 4 51 4q106 0 180 -66t74 -179t-74 -179.5t-180 -66.5zM743 1479q0 75 -43 116t-112 41q-70 0 -114 -41.5t-44 -115.5t44 -116t114 -42q69 0 112 41.5t43 116.5zM1038 739l2 -737
l-301 145q-51 -74 -146.5 -122t-219.5 -48q-145 0 -220 76t-75 201q3 144 91 221.5t284 142.5q50 17 83.5 30.5t69 33.5t56 41.5t34 52t13.5 66.5q0 72 -47 105.5t-146 33.5h-31l-299 -336v410q58 26 172.5 47.5t239.5 21.5q86 0 151 -10.5t121 -36.5t91.5 -69t55.5 -110.5
t21 -158.5zM537 182q95 0 165 66v362q-55 -52 -151 -106q-72 -41 -103.5 -89.5t-31.5 -115.5q0 -56 31 -86.5t90 -30.5z" />
    <glyph glyph-name="AEacute" unicode="&#x1fc;" horiz-adv-x="1935" 
d="M1178 1475l145 299h397zM1864 1403v-160h-654l31 -426h479v-160h-467l35 -497h576v-160h-928l-33 438h-487l-45 -80l20 -358h-424l791 1403h1106zM848 1219l-348 -627h393z" />
    <glyph glyph-name="aeacute" unicode="&#x1fd;" horiz-adv-x="1796" 
d="M838 1239l110 373h363zM1247 1124q545 0 449 -624h-635q15 -150 82 -215.5t198 -65.5q243 0 349 193q1 -115 -36 -202t-102.5 -138.5t-148.5 -77t-182 -25.5q-292 0 -422 189q-62 -78 -168 -129.5t-238 -51.5q-159 0 -237 74.5t-78 200.5q1 74 25.5 130.5t75 99.5
t117 74.5t163.5 61.5q130 42 193 89.5t63 132.5q0 72 -47 104.5t-146 32.5h-16l-334 -332v410q58 26 177.5 47.5t238.5 21.5q120 0 201 -21.5t131 -74.5q137 96 327 96zM1247 977q-84 0 -136.5 -96.5t-53.5 -272.5l329 72q-1 165 -33 231t-106 66zM551 180q110 0 197 76
q-48 121 -48 285q0 33 2 47q-53 -53 -153 -109q-72 -39 -102.5 -80.5t-30.5 -97.5q0 -121 135 -121z" />
    <glyph glyph-name="Oslashacute" unicode="&#x1fe;" horiz-adv-x="1650" 
d="M686 1475l145 299h398zM1497 1294l-108 -110q159 -196 159 -484q0 -220 -95.5 -387.5t-259 -255.5t-368.5 -88q-277 0 -473 160l-106 -109l-129 125l112 115q-129 184 -129 440q0 221 95.5 389t259.5 256.5t370 88.5q247 0 430 -129l113 114zM498 700q0 -94 8 -157
l563 573q-87 152 -244 152q-155 0 -241 -147t-86 -421zM825 135q154 0 241 146t87 419q0 124 -18 226l-578 -590q84 -201 268 -201z" />
    <glyph glyph-name="oslashacute" unicode="&#x1ff;" horiz-adv-x="1257" 
d="M545 1239l110 373h363zM1176 975l-82 -82q94 -143 94 -344q0 -138 -43.5 -249.5t-120 -183t-177.5 -109.5t-218 -38q-200 0 -342 103l-68 -70l-129 125l74 74q-94 147 -94 348q0 137 43.5 247.5t120 181.5t177.5 108.5t218 37.5q199 0 340 -102l84 86zM422 549
q0 -55 2 -82l369 377q-54 135 -164 135q-94 0 -150.5 -106.5t-56.5 -323.5zM629 123q95 0 151 104.5t56 321.5q0 53 -2 78l-367 -373q53 -131 162 -131z" />
    <glyph glyph-name="uni0218" unicode="&#x218;" horiz-adv-x="1361" 
d="M766 885q250 -42 357.5 -148t107.5 -295q0 -473 -592 -473q-165 0 -293.5 22.5t-200.5 49.5v477l408 -395q16 -2 53 -2q155 0 238.5 59t83.5 160q0 91 -63.5 138.5t-233.5 74.5q-270 40 -390 148t-120 309t155.5 312.5t442.5 111.5q281 0 430 -64v-438l-354 348
q-20 2 -66 2q-146 0 -225.5 -46t-79.5 -134q0 -91 75.5 -138.5t266.5 -78.5zM694 -106q72 0 114 -46t42 -116q0 -74 -49.5 -154t-153.5 -156l-94 -67l72 250q-40 17 -64 53t-24 80q0 65 43 110.5t114 45.5z" />
    <glyph glyph-name="uni0219" unicode="&#x219;" horiz-adv-x="1015" 
d="M596 694q172 -39 258 -121t86 -237q0 -173 -118 -270t-363 -97q-99 0 -201.5 13t-165.5 34v406l328 -307q10 -2 33 -2q96 0 154.5 36t58.5 103t-49.5 101.5t-192.5 66.5q-177 40 -265.5 126t-88.5 236q0 157 114 249.5t342 92.5q96 0 190 -13.5t146 -33.5v-383l-303 289
h-22q-193 0 -193 -119q0 -63 55.5 -99t196.5 -71zM485 -115q69 0 110.5 -43t41.5 -108q0 -82 -47.5 -162.5t-161.5 -173.5l-88 -70l86 279q-44 13 -69 49t-25 82q0 62 42 104.5t111 42.5z" />
    <glyph glyph-name="uni021A" unicode="&#x21a;" horiz-adv-x="1232" 
d="M23 1403h1187v-162h-411v-1243h-365v1243h-411v162zM629 -106q71 0 113 -46t42 -116q0 -74 -49.5 -154t-152.5 -156l-95 -67l72 250q-40 17 -64 53t-24 80q0 65 43.5 110.5t114.5 45.5z" />
    <glyph glyph-name="uni021B" unicode="&#x21b;" horiz-adv-x="991" 
d="M606 115l320 352v-449q-139 -49 -314 -49q-393 0 -393 416v563h-201v146h201v280h338v-280h324v-146h-324v-633q0 -148 49 -200zM602 -115q69 0 110.5 -43t41.5 -108q0 -82 -47.5 -162.5t-161.5 -173.5l-88 -70l86 281q-44 12 -69 47.5t-25 81.5q0 62 42 104.5t111 42.5z
" />
    <glyph glyph-name="uni0237" unicode="&#x237;" horiz-adv-x="657" 
d="M160 -88v1182h338v-1045q0 -237 -108.5 -347t-317.5 -110q-83 0 -154 21v295l223 -172q19 68 19 176z" />
    <glyph glyph-name="gravecomb" unicode="&#x300;" 
d="M-193 1612l111 -373l-473 373h362z" />
    <glyph glyph-name="acutecomb" unicode="&#x301;" 
d="M-555 1239l111 373h362z" />
    <glyph glyph-name="uni0302" unicode="&#x302;" 
d="M-813 1231l358 411l361 -411l-361 155z" />
    <glyph glyph-name="tildecomb" unicode="&#x303;" 
d="M-756 1298q35 88 70 128t92 40q33 0 62.5 -17.5t52.5 -42t48 -49t60 -42t76 -17.5q92 0 146.5 82t54.5 248q-37 -90 -71 -129t-91 -39q-33 0 -62.5 17.5t-52.5 42t-48 49t-60 42t-76 17.5q-92 0 -146.5 -82t-54.5 -248z" />
    <glyph glyph-name="uni0304" unicode="&#x304;" 
d="M-90 1370h-696v150h696v-150z" />
    <glyph glyph-name="uni0306" unicode="&#x306;" 
d="M-401 1444q224 0 307 184q6 -168 -72.5 -269.5t-234.5 -101.5q-159 0 -237.5 101.5t-70.5 269.5q77 -184 308 -184z" />
    <glyph glyph-name="uni0307" unicode="&#x307;" 
d="M-270 1225q-72 0 -123 50.5t-51 121.5t51 122.5t123 51.5q69 0 119.5 -51.5t50.5 -122.5q0 -70 -50.5 -121t-119.5 -51z" />
    <glyph glyph-name="uni0308" unicode="&#x308;" 
d="M-797 1251q-67 0 -114 47t-47 113t47 114t114 48q66 0 112 -48t46 -114t-46 -113t-112 -47zM-295 1251q-69 0 -116.5 47t-47.5 113q0 67 47.5 114.5t116.5 47.5q64 0 111 -48t47 -114t-46.5 -113t-111.5 -47z" />
    <glyph glyph-name="uni030A" unicode="&#x30a;" 
d="M-322 1233q106 0 181 66.5t75 179.5q0 112 -75 178.5t-181 66.5t-179.5 -66t-73.5 -179t73.5 -179.5t179.5 -66.5zM-322 1636q70 0 114 -41.5t44 -115.5t-44 -116t-114 -42q-69 0 -112 41.5t-43 116.5t43 116t112 41z" />
    <glyph glyph-name="uni030B" unicode="&#x30b;" 
d="M-817 1612h321l-419 -373zM-365 1612h342l-526 -373z" />
    <glyph glyph-name="uni030C" unicode="&#x30c;" 
d="M-82 1655l-360 -412l-359 412l359 -156z" />
    <glyph glyph-name="uni0312" unicode="&#x312;" 
d="M-205 1708l103 88l-93 -280q39 -19 62.5 -55t23.5 -77q0 -66 -43.5 -111.5t-113.5 -45.5q-72 0 -115 45t-43 112q0 75 53 152.5t166 171.5z" />
    <glyph glyph-name="uni0326" unicode="&#x326;" 
d="M-305 -115q69 0 110 -43t41 -108q0 -82 -47.5 -162.5t-160.5 -173.5l-89 -70l86 281q-44 12 -69 47.5t-25 81.5q0 62 42.5 104.5t111.5 42.5z" />
    <glyph glyph-name="uni0327" unicode="&#x327;" 
d="M-334 -496q116 0 181 52t65 155q0 96 -77 144.5t-210 48.5l58 129h-125l-90 -211q114 -3 172.5 -26t58.5 -77q0 -88 -121 -88q-60 0 -110 14.5t-111 49.5q35 -83 114 -137t195 -54z" />
    <glyph glyph-name="uni0328" unicode="&#x328;" 
d="M-109 55l21 -55q-221 -101 -221 -254q0 -40 25 -61t69 -21q68 0 125 45q-23 -77 -82 -121.5t-154 -44.5q-85 0 -134.5 41.5t-49.5 118.5q0 118 106 210t295 142z" />
    <glyph glyph-name="Wgrave" unicode="&#x1e80;" horiz-adv-x="2306" 
d="M811 1774h395l146 -299zM1974 983l-106 420h405l-407 -1403h-402l-315 1042l-344 -1042h-381l-391 1403h364l318 -1155l368 1155h334l342 -1182z" />
    <glyph glyph-name="wgrave" unicode="&#x1e81;" horiz-adv-x="1849" 
d="M559 1612h363l110 -373zM1425 326l236 768h166l-367 -1094h-268l-264 758l-262 -758h-277l-366 1094h364l242 -789l250 789h297z" />
    <glyph glyph-name="Wacute" unicode="&#x1e82;" horiz-adv-x="2306" 
d="M1104 1475l145 299h398zM1974 983l-106 420h405l-407 -1403h-402l-315 1042l-344 -1042h-381l-391 1403h364l318 -1155l368 1155h334l342 -1182z" />
    <glyph glyph-name="wacute" unicode="&#x1e83;" horiz-adv-x="1849" 
d="M895 1239l111 373h362zM1425 326l236 768h166l-367 -1094h-268l-264 758l-262 -758h-277l-366 1094h364l242 -789l250 789h297z" />
    <glyph glyph-name="Wdieresis" unicode="&#x1e84;" horiz-adv-x="2306" 
d="M985 1518q-69 0 -116.5 47.5t-47.5 115.5t47.5 116t116.5 48q66 0 114 -48.5t48 -115.5t-48 -115t-114 -48zM1503 1518q-69 0 -117.5 47.5t-48.5 115.5t48.5 116t117.5 48q66 0 113 -48t47 -116q0 -67 -47 -115t-113 -48zM1974 983l-106 420h405l-407 -1403h-402
l-315 1042l-344 -1042h-381l-391 1403h364l318 -1155l368 1155h334l342 -1182z" />
    <glyph glyph-name="wdieresis" unicode="&#x1e85;" horiz-adv-x="1849" 
d="M729 1251q-67 0 -114.5 47t-47.5 113t47.5 114t114.5 48q66 0 112 -48t46 -114t-46 -113t-112 -47zM1231 1251q-69 0 -116.5 47t-47.5 113q0 67 47.5 114.5t116.5 47.5q64 0 111 -48t47 -114t-46.5 -113t-111.5 -47zM1425 326l236 768h166l-367 -1094h-268l-264 758
l-262 -758h-277l-366 1094h364l242 -789l250 789h297z" />
    <glyph glyph-name="uni1E9E" unicode="&#x1e9e;" horiz-adv-x="1503" 
d="M1323 1343l-260 -569q177 -37 280 -130t103 -255q0 -207 -138 -311.5t-368 -104.5q-166 0 -291 35v359l283 -240q66 31 100.5 100.5t34.5 159.5q0 140 -99.5 214.5t-289.5 80.5l252 575q-93 11 -148 11q-155 0 -229 -87t-74 -263v-918h-364v823q0 140 32.5 246.5t89 175
t142 111.5t182.5 60.5t219 17.5q155 0 300.5 -26.5t242.5 -64.5z" />
    <glyph glyph-name="Ygrave" unicode="&#x1ef2;" horiz-adv-x="1400" 
d="M297 1774h395l146 -299zM977 1403h424l-527 -807v-596h-362v590l-512 813h432l373 -625l180 293z" />
    <glyph glyph-name="ygrave" unicode="&#x1ef3;" horiz-adv-x="1148" 
d="M215 1612h363l110 -373zM672 158l289 936h167l-481 -1473h-366l333 379h-227l-367 1094h365z" />
    <glyph glyph-name="endash" unicode="&#x2013;" horiz-adv-x="1384" 
d="M1249 553v145h-1116v-145h1116z" />
    <glyph glyph-name="emdash" unicode="&#x2014;" horiz-adv-x="1726" 
d="M1593 553v145h-1460v-145h1460z" />
    <glyph glyph-name="quoteleft" unicode="&#x2018;" horiz-adv-x="481" 
d="M395 1432l-92 -318q39 -21 63.5 -58.5t24.5 -82.5q0 -66 -44 -111t-116 -45q-70 0 -112.5 45t-42.5 111q0 166 194 346z" />
    <glyph glyph-name="quoteright" unicode="&#x2019;" horiz-adv-x="481" 
d="M250 1434q71 0 113.5 -44.5t42.5 -111.5q0 -165 -195 -348l-125 -113l92 320q-38 21 -62 59t-24 82q0 66 43 111t115 45z" />
    <glyph glyph-name="quotesinglbase" unicode="&#x201a;" horiz-adv-x="481" 
d="M250 260q71 0 113.5 -44.5t42.5 -111.5q0 -165 -195 -346l-125 -112l92 319q-38 21 -62 58.5t-24 80.5q0 66 43 111t115 45z" />
    <glyph glyph-name="quotedblleft" unicode="&#x201c;" horiz-adv-x="833" 
d="M279 1323l124 113l-92 -320q38 -21 62 -58.5t24 -80.5q0 -66 -43.5 -111t-113.5 -45q-71 0 -113.5 44.5t-42.5 111.5q0 165 195 346zM754 1436l-92 -320q39 -21 63.5 -58.5t24.5 -80.5q0 -66 -44 -111t-114 -45q-72 0 -115 45t-43 111q0 164 197 346z" />
    <glyph glyph-name="quotedblright" unicode="&#x201d;" horiz-adv-x="833" 
d="M250 1434q71 0 113.5 -44.5t42.5 -111.5q0 -165 -195 -348l-125 -113l92 320q-38 21 -62 59t-24 82q0 66 43 111t115 45zM602 1434q70 0 113 -45t43 -111q0 -165 -195 -348l-125 -113l92 320q-38 21 -62 59t-24 82q0 66 43 111t115 45z" />
    <glyph glyph-name="quotedblbase" unicode="&#x201e;" horiz-adv-x="1007" 
d="M276 334q84 0 133.5 -52t49.5 -130q0 -193 -226 -385l-151 -132l113 359q-45 24 -73 66.5t-28 91.5q0 77 49.5 129.5t132.5 52.5zM680 334q82 0 131 -52t49 -130q0 -194 -223 -385l-154 -132l113 359q-45 24 -72.5 66t-27.5 92q0 77 50.5 129.5t133.5 52.5z" />
    <glyph glyph-name="dagger" unicode="&#x2020;" horiz-adv-x="1062" 
d="M618 1157h281v-160h-281v-659h-174v659h-280v160h280v246h174v-246z" />
    <glyph glyph-name="daggerdbl" unicode="&#x2021;" horiz-adv-x="1062" 
d="M899 1165v-159h-281v-273h281v-158h-281v-237h-174v237h-280v158h280v273h-280v159h280v238h174v-238h281z" />
    <glyph glyph-name="bullet" unicode="&#x2022;" horiz-adv-x="862" 
d="M432 440q-92 0 -158.5 67t-66.5 159t66.5 157.5t158.5 65.5t157.5 -65.5t65.5 -157.5q0 -93 -65.5 -159.5t-157.5 -66.5z" />
    <glyph glyph-name="ellipsis" unicode="&#x2026;" horiz-adv-x="1556" 
d="M336 -31q-82 0 -139.5 57.5t-57.5 139.5q0 80 57.5 137t139.5 57q80 0 137 -57t57 -137q0 -82 -57 -139.5t-137 -57.5zM778 -31q-80 0 -137 57.5t-57 139.5q0 80 57 137t137 57t137.5 -57.5t57.5 -136.5q0 -81 -57.5 -139t-137.5 -58zM1223 -31q-82 0 -139.5 57.5
t-57.5 139.5q0 80 57.5 137t139.5 57q79 0 136.5 -57t57.5 -137q0 -82 -57 -139.5t-137 -57.5z" />
    <glyph glyph-name="perthousand" unicode="&#x2030;" horiz-adv-x="2453" 
d="M422 692q160 0 266.5 100.5t106.5 270.5t-106.5 270.5t-266.5 100.5t-265.5 -100.5t-105.5 -270.5t105.5 -270.5t265.5 -100.5zM197 0l1040 1403h219l-1040 -1403h-219zM422 1298q115 0 115 -235q0 -236 -115 -236q-56 0 -85.5 60.5t-29.5 175.5t29.5 175t85.5 60z
M1227 -31q160 0 266 100t106 269q0 172 -106 272.5t-266 100.5t-265.5 -100.5t-105.5 -272.5q0 -169 105.5 -269t265.5 -100zM2030 -31q160 0 266 100t106 269q0 172 -106 272.5t-266 100.5t-265.5 -100.5t-105.5 -272.5q0 -169 105.5 -269t265.5 -100zM1227 575
q114 0 114 -237q0 -234 -114 -234q-56 0 -85.5 60t-29.5 174q0 116 29.5 176.5t85.5 60.5zM2030 575q114 0 114 -237q0 -234 -114 -234q-113 0 -113 234q0 237 113 237z" />
    <glyph glyph-name="guilsinglleft" unicode="&#x2039;" horiz-adv-x="704" 
d="M72 596l549 440l-179 -438l179 -422z" />
    <glyph glyph-name="guilsinglright" unicode="&#x203a;" horiz-adv-x="704" 
d="M84 1036l549 -440l-549 -420l178 422z" />
    <glyph glyph-name="fraction" unicode="&#x2044;" horiz-adv-x="1349" 
d="M45 0l1040 1403h220l-1041 -1403h-219z" />
    <glyph glyph-name="Euro" unicode="&#x20ac;" horiz-adv-x="1406" 
d="M938 223q273 0 405 226q-63 -480 -536 -480q-271 0 -434 136.5t-203 369.5h-182v148h170v4q0 100 16 198h-186v148h227q81 222 263 341.5t429 119.5q126 0 232 -16t164 -38v-559l-363 445h-6q-140 0 -231 -76t-130 -217h365v-148h-389q-4 -62 -4 -96q0 -40 4 -106h389
v-148h-360q81 -252 360 -252z" />
    <glyph glyph-name="trademark" unicode="&#x2122;" horiz-adv-x="1910" 
d="M244 1286h-195v117h641v-117h-194v-641h-252v641zM1757 1403v-758h-254v559l-207 -538h-190l-219 567v-297l104 -291h-233v758h338l174 -453l174 453h313z" />
    <glyph glyph-name="minus" unicode="&#x2212;" horiz-adv-x="1171" 
d="M129 567v162h913v-162h-913z" />
    <glyph glyph-name="approxequal" unicode="&#x2248;" horiz-adv-x="1132" 
d="M373 768q-81 0 -136.5 -23.5t-113.5 -72.5v184q59 40 115 59t139 19q60 0 114.5 -16.5t89.5 -37t83 -37t96 -16.5q77 0 135 24.5t115 72.5v-185q-59 -39 -117 -58.5t-137 -18.5q-57 1 -110 17.5t-87.5 36t-84.5 36t-101 16.5zM373 397q-78 0 -135.5 -24t-114.5 -72v186
q58 39 115.5 58.5t138.5 19.5q59 0 113.5 -16.5t89.5 -36.5t83.5 -36.5t96.5 -16.5q78 0 135.5 24t114.5 72v-186q-58 -39 -115.5 -58.5t-138.5 -19.5q-57 1 -110 17.5t-87.5 36t-84.5 36t-101 16.5z" />
    <glyph glyph-name="notequal" unicode="&#x2260;" horiz-adv-x="1171" 
d="M895 1114l-109 -246h256v-161h-913v161h467l106 246h193zM336 360h-207v162h913v-162h-516l-106 -245h-191z" />
    <glyph glyph-name="lessequal" unicode="&#x2264;" horiz-adv-x="1220" 
d="M469 676l524 -168v-199l-768 279v174l768 278v-198zM176 49v162h862v-162h-862z" />
    <glyph glyph-name="greaterequal" unicode="&#x2265;" horiz-adv-x="1220" 
d="M221 1040l770 -278v-174l-770 -279v199l524 168l-524 166v198zM178 49v162h860v-162h-860z" />
    <glyph glyph-name="lozenge" unicode="&#x25ca;" horiz-adv-x="1251" 
d="M535 1403h184l479 -703l-479 -700h-184l-482 700zM242 702l385 -565l383 563l-383 566z" />
    <glyph glyph-name="Adieresis.ss01" horiz-adv-x="1478" 
d="M498 1898l182 -186l-182 -184l-187 184zM997 1898l185 -186l-185 -184l-184 184zM1436 0h-373l-143 426h-551l88 -426h-416l489 1403h433zM639 1255l-219 -675h448z" />
    <glyph glyph-name="Cdotaccent.ss01" horiz-adv-x="1468" 
d="M1059 1712l-182 -184l-187 184l187 186zM924 133q-214 0 -321 148.5t-107 418.5t108.5 420t319.5 150q33 0 47 -2l352 -410v512q-58 27 -170.5 45.5t-263.5 18.5q-234 0 -411.5 -86t-277.5 -253.5t-100 -394.5q0 -228 99 -394t276.5 -251.5t413.5 -85.5q150 0 262.5 18
t171.5 44v481l-344 -377q-9 0 -27.5 -1t-27.5 -1z" />
    <glyph glyph-name="Edieresis.ss01" horiz-adv-x="1239" 
d="M453 1898l182 -186l-182 -184l-187 184zM952 1898l185 -186l-185 -184l-184 184zM1165 1403v-162h-628v-420h485v-159h-485v-500h628v-162h-991v1403h991z" />
    <glyph glyph-name="Edotaccent.ss01" horiz-adv-x="1239" 
d="M705 1898l182 -186l-182 -184l-187 184zM1165 1403v-162h-628v-420h485v-159h-485v-500h628v-162h-991v1403h991z" />
    <glyph glyph-name="Gdotaccent.ss01" horiz-adv-x="1542" 
d="M821 1898l183 -186l-183 -184l-186 184zM1436 815v-815l-277 115q-153 -146 -411 -146q-297 0 -472.5 197.5t-175.5 531.5q0 338 212.5 537t572.5 199q133 0 257 -19t181 -45v-389l-399 293h-39q-192 0 -289.5 -151.5t-97.5 -424.5q0 -262 88 -407.5t260 -145.5
q146 0 231 91v417h-364v162h723z" />
    <glyph glyph-name="Idieresis.ss01" horiz-adv-x="710" 
d="M287 1712l-183 -184l-186 184l186 186zM788 1712l-184 -184l-184 184l184 186zM174 0v1403h363v-1403h-363z" />
    <glyph glyph-name="Idotaccent.ss01" horiz-adv-x="710" 
d="M539 1712l-183 -184l-186 184l186 186zM174 0v1403h363v-1403h-363z" />
    <glyph glyph-name="Odieresis.ss01" horiz-adv-x="1650" 
d="M758 1712l-183 -184l-186 184l186 186zM1260 1712l-185 -184l-184 184l184 186zM825 -31q-206 0 -370 88t-259.5 255.5t-95.5 387.5q0 221 95.5 389t259.5 256.5t370 88.5q205 0 368.5 -88.5t259 -256.5t95.5 -389q0 -220 -95.5 -387.5t-259 -255.5t-368.5 -88zM825 135
q154 0 241 146t87 419q0 274 -87 421t-241 147q-155 0 -241 -147t-86 -421t86 -419.5t241 -145.5z" />
    <glyph glyph-name="Udieresis.ss01" horiz-adv-x="1529" 
d="M696 1712l-182 -184l-186 184l186 186zM1198 1712l-184 -184l-185 184l185 186zM764 -31q-142 0 -255 38t-196.5 114.5t-128.5 200.5t-45 288v793h363v-844q0 -224 66.5 -324t195.5 -100t195.5 100t66.5 324v844h365v-793q0 -164 -45 -288t-129 -200.5t-197.5 -114.5
t-255.5 -38z" />
    <glyph glyph-name="Wdieresis.ss01" horiz-adv-x="2306" 
d="M993 1898l183 -186l-183 -184l-186 184zM1493 1898l184 -186l-184 -184l-184 184zM1974 983l-106 420h405l-407 -1403h-402l-315 1042l-344 -1042h-381l-391 1403h364l318 -1155l368 1155h334l342 -1182z" />
    <glyph glyph-name="Ydieresis.ss01" horiz-adv-x="1400" 
d="M477 1898l182 -186l-182 -184l-186 184zM977 1898l184 -186l-184 -184l-184 184zM977 1403h424l-527 -807v-596h-362v590l-512 813h432l373 -625l180 293z" />
    <glyph glyph-name="Zdotaccent.ss01" horiz-adv-x="1312" 
d="M633 1898l182 -186l-182 -184l-187 184zM514 160h404l321 530v-690h-1124l-2 166l655 1077h-362l-322 -532v692h1110v-135z" />
    <glyph glyph-name="i.loclTRK" horiz-adv-x="641" 
d="M324 1225q-72 0 -123 50.5t-51 121.5t51 122.5t123 51.5q69 0 119.5 -51.5t50.5 -122.5q0 -70 -50.5 -121t-119.5 -51zM489 1094v-1094h-337v1094h337z" />
    <glyph glyph-name="j.alt" horiz-adv-x="657" 
d="M330 1188q-74 0 -127 52.5t-53 127.5t53 127.5t127 52.5t127 -52.5t53 -127.5t-53 -127.5t-127 -52.5zM498 1094v-1039q0 -235 -103.5 -346.5t-285.5 -116.5q29 66 40 133.5t11 186.5v1182h338z" />
    <glyph glyph-name="adieresis.ss01" horiz-adv-x="1173" 
d="M336 1589l182 -186l-182 -184l-186 184zM836 1589l184 -186l-184 -184l-185 184zM1038 739l2 -737l-301 145q-51 -74 -146.5 -122t-219.5 -48q-145 0 -220 76t-75 201q3 144 91 221.5t284 142.5q50 17 83.5 30.5t69 33.5t56 41.5t34 52t13.5 66.5q0 72 -47 105.5
t-146 33.5h-31l-299 -336v410q58 26 172.5 47.5t239.5 21.5q86 0 151 -10.5t121 -36.5t91.5 -69t55.5 -110.5t21 -158.5zM537 182q95 0 165 66v362q-55 -52 -151 -106q-72 -41 -103.5 -89.5t-31.5 -115.5q0 -56 31 -86.5t90 -30.5z" />
    <glyph glyph-name="cdotaccent.ss01" horiz-adv-x="1144" 
d="M668 1589l182 -186l-182 -184l-187 184zM719 217q227 0 334 209q0 -224 -129.5 -340.5t-354.5 -116.5q-234 0 -366.5 147.5t-132.5 403.5q0 276 161.5 440t442.5 164q105 0 198.5 -18.5t145.5 -44.5v-465l-330 377q-127 -10 -195.5 -118t-68.5 -273q0 -175 73.5 -270
t221.5 -95z" />
    <glyph glyph-name="edieresis.ss01" horiz-adv-x="1163" 
d="M373 1589l182 -186l-182 -184l-187 184zM872 1589l185 -186l-185 -184l-184 184zM614 1124q545 0 451 -624h-637q15 -150 82.5 -215.5t198.5 -65.5q242 0 350 193q0 -115 -37 -202t-103 -138.5t-149 -77t-182 -25.5q-252 0 -385 145t-133 427q0 277 150.5 430t393.5 153z
M614 977q-84 0 -136.5 -96.5t-53.5 -272.5l330 72q-1 165 -33 231t-107 66z" />
    <glyph glyph-name="edotaccent.ss01" horiz-adv-x="1163" 
d="M623 1589l182 -186l-182 -184l-187 184zM614 1124q545 0 451 -624h-637q15 -150 82.5 -215.5t198.5 -65.5q242 0 350 193q0 -115 -37 -202t-103 -138.5t-149 -77t-182 -25.5q-252 0 -385 145t-133 427q0 277 150.5 430t393.5 153zM614 977q-84 0 -136.5 -96.5
t-53.5 -272.5l330 72q-1 165 -33 231t-107 66z" />
    <glyph glyph-name="gdotaccent.ss01" horiz-adv-x="1173" 
d="M469 1589l184 -186l-184 -184l-184 184zM551 385l-33 -57q348 -23 499.5 -112.5t151.5 -260.5q0 -78 -29.5 -139t-83 -103t-131 -69t-169.5 -39.5t-203 -12.5q-272 0 -405.5 56.5t-133.5 185.5q0 105 101.5 174t312.5 88q-116 11 -311 17l278 290q-141 35 -224 126
t-83 225q0 170 134 270t339 100q60 0 107 -8l100 262h379l-350 -297q111 -44 174 -128t63 -199q0 -172 -133.5 -270.5t-339.5 -98.5h-10zM561 977q-69 0 -110 -59t-41 -164q0 -104 41 -163t110 -59q68 0 109 59t41 163q0 106 -40.5 164.5t-109.5 58.5zM573 -266
q133 0 215 44t82 118q0 57 -42.5 95t-139.5 64q-182 -26 -258 -79t-76 -119q0 -64 48 -93.5t171 -29.5z" />
    <glyph glyph-name="i.ss01" horiz-adv-x="641" 
d="M522 1343l-205 -204l-204 204l204 205zM489 1094v-1094h-337v1094h337z" />
    <glyph glyph-name="idieresis.ss01" horiz-adv-x="641" 
d="M72 1589l182 -186l-182 -184l-187 184zM571 1589l185 -186l-185 -184l-184 184zM489 1094v-1094h-337v1094h337z" />
    <glyph glyph-name="i.loclTRK.ss01" horiz-adv-x="641" 
d="M322 1589l182 -186l-182 -184l-187 184zM489 1094v-1094h-337v1094h337z" />
    <glyph glyph-name="j.ss01" horiz-adv-x="657" 
d="M317 1548l205 -205l-205 -204l-204 204zM160 -88v1182h338v-1045q0 -237 -108.5 -347t-317.5 -110q-83 0 -154 21v295l223 -172q19 68 19 176z" />
    <glyph glyph-name="odieresis.ss01" horiz-adv-x="1257" 
d="M379 1589l182 -186l-182 -184l-186 184zM879 1589l184 -186l-184 -184l-185 184zM629 -31q-117 0 -218 38t-177.5 109.5t-120 183t-43.5 249.5q0 137 43.5 247.5t120 181.5t177.5 108.5t218 37.5t218 -37.5t177.5 -108.5t120 -181.5t43.5 -247.5q0 -138 -43.5 -249.5
t-120 -183t-177.5 -109.5t-218 -38zM629 123q95 0 151 104.5t56 321.5t-56.5 323.5t-150.5 106.5t-150.5 -106.5t-56.5 -323.5t56 -321.5t151 -104.5z" />
    <glyph glyph-name="udieresis.ss01" horiz-adv-x="1255" 
d="M377 1589l182 -186l-182 -184l-187 184zM877 1589l184 -186l-184 -184l-185 184zM782 1094h338v-1112l-303 176q-50 -82 -142.5 -135.5t-215.5 -53.5q-324 0 -324 340v785h338v-746q0 -84 33 -119.5t96 -35.5q116 0 180 114v787z" />
    <glyph glyph-name="wdieresis.ss01" horiz-adv-x="1849" 
d="M729 1589l182 -186l-182 -184l-186 184zM1229 1589l184 -186l-184 -184l-185 184zM1425 326l236 768h166l-367 -1094h-268l-264 758l-262 -758h-277l-366 1094h364l242 -789l250 789h297z" />
    <glyph glyph-name="ydieresis.ss01" horiz-adv-x="1148" 
d="M385 1589l182 -186l-182 -184l-186 184zM885 1589l184 -186l-184 -184l-185 184zM672 158l289 936h167l-481 -1473h-366l333 379h-227l-367 1094h365z" />
    <glyph glyph-name="zdotaccent.ss01" horiz-adv-x="1112" 
d="M557 1589l182 -186l-182 -184l-186 184zM504 145h237l291 383v-528h-936v106l500 842h-244l-280 -399v545h927v-107z" />
    <glyph glyph-name="zero.dnom" horiz-adv-x="944" 
d="M469 -18q-167 0 -277 118.5t-110 319.5q0 203 110 321.5t277 118.5q168 0 280.5 -119.5t112.5 -320.5q0 -200 -112.5 -319t-280.5 -119zM469 88q131 0 131 332q0 334 -131 334q-123 0 -123 -334q0 -332 123 -332z" />
    <glyph glyph-name="one.dnom" horiz-adv-x="503" 
d="M131 666l-86 96l330 102v-864h-244v666z" />
    <glyph glyph-name="two.dnom" horiz-adv-x="802" 
d="M446 252l-215 -150l494 136v-238h-643v106l160 148q103 96 145.5 170.5t42.5 163.5q0 76 -35.5 119t-105.5 47l-211 -250v317q38 14 118 26.5t164 12.5q159 0 245.5 -68t86.5 -192q0 -76 -32.5 -139t-80.5 -106.5t-133 -102.5z" />
    <glyph glyph-name="three.dnom" horiz-adv-x="778" 
d="M485 422q111 -15 169.5 -70.5t58.5 -134.5q0 -114 -93 -174.5t-270 -60.5q-174 0 -278 34v287l229 -219q83 3 123.5 46t40.5 108q0 60 -42 93.5t-130 33.5h-107v108h99q83 0 124.5 42t41.5 110q0 59 -36 93.5t-106 37.5l-225 -211v282q38 13 115 24t166 11
q157 0 245 -55.5t88 -159.5q0 -85 -54.5 -145t-158.5 -80z" />
    <glyph glyph-name="four.dnom" horiz-adv-x="880" 
d="M666 262l153 195v-322h-157v-135h-242v135h-381v125l358 582h265v-580h4zM420 690l-266 -428h266v428z" />
    <glyph glyph-name="zero.numr" horiz-adv-x="944" 
d="M469 553q-167 0 -277 118.5t-110 319.5q0 203 110 322t277 119q168 0 280.5 -120t112.5 -321q0 -200 -112.5 -319t-280.5 -119zM469 659q131 0 131 332q0 334 -131 334q-123 0 -123 -334q0 -332 123 -332z" />
    <glyph glyph-name="one.numr" horiz-adv-x="503" 
d="M131 1239l-86 96l330 103v-865h-244v666z" />
    <glyph glyph-name="two.numr" horiz-adv-x="802" 
d="M446 825l-215 -149l494 135v-238h-643v107l160 147q103 96 145.5 170.5t42.5 163.5q0 76 -35.5 119t-105.5 47l-211 -250v318q38 14 118 26.5t164 12.5q159 0 245.5 -68t86.5 -192q0 -76 -32.5 -139t-80.5 -107t-133 -103z" />
    <glyph glyph-name="three.numr" horiz-adv-x="778" 
d="M485 991q111 -15 169.5 -70.5t58.5 -134.5q0 -114 -93 -174.5t-270 -60.5q-171 0 -278 35v286l229 -219q83 3 123.5 46t40.5 108q0 60 -42 93.5t-130 33.5h-107v108h99q83 0 124.5 42t41.5 110q0 59 -36 93.5t-106 37.5l-225 -211v283q38 13 115 24t166 11
q157 0 245 -55.5t88 -159.5q0 -85 -54.5 -145.5t-158.5 -80.5z" />
    <glyph glyph-name="four.numr" horiz-adv-x="880" 
d="M666 823l153 195v-322h-157v-135h-242v135h-381v125l358 582h265v-580h4zM420 1251l-266 -428h266v428z" />
    <glyph glyph-name="uni030C.alt" 
d="M-399 1012l47 506h284z" />
    <glyph glyph-name="uni0307.alt" 
d="M-289 1174q-75 0 -127.5 53.5t-52.5 128.5q0 74 52.5 127t127.5 53q73 0 126.5 -53t53.5 -127q0 -75 -53 -128.5t-127 -53.5z" />
    <glyph glyph-name="uni0308.case" 
d="M-805 1518q-69 0 -116.5 47.5t-47.5 115.5t47.5 116t116.5 48q66 0 114 -48.5t48 -115.5t-48 -115t-114 -48zM-287 1518q-69 0 -117.5 47.5t-48.5 115.5t48.5 116t117.5 48q66 0 113 -48t47 -116q0 -67 -47 -115t-113 -48z" />
    <glyph glyph-name="uni0307.case" 
d="M-270 1204q-78 0 -133.5 55t-55.5 132q0 78 55.5 133t133.5 55q75 0 129.5 -55t54.5 -133q0 -76 -54.5 -131.5t-129.5 -55.5z" />
    <glyph glyph-name="gravecomb.case" 
d="M-45 1475l-541 299h396z" />
    <glyph glyph-name="acutecomb.case" 
d="M-389 1774h397l-543 -299z" />
    <glyph glyph-name="uni030B.case" 
d="M-817 1612h321l-419 -373zM-365 1612h342l-526 -373z" />
    <glyph glyph-name="uni0302.case" 
d="M-455 1642l361 -411l-361 135l-358 -135z" />
    <glyph glyph-name="uni030C.case" 
d="M-82 1630l-360 -413l-359 413l359 -155z" />
    <glyph glyph-name="uni0306.case" 
d="M-401 1448q224 0 307 180q6 -166 -72.5 -265t-234.5 -99q-159 0 -237.5 99t-70.5 265q77 -180 308 -180z" />
    <glyph glyph-name="uni030A.case" 
d="M-322 1206q114 0 193.5 70.5t79.5 191.5q0 119 -80 191t-193 72q-112 0 -192 -72t-80 -191q0 -121 79.5 -191.5t192.5 -70.5zM-322 1620q68 0 111 -40t43 -112q0 -73 -43 -113t-111 -40q-67 0 -109 40t-42 113q0 72 42 112t109 40z" />
    <glyph glyph-name="tildecomb.case" 
d="M-756 1298q35 79 70 114.5t90 35.5q34 0 63.5 -15.5t53 -37.5t48.5 -44t60 -37.5t76 -15.5q92 0 146.5 82t54.5 248q-37 -80 -70.5 -114.5t-87.5 -34.5q-34 0 -64 15.5t-54 37.5t-49 43.5t-60 37t-76 15.5q-92 0 -146.5 -82t-54.5 -248z" />
    <glyph glyph-name="uni0304.case" 
d="M-786 1370v150h696v-150h-696z" />
    <glyph glyph-name="uni0326.case" 
d="M-301 -106q72 0 114 -46t42 -116q0 -74 -49.5 -154t-153.5 -156l-94 -67l71 250q-40 17 -64 53t-24 80q0 65 43.5 110.5t114.5 45.5z" />
    <glyph glyph-name="uni0327.case" 
d="M-375 -96l58 129h-117l-90 -203q57 -2 97.5 -7.5t72 -17t47.5 -32t16 -49.5q0 -93 -139 -93q-60 0 -109.5 15t-109.5 49q35 -84 115 -137.5t202 -53.5q117 0 185.5 52.5t68.5 154.5q0 97 -80 146t-217 47z" />
    <glyph glyph-name="uni0328.case" 
d="M-102 53l14 -53q-221 -101 -221 -250q0 -84 90 -84q75 0 129 43q-22 -75 -86.5 -120.5t-157.5 -45.5q-85 0 -136.5 42t-51.5 118q0 117 112 210t308 140z" />
    <glyph glyph-name="uni0308.ss01" 
d="M-801 1589l183 -186l-183 -184l-186 184zM-301 1589l184 -186l-184 -184l-184 184z" />
    <glyph glyph-name="uni0307.ss01" 
d="M-299 1589l182 -186l-182 -184l-186 184z" />
    <glyph glyph-name="uni0308.case.ss01" 
d="M-618 1403l-183 -184l-186 184l186 186zM-117 1403l-184 -184l-184 184l184 186z" />
    <glyph glyph-name="uni0307.case.ss01" 
d="M-117 1403l-182 -184l-186 184l186 186z" />
    </font>
</defs>
</svg>
