<?xml version="1.0" encoding="UTF-8"?>
<!-- Generator: Adobe Illustrator 27.0.1, SVG Export Plug-In . SVG Version: 6.00 Build 0)  -->
<svg xmlns="http://www.w3.org/2000/svg" xmlns:xlink="http://www.w3.org/1999/xlink" version="1.1" id="Layer_1" x="0px" y="0px" viewBox="0 0 1015.2 443" style="enable-background:new 0 0 1015.2 443;" xml:space="preserve">
<style type="text/css">
	.st0{fill:#FFFFFF;}
	.st1{opacity:0.48;fill:#B7B6B7;}
	.st2{fill:none;}
	.st3{fill:#B6B7B6;}
	.st4{fill:none;stroke:#F1F2F2;stroke-width:2.1441;stroke-linecap:round;stroke-linejoin:round;stroke-miterlimit:10;}
	.st5{fill:none;stroke:#F1F2F2;stroke-width:2.4414;stroke-linecap:round;stroke-linejoin:round;stroke-miterlimit:10;}
	.st6{fill:none;stroke:#000000;stroke-width:2.4414;stroke-linecap:round;stroke-linejoin:round;stroke-miterlimit:10;}
	.st7{fill:#FFFFFF;enable-background:new    ;}
	.st8{fill:#FFFFFF;stroke:#FFFFFF;stroke-width:31.0534;stroke-miterlimit:10;}
	.st9{fill:#FFFFFF;stroke:#FFFFFF;stroke-width:31.7685;stroke-miterlimit:10;}
	.st10{fill:#A01CA0;}
	.st11{fill:none;stroke:#FF8DBD;stroke-width:8.6796;stroke-miterlimit:10;}
	.st12{fill:none;stroke:#A01CA0;stroke-width:0.7698;stroke-miterlimit:10;}
	.st13{fill:#FCFAFB;}
	.st14{fill:none;stroke:#B6B7B6;stroke-width:6.938;stroke-linecap:round;stroke-miterlimit:10;}
</style>
<path class="st0" d="M767.4,84.9l-78.8,4.5l-72.1,235.1l70.8-4l10.4-33.2l79.8-5l13.1,32.5l74.5-3.9L767.4,84.9z M783.7,208.2  c-4.4,27.5-30.3,46.3-57.8,41.9c-27.5-4.4-46.3-30.3-41.9-57.8c4.4-27.5,30.3-46.3,57.8-41.9C769.3,154.8,788,180.6,783.7,208.2z"></path>
<path class="st1" d="M783.9,193.4c-2.8-21.6-19.5-39.7-42.1-43.3c-14.1-2.2-27.7,1.6-38.3,9.5C716.6,159,761.8,159.4,783.9,193.4z"></path>
<circle class="st2" cx="720.6" cy="201.4" r="30.5"></circle>
<path class="st3" d="M709.6,155.9c10.7-1.2,50.5-3.2,72.4,28.8c-5.6-17.5-20.7-31.3-40.1-34.4C730.3,148.5,719.1,150.7,709.6,155.9z  "></path>
<path class="st4" d="M896,316.8c0,0,18.2,22.6,7,32.6C891.9,359.3,889.5,326,896,316.8z"></path>
<path class="st5" d="M901.7,311.9c0,0,31.9,7.5,28.9,24.5C927.6,353.3,902.3,324.8,901.7,311.9z"></path>
<path class="st0" d="M898.8,304c0,0,16.4,28.3,10.9,34.3c-5.4,6-25.8,6.7-21.2-0.7C893.1,330.2,885.8,317,898.8,304z"></path>
<ellipse transform="matrix(0.972 -0.2351 0.2351 0.972 -54.1677 220.9469)" class="st3" cx="899.7" cy="337.7" rx="9.3" ry="2.5"></ellipse>
<ellipse transform="matrix(0.1257 -0.9921 0.9921 0.1257 484.1291 1152.6102)" class="st3" cx="896" cy="301.6" rx="10.6" ry="15.4"></ellipse>
<path class="st0" d="M953,137.9c0,0,60.9,23.2,62.2-22.5C1016.5,69.7,910.3,59,910.3,59s-91.2-15.8-101.4,28.8s70.4,37.5,70.4,37.5  s-44.1,169.6,13.9,181.5c57.9,11.8,51.7-176.2,51.7-176.2S944.6,134.2,953,137.9z"></path>
<path class="st0" d="M886.8,185.9c-2.9-0.4-5.6,1.5-6.6,4.4c0,0,0,0,0,0c0,0-5.8,18.4-2.2,57.8c0.4,3.1,3,5.2,6,4.9  c2.9-0.4,5-3.1,4.6-6.2c0,0-1.4-32.8,3.4-53.4c0,0,0,0,0,0c0-0.1,0-0.2,0.1-0.3C892.4,189.4,890.1,186.3,886.8,185.9z"></path>
<path class="st0" d="M893.6,132c-2.2,0-4.1,1.7-4.7,4.1c-0.3,1-2.7,10.3-3.3,15.7c-0.1,0.3-0.1,0.6-0.1,1c-0.1,3.2,2,5.8,4.7,5.8  c2.2,0,4.1-1.7,4.7-4.2c0,0,0,0,0,0s0,0,0-0.1c0-0.1,0-0.2,0.1-0.3c0.5-2.2,2.7-12.8,3.2-15c0-0.1,0-0.2,0-0.2c0-0.3,0.1-0.6,0.1-1  C898.3,134.7,896.3,132.1,893.6,132z"></path>
<path class="st0" d="M901.7,71.4c-1-2-3.1-3.3-5.2-3.5c-2.5-0.5-15.4-3.3-29.7-2.3c-16,0.5-33.8,5.8-39.7,11.8c0,0,0,0,0,0  c-1,1.1-1.7,2.4-2,3.8c-0.7,4.5,3.3,8.5,8.4,9.3c3.3,0.5,6.4-0.3,8.6-2.1c4-2.5,27.5-14.7,54.1-9.6c0,0,0,0,0,0c1,0.2,2,0.1,2.9-0.2  C901.9,77.3,903.1,74.2,901.7,71.4z"></path>
<path class="st3" d="M987.1,79.7c11.6,7.8,19.5,17.8,19.1,30.4c-1.1,40.6-49.2,26.9-60,23.3c1.1,1.3,3.1,2.9,6.8,4.5  c0,0,60.9,23.2,62.2-22.5C1015.6,99.7,1003.4,88.1,987.1,79.7z"></path>
<path class="st3" d="M944.1,132.6c-7.4-3.3-8.1-6.5-8.2-7.2c0.2,6.1,5.3,187.7-51.7,176c-1.3-0.3-2.6-0.6-3.8-1  c3.6,3.1,7.8,5.3,12.7,6.3c54.1,11.1,52.2-152.1,51.7-173.8C944.4,132.7,944.1,132.6,944.1,132.6z"></path>
<path class="st6" d="M892.6,311.9c0,0,6.4,1.1,10.3-0.2"></path>
<path class="st5" d="M892.6,313.5c0,0,8-3,11.7-3.2"></path>
<path class="st5" d="M903.6,313.1c0,0-11.3-2.1-13.1-2"></path>
<polygon class="st3" points="403.3,85.3 471.4,22.7 390,0 312.5,79.9 365,94.6 285,169.3 316.7,178.1 253.5,241.9 305.8,257.2   225,330.9 274.2,345.3 188.2,422.1 353.4,348.4 302.5,333.6 392.1,262.3 344.3,248.4 413,186.5 411.7,186.1 413.6,185.3 362.5,171   451.3,98.7 "></polygon>
<path class="st0" d="M422,234.9l-29.3,3.9l-9.1-80.7l29.3-3.9l-8.9-78.8L257.5,95l8.9,78.8l29.3-3.9l9.1,80.7l-29.3,3.9l8.9,78.8  l146.5-19.5L422,234.9z M321.1,125.2c1.3-7.7,8.5-12.8,16.2-11.6c7.7,1.3,12.8,8.5,11.6,16.2c-1.3,7.7-8.5,12.8-16.2,11.6  C325,140.1,319.8,132.8,321.1,125.2z M290,145.2c-7.7-1.3-12.8-8.5-11.6-16.2c1.3-7.7,8.5-12.8,16.2-11.6  c7.7,1.3,12.8,8.5,11.6,16.2C304.9,141.3,297.7,146.5,290,145.2z M322.2,292c-1.3,7.7-8.5,12.8-16.2,11.6  c-7.7-1.3-12.8-8.5-11.6-16.2c1.3-7.7,8.5-12.8,16.2-11.6C318.3,277.1,323.5,284.4,322.2,292z M324.2,178.7  c1.3-7.7,8.5-12.8,16.2-11.6c7.7,1.3,12.8,8.5,11.6,16.2c-1.3,7.7-8.5,12.8-16.2,11.6C328.1,193.6,322.9,186.4,324.2,178.7z   M331.5,231.9c1.3-7.7,8.5-12.8,16.2-11.6c7.7,1.3,12.8,8.5,11.6,16.2c-1.3,7.7-8.5,12.8-16.2,11.6  C335.4,246.8,330.2,239.6,331.5,231.9z M364.9,288.2c-1.3,7.7-8.5,12.8-16.2,11.6c-7.7-1.3-12.8-8.5-11.6-16.2s8.5-12.8,16.2-11.6  S366.1,280.5,364.9,288.2z M375.6,134.2c-7.7-1.3-12.8-8.5-11.6-16.2c1.3-7.7,8.5-12.8,16.2-11.6c7.7,1.3,12.8,8.5,11.6,16.2  C390.5,130.3,383.3,135.5,375.6,134.2z M407.8,281c-1.3,7.7-8.5,12.8-16.2,11.6c-7.7-1.3-12.8-8.5-11.6-16.2  c1.3-7.7,8.5-12.8,16.2-11.6C403.9,266.2,409.1,273.4,407.8,281z"></path>
<path class="st0" d="M535.2,165c0,0,25.1,4.5,28.5-17.8s-24.8-26.3-24.8-26.3s-16.8,1.9-17.6,22.9S535.2,165,535.2,165z"></path>
<path class="st0" d="M526.8,201.2c0,0,21.5,3.9,24.4-15.3c3-19.2-21.3-22.6-21.3-22.6s-14.4,1.6-15.1,19.6  C514.2,201,526.8,201.2,526.8,201.2z"></path>
<path class="st0" d="M540.1,123.8c0,0,21.5,3.9,24.4-15.3c3-19.2-21.3-22.6-21.3-22.6s-14.4,1.6-15.1,19.6S540.1,123.8,540.1,123.8z  "></path>
<path class="st0" d="M518.1,238.9c0,0,21.5,3.9,24.4-15.3c3-19.2-21.3-22.6-21.3-22.6s-14.4,1.6-15.1,19.6  C505.5,238.6,518.1,238.9,518.1,238.9z"></path>
<path class="st7" d="M477.6,74.5l65.5,11l-29.3,174.9l96,16.1l-9.3,55.3L439,304.7L477.6,74.5z"></path>
<path class="st0" d="M513.5,260.3c0,0,53-40.1,83.2-21.5c0,0,48.5-8.9,46.2,42.2s-75.5,46.3-72-11.2L513.5,260.3z"></path>
<path class="st0" d="M596.9,238.7c-2.7-1.6-5.5-2.8-8.5-3.6c17.8,13,26.3,36.8,26.3,36.8c5-24.4-12.1-33.7-12.1-33.7l0,0  C599.1,238.3,596.9,238.7,596.9,238.7z"></path>
<g>
	<polygon class="st0" points="815.3,404.7 819.1,404.9 817.5,398.2  "></polygon>
	<path class="st0" d="M471.5,377l-1.8-0.1l-0.6,11.5l1.8,0.1c2.7,0.1,4.6-2.1,4.8-5.5C475.9,379.5,474.2,377.1,471.5,377z"></path>
	<path class="st0" d="M518.1,379.6l-2.1-0.1l-0.2,3.7l2.1,0.1c1.2,0.1,2-0.6,2.1-1.7C520.1,380.4,519.3,379.6,518.1,379.6z"></path>
	<path class="st0" d="M882.1,399.7l-2.1-0.1l-0.2,3.7l2.1,0.1c1.2,0.1,2-0.6,2.1-1.7C884,400.6,883.3,399.8,882.1,399.7z"></path>
	<path class="st0" d="M921,372.2c-1.3-0.4-2.7-0.7-4.2-0.8l-526.2-29.1c-9.1-0.5-16.9,6.5-17.4,15.5l-2.4,42.8   c-0.3,4.8,1.6,9.3,4.7,12.5c1.3,0.4,2.7,0.7,4.2,0.8L906,443c9.1,0.5,16.9-6.5,17.4-15.5l2.4-42.8C926,379.8,924.1,375.4,921,372.2   z M421.9,368.4l-7.5,10.7l6.8,12.6c0.2,0.3,0,0.4-0.3,0.4l-8.1-0.4c-0.2,0-0.6-0.2-0.7-0.5l-3.8-9l-0.5,8.7c0,0.2-0.2,0.5-0.6,0.5   L401,391c-0.2,0-0.5-0.3-0.5-0.5l1.3-23.1c0-0.3,0.3-0.5,0.5-0.5l6.2,0.3c0.3,0,0.5,0.3,0.5,0.6l-0.4,7.8l4.6-7.7   c0.2-0.2,0.5-0.4,0.8-0.4l7.7,0.4C422,367.9,422,368.1,421.9,368.4z M431.8,392.2c0,0.2-0.2,0.5-0.5,0.5l-6.2-0.3   c-0.2,0-0.5-0.3-0.5-0.5l1.3-23.1c0-0.3,0.3-0.5,0.5-0.5l6.2,0.3c0.3,0,0.5,0.3,0.5,0.6L431.8,392.2z M457,393.6   c0,0.2-0.2,0.5-0.5,0.5l-6-0.3c-0.2,0-0.5-0.2-0.7-0.5l-5.5-11.2l-0.6,10.8c0,0.2-0.2,0.5-0.5,0.5l-6.2-0.3c-0.3,0-0.5-0.3-0.5-0.5   l1.3-23.1c0-0.3,0.2-0.5,0.5-0.5l6,0.3c0.3,0,0.7,0.2,0.8,0.5l5.4,11.2l0.6-10.8c0-0.3,0.3-0.5,0.5-0.5l6.2,0.3   c0.3,0,0.5,0.3,0.5,0.6L457,393.6z M483.1,383.4c-0.4,7.2-5.6,11.8-13,11.4l-8.1-0.4c-0.2,0-0.5-0.3-0.5-0.6l1.3-23.1   c0-0.3,0.3-0.5,0.5-0.5l8.1,0.4C478.9,371.1,483.5,376.1,483.1,383.4z M504.4,378.3c0,0.3-0.3,0.5-0.6,0.5l-9.1-0.5l-0.2,2.8   l7.4,0.4c0.3,0,0.5,0.3,0.4,0.5l-0.8,4.9c0,0.2-0.3,0.4-0.6,0.4l-6.8-0.4l-0.2,3l9.5,0.5c0.3,0,0.5,0.2,0.5,0.5l-0.3,5.3   c0,0.2-0.3,0.5-0.5,0.5l-16.3-0.9c-0.2,0-0.5-0.3-0.5-0.6l1.3-23.1c0-0.3,0.2-0.5,0.5-0.5l15.9,0.9c0.3,0,0.5,0.3,0.5,0.5   L504.4,378.3z M527.4,398l-7.5-0.4c-0.3,0-0.6-0.3-0.8-0.6l-3.2-7.8l-0.4,0l-0.4,7.7c0,0.2-0.3,0.5-0.6,0.5l-6.2-0.3   c-0.3,0-0.5-0.3-0.5-0.5l1.3-23.1c0-0.3,0.3-0.5,0.6-0.5l9.2,0.5c5.4,0.3,8.8,3.6,8.5,8.4c-0.2,2.8-2,5.5-4.7,6.4l5.1,9.3   C528,397.7,527.7,398,527.4,398z M550.6,376.5l-8.8,15.9l7.9,0.4c0.3,0,0.5,0.2,0.5,0.5l-0.3,5.3c0,0.2-0.2,0.5-0.6,0.5l-18.3-1   c-0.3,0-0.5-0.2-0.5-0.5c0-0.1,0.2-0.4,0.4-0.9l8.8-16l-7.1-0.4c-0.2,0-0.5-0.3-0.5-0.6l0.3-5.2c0-0.3,0.3-0.5,0.5-0.5l17.3,1   c0.3,0,0.5,0.2,0.5,0.6C551,375.7,550.8,376.1,550.6,376.5z M561.2,399.3c0,0.2-0.2,0.5-0.5,0.5l-6.2-0.3c-0.2,0-0.5-0.3-0.5-0.5   l1.3-23.1c0-0.3,0.3-0.5,0.5-0.5l6.2,0.3c0.3,0,0.5,0.3,0.5,0.6L561.2,399.3z M583.7,382.7c0,0.3-0.3,0.5-0.6,0.5l-9.1-0.5   l-0.2,2.8l7.4,0.4c0.3,0,0.5,0.3,0.4,0.5l-0.8,4.9c0,0.2-0.3,0.4-0.6,0.4l-6.8-0.4l-0.2,3l9.5,0.5c0.3,0,0.5,0.2,0.5,0.5l-0.3,5.3   c0,0.2-0.3,0.5-0.5,0.5l-16.3-0.9c-0.2,0-0.5-0.3-0.5-0.6l1.3-23.1c0-0.3,0.2-0.5,0.5-0.5l15.9,0.9c0.3,0,0.5,0.3,0.5,0.5   L583.7,382.7z M608.5,378.7l-7.5,10.7l6.8,12.6c0.2,0.3,0,0.4-0.3,0.4l-8.1-0.4c-0.2,0-0.6-0.2-0.7-0.5l-3.9-9l-0.5,8.7   c0,0.2-0.2,0.5-0.5,0.5l-6.2-0.3c-0.2,0-0.5-0.3-0.5-0.5l1.3-23.1c0-0.3,0.3-0.5,0.5-0.5l6.2,0.3c0.3,0,0.5,0.3,0.5,0.6l-0.4,7.8   l4.6-7.7c0.2-0.2,0.5-0.4,0.8-0.4l7.7,0.4C608.6,378.3,608.7,378.4,608.5,378.7z M629.1,385.2c0,0.3-0.3,0.5-0.6,0.5l-9.1-0.5   l-0.2,2.8l7.4,0.4c0.3,0,0.5,0.3,0.4,0.5l-0.8,4.9c0,0.2-0.3,0.4-0.6,0.4l-6.8-0.4l-0.2,3l9.5,0.5c0.3,0,0.5,0.2,0.5,0.5l-0.3,5.3   c0,0.2-0.3,0.5-0.5,0.5l-16.3-0.9c-0.2,0-0.5-0.3-0.5-0.6l1.3-23.1c0-0.3,0.2-0.5,0.5-0.5l15.9,0.9c0.3,0,0.5,0.3,0.5,0.5   L629.1,385.2z M653.1,404.4c0,0.2-0.2,0.5-0.6,0.5l-6-0.3c-0.2,0-0.5-0.2-0.7-0.5l-5.5-11.2l-0.6,10.8c0,0.2-0.2,0.5-0.6,0.5   l-6.2-0.3c-0.3,0-0.5-0.3-0.5-0.5l1.3-23.1c0-0.3,0.2-0.5,0.5-0.5l6,0.3c0.3,0,0.7,0.2,0.8,0.5l5.4,11.2l0.6-10.8   c0-0.3,0.3-0.5,0.5-0.5l6.2,0.3c0.3,0,0.5,0.3,0.5,0.6L653.1,404.4z M677.7,405.8c0,0.2-0.2,0.5-0.6,0.5l-6.5-0.4   c-0.3,0-0.5-0.3-0.5-0.5l0.4-7.8l-4.9-0.3l-0.4,7.8c0,0.2-0.2,0.5-0.6,0.5l-6.5-0.4c-0.2,0-0.5-0.3-0.5-0.5l1.3-23.1   c0-0.3,0.3-0.5,0.5-0.5l6.5,0.4c0.3,0,0.5,0.3,0.5,0.6l-0.5,9.1l4.9,0.3l0.5-9.1c0-0.3,0.2-0.5,0.5-0.5l6.5,0.4   c0.3,0,0.5,0.3,0.5,0.6L677.7,405.8z M701.9,398.6c-0.3,6.2-3.8,9.3-10.2,8.9c-6.3-0.3-9.4-3.8-9.1-10l0.8-14.6   c0-0.3,0.3-0.6,0.6-0.6l6,0.3c0.3,0,0.6,0.3,0.6,0.6l-0.8,15.2c-0.1,1.6,0.8,2.6,2.3,2.7c1.5,0.1,2.5-0.8,2.6-2.4l0.8-15.2   c0-0.3,0.3-0.6,0.6-0.6l6,0.3c0.3,0,0.6,0.3,0.6,0.6L701.9,398.6z M713,407.7c0,0.2-0.2,0.5-0.6,0.5l-6.2-0.3   c-0.2,0-0.5-0.3-0.5-0.5l1.3-23.1c0-0.3,0.3-0.5,0.5-0.5l6.2,0.3c0.3,0,0.5,0.3,0.5,0.6L713,407.7z M735.2,387.9l-2.5,4.8   c-0.1,0.3-0.4,0.4-0.6,0.2c-1.7-1.1-3.6-1.9-4.8-2.1c-1.1-0.1-1.8,0.4-1.9,1.2c-0.1,2.1,9.8,2.5,9.4,10.2c-0.3,4.6-4,7.6-9.4,7.3   c-2.9-0.2-6-1.2-7.6-2.7c-0.3-0.2-0.4-0.5-0.2-0.6l2.5-4.8c0.1-0.3,0.4-0.4,0.6-0.2c1.6,1,3.4,1.8,4.8,1.9c1.1,0.1,1.9-0.4,1.9-1.2   c0.1-2.1-9.7-2.5-9.3-10.1c0.3-4.7,4-7.6,9.3-7.3c2.5,0.1,5.6,1.3,7.7,3C735.2,387.4,735.3,387.7,735.2,387.9z M757.4,392.3   c0,0.3-0.3,0.5-0.6,0.5l-5.2-0.3l-1,17.3c0,0.2-0.2,0.5-0.5,0.5l-6.2-0.3c-0.3,0-0.5-0.3-0.5-0.5l1-17.3l-5.8-0.3   c-0.2,0-0.5-0.2-0.5-0.5l0.3-5.3c0-0.3,0.3-0.5,0.5-0.5l18.8,1c0.3,0,0.5,0.3,0.5,0.5L757.4,392.3z M780.3,411.5   c0,0.2-0.2,0.5-0.6,0.5l-6.5-0.4c-0.3,0-0.5-0.3-0.5-0.5l0.4-7.8l-4.9-0.3l-0.4,7.8c0,0.2-0.2,0.5-0.6,0.5l-6.5-0.4   c-0.2,0-0.5-0.3-0.5-0.5l1.3-23.1c0-0.3,0.3-0.5,0.5-0.5l6.5,0.4c0.3,0,0.5,0.3,0.5,0.6l-0.5,9.1l4.9,0.3l0.5-9.1   c0-0.3,0.2-0.5,0.5-0.5l6.5,0.4c0.3,0,0.5,0.3,0.5,0.6L780.3,411.5z M802.8,394.8c0,0.3-0.3,0.5-0.6,0.5l-9.1-0.5l-0.2,2.8l7.4,0.4   c0.3,0,0.5,0.3,0.4,0.5l-0.8,4.9c0,0.2-0.3,0.4-0.6,0.4l-6.8-0.4l-0.2,3l9.5,0.5c0.3,0,0.5,0.2,0.5,0.5l-0.3,5.3   c0,0.2-0.3,0.5-0.5,0.5l-16.3-0.9c-0.2,0-0.5-0.3-0.5-0.6l1.3-23.1c0-0.3,0.2-0.5,0.5-0.5l15.9,0.9c0.3,0,0.5,0.3,0.5,0.5   L802.8,394.8z M828.6,414.6l-6.9-0.4c-0.3,0-0.6-0.2-0.7-0.5l-0.8-3.7l-6.6-0.4l-1.3,3.6c-0.2,0.3-0.4,0.4-0.8,0.4l-6.9-0.4   c-0.3,0-0.4-0.3-0.3-0.5l9.2-22.8c0.1-0.2,0.5-0.4,0.9-0.4l7.1,0.4c0.3,0,0.7,0.3,0.8,0.5l6.6,23.6   C829.1,414.4,828.9,414.6,828.6,414.6z M847.6,397.3c0,0.3-0.3,0.5-0.6,0.5l-5.2-0.3l-1,17.3c0,0.2-0.2,0.5-0.5,0.5l-6.2-0.3   c-0.3,0-0.5-0.3-0.5-0.5l1-17.3l-5.8-0.3c-0.2,0-0.5-0.2-0.5-0.5l0.3-5.3c0-0.3,0.3-0.5,0.5-0.5l18.8,1c0.3,0,0.5,0.3,0.5,0.5   L847.6,397.3z M868.4,398.4c0,0.3-0.3,0.5-0.6,0.5l-9.1-0.5l-0.2,2.8l7.4,0.4c0.3,0,0.5,0.3,0.4,0.5l-0.8,4.9   c0,0.2-0.3,0.4-0.6,0.4l-6.8-0.4l-0.2,3l9.5,0.5c0.3,0,0.5,0.2,0.5,0.5l-0.3,5.3c0,0.2-0.3,0.5-0.5,0.5l-16.3-0.9   c-0.2,0-0.5-0.3-0.5-0.6l1.3-23.1c0-0.3,0.2-0.5,0.5-0.5l15.9,0.9c0.3,0,0.5,0.3,0.5,0.5L868.4,398.4z M891.4,418.1l-7.5-0.4   c-0.3,0-0.7-0.3-0.8-0.6l-3.2-7.8l-0.4,0l-0.4,7.7c0,0.2-0.3,0.5-0.6,0.5l-6.2-0.3c-0.3,0-0.5-0.3-0.5-0.5l1.3-23.1   c0-0.3,0.3-0.5,0.6-0.5l9.2,0.5c5.4,0.3,8.8,3.6,8.5,8.4c-0.2,2.8-2,5.5-4.7,6.4l5.1,9.3C891.9,417.9,891.7,418.1,891.4,418.1z"></path>
</g>
<path class="st8" d="M77.8,123.5"></path>
<path class="st9" d="M198.9,272.2"></path>
<path class="st9" d="M198.1,238.2"></path>
<path class="st9" d="M202.7,229.2"></path>
<path class="st10" d="M74.9,123.9"></path>
<path class="st11" d="M196,272.7"></path>
<path class="st12" d="M195.2,238.7"></path>
<path class="st12" d="M199.8,229.7"></path>
<g>
	<path class="st3" d="M70.5,228c-3.9-4.6-12.1-14.7-18.2-14.7c-3.3,0.7-3.3,5.5-3.4,8.3c0.1,6.1,1.6,13.2,2.7,19.2   c-5-3.7-12.4-9.9-17.6-13.4c0,0-0.3-0.2-0.3-0.2c0,0,0,0,0.1,0c0.1,0,0.4-0.1,0.5-0.2c-0.4,1-0.1,4.4,0.3,6.2   c0.9,5,2.4,9.8,4.5,14.4c0,0-0.5,0.3-0.5,0.3c-2.1-2.8-3.7-5.9-5.1-9.1c-1.4-3.5-4.9-11.7-1.7-14.8c0.4-0.4,1.1-0.7,1.6-0.7   c1.1-0.1,1.8,0.3,2.3,0.4c4.9,2.1,9.3,5.1,13.5,8.3c0,0-4.4,2.7-4.4,2.7c-1.1-6.7-1.6-13.6,0.8-20.2c4.4-9.9,13.4-3.2,18,2.6   c2.8,3.4,5.2,6.9,7.3,10.6C70.9,227.7,70.5,228,70.5,228L70.5,228z"></path>
</g>
<path class="st8" d="M77.4,123.4"></path>
<path class="st9" d="M198.5,272.1"></path>
<path class="st9" d="M197.7,238.2"></path>
<path class="st9" d="M202.3,229.1"></path>
<g>
	<path class="st3" d="M83.3,169.3c-6-6.3-12.2-12.7-19-18c-1.2-0.8-2.6-2-4-2.1c0.1,0,0.1,0,0,0c-0.6,1.5,0,3.4,0.3,5   c1,4.1,2.8,8.1,4.5,12l2.2,5.4c-3.8-2.1-9.3-5.3-13.2-7.2c-1-0.5-2-1-3-1.2c-0.1,0,0.1,0,0.1-0.1c0,0,0,0-0.1,0   c-0.1,0-0.4,0.3-0.6,0.6c-1.3,2.5-0.4,5.6,0.7,8.2c0,0-0.3,0.2-0.3,0.2c-2.3-2.4-4-6-2.8-9.5c0.3-1,1.5-2.5,2.8-2.5   c2.8,0,5.2,1.3,7.5,2.2c2,0.8,3.8,1.8,5.7,2.8l-2.9,2.6c-1.8-4.2-3.1-8.4-4-13c-0.3-1.8-0.6-3.6-0.2-5.5c1.3-5.4,6-2.4,8.7,0   c6.7,5.9,12.2,12.8,17.8,19.8C83.6,169.1,83.3,169.3,83.3,169.3L83.3,169.3z"></path>
</g>
<path class="st10" d="M74.5,123.9"></path>
<path class="st11" d="M195.6,272.6"></path>
<path class="st12" d="M194.8,238.6"></path>
<path class="st12" d="M199.4,229.6"></path>
<g>
	<path class="st3" d="M211.4,247.8c2.3-3.7,3.4-7.5,4.7-11.3c0.8-2.5,1.3-7.7-1.5-8.9c-5.8-1-14.1,7.4-18.6,10.7   c2.4-4.9,5.8-11.3,8-16.2c1.2-3,2.8-6.2,3.1-9.4c0-0.1,0-0.1,0,0c0,0,0,0.1,0.1,0.2c0.1,0.1,0.2,0.2,0.3,0.3c0.3,0.1,0.1,0-0.2,0   c-4.8,0.6-9.4,2.9-13.8,4.8c-1.8,0.9-3.6,1.7-5.2,2.8c-0.2,0.2-0.4,0.3-0.7,0.4c-1,0.4-2.4-0.4-2.6-1.5c-0.2-0.8,0-1.6,0-2.2   c0.2-1.9,0.5-3.9,0.4-5.7c0-1.4-0.3-2.8-0.8-3.3c-0.4-0.4-1.1-0.5-1.7-0.5c-3.4,0.1-6.7,0.9-9.5,2.9c-1.3,0.9-2.4,2-3.6,3.1   c0.9-1.3,1.7-2.7,2.8-4c2.4-3,6.2-4.7,9.9-5.6c3-0.9,5.8,1.5,6.4,4.4c0.8,3.3,0,6.8-0.2,9.9c0-0.4-0.6-1.2-1.3-1.3   c-0.6-0.1-0.8,0-1.2,0.2c3.7-2.5,9.9-5.1,14.8-6.9c3.7-1.3,11-3.6,9.8,3.2c-1.5,6.5-4.6,12.2-7.5,18.2c0,0-2.9-2.3-2.9-2.3   c2.9-2.3,5.7-4.2,9.2-5.5c9.4-3.6,12.6,5.5,10.1,13.1c-0.3,0.9-0.5,1.8-1,2.6C216.7,243.2,214.2,245.8,211.4,247.8L211.4,247.8z"></path>
</g>
<g>
	<path class="st3" d="M136,124.3c-3.8-1.6-7.6-3.3-11.3-4.5c-3.5-1.1-7.4-2.1-10.9-1.3c-1.3,0.3-2.5,0.8-2.8,2.3   c-0.3,1.4,0.2,3.3,0.8,5.1c1.3,3.7,3.3,7.3,5.3,10.9c-4.4-3.9-10-10-9.8-16.5c0.2-4.3,5.1-6.4,8.9-6.1   C124,114.6,130.9,118.9,136,124.3L136,124.3z"></path>
</g>
<g>
	<path class="st3" d="M153.7,149.6c-2.1-5-2.9-10.8-1.3-16.1c1.4-4.6,5.5-8.3,10.5-6c5.3,2.5,8.7,7,11.9,11.6c0,0-3.6,0.8-3.6,0.8   c1.1-4.3,3.4-15.1,7.6-17.1c7.7-2.2,17.9,16,18.3,22.4c-1.4-5.7-4.9-10.8-8.7-15.2c-2-2.1-5.6-6.1-8.7-5.3   c-1.1,1.1-1.6,2.9-2.1,4.4c-1.5,5-2.3,10.8-3.1,16c-3.2-4.2-9.3-13.4-14.8-14C154.5,132.5,154.2,144.9,153.7,149.6L153.7,149.6z"></path>
</g>
<path class="st0" d="M246.7,182.8c-2.8,0.2-4.5,1.5-5.6,3.3c0.5-1.1,0.9-2.2,1.3-3.4c0.2-0.6,0.4-1.2,0.4-1.6  c0.4-1.8,0.3-3.2-0.9-3.3c-2.9-0.4-5.2,6.8-5,10c-1.7-0.7-6-2.9-11.3-3.1c-6.8-0.2,0.7,3.5,0.7,3.5s-10.6-1.2-13.5-4  c-2.9-2.8-23.3-3-16.9,0.1s-8.6-1.5-11.7-1.2c-3.1,0.3-21.1,4.1-26.3,2.6c-5.2-1.5-10.9-4.8-10.3-1.3c0.6,3.5-17.2-5.1-13.8,0.7  c0.1,0.3,0.3,0.6,0.5,0.8c-0.3,0-0.6,0.1-0.8,0.1c-2.4-1.7-6.6-4.2-9.3-2.2c-4.2,3-6.3,10.4-6.3,10.4s1.7,3.9,3.9,4.5  c-1.8,1.5-4.2,3.7-7.1,6.8c-6.1,6.5,0.9,4.6,9.1,1.3c0.1,0.3,0.1,0.7,0.2,1c-0.6,0.5-2.4,2.2-3.5,4.5c-1.4,2.8-2.7,20.5,2.6,17.4  c5.3-3.1,7.6-5.3,7.6-5.3s-2.8,8.7,0,8.6c2.8,0,6.6-4.8,9.5-5.6c2.9-0.8,1.2,6.4,2.6,7.3c1.4,0.9,11.8-8.1,11.8-8.1s1,3,4.3,5.4  c-1.7,4.7-2.8,10.2-6.2,8.8c-5.5-2.3-14.7,6-16.6,7.2c-1.9,1.2-9.4,1.5-7.9,1.1c1.4-0.4-6.6-4-9.8-2.9c-3.2,1.2-12.6-6.1-12.6-6.1  s2.6,0.2,6.1,0.3c3.4,0.1-4.3-4.3-7.8-5.6c-3.5-1.3-10.2-16-5.6-16.2c4.6-0.3-0.7-6.6-0.7-6.6c3.8-1.3-4.8-15.6-4.8-15.6  s3.2,4.8,6,4.5c2.8-0.3,0.3-3.4,0.3-3.4s-2.5-3.1-4.6-9.3c-2-5.9,2.5-19.6,3-20.9c0.1,0,0.1,0,0.2,0c1,0.8,5.9,4.2,6.3-0.3  c0.1-1.1,0.6-2.5,1.4-4.1c1.2-2,3-4.6,5.5-8.1c2.6-3.6,6.9-5.3,11.3-5.8l1.2-0.1c8-0.7,15.7,2,13.6,3.1c-3.4,1.8,1.7,8.1,8,6.9  c1.5-0.3,4.9,0.1,9.3,1c1.4,1.7,3.1,3.3,4.8,4.8c0.9,1,1.7,2.1,2.5,3.2c3.5,2.2,6.9,4.6,10.4,6.8c5.1,4.5,19-3.1,25.4-7.1  c3-0.8,3.4,2.2,4.9,0.1c1.3-1.8,10.5-7.3,15.2-10.1c2.7-1.1,5.2-2.8,6.6-5.4c1.5-2.8,1.8-6.1,1.6-9.3c0,0-0.6-14.8-3.7-20.3  c-3-5.5-9.8-16.5-12.2-13.7c-2,2.5,1.4,5.8,1.1,9.1c-3.2-3.3-6.6-6.4-10.4-9.2c-4.2-6-8.9-12.8-12.6-15.5c-8-5.7-3.3,1.3-6.9,3.5  c-3.3-1.8-7.3-3.9-11.1-6c-4.5-3.4-9.3-6.9-12.7-7c-1.8-1.2-11.5-6.2-15.2-4.5c-3.7,1.6-2.6,4.2-2.5,5.5c0,0.6-1.7,0.9-4.1,0.9  c-0.3,0-0.6,0-0.8,0c-1.8-0.2-3.8-0.4-5.9-0.6c-1.3-0.3-2.6-0.6-3.7-1c-5.3-2-16.2-8.4-20.1-3.2c-10.7-2.1-29.8-1.1-28.9,1  c1,2.4,1.5,3.4,9.1,6c7.6,2.5,5.7,10.1-8.4,8.2c-14.1-1.9-34,1.8-29.9,11.1c-18.8,5-24,14.9-20.5,15.3c3.2,0.4,6.6-1.3,7.4-0.6  c-11.3,6.7-21.3,20.9-19.6,25.4c0.9,2.2,4.9,3.2,9.8,3.4c0,0,0,0,0,0c-5.2,4.5-14.5,13.1-16,18.6c-2,7.6-5.4,22.1,0.7,14.7  c0.1,0.1,0.2,0.3,0.4,0.4c-0.1-0.2-0.2-0.4-0.3-0.5c0,0,0,0,0.1-0.1c0.3-0.3,0.5-0.6,0.8-0.8c0.8,1.5,1.3,3.2,1.6,4.9  c-0.9,6.6-3.8,17.3-5.1,20.8c-2.2,5.9-9.5,29.6-4.8,31.2c4.6,1.5,6.3-3.4,7.3-5.5c0.8,4.6,1.9,9.1,3.2,13.5c0,0,0,0,0,0  c-2.1,6.7,1.3,14.2,1.3,14.2s1.9,5.1,2,10.6c0.1,5.5,4.7,2.9,5.3-6c0.6-8.9,3.4,22.1,8.1,28.5c4.7,6.3,7.2,16.9,13.1,17  c5.9,0.1-1.6-14.7-0.7-15.9c0.8-1.2,17.5,19.2,18,23.1c0.5,3.8,5.1,8.4,7.1,3.7c2-4.7-1-6.1,3.1-6.1c4.1,0,9.7,9.2,13.5,12.9  c3.9,3.6,23.7,8.6,28.9,7.9c3.1-0.5,3-3.7,2.7-6.2c2.3,0.2,4.7,0.3,7.1,0.4c3,1.6,6,3.2,6.8,3.7c1.5,0.9,4.4-0.8,8.2-5.4  c0.2,0,0.4-0.1,0.7-0.1c2.4,0.4,7-0.5,12-1.7c8.2-0.1,5.4,5,7.7,4.4c2.7-0.6,6.9-7.4,9.1-8.4c2.2-1,7.6,0.1,7.6,0.1  c6,1.9,13.8,5.6,15.2,0.6c1.8-6.5,8.3-12.4,10-13.6c1.1-0.7,5.2-6.1,8-9.9c0.6-0.3,1.1-0.6,1.6-0.9c1.2,3.7,5.6,8.8,6.6,3  c1.2-7.4,13.2-27.2,14.3-28.6c1.1-1.4,1.2,3.6,6.6,4.2s3.8-18.4,4.6-20.6s4.3,9.6,7.9,8.7c3.6-0.9-4.9-24.9-6.4-31.7  c-1.5-6.7-2.5-23.5-2.5-23.5s6.2,12.4,6.3,2.1c0-5.8-2-14-3.8-20c0.2,0.2,0.5,0.5,0.7,0.7c3.4,3.7,10.6,11.6,8.8,4.8  c-1.6-6.3-6.5-8.6-9-9.3c0,0-0.1-0.1-0.1-0.1c0.8-1,3.6-3.7,10.3-3.6C260.7,186.6,256.7,182.3,246.7,182.8z M137.7,316.4  c-58.3-0.4-65.1-55.2-65.1-55.2s16.5,19.3,61.1,18.6s61.2-20.7,61.2-20.7S196.1,316.7,137.7,316.4z M240.3,188  C240.3,188,240.3,188,240.3,188C240.3,187.9,240.3,187.9,240.3,188C240.3,187.9,240.3,187.9,240.3,188z"></path>
<path class="st2" d="M192.7,253.7c0,0-1.2,55.2-59.5,54.9c-58.3-0.4-62.2-55.5-62.2-55.5s13.6,19.6,58.2,18.9  C173.7,271.3,192.7,253.7,192.7,253.7z"></path>
<path class="st0" d="M110.7,300.8c0,0,17.6-22.4,43.6,1.3c0,0-7,5.4-19.3,4.9C122.6,306.5,113.5,305,110.7,300.8z"></path>
<path class="st0" d="M152.2,272c0,0,1.7,16,13.3,14.1s13.2-13.4,11.8-19C175.8,261.5,152.2,272,152.2,272z"></path>
<path class="st13" d="M91,264.3l14.3,1.8c0.9,0.1,1.7-0.1,2.4-0.5c3.2,2.2,6.2,4.7,9.2,7.3c-6.9,9.7-14,17.3-18.2,15.6  c-10.7-4.2-9.6-21.8-9.6-21.8C89.1,266.1,89.8,265.3,91,264.3z"></path>
<path class="st3" d="M790.1,137.4c-27.1-0.3-39.8-24.3-40.3-25.4c-2.1-4.2-7.2-5.9-11.4-3.8c-4.2,2.1-5.9,7.2-3.8,11.4  c0.7,1.4,17.8,34.7,55.9,34.7c0.1,0,0.2,0,0.4,0c2.2,0,4.1-0.8,5.6-2.2L790.1,137.4z"></path>
<path class="st0" d="M793,148.8c-38.1,0-55.2-33.3-55.9-34.7c-2.1-4.2-0.4-9.3,3.8-11.4c4.2-2.1,9.3-0.4,11.4,3.8  c0.6,1.1,13.3,25.4,40.7,25.4c0.1,0,0.2,0,0.3,0c4.7,0,8.5,3.8,8.5,8.5c0,4.7-3.8,8.5-8.5,8.5C793.2,148.8,793.1,148.8,793,148.8z"></path>
<path class="st0" d="M122.3,271.9c0,0-1,11.3,8.8,11.8s12.8-7.1,12.4-11.2S122.3,271.9,122.3,271.9z"></path>
<path class="st14" d="M196.4,261.7c0,0-2,52.4-60.3,52c-58.3-0.4-60.5-51.6-60.5-51.6s17.5,14.9,56.5,15  C175.6,277.3,196.4,261.7,196.4,261.7z"></path>
<ellipse class="st0" cx="708.2" cy="188.7" rx="6.9" ry="7.5"></ellipse>
</svg>
