<?xml version="1.0" encoding="utf-8"?>
<!-- Generator: Adobe Illustrator 26.2.1, SVG Export Plug-In . SVG Version: 6.00 Build 0)  -->
<svg version="1.1" id="Layer_1" xmlns="http://www.w3.org/2000/svg" xmlns:xlink="http://www.w3.org/1999/xlink" x="0px" y="0px"
	 viewBox="0 0 295.8 53.5" style="enable-background:new 0 0 295.8 53.5;" xml:space="preserve">
<style type="text/css">
	.st0{fill:#FFFFFF;}
</style>
<g id="Laag_2" transform="translate(11 87.799)">
	<g id="Laag_1" transform="translate(-11 -87.799)">
		<path id="Path_1" class="st0" d="M133.2,14.2c-0.8-0.8,0-2.1,1-2.6c1.8-0.8,3.5-1.7,5.1-2.7c0.7-0.4,0.7-1.3-0.9-0.7l-15.2,5.3
			c-0.6,0.1-1.2-0.3-1.4-0.9c-0.1-0.6,0.2-1.1,0.7-1.3l13.6-5.6c0.2-0.1,0.4-0.2,0.7-0.3l12-4.9c0.4-0.2,0.8-0.3,1.2-0.3
			c2.1-0.6,4.3,0.3,5.5,2l2.3,0.5c0.2,0,0.5,0.1,0.5,0.4l0,0c0.1,0.2,0,0.5-0.2,0.6L156.6,5v0.8c-0.1,3.1-1.2,6.1-3.2,8.5
			c-1.4,1.6-3.1,2.7-5.1,3.4l2.1,3.9c0.2,0.4,0,1-0.4,1.2c-0.1,0-0.2,0.1-0.4,0.1c-0.4,0-0.7-0.2-0.8-0.5l-2.3-4.1
			c-0.6,0.1-1.1,0.2-1.7,0.2l1.5,3.3c0.2,0.4,0,1-0.4,1.2c0,0,0,0,0,0l0,0c-0.1,0.1-0.2,0.1-0.4,0.1c-0.3,0-0.7-0.2-0.8-0.5
			l-1.9-4.1c-1.6-0.2-3.2-0.6-4.7-1.2c-0.3-0.2-0.4-0.5-0.2-0.8c0.1-0.1,0.2-0.2,0.3-0.2c2.5-1,4.8-2.5,6.7-4.4
			c0.8-0.8-0.3-1.9-1.2-0.9c-2,1.7-5.3,2.9-7.8,3.7C134.9,14.9,133.9,14.8,133.2,14.2L133.2,14.2z"/>
		<path id="Path_2" class="st0" d="M37,21.9c-3.7-0.1-7.2,1.6-9.4,4.7c-1.4-3.3-4.4-4.7-7.9-4.7c-5.1,0-8.4,2.4-10.1,5.5L0,22.1
			v30.5h11.1V31.9c0.6-1.5,2-2.6,3.7-2.6c1.4,0,2.5,0.7,2.5,3.3v20.1h11.1V31.9c0.6-1.5,2-2.6,3.7-2.6c1.5,0,2.4,0.7,2.4,3.3v20.1
			h11.2V31.1C45.7,24.5,42.1,21.9,37,21.9z"/>
		<path id="Path_3" class="st0" d="M64.2,21.9c-9.1,0-15.4,5.6-15.4,15.9s5,15.7,14.4,15.7c7.5,0,13.6-3.2,13.6-12.5
			c-2.1,3.3-5.3,4.6-9.1,4.6c-4.3,0-6.4-1.9-7-6.7h16.3C79.1,25.5,72.5,21.9,64.2,21.9z M60.5,35.4c0.1-5.8,1.6-8.8,3.8-8.8
			c1.9,0,2.7,1.5,2.8,7.1L60.5,35.4z"/>
		<path id="Path_4" class="st0" d="M99.4,23.3c-1.7-1-3.7-1.4-5.6-1.4c-8.5,0-14.2,6.2-14.2,16.5c0,10.1,4.8,15.1,13.2,15.1
			c5.2,0,8.4-2,10.2-4.4l8,3.6V12.6H99.4V23.3z M99.4,46.6c-0.8,1-2.1,1.6-3.3,1.6c-2.9,0-4.7-2.7-4.7-9.8c0-7.5,1.9-11.8,5.3-11.8
			c1.1,0,2.2,0.6,2.8,1.6L99.4,46.6z"/>
		<rect id="Rectangle_2" x="116" y="22.8" class="st0" width="11.1" height="29.9"/>
		<path id="Path_5" class="st0" d="M145.9,21.9c-4.1-0.1-8.2,0.5-12.1,1.7v11.9l8.7-8.9h0.7c3,0,4.6,1.1,4.6,3.3
			c0,3-2.7,4.2-6.7,5.5c-7.5,2.3-10.3,5.1-10.3,10.1c0,4.3,2.6,7.9,8.3,7.9c3.8,0.1,7.4-1.5,9.8-4.4l9.7,3.6l-0.1-19.7
			C158.5,23.9,153.7,21.9,145.9,21.9z M147.4,46.1c-0.8,0.6-1.8,1-2.9,1c-1.8,0-2.7-1-2.7-2.9c-0.1-2.2,1-4.3,3-5.5
			c0.9-0.7,1.8-1.4,2.7-2.2L147.4,46.1z"/>
		<path id="Path_6" class="st0" d="M182.1,21.9c-2.9-0.1-5.7,0.8-8,2.4V12.6H163v40.1l8.2-3.5c2,2.9,5.3,4.5,8.8,4.3
			c8.7,0,14.3-6.4,14.3-17.2C194.4,25.9,188.8,21.9,182.1,21.9z M177.6,48.3c-1.9,0-3-1.7-3.4-4.4V30.3c0.8-2,2.2-3.3,4.1-3.3
			c2.6,0,4.3,2.4,4.3,9.5C182.7,44.2,180.7,48.3,177.6,48.3L177.6,48.3z"/>
		<rect id="Rectangle_3" x="197.9" y="22.8" class="st0" width="11.1" height="29.9"/>
		<path id="Path_7" class="st0" d="M224.5,26.4l-9.9-4.5v30.7h11.1V32.9c0.4-1.1,1-2.1,1.6-3.1l7.5,6.7V22.8
			c-1.2-0.5-2.6-0.8-3.9-0.8C227.9,22,225.8,23.9,224.5,26.4z"/>
		<path id="Path_8" class="st0" d="M256.7,12.6v10.7c-1.7-1-3.7-1.4-5.6-1.4c-8.5,0-14.2,6.2-14.2,16.5c0,10.1,4.8,15.1,13.1,15.1
			c5.2,0,8.4-2,10.2-4.4l8,3.6V12.6H256.7z M256.7,46.6c-0.8,1-2.1,1.6-3.3,1.6c-2.9,0-4.7-2.7-4.7-9.8c0-7.5,1.9-11.8,5.3-11.8
			c1.1,0,2.2,0.6,2.8,1.6L256.7,46.6z"/>
		<path id="Path_9" class="st0" d="M286.2,33.1c-4.4-1-6-2-6-4c0-1.7,1.3-2.8,4.6-2.8h0.1l8.9,7.4V23.1c-3.1-0.9-6.2-1.3-9.4-1.2
			c-9.2,0-13,4-13,9.9s3.6,8.9,9.6,10.1c4.8,1,6,1.7,6,3.8c0,2.1-2.1,3.2-5.1,3.2h-0.5L272,41v11.4c3.3,0.8,6.7,1.2,10.1,1.1
			c9.7,0,13.8-3.8,13.8-10.4C295.8,36.9,292.1,34.4,286.2,33.1z"/>
	</g>
</g>
</svg>
