<?xml version="1.0" encoding="UTF-8"?><svg id="Laag_2" xmlns="http://www.w3.org/2000/svg" viewBox="0 0 232.47 193.61"><defs><style>.cls-1{fill:#fff;}</style></defs><g id="Laag_1-2"><g id="Artwork" transform="translate(0 -0.002)"><path id="Path_60" class="cls-1" d="M4.86,138.03v24.38H0v-24.38H4.86Z"/><path id="Path_61" class="cls-1" d="M26.81,151.94c.89,1.09,1.36,2.45,1.33,3.86,.09,1.84-.66,3.63-2.04,4.86-1.71,1.29-3.83,1.93-5.97,1.78H9.63v-24.4h10.28c2.02-.13,4.03,.45,5.67,1.63,1.34,1.13,2.08,2.81,2,4.56,.05,1.35-.37,2.68-1.19,3.75-.8,.96-1.89,1.62-3.11,1.87,1.38,.26,2.63,1.01,3.52,2.1Zm-12.31-3.67h4.41c1,.08,1.99-.21,2.78-.82,1.27-1.29,1.29-3.36,.03-4.67-.82-.61-1.84-.9-2.85-.82h-4.37v6.3Zm7.6,9.34c.73-.61,1.11-1.54,1.04-2.48,.06-.96-.32-1.88-1.04-2.52-.86-.65-1.93-.96-3-.89h-4.6v6.71h4.63c1.06,.1,2.11-.19,2.97-.82Z"/><path id="Path_62" class="cls-1" d="M36.74,138.03v24.38h-4.88v-24.38h4.88Z"/><path id="Path_63" class="cls-1" d="M46.24,158.5h11.38v3.93h-16.77v-3.75l11.12-16.76h-10.94v-3.89h16.42v3.75l-11.22,16.72Z"/><path id="Path_64" class="cls-1" d="M76.53,157.5h-9.78l-1.74,4.88h-5.16l8.97-24.1h5.56l8.93,24.13h-5.08l-1.7-4.91Zm-1.3-3.67l-3.6-10.31-3.59,10.31h7.19Z"/><path id="Path_65" class="cls-1" d="M99.07,141.89v6.34h8.63v3.75h-8.63v6.56h9.68v3.89h-14.53v-24.41h14.53v3.86h-9.68Z"/><path id="Path_66" class="cls-1" d="M128.51,159.2c-.67,1.08-1.64,1.96-2.78,2.52-1.38,.67-2.9,1-4.44,.96-1.59,.03-3.17-.27-4.63-.89-1.29-.54-2.42-1.41-3.26-2.52-.82-1.13-1.31-2.46-1.41-3.86h5.18c.09,.94,.51,1.82,1.19,2.48,.73,.69,1.71,1.05,2.71,1,.86,.06,1.7-.24,2.34-.81,.55-.55,.84-1.3,.81-2.08,.02-.69-.22-1.36-.67-1.87-.47-.51-1.04-.91-1.67-1.19-.67-.3-1.59-.63-2.78-1.04-1.29-.41-2.54-.92-3.75-1.52-.98-.51-1.84-1.25-2.49-2.15-.71-1.1-1.06-2.39-1-3.7-.08-1.92,.76-3.76,2.25-4.97,1.73-1.28,3.85-1.93,6-1.82,2.21-.12,4.39,.54,6.17,1.86,1.52,1.22,2.46,3.02,2.59,4.97h-5.25c-.12-.82-.52-1.58-1.12-2.15-.67-.59-1.55-.89-2.44-.85-.79-.04-1.57,.21-2.19,.7-.57,.52-.87,1.27-.82,2.04-.01,.65,.21,1.28,.63,1.78,.45,.5,1.01,.89,1.63,1.15,.67,.3,1.56,.63,2.67,1,1.3,.45,2.58,.97,3.82,1.56,1,.52,1.87,1.27,2.52,2.19,.74,1.12,1.11,2.44,1.04,3.78,.09,1.2-.2,2.4-.84,3.42Z"/><path id="Path_67" class="cls-1" d="M149.98,138.03v3.86h-6.75v20.54h-4.86v-20.54h-6.71v-3.86h18.32Z"/><path id="Path_68" class="cls-1" d="M167.89,157.5h-9.78l-1.74,4.88h-5.16l8.97-24.1h5.56l8.93,24.13h-5.15l-1.63-4.91Zm-1.33-3.67l-3.59-10.31-3.6,10.31h7.19Z"/><path id="Path_69" class="cls-1" d="M194.29,138.03v3.86h-6.75v20.54h-4.85v-20.54h-6.71v-3.86h18.32Z"/><path id="Path_70" class="cls-1" d="M202.19,141.89v6.34h8.63v3.75h-8.63v6.56h9.67v3.89h-14.53v-24.41h14.53v3.86h-9.67Z"/><path id="Path_71" class="cls-1" d="M231.62,159.2c-.67,1.08-1.64,1.96-2.78,2.52-1.38,.67-2.9,1-4.44,.96-1.59,.03-3.17-.27-4.64-.89-1.29-.54-2.41-1.41-3.26-2.52-.82-1.13-1.31-2.46-1.41-3.86h5.18c.09,.94,.51,1.82,1.19,2.48,.73,.69,1.71,1.05,2.71,1,.86,.06,1.7-.24,2.33-.81,.55-.55,.85-1.3,.82-2.08,.02-.69-.22-1.36-.67-1.87-.47-.51-1.04-.91-1.67-1.18-.67-.3-1.59-.63-2.78-1.04-1.29-.41-2.54-.92-3.75-1.52-.98-.52-1.83-1.26-2.48-2.16-.71-1.1-1.06-2.39-1-3.7-.08-1.92,.76-3.76,2.25-4.97,1.73-1.29,3.85-1.93,6-1.82,2.21-.12,4.39,.54,6.17,1.86,1.52,1.22,2.46,3.02,2.59,4.97h-5.25c-.12-.82-.52-1.58-1.12-2.15-.67-.59-1.55-.89-2.44-.85-.79-.04-1.57,.21-2.19,.7-.57,.52-.87,1.27-.82,2.04-.01,.65,.21,1.28,.63,1.78,.45,.5,1.01,.89,1.63,1.15,.67,.3,1.56,.63,2.67,1,1.3,.45,2.58,.97,3.82,1.56,1,.52,1.87,1.27,2.52,2.19,.74,1.12,1.11,2.44,1.04,3.78,.08,1.2-.21,2.4-.84,3.44Z"/><path id="Path_72" class="cls-1" d="M49.76,189.83c-.62,1.15-1.58,2.08-2.75,2.67-1.34,.66-2.83,.98-4.32,.93h-4.83v-15.24h4.83c1.5-.04,2.99,.27,4.34,.93,1.17,.57,2.12,1.49,2.75,2.62,.65,1.25,.97,2.64,.93,4.04,.05,1.41-.27,2.81-.94,4.05Zm-2.62,.25c2.11-2.49,2.12-6.13,.04-8.63-1.25-1.11-2.89-1.68-4.56-1.56h-2.71v11.72h2.71c1.65,.15,3.29-.4,4.52-1.52h0Z"/><path id="Path_73" class="cls-1" d="M56.62,179.78v5.18h5.78v1.52h-5.78v5.3h6.45v1.59h-8.42v-15.22h8.42v1.59h-6.45v.03Z"/><path id="Path_74" class="cls-1" d="M67.89,178.19l4.64,13.05,4.71-13.05h2.15l-5.6,15.24h-2.49l-5.56-15.24h2.15Z"/><path id="Path_75" class="cls-1" d="M84.61,179.78v5.18h5.79v1.52h-5.79v5.3h6.47v1.59h-8.43v-15.22h8.43v1.59h-6.45v.03Z"/><path id="Path_76" class="cls-1" d="M96.81,191.87h5.41v1.52h-7.38v-15.23h1.97v13.71Z"/><path id="Path_77" class="cls-1" d="M116.31,178.96c1.12,.68,2.04,1.64,2.67,2.78,1.29,2.54,1.29,5.54,0,8.08-.61,1.16-1.53,2.12-2.67,2.78-2.37,1.34-5.27,1.34-7.65,0-1.14-.65-2.06-1.62-2.67-2.78-.67-1.24-1-2.63-.96-4.04-.02-1.41,.31-2.79,.96-4.04,.62-1.16,1.54-2.12,2.67-2.78,1.16-.67,2.48-1.02,3.82-1,1.34,0,2.66,.34,3.83,1Zm-6.64,1.59c-.83,.49-1.5,1.21-1.93,2.08-.94,2-.94,4.31,0,6.3,.44,.86,1.11,1.58,1.93,2.08,.86,.5,1.83,.75,2.82,.74,.98,.01,1.94-.24,2.78-.74,.83-.49,1.5-1.21,1.93-2.08,.94-2,.94-4.31,0-6.3-.44-.86-1.11-1.57-1.93-2.08-.84-.49-1.8-.75-2.78-.74-.99,0-1.96,.25-2.81,.74h0Z"/><path id="Path_78" class="cls-1" d="M125.88,187.28v6.12h-1.97v-15.24h4.82c1.41-.11,2.8,.33,3.89,1.23,.89,.88,1.36,2.09,1.3,3.34,.06,1.25-.42,2.47-1.33,3.33-1.1,.85-2.47,1.28-3.86,1.19h-2.85v.03Zm5.26-2.41c.54-.58,.82-1.36,.78-2.15,.05-.81-.23-1.6-.78-2.19-.74-.56-1.67-.82-2.59-.74h-2.71v5.82h2.71c.94,.14,1.88-.13,2.61-.74h-.01Z"/><path id="Path_79" class="cls-1" d="M152.76,178.45v14.98h-1.97v-11.95l-4.78,11.94h-1.74l-4.78-11.89v11.9h-1.97v-14.99h2.34l5.3,12.58,5.22-12.58h2.39Z"/><path id="Path_80" class="cls-1" d="M159.17,179.78v5.18h5.79v1.52h-5.79v5.3h6.45v1.59h-8.42v-15.22h8.42v1.59h-6.45v.03Z"/><path id="Path_81" class="cls-1" d="M181.27,193.39h-1.97l-7.89-12v12h-1.95v-15.23h1.97l7.89,12.05v-12.05h1.97v15.24h-.03Z"/><path id="Path_82" class="cls-1" d="M195.06,178.19v1.59h-4.3v13.61h-1.97v-13.61h-4.29v-1.59h10.57Z"/><path id="Path_83" class="cls-1" d="M66.63,53.05c0-7.27-.04-14.25,.04-21.21,.16-.71,.6-1.33,1.23-1.7,12.93-9.38,25.88-18.7,38.85-27.96,3.85-2.92,9.18-2.9,13.01,.04,12.98,9.27,25.93,18.59,38.86,27.95,.63,.48,1.05,1.19,1.15,1.97,.07,6.82,.04,13.68,.04,20.88-.78-.37-1.37-.55-1.93-.89-12.46-6.97-24.99-13.83-37.41-20.91-4.39-2.82-10.01-2.85-14.42-.07-12.35,7.01-24.8,13.88-37.19,20.8-.72,.41-1.46,.78-2.22,1.11Z"/><path id="Path_84" class="cls-1" d="M159.73,55.51v22.17c-4.26-1.15-8.42-2.25-12.58-3.38l-29.03-7.92c-3.47-.9-7.13-.84-10.57,.18-12.94,3.6-25.96,7.08-38.93,10.57-.59,.15-1.19,.26-1.93,.45v-22.07c6.64-1.87,13.34-3.78,20.06-5.67,7.15-2.04,14.28-4.23,21.5-5.97,2.84-.77,5.83-.85,8.71-.25,14.32,3.72,28.45,7.84,42.76,11.89Z"/><path id="Path_85" class="cls-1" d="M66.74,102.07v-21.92h92.89v21.92H66.74Z"/></g></g></svg>