<?xml version="1.0" encoding="UTF-8"?>
<!-- Generator: Adobe Illustrator 27.1.0, SVG Export Plug-In . SVG Version: 6.00 Build 0)  -->
<svg xmlns="http://www.w3.org/2000/svg" xmlns:xlink="http://www.w3.org/1999/xlink" version="1.1" id="Layer_1" x="0px" y="0px" viewBox="0 0 199.1 36" style="enable-background:new 0 0 199.1 36;" xml:space="preserve">
<style type="text/css">
	.st0{fill-rule:evenodd;clip-rule:evenodd;fill:#FFFFFF;}
</style>
<path class="st0" d="M151.7,0h-5.2v24.8h5.2V0z M46.8,26.3c-0.5,1.5-1.5,2.7-2.8,3.4c-2.8,1.5-6.3,0.4-7.8-2.5l-1.1-2.2l6.1-11.9  c0.1-0.3,0.3-0.5,0.4-0.8l4.9,9.5C47.1,23.3,47.3,24.9,46.8,26.3L46.8,26.3z M14,27.3c-1,2-3,3.2-5.1,3.2c-0.9,0-1.8-0.2-2.7-0.7  c-1.4-0.7-2.4-1.9-2.8-3.4c-0.5-1.5-0.3-3.1,0.4-4.5l4.9-9.5c0.1,0.3,0.2,0.5,0.4,0.8l6.1,11.9L14,27.3z M22.7,29.8  c-1.4-0.7-2.4-1.9-2.8-3.4c-0.5-1.5-0.3-3.1,0.4-4.5l4.9-9.5l4.9,9.5c0.7,1.4,0.9,3,0.4,4.5c-0.5,1.5-1.5,2.7-2.8,3.4  c-0.8,0.4-1.6,0.6-2.4,0.7C24.3,30.4,23.4,30.2,22.7,29.8L22.7,29.8z M11.3,7.2c0.1-0.2,0.1-0.4,0.2-0.7l0.2-0.3  c0.7-1.4,1.9-2.4,3.4-2.9c0.6-0.2,1.1-0.3,1.7-0.3c0.6,0,1.2,0.1,1.7,0.3c1.5,0.5,2.7,1.5,3.4,2.9l0.1,0.2c0.7,1.6,0.7,3.5-0.1,5.2  l-5.1,10l-5.1-10C11,10.3,10.9,8.7,11.3,7.2L11.3,7.2z M38.4,11.7l-5.1,10l-5.1-10c-0.7-1.4-0.9-3-0.4-4.5C27.9,7,28,6.8,28.1,6.6  l0.2-0.3c0.7-1.4,1.9-2.4,3.4-2.9c0.6-0.2,1.1-0.3,1.7-0.3c0.6,0,1.2,0.1,1.7,0.3c1.5,0.5,2.7,1.5,3.4,2.9l0.1,0.2  C39.3,8.1,39.3,10,38.4,11.7L38.4,11.7z M49.1,20.4L41.3,5.1C40.5,3.4,39.2,2,37.4,1c-1.3-0.7-2.7-1-4.1-1c-1.4,0-2.8,0.3-4.1,1  c-1.8,0.9-3.1,2.4-3.9,4.1l-0.3,0.5l-0.3-0.5C24,3.4,22.7,2,20.9,1c-1.7-0.9-3.5-1.2-5.4-0.9c-1,0.1-1.9,0.4-2.8,0.9  C11,2,9.6,3.4,8.8,5.1L1,20.4c-1.1,2.1-1.3,4.6-0.6,6.9c0.7,2.3,2.3,4.2,4.3,5.3c1.3,0.7,2.7,1,4.1,1c3.2,0,6.3-1.8,7.9-4.8l0.1-0.3  l0.1,0.3c1.6,3.1,4.7,4.8,7.9,4.8c0.1,0,0.2,0,0.2,0c0,0,0.1,0,0.1,0h0c0,0,0.1,0,0.1,0c3.2,0,6.3-1.8,7.9-4.8l0.1-0.3l0.1,0.3  c1.6,3.1,4.7,4.8,7.9,4.8c1.4,0,2.8-0.3,4.1-1c2.1-1.1,3.6-3,4.3-5.3C50.4,25,50.2,22.6,49.1,20.4L49.1,20.4z M198.6,32.3  c-0.2,0-0.3,0-0.4-0.1c-0.1-0.1-0.1-0.2-0.1-0.4v-1.9h1v-1.3h-1v-1.2h-1.5v1.2h-0.7v1.3h0.7v1.8c0,0.7,0.2,1.1,0.5,1.4  c0.3,0.3,0.8,0.4,1.3,0.4h0.7v-1.3L198.6,32.3L198.6,32.3z M193.4,28.6c-0.4,0-0.7,0.1-1,0.3c-0.3,0.2-0.5,0.4-0.6,0.7v-0.9h-1.5v5  h1.5V31c0-0.4,0.1-0.6,0.3-0.8c0.2-0.2,0.4-0.3,0.7-0.3c0.3,0,0.5,0.1,0.7,0.3c0.2,0.2,0.3,0.4,0.3,0.8v2.7h1.5v-2.9  c0-0.7-0.2-1.2-0.5-1.6C194.5,28.8,194,28.6,193.4,28.6z M188,30.8h-1.9c0-0.3,0.1-0.6,0.3-0.7c0.2-0.2,0.4-0.3,0.7-0.3  c0.3,0,0.5,0.1,0.7,0.2C188,30.2,188,30.4,188,30.8z M189.6,31c0-0.5-0.1-0.9-0.3-1.3c-0.2-0.4-0.5-0.7-0.9-0.9  c-0.4-0.2-0.8-0.3-1.3-0.3c-0.5,0-0.9,0.1-1.3,0.3c-0.4,0.2-0.7,0.5-0.9,0.9c-0.2,0.4-0.3,0.8-0.3,1.4c0,0.5,0.1,1,0.3,1.4  c0.2,0.4,0.5,0.7,0.9,0.9c0.4,0.2,0.8,0.3,1.3,0.3c0.4,0,0.8-0.1,1.1-0.2c0.3-0.2,0.6-0.4,0.8-0.7c0.2-0.3,0.4-0.6,0.4-0.9h-1.6  c0,0.2-0.1,0.3-0.3,0.4c-0.1,0.1-0.3,0.2-0.6,0.2c-0.3,0-0.5-0.1-0.6-0.2c-0.2-0.2-0.3-0.4-0.3-0.8h3.4  C189.5,31.3,189.6,31.1,189.6,31L189.6,31z M182,28.6c-0.4,0-0.7,0.1-1,0.3c-0.3,0.2-0.5,0.4-0.7,0.7c-0.1-0.3-0.4-0.6-0.7-0.8  c-0.3-0.2-0.6-0.3-1-0.3s-0.7,0.1-0.9,0.2c-0.3,0.2-0.5,0.4-0.6,0.7v-0.9h-1.5v5h1.5V31c0-0.3,0.1-0.6,0.3-0.8  c0.2-0.2,0.4-0.3,0.7-0.3c0.3,0,0.5,0.1,0.7,0.3c0.2,0.2,0.2,0.4,0.2,0.7v2.7h1.5V31c0-0.3,0.1-0.6,0.3-0.8c0.2-0.2,0.4-0.3,0.7-0.3  c0.3,0,0.5,0.1,0.7,0.3c0.2,0.2,0.3,0.4,0.3,0.7v2.7h1.5v-2.9c0-0.7-0.2-1.2-0.5-1.6C183,28.8,182.6,28.6,182,28.6L182,28.6z   M173.3,30.7h-1.9c0-0.3,0.1-0.6,0.3-0.7c0.2-0.2,0.4-0.3,0.7-0.3c0.3,0,0.5,0.1,0.7,0.2C173.2,30.2,173.3,30.4,173.3,30.7z   M174.8,31c0-0.5-0.1-0.9-0.3-1.3c-0.2-0.4-0.5-0.7-0.9-0.9c-0.4-0.2-0.8-0.3-1.3-0.3c-0.5,0-0.9,0.1-1.3,0.3  c-0.4,0.2-0.7,0.5-0.9,0.9c-0.2,0.4-0.3,0.8-0.3,1.4s0.1,1,0.3,1.4c0.2,0.4,0.5,0.7,0.9,0.9c0.4,0.2,0.8,0.3,1.3,0.3  c0.4,0,0.8-0.1,1.1-0.2c0.3-0.2,0.6-0.4,0.8-0.7c0.2-0.3,0.4-0.6,0.4-0.9h-1.6c0,0.2-0.1,0.3-0.3,0.4c-0.1,0.1-0.3,0.2-0.6,0.2  c-0.3,0-0.5-0.1-0.7-0.2c-0.2-0.2-0.3-0.4-0.3-0.8h3.4C174.8,31.2,174.8,31.1,174.8,31L174.8,31z M166.8,29.9c0.3,0,0.6,0.1,0.8,0.3  c0.2,0.2,0.3,0.5,0.3,0.9c0,0.4-0.1,0.7-0.3,0.9c-0.2,0.2-0.5,0.3-0.8,0.3s-0.6-0.1-0.8-0.3c-0.2-0.2-0.3-0.5-0.3-0.9  c0-0.4,0.1-0.7,0.3-0.9C166.2,30,166.5,29.9,166.8,29.9z M167.3,28.6c-0.4,0-0.7,0.1-1,0.3c-0.3,0.2-0.5,0.4-0.6,0.7v-0.9h-1.5V36  h1.5v-3.3c0.1,0.3,0.3,0.5,0.6,0.7c0.3,0.2,0.6,0.3,1,0.3c0.4,0,0.8-0.1,1.1-0.3c0.3-0.2,0.6-0.5,0.8-0.9c0.2-0.4,0.3-0.8,0.3-1.4  s-0.1-1-0.3-1.4c-0.2-0.4-0.4-0.7-0.8-0.9C168,28.7,167.7,28.6,167.3,28.6z M161.1,29.9c0.3,0,0.6,0.1,0.8,0.3  c0.2,0.2,0.3,0.5,0.3,0.9c0,0.4-0.1,0.7-0.3,0.9c-0.2,0.2-0.5,0.3-0.8,0.3s-0.6-0.1-0.8-0.3c-0.2-0.2-0.3-0.5-0.3-0.9  c0-0.4,0.1-0.7,0.3-0.9C160.5,30,160.7,29.9,161.1,29.9z M161.5,28.6c-0.4,0-0.7,0.1-1,0.3c-0.3,0.2-0.5,0.4-0.6,0.7v-0.9h-1.5V36  h1.5v-3.3c0.1,0.3,0.3,0.5,0.6,0.7c0.3,0.2,0.6,0.3,1,0.3c0.4,0,0.8-0.1,1.1-0.3c0.3-0.2,0.6-0.5,0.8-0.9c0.2-0.4,0.3-0.8,0.3-1.4  s-0.1-1-0.3-1.4c-0.2-0.4-0.4-0.7-0.8-0.9C162.3,28.7,161.9,28.6,161.5,28.6z M155.4,29.9c0.3,0,0.5,0.1,0.7,0.3  c0.2,0.2,0.3,0.5,0.3,0.9s-0.1,0.7-0.3,0.9c-0.2,0.2-0.4,0.3-0.7,0.3c-0.3,0-0.5-0.1-0.7-0.3c-0.2-0.2-0.3-0.5-0.3-0.9  s0.1-0.7,0.3-0.9C154.9,30,155.1,29.9,155.4,29.9z M155.4,28.6c-0.5,0-0.9,0.1-1.3,0.3c-0.4,0.2-0.7,0.5-0.9,0.9  c-0.2,0.4-0.3,0.8-0.3,1.4s0.1,1,0.3,1.4c0.2,0.4,0.5,0.7,0.9,0.9c0.4,0.2,0.8,0.3,1.3,0.3c0.5,0,0.9-0.1,1.3-0.3  c0.4-0.2,0.7-0.5,0.9-0.9s0.3-0.8,0.3-1.4s-0.1-1-0.3-1.4c-0.2-0.4-0.5-0.7-0.9-0.9C156.3,28.7,155.9,28.6,155.4,28.6z M150.6,33.6  h1.5V27h-1.5V33.6z M148.3,30.7h-1.9c0-0.3,0.1-0.6,0.3-0.7c0.2-0.2,0.4-0.3,0.7-0.3c0.3,0,0.5,0.1,0.7,0.2  C148.2,30.2,148.3,30.4,148.3,30.7L148.3,30.7z M149.8,31c0-0.5-0.1-0.9-0.3-1.3c-0.2-0.4-0.5-0.7-0.9-0.9c-0.4-0.2-0.8-0.3-1.3-0.3  s-0.9,0.1-1.3,0.3c-0.4,0.2-0.7,0.5-0.9,0.9c-0.2,0.4-0.3,0.8-0.3,1.4s0.1,1,0.3,1.4c0.2,0.4,0.5,0.7,0.9,0.9  c0.4,0.2,0.8,0.3,1.3,0.3c0.4,0,0.8-0.1,1.1-0.2c0.3-0.2,0.6-0.4,0.8-0.7c0.2-0.3,0.4-0.6,0.4-0.9h-1.6c0,0.2-0.1,0.3-0.3,0.4  c-0.1,0.1-0.3,0.2-0.6,0.2c-0.3,0-0.5-0.1-0.7-0.2c-0.2-0.2-0.3-0.4-0.3-0.8h3.4C149.8,31.2,149.8,31.1,149.8,31z M141,28.6h-1.6  l1.7,5h1.9l1.7-5h-1.6l-1.1,3.5L141,28.6z M137.7,30.7h-1.9c0-0.3,0.1-0.6,0.3-0.7c0.2-0.2,0.4-0.3,0.7-0.3c0.3,0,0.5,0.1,0.7,0.2  C137.6,30.2,137.7,30.4,137.7,30.7z M139.2,31c0-0.5-0.1-0.9-0.3-1.3c-0.2-0.4-0.5-0.7-0.9-0.9c-0.4-0.2-0.8-0.3-1.3-0.3  c-0.5,0-0.9,0.1-1.3,0.3c-0.4,0.2-0.7,0.5-0.9,0.9c-0.2,0.4-0.3,0.8-0.3,1.4s0.1,1,0.3,1.4c0.2,0.4,0.5,0.7,0.9,0.9  c0.4,0.2,0.8,0.3,1.3,0.3c0.4,0,0.8-0.1,1.1-0.2c0.3-0.2,0.6-0.4,0.8-0.7c0.2-0.3,0.4-0.6,0.4-0.9h-1.6c0,0.2-0.1,0.3-0.3,0.4  c-0.1,0.1-0.3,0.2-0.6,0.2c-0.3,0-0.5-0.1-0.7-0.2c-0.2-0.2-0.3-0.4-0.3-0.8h3.4C139.2,31.2,139.2,31.1,139.2,31z M131,29.9  c0.3,0,0.6,0.1,0.8,0.3c0.2,0.2,0.3,0.5,0.3,0.9c0,0.4-0.1,0.7-0.3,0.9c-0.2,0.2-0.5,0.3-0.8,0.3s-0.6-0.1-0.8-0.3  c-0.2-0.2-0.3-0.5-0.3-0.9c0-0.4,0.1-0.7,0.3-0.9C130.4,30,130.6,29.9,131,29.9z M130.5,28.6c-0.4,0-0.8,0.1-1.1,0.3  c-0.3,0.2-0.6,0.5-0.8,0.9c-0.2,0.4-0.3,0.8-0.3,1.4s0.1,1,0.3,1.4c0.2,0.4,0.4,0.7,0.8,0.9c0.3,0.2,0.7,0.3,1.1,0.3  c0.4,0,0.7-0.1,1-0.3c0.3-0.2,0.5-0.4,0.6-0.7v0.9h1.5V27H132v2.5c-0.1-0.3-0.3-0.5-0.6-0.7C131.2,28.6,130.9,28.6,130.5,28.6z   M135.4,27h2.7v0.5h-2.7V27z M84.5,9.4c1.2,1.3,1.8,3.1,1.8,5.4v10h-5.1v-9.4c0-1.1-0.3-1.9-0.9-2.5c-0.6-0.6-1.4-0.9-2.3-0.9  c-1,0-1.8,0.3-2.4,1c-0.6,0.6-0.9,1.6-0.9,2.7v9.1h-5.2v-9.4c0-1.1-0.3-1.9-0.8-2.5C68,12.3,67.2,12,66.2,12c-1,0-1.8,0.3-2.5,1  c-0.6,0.6-0.9,1.6-0.9,2.7v9.1h-5.2V7.6h5.2v2.9c0.4-1,1.1-1.7,2-2.3c0.9-0.6,2-0.8,3.2-0.8s2.4,0.3,3.4,0.9c1,0.6,1.7,1.5,2.2,2.6  c0.6-1.1,1.4-1.9,2.4-2.6c1-0.6,2.1-1,3.4-1C81.6,7.4,83.3,8.1,84.5,9.4L84.5,9.4z M93.3,16.2c0-1.3,0.3-2.3,1-3.1  C95,12.4,96,12,97,12c1.1,0,2,0.4,2.7,1.1c0.7,0.8,1,1.8,1,3.1s-0.4,2.3-1,3C99,20,98.2,20.4,97,20.4c-1.1,0-2-0.4-2.7-1.1  C93.7,18.5,93.3,17.5,93.3,16.2z M100.8,10.7c-0.4-1-1.1-1.8-2.1-2.4v0c-0.9-0.6-2-0.9-3.3-0.9c-1.4,0-2.6,0.4-3.7,1.1  c-1.1,0.7-2,1.7-2.6,3c-0.6,1.3-1,2.9-1,4.7c0,1.8,0.3,3.3,1,4.7c0.6,1.3,1.5,2.4,2.6,3.1c1.1,0.7,2.3,1.1,3.7,1.1  c1.3,0,2.4-0.3,3.3-0.9c0.9-0.6,1.6-1.4,2.1-2.4v3.1h5.1V7.6h-5.1V10.7z M114.1,13.1c-0.7,0.7-1,1.8-1,3.1c0,1.3,0.3,2.3,1,3.1  c0.7,0.7,1.6,1.1,2.7,1.1c1.1,0,2-0.4,2.7-1.1c0.7-0.8,1-1.8,1-3s-0.3-2.3-1-3.1c-0.7-0.7-1.6-1.1-2.7-1.1S114.8,12.4,114.1,13.1z   M118.5,8.3c0.9,0.6,1.6,1.4,2.1,2.4V7.6h5.1v17.5c0,1.6-0.3,3-0.9,4.3c-0.6,1.3-1.5,2.3-2.8,3.1c-1.3,0.8-2.8,1.1-4.7,1.1  c-2.5,0-4.6-0.6-6.1-1.8c-1.5-1.2-2.4-2.9-2.7-5h5.1c0.2,0.7,0.5,1.2,1.1,1.6c0.6,0.4,1.3,0.6,2.3,0.6c1.1,0,1.9-0.3,2.6-0.9  c0.7-0.6,1-1.6,1-3v-3.4c-0.4,1-1.1,1.8-2.1,2.4c-0.9,0.6-2,0.9-3.3,0.9c-1.4,0-2.6-0.4-3.7-1.1c-1.1-0.7-2-1.7-2.6-3.1  c-0.6-1.3-1-2.9-1-4.7c0-1.8,0.3-3.4,1-4.7c0.6-1.3,1.5-2.3,2.6-3c1.1-0.7,2.3-1.1,3.7-1.1C116.4,7.4,117.6,7.7,118.5,8.3z   M136.1,11.5c0.9,0,1.7,0.3,2.3,0.8c0.6,0.6,0.9,1.4,0.9,2.5h-6.6c0.1-1.1,0.4-2,1.1-2.5C134.4,11.8,135.2,11.5,136.1,11.5z   M132.7,17.2h11.7l0,0c0.1-0.5,0.2-1,0.2-1.4c0-1.6-0.3-3.1-1-4.4c-0.7-1.3-1.7-2.2-3-2.9c-1.3-0.7-2.8-1-4.4-1  c-1.7,0-3.1,0.4-4.4,1.1c-1.3,0.7-2.3,1.7-3,3c-0.7,1.3-1.1,2.9-1.1,4.7c0,1.8,0.4,3.3,1.1,4.7c0.7,1.3,1.7,2.4,3,3.1  c1.3,0.7,2.7,1.1,4.4,1.1c1.4,0,2.7-0.3,3.8-0.8c1.2-0.5,2.1-1.3,2.8-2.2c0.7-1,1.2-2,1.5-3.2h-5.5c-0.2,0.6-0.5,1.1-1,1.5  c-0.5,0.4-1.1,0.6-1.9,0.6c-0.9,0-1.7-0.3-2.2-0.8C133.1,19.4,132.7,18.4,132.7,17.2z M154.5,0h5.2v24.8h-5.2V0z M167.7,24.8h-5.2  V7.6h5.2V24.8z M162.8,0.8c0.6-0.5,1.3-0.8,2.2-0.8c0.9,0,1.7,0.3,2.2,0.8c0.6,0.5,0.8,1.2,0.8,2c0,0.8-0.3,1.4-0.8,2  c-0.6,0.5-1.3,0.8-2.2,0.8s-1.7-0.3-2.2-0.8c-0.6-0.5-0.8-1.2-0.8-2C162,2,162.3,1.3,162.8,0.8L162.8,0.8z M199.1,14.8  c0-2.3-0.6-4.1-1.8-5.4h0c-1.2-1.3-2.8-2-4.9-2c-1.2,0-2.4,0.3-3.4,1c-1,0.6-1.8,1.5-2.4,2.6c-0.5-1.1-1.3-2-2.2-2.6  c-1-0.6-2.2-0.9-3.4-0.9c-1.2,0-2.3,0.3-3.2,0.8c-0.9,0.6-1.6,1.3-2,2.3V7.6h-5.2v17.2h5.2v-9.1c0-1.2,0.3-2.1,0.9-2.7  c0.6-0.6,1.5-1,2.5-1c1,0,1.8,0.3,2.3,0.9c0.6,0.6,0.8,1.5,0.8,2.5v9.4h5.2v-9.1c0-1.2,0.3-2.1,0.9-2.7c0.6-0.6,1.5-1,2.4-1  c1,0,1.8,0.3,2.3,0.9c0.6,0.6,0.9,1.5,0.9,2.5v9.4h5.1V14.8z"></path>
</svg>
