<?xml version="1.0" encoding="UTF-8"?><svg id="Group_40" xmlns="http://www.w3.org/2000/svg" viewBox="0 0 156.46 55.39"><defs><style>.cls-1{fill:#fff;}</style></defs><path id="Fill_1" class="cls-1" d="M17.57,21.18H0V.61c4.11,.46,20.18-1.25,23.31,1.44,2.75,2.1,1.7,6.91-1.69,7.66,8.41,2.58,3.69,12.9-4.04,11.47ZM6.37,12.67v4.04c1.97-.58,13.32,1.67,13-2.02,.56-3.68-11.16-1.44-13-2.02Zm0-7.71v3.34c1.7-.55,12.46,1.51,12.16-1.71,.31-3.08-10.56-1.1-12.16-1.63Z"/><path id="Fill_3" class="cls-1" d="M37.25,.61v15.46h14.18v5.12H30.86V.61h6.39Z"/><path id="Fill_5" class="cls-1" d="M70.71,21.18c-11.92,1.2-20.1-7.66-13.16-17.44,4.19-4.99,20.89-5,25.09,0,6.54,8.69-.45,18.52-11.94,17.44Zm-.6-16.18c-9.46-1.1-12.79,11.04,0,11.22,10.86,.89,10.98-12.17,0-11.22h0Z"/><path id="Fill_7" class="cls-1" d="M105.36,21.18c-11.92,1.2-20.1-7.66-13.16-17.44,4.19-4.99,20.89-5,25.09,0,6.54,8.69-.45,18.52-11.94,17.44Zm-.6-16.18c-9.46-1.1-12.79,11.04,0,11.22,10.86,.89,10.98-12.17,0-11.22h0Z"/><path id="Fill_9" class="cls-1" d="M124.52,.61h9.07l7.05,12.8,7.08-12.8h8.75V21.18h-6.31V6.94l-8.03,14.24h-3.43l-8.03-14.24v14.24h-6.14V.61Z"/><path id="Fill_11" class="cls-1" d="M0,27.68H3.27v3.75h7v-3.75h3.27v10.29h-3.26v-4.05H3.27v4.05H0v-10.29Z"/><path id="Fill_13" class="cls-1" d="M26.93,27.68v2.34h-7.55v1.52h7.38v2.35h-7.38v1.69h7.69v2.39h-10.83v-10.29h10.69Z"/><path id="Fill_15" class="cls-1" d="M33.11,37.97h-3.34l5.3-10.29h4.25l5.61,10.28h-3.54l-.99-1.88h-6.35l-.94,1.88Zm4.06-8.06l-1.95,3.86h3.97l-2.03-3.86Z"/><path id="Fill_17" class="cls-1" d="M49.28,30.11h-4.35v-2.43h11.91v2.43h-4.36v7.85h-3.2v-7.85Z"/><path id="Fill_19" class="cls-1" d="M59.55,27.68h3.27v3.75h7v-3.75h3.27v10.29h-3.26v-4.05h-7v4.05h-3.27v-10.29Z"/><path id="Fill_21" class="cls-1" d="M79.55,37.97h-3.22v-10.29c2.59,.25,9.56-.68,11.81,.78,1.69,1.16,1.02,3.92-.96,4.31,2.61,.48,1.63,3.39,2.14,5.19h-3.28c.22-5.12-2.84-3.37-6.5-3.65v3.65Zm0-7.95v2.02c1.01-.31,6.29,.86,6.18-1.02,.1-1.85-5.2-.69-6.18-1Z"/><path id="Fill_23" class="cls-1" d="M99.38,37.97c-9.96,1.31-10.89-11.54-.6-10.83,9.99-1.32,10.83,11.5,.6,10.83Zm-.31-8.3c-4.41-.71-6.8,5.68,0,5.75,5.48,.59,5.52-6.38,0-5.75h0Z"/><path id="Fill_25" class="cls-1" d="M111.97,37.97l-4.24-10.29h3.52l2.66,7.08,2.3-7.08h3.43l2.35,6.87,2.6-6.87h3.17l-4.17,10.29h-3.25l-2.48-6.89-2.34,6.88h-3.56Z"/><path id="Fill_27" d="M70.38,55.29h-10.83v-10.83h3.36v8.13h7.46v2.69h0Zm-10.35-10.34v9.86h9.87v-1.73h-7.46v-8.13h-2.41Z"/><path id="Fill_29" d="M79.91,55.29c-10.65,1.39-11.67-12.14-.64-11.37,12.08-.79,10.49,12.27,.64,11.37Zm-.64-10.88c-10.49-.64-9.38,11.67,.64,10.39,10.38,.58,9.43-11.67-.64-10.39Zm.31,8.7c-7.06-.03-6.6-7.29,0-7.02,6.71-.23,6.89,7.1,0,7.02h0Zm0-6.52c-4.7-.76-7.3,5.97,0,6.04,5.86,.62,5.9-6.71,0-6.04h0Z"/><path id="Fill_31" d="M93.76,55.29h-3.35v-10.83h3.79l6.93,6.81v-6.81h3.36v10.83h-3.36l-7.37-7.17v7.17Zm-.48-8.32h0c.21,.2,7.61,7.41,8.05,7.84h2.67v-9.86h-2.39v7.48s-7.26-7.14-7.61-7.48h-3.11v9.86h2.39v-7.84Z"/><path id="Fill_33" d="M114.46,55.29h-7.36v-10.83c3.46,.15,11.34-.71,13.66,1.65,4.08,4.49-.24,9.85-6.3,9.18Zm-6.86-10.34v9.86c4.53-.02,15.13,1.07,14.17-5.22,.62-5.71-9.92-4.58-14.17-4.64Zm6.58,8.22h-4.1v-6.63h4.1c6.19-.42,7.3,6.66,0,6.63Zm-3.6-6.14v5.66c2.53-.17,7.95,.96,8.05-2.88-.18-3.76-5.55-2.59-8.05-2.78Z"/><path id="Fill_37" d="M145.74,55.29h-3.36v-10.83h3.79l6.93,6.81v-6.81h3.35v10.83h-3.35l-7.37-7.17v7.17Zm-.48-8.32h0c.21,.2,7.61,7.41,8.05,7.84h2.67v-9.86h-2.39v7.48s-7.27-7.14-7.61-7.48h-3.11v9.86h2.39v-7.84Z"/><path id="Fill_35" d="M132.42,55.29c-10.65,1.39-11.67-12.14-.64-11.37,10.67-1.41,11.6,12.09,.64,11.37Zm-.64-10.88c-10.49-.64-9.38,11.67,.64,10.39,10.38,.58,9.43-11.67-.64-10.39Zm.31,8.7c-7.06-.03-6.6-7.29,0-7.02,6.71-.23,6.89,7.1,0,7.02h0Zm0-6.52c-5.91-.69-5.84,6.66,0,6.04,5.79,.54,6.11-6.53,0-6.04h0Z"/></svg>