<?xml version="1.0" encoding="UTF-8"?><svg id="Laag_2" xmlns="http://www.w3.org/2000/svg" xmlns:xlink="http://www.w3.org/1999/xlink" viewBox="0 0 843.93 98.47"><defs><style>.cls-1{fill:none;}.cls-2{clip-path:url(#clippath);}.cls-3{fill:#fff;}</style><clipPath id="clippath"><rect class="cls-1" width="843.93" height="98.47"/></clipPath></defs><g id="Laag_1-2"><g id="Group_8" transform="translate(0 0)"><g class="cls-2"><g id="Group_7" transform="translate(0 0)"><path id="Path_3" class="cls-3" d="M0,63.34C0,43.19,13.82,29.08,33.98,29.08c10.64-.29,20.73,4.73,26.93,13.39l-14.68,11.37c-2.78-3.57-7.14-5.56-11.66-5.33-7.76-.28-14.28,5.79-14.55,13.55-.02,.43-.01,.85,.01,1.28-.44,7.82,5.54,14.51,13.36,14.95,.39,.02,.79,.03,1.18,.02,4.51,.33,8.89-1.61,11.66-5.18l14.68,11.09c-6.13,8.75-16.25,13.83-26.93,13.53-20.16,0-33.98-14.25-33.98-34.41"/><path id="Path_4" class="cls-3" d="M71.99,2.88h20.44V35.7c4.78-4.37,11.09-6.7,17.56-6.48,11.52,0,25.77,6.05,25.77,26.78v40.46h-20.59V59.31c0-11.23-7.92-12.81-11.52-12.81s-11.23,1.58-11.23,12.81v37.14h-20.44V2.88Z"/><path id="Path_5" class="cls-3" d="M150.88,10.65c.19-6.08,5.27-10.86,11.35-10.67,5.82,.18,10.49,4.85,10.67,10.67,.08,6.08-4.78,11.08-10.86,11.17-6.08,.08-11.08-4.78-11.17-10.86,0-.1,0-.2,0-.3m.72,19.58h20.73l-.14,66.22h-20.59V30.23Z"/><path id="Path_6" class="cls-3" d="M185.43,63.34c0-19.72,12.96-34.41,33.11-34.41s31.96,14.68,31.96,34.41v5.47h-45.21c1.14,6.8,7.07,11.76,13.97,11.66,8.35,0,12.24-3.89,13.97-6.19l13.96,10.37c-5.76,8.06-15.84,13.25-27.93,13.25-20.44,0-33.83-14.83-33.83-34.55m45.78-7.34c-1.73-6.33-5.76-10.94-12.67-10.94s-11.08,4.18-12.96,10.94h25.63Z"/><path id="Path_7" class="cls-3" d="M266.91,45.63h-8.35v-15.41h8.35v-4.89c0-14.68,7.34-22.46,22.03-22.46h14.11v15.84h-7.49c-5.33,0-8.06,2.59-8.06,7.92v3.59h13.97v15.4h-13.97v50.82h-20.59V45.63Z"/><path id="Path_8" class="cls-3" d="M313.84,30.23h20.44v6.05c4.44-4.52,10.51-7.06,16.84-7.06,7.2,0,15.26,2.45,20.15,9.5,5.26-6.28,13.12-9.78,21.31-9.5,11.37,0,24.61,5.9,24.61,26.78v40.46h-20.44V58.88c0-10.8-8.06-11.81-10.65-11.81-2.73,0-10.37,1.01-10.37,11.81v37.58h-20.44V58.88c0-10.8-8.06-11.81-10.65-11.81-2.73,0-10.36,1.01-10.36,11.81v37.58h-20.44V30.23Z"/><path id="Path_9" class="cls-3" d="M429.74,63.34c0-20.16,13.25-34.12,31.1-34.12,6.35-.22,12.52,2.11,17.13,6.48v-5.47h20.44V96.46h-20.44v-5.47c-4.56,4.47-10.75,6.87-17.13,6.62-17.85,0-31.1-14.54-31.1-34.26m48.23,0c0-8.64-5.47-14.83-14.11-14.83s-14.25,6.19-14.25,14.83,5.61,14.97,14.25,14.97,14.11-6.33,14.11-14.97"/><path id="Path_10" class="cls-3" d="M510.94,63.34c0-20.16,13.82-34.26,33.98-34.26,10.64-.29,20.73,4.73,26.93,13.39l-14.68,11.37c-2.78-3.57-7.14-5.56-11.66-5.33-7.76-.28-14.28,5.79-14.55,13.55-.02,.43-.01,.85,.01,1.28-.44,7.82,5.54,14.51,13.36,14.95,.39,.02,.79,.03,1.18,.02,4.51,.33,8.89-1.61,11.66-5.18l14.68,11.09c-6.13,8.75-16.25,13.83-26.93,13.53-20.15,0-33.98-14.25-33.98-34.41"/><path id="Path_11" class="cls-3" d="M582.92,2.88h20.44V35.7c4.78-4.37,11.09-6.7,17.56-6.48,11.52,0,25.77,6.05,25.77,26.78v40.46h-20.59V59.31c0-11.23-7.92-12.81-11.52-12.81s-11.23,1.58-11.23,12.81v37.14h-20.44V2.88Z"/><path id="Path_12" class="cls-3" d="M659.08,63.34c0-19.72,12.96-34.41,33.11-34.41s31.96,14.68,31.96,34.41v5.47h-45.19c1.14,6.8,7.07,11.76,13.97,11.66,8.35,0,12.24-3.89,13.96-6.19l13.97,10.37c-5.76,8.06-15.84,13.25-27.93,13.25-20.44,0-33.83-14.83-33.83-34.55m45.78-7.34c-1.73-6.33-5.76-10.94-12.67-10.94s-11.08,4.18-12.96,10.94h25.63Z"/><path id="Path_13" class="cls-3" d="M736.53,30.23h20.44v11.95c4.97-8.11,13.82-13.02,23.32-12.96v19.29c-5.18,0-23.32-.43-23.32,19.44v28.5h-20.44V30.23Z"/><path id="Path_14" class="cls-3" d="M785.62,82.35l13.96-9.5c1.15,3.02,9.07,9.5,16.55,9.5,5.05,0,7.63-1.44,7.63-4.61,0-4.17-7.48-5.47-12.24-7.2s-22.75-6.33-22.75-21.16,12.96-20.73,27.06-20.73c14.83,0,24.47,7.2,28.07,14.25l-13.25,8.78c-4.02-4.39-9.6-7.03-15.55-7.34-4.61,0-6.48,1.73-6.48,4.03,0,4.46,7.34,5.76,12.09,7.48,4.89,1.73,22.89,6.77,22.89,21.16s-10.65,21.46-27.64,21.46-27.06-8.35-30.38-16.12"/></g></g></g></g></svg>