<?xml version="1.0" encoding="UTF-8"?>
<!-- Generator: Adobe Illustrator 27.2.0, SVG Export Plug-In . SVG Version: 6.00 Build 0)  -->
<svg xmlns="http://www.w3.org/2000/svg" xmlns:xlink="http://www.w3.org/1999/xlink" version="1.1" id="Layer_2" x="0px" y="0px" viewBox="0 0 125.2 37" style="enable-background:new 0 0 125.2 37;" xml:space="preserve">
<style type="text/css">
	.st0{fill:#FFFFFF;}
</style>
<g id="Layer_1-2">
	<path id="Combined_Shape" class="st0" d="M104.9,27.8h3.8c0.5,3.5,3.8,5.9,7.3,5.4c2.8-0.4,4.9-2.6,5.4-5.4h3.8   c-0.5,5.6-5.5,9.7-11.1,9.2C109.2,36.5,105.4,32.6,104.9,27.8z M68,35.1c-0.9-1-0.9-2.4,0-3.4c0.9-0.9,2.3-0.9,3.2,0c0,0,0,0,0,0   c0.9,1,0.9,2.4,0,3.4C70.3,36,68.9,36,68,35.1C68,35.2,68,35.1,68,35.1z M68.6,32.5c-0.2,0.3-0.4,0.6-0.4,1   c-0.1,0.7,0.5,1.4,1.2,1.4c0.7,0,1.4-0.5,1.4-1.2c0-0.1,0-0.1,0-0.2c0-0.4-0.1-0.7-0.4-1C70,31.9,69.2,31.9,68.6,32.5   C68.7,32.4,68.7,32.4,68.6,32.5L68.6,32.5L68.6,32.5z M79.5,33.5c0-1.3,1-2.3,2.2-2.4c0,0,0.1,0,0.1,0c0.4,0,0.7,0.1,1,0.2v1.1   c-0.3-0.2-0.7-0.4-1-0.4c-0.8,0-1.4,0.7-1.3,1.5c0,0.7,0.6,1.3,1.3,1.3c0.4,0,0.7-0.1,1-0.4v1.1c-0.3,0.2-0.7,0.2-1,0.2   C80.6,35.8,79.5,34.8,79.5,33.5C79.5,33.5,79.5,33.5,79.5,33.5z M91.9,34.7h-1.6l-0.3,1h-1l1.6-4.5h1l1.7,4.5h-1L91.9,34.7   L91.9,34.7z M90.6,33.7h1l-0.5-1.4C91.1,32.3,90.6,33.7,90.6,33.7z M95.1,33.9v-2.8H96V34c0,0.4,0.3,0.8,0.7,0.8   c0.4,0,0.8-0.3,0.8-0.7c0,0,0,0,0-0.1v-2.9h0.9v2.8c0.1,0.9-0.7,1.7-1.6,1.8S95.1,35,95.1,34C95.1,34,95.1,33.9,95.1,33.9   L95.1,33.9L95.1,33.9z M84.8,35.6v-4.5h2.6V32h-1.6v0.9h1.5v0.9h-1.5v0.9h1.6v0.9H84.8z M76.6,35.6L74.8,33v2.6h-0.9v-4l-0.3-0.5   v-0.1h1.1l1.9,2.9v-2.9h0.9v4.5L76.6,35.6L76.6,35.6z M64.4,35.6v-2.8l-1,2.8h-0.8l-1-2.8v2.8h-0.9v-4.5h1.1l1.2,3.3l1.2-3.3h1.1   v4.5L64.4,35.6L64.4,35.6z M83.5,27.7h-1l1.7-4.5h1l1.6,4.5h-1l-0.3-1h-1.6L83.5,27.7L83.5,27.7z M84.1,25.9h1l-0.5-1.4   C84.6,24.5,84.1,25.9,84.1,25.9z M56.5,27.7h-1l1.7-4.5h1l1.7,4.5h-1l-0.3-1h-1.6L56.5,27.7L56.5,27.7L56.5,27.7z M57.2,25.9h1   l-0.5-1.4C57.7,24.5,57.2,25.9,57.2,25.9z M97.3,27.7l-1.8-2.6v2.6h-0.9v-4l-0.3-0.5v-0.1h1.1l1.9,2.9v-2.9h0.9v4.5L97.3,27.7   L97.3,27.7z M91.4,27.7l-1.8-2.6v2.6h-0.9v-4l-0.3-0.5v-0.1h1.1l1.9,2.9v-2.9h0.9v4.5L91.4,27.7L91.4,27.7z M80,27.7v-2.8l-1,2.8   h-0.8l-1-2.8v2.8h-0.9v-4.5h1.1l1.2,3.3l1.2-3.3h1.1v4.5C80.9,27.7,80,27.7,80,27.7z M71.3,27.5v-1.1c0.3,0.2,0.7,0.4,1.1,0.4   c0.4,0,0.6-0.2,0.6-0.4c0-0.2-0.1-0.3-0.4-0.4L72,25.6c-0.5-0.2-0.8-0.7-0.8-1.3c0-0.6,0.4-1.3,1.6-1.3c0.3,0,0.7,0.1,1,0.2v1   c-0.3-0.2-0.6-0.3-1-0.3c-0.4,0-0.6,0.2-0.6,0.4c0,0.1,0.1,0.3,0.3,0.4l0.6,0.4c0.5,0.2,0.8,0.7,0.8,1.3c0,0.8-0.6,1.4-1.3,1.4   c-0.1,0-0.1,0-0.2,0C72.1,27.8,71.7,27.7,71.3,27.5L71.3,27.5L71.3,27.5z M67,27.5v-1.1c0.3,0.2,0.7,0.4,1.1,0.4   c0.4,0,0.6-0.2,0.6-0.4c0-0.2-0.1-0.3-0.4-0.4l-0.6-0.4c-0.5-0.2-0.8-0.7-0.8-1.3c0-0.6,0.4-1.3,1.6-1.3c0.3,0,0.7,0.1,1,0.2v1   c-0.3-0.2-0.6-0.3-1-0.3c-0.4,0-0.6,0.2-0.6,0.4c0,0.1,0.1,0.3,0.3,0.4l0.6,0.4c0.5,0.2,0.8,0.7,0.8,1.3c0,0.8-0.6,1.4-1.3,1.4   c-0.1,0-0.1,0-0.2,0C67.8,27.8,67.4,27.7,67,27.5L67,27.5L67,27.5z M61.4,26v-2.8h0.9v2.9c0,0.4,0.3,0.8,0.7,0.8s0.8-0.3,0.8-0.7   c0,0,0,0,0-0.1v-2.9h0.9V26c0.1,0.9-0.7,1.7-1.6,1.8s-1.7-0.7-1.8-1.6C61.4,26.1,61.4,26.1,61.4,26L61.4,26z M52.8,27.7v-1.8h-2.1   v1.8h-0.9v-4.5h0.9V25h2.1v-1.8h0.9v4.5C53.7,27.7,52.8,27.7,52.8,27.7z M121.3,25.6c-0.6-3.5-3.9-5.8-7.4-5.2   c-2.6,0.5-4.7,2.5-5.2,5.2h-3.8c0.3-2.9,1.9-5.5,4.2-7.2c-2.4-1.7-3.9-4.3-4.2-7.2h3.8c0.6,3.5,3.9,5.8,7.4,5.2   c2.7-0.5,4.7-2.6,5.2-5.2h3.8c-0.3,2.9-1.9,5.5-4.2,7.2c2.4,1.7,3.9,4.3,4.2,7.2C125.2,25.6,121.3,25.6,121.3,25.6z M0,11.2h4   c0.5,2.6,2.8,4.5,5.4,4.4c1.5,0,3-0.5,4.2-1.5v4.4c-1.3,0.6-2.7,0.9-4.2,0.9C4.6,19.6,0.5,16,0,11.2z M86,19.3h-4.3l-1.4-3.9h-6.6   l-1.4,3.9h-4.3L74.9,1h4.3L86,19.3L86,19.3L86,19.3z M75,11.7h4.1l-2-5.7L75,11.7L75,11.7z M32.7,19.3h-4.3L27,15.4h-6.6L19,19.3   h-4.3L21.6,1h4.3L32.7,19.3L32.7,19.3L32.7,19.3z M21.7,11.7h4l-2-5.7C23.7,6,21.7,11.7,21.7,11.7z M88,19.3V1h3.8v14.6h6.6v3.7   L88,19.3L88,19.3z M60.5,19.3V4.7h-4.5V1h12.8v3.7h-4.5v14.6L60.5,19.3L60.5,19.3z M49.6,19.3V1h3.9v18.3L49.6,19.3L49.6,19.3z    M38.3,19.3h-3.9V1h6.3c0.8,0,1.7,0.1,2.5,0.4c0.7,0.2,1.4,0.6,1.9,1.1c1.1,1.1,1.8,2.7,1.7,4.2c0.1,1.6-0.5,3.2-1.7,4.3   c-0.6,0.5-1.2,0.9-1.9,1.1c-0.8,0.3-1.6,0.4-2.5,0.4h-2.5V19.3L38.3,19.3L38.3,19.3z M38.3,8.9h2.4c0.6,0,1.1-0.2,1.6-0.5   c0.2-0.2,0.4-0.4,0.5-0.7c0.1-0.3,0.2-0.6,0.2-0.9c0-0.3,0-0.6-0.2-0.9c-0.1-0.2-0.2-0.5-0.5-0.7c-0.4-0.4-1-0.6-1.6-0.5h-2.4   L38.3,8.9L38.3,8.9z M121.3,9.1c-0.6-3.5-3.9-5.8-7.4-5.2c-2.7,0.5-4.7,2.6-5.2,5.2h-3.8c0.6-5.6,5.7-9.6,11.3-9   c4.7,0.5,8.5,4.3,9,9C125.2,9.1,121.3,9.1,121.3,9.1z M0,9.1c0.4-4.9,4.5-8.6,9.4-8.5c1.4,0,2.9,0.3,4.2,0.9v4.4   c-1.2-1-2.6-1.5-4.2-1.5c-2.7,0-5,2-5.4,4.6L0,9.1L0,9.1z"></path>
</g>
</svg>
