<?xml version="1.0" encoding="utf-8"?>
<!-- Generator: Adobe Illustrator 26.2.1, SVG Export Plug-In . SVG Version: 6.00 Build 0)  -->
<svg version="1.1" id="Layer_1" xmlns="http://www.w3.org/2000/svg" xmlns:xlink="http://www.w3.org/1999/xlink" x="0px" y="0px"
	 viewBox="0 0 1000 89.7" style="enable-background:new 0 0 1000 89.7;" xml:space="preserve">
<style type="text/css">
	.st0{fill:#FFFFFF;}
</style>
<g id="a">
</g>
<g id="b">
	<g id="c">
		<g id="d">
			<g id="e">
				<g id="f">
					<g id="g">
						<g>
							<path class="st0" d="M50.5,43.2C61.2,45,69.1,54.8,69.1,63.8c0,14.8-12.7,24.4-31.7,24.4H0v-87l33.6,0.1
								C51.7,1.4,65,10.2,65,25.1C65,32.4,60,40,50.5,43.2z M28,37.8c14.1,0,17-6.2,17-11.9c0-6.2-5.4-9.3-11.4-9.3H19.9v21.2H28
								L28,37.8z M19.9,51.2V73h17.7c6.6,0,11.6-3.7,11.6-9.5s-2.4-12.2-18.9-12.2L19.9,51.2L19.9,51.2z"/>
							<path class="st0" d="M84.6,88.2V1.4H144v15.3h-39.6V38h34.4v15.3h-34.4V73H144v15.3L84.6,88.2L84.6,88.2z"/>
							<path class="st0" d="M180.4,88.2h-19.9V1.4h19.9V88.2z"/>
							<path class="st0" d="M265.9,49.9c0,26.5-13.4,39.8-37.2,39.8c-25.6,0-34.5-16.8-34.5-30.5c0-5.2,1.5-10.2,4.4-14.5h18.3
								c-2.5,3.9-3.9,8.5-4,13.2c0,7.5,4.2,15.7,15.5,15.7c13.1,0,17.7-8.2,17.7-23.6V1.2H266L265.9,49.9z"/>
							<path class="st0" d="M285.9,88.2V1.4h59.4v15.3h-39.6V38h34.4v15.3h-34.4V73h39.6v15.3L285.9,88.2L285.9,88.2z"/>
							<path class="st0" d="M411.1,55.9c2.2,9.2,5.9,16.6,14.8,16.6c3.4-0.1,6.6-1.4,9.1-3.7l7,13.3c-5.9,4.4-10.8,7.4-19.9,7.4
								c-21.2,0-27.7-23.1-28.7-32.3h-11.9v31h-19.7V1.4h39.8c18.4,0,28.5,13.3,28.5,28.5C430.5,41.9,422.7,52.6,411.1,55.9
								L411.1,55.9z M399,42c7,0,11.2-5,11.2-12.1S406,17.6,399,17.6h-17.5V42H399z"/>
						</g>
						<path class="st0" d="M469.4,88.2l34.5-86.8h19.3l35,86.8h-20.7L531.1,72v0.2H496V72l-6.1,16.2H469.4L469.4,88.2z M501.3,56.4
							h24.1l-11.9-34.7L501.3,56.4L501.3,56.4z"/>
						<path class="st0" d="M602.8,88.2h-33.5V1.4h33.5c29.2,0,47.5,19.5,47.5,43.4S632,88.2,602.8,88.2z M602.8,16.6h-13.7V73h13.7
							c17,0,27.6-12.7,27.6-28.2S619.7,16.6,602.8,16.6z"/>
						<g>
							<path class="st0" d="M653.8,1.4h21L694.7,63l19.9-61.7h21l-31.9,86.8h-18.2L653.8,1.4z"/>
							<path class="st0" d="M768.2,88.2h-19.9V1.4h19.9V88.2z"/>
							<path class="st0" d="M789.4,88.2V1.4h59.4v15.3h-39.5V38h34.4v15.3h-34.4V73h39.6v15.3L789.4,88.2L789.4,88.2z"/>
							<path class="st0" d="M876,60.7c1.8,7.4,8.6,12.4,16.2,11.9c7,0,13.4-2.5,13.4-8.8c0-3.3-1.9-6.5-10.3-9.3l-9.7-3.2
								c-19.9-6.6-22.8-18.6-22.8-25.8C862.9,9.7,875.6,0,893,0c13.8,0,24.5,6.5,29.9,19l-16.1,7.8C903,18,896.7,17,893,17
								c-6.1,0-10.9,2.3-10.9,8c0,2.2,0.6,6.3,9.6,9.3l9.5,3.2c20,6.1,23.6,17.7,23.8,25.7c0,18.2-16.4,26.3-32.1,26.3
								c-17.1,0-32.7-9.4-34.5-25.6L876,60.7L876,60.7z"/>
						</g>
						<ellipse class="st0" cx="974.9" cy="64.8" rx="25.1" ry="24.3"/>
					</g>
				</g>
			</g>
		</g>
	</g>
</g>
</svg>
