<svg xmlns="http://www.w3.org/2000/svg" xmlns:xlink="http://www.w3.org/1999/xlink" viewBox="0 0 6179.68 2809.47"><defs><style>.cls-1{fill:none;}.cls-2,.cls-4{fill:#fff;}.cls-2{fill-rule:evenodd;}.cls-3{clip-path:url(#clip-path);}</style><clipPath id="clip-path" transform="translate(0 -20.16)"><rect class="cls-1" x="0.34" width="6179.2" height="2852.05"/></clipPath></defs><g id="Laag_2" data-name="Laag 2"><g id="Laag_1-2" data-name="Laag 1"><path class="cls-2" d="M302.68,1525.73c2.68,122.18-42.5,223.89-180,220.49-32.09.34-110-14.67-119.23-48.16-4-15.72-9.32-63.19,16-62.42,11.64,1.11,22.62,12.64,35.68,18a219.11,219.11,0,0,0,29.55,12.21c22.65,8.1,60.63,7.39,82.55-.35,30.17-11.43,39.86-38.16,46.88-72.24,13.82-40.3-.32-674,7.8-730.35,9-10.35,24.82-9.44,39.4-10.19,14.67.51,30.36,0,39.42,10.19,6.38,7.12-.31,654.69,2,662.83Z" transform="translate(0 -20.16)"/><path class="cls-2" d="M1039.68,1382.59c1.45,27.33-16.45,41.68-38,42.72H582.46C578,1620.18,689,1704.16,876.62,1668.21c37-7.73,70.27-19.88,99.53-33.25,10.72-5,18.19-7.45,22.77-7.45,22.07-.16,19.39,47.38,11.55,61-6.61,9.92-9.43,9.89-26.49,18.67-11.87,5.7-27,11.27-46.2,17-249,73.12-448.42-29.55-442.28-309C494.33,1285.74,542,1156.58,663,1104.75c215.09-79.79,388.31,49.24,376.71,277.84Zm-83.55-23.74c11.18-159.23-121-249.9-262.6-190.31-72.55,34.23-107.72,112.81-111.07,190.31Z" transform="translate(0 -20.16)"/><path class="cls-2" d="M1505.85,1684.51c1.56,36.14-15.12,46.13-47.56,53.91-90.53,21-194.65-4.22-214.35-105.48-17.74-56.33-6-406.31-9.16-471.54H1143c-16.88-1.07-20.07-16.48-20.38-33.92.24-12.48,1.35-25.91,11.9-32.55,1.16-4.14,95.89-1.23,100.22-2V942.27a16.26,16.26,0,0,1,1.69-7.46c8.27-11.31,23.91-9.35,38.37-10.16,15.15.79,30-1.31,38.74,10.16a14.14,14.14,0,0,1,2,7.46v150.62h169.87a17.31,17.31,0,0,1,8.49,2c10.54,6.65,11.65,20.06,11.9,32.55-.14,17.19-4.23,32.7-20.38,33.92H1315.6c7.42,76.84-18.82,415.61,20,477.65,23.58,48.42,101,41.87,143.36,18.3,22.92-11.71,27.19,7.74,26.85,27.16Z" transform="translate(0 -20.16)"/><path class="cls-2" d="M2258.42,1615.3c-.27,17.42-1.41,31.29-15.29,43.75-40.3,34.81-100.39,61.16-158.65,74.31-187.41,44.84-379.8-46.72-431.76-240.18-81.3-262.63,19.34-651.91,348.87-645.21,69.91.22,142.21,18.78,200.77,52.92,25.78,16.79,41,24.18,49.25,46.48,6.94,32.44,4.39,92.27-42.45,51.55-58.07-45.08-129.31-77.51-211.63-75.63-303.21-1.81-346,453.55-206.56,648.25,83.16,113.74,263.74,119.15,375.72,50.53,19.64-11.4,35.35-21.53,47.9-30.87,35.53-27.06,44.43-12.21,43.83,24.1Z" transform="translate(0 -20.16)"/><path class="cls-2" d="M2962.29,1407.69c6.52,251.71-190.23,400.77-427,315.81-225.23-87.11-215.66-528.63,6.47-616.37,236.69-85,426.28,42,420.54,300.56Zm-85.6,7.46c-.49-92.35-20.52-195.69-108-241.18-49.52-27.85-143.33-28.63-195-1.7-89.22,43.11-115.31,145-115.49,239.5.53,92.66,19.79,196.46,108,241.52,49.58,27.41,143.35,28.29,195,1.36,89.61-43.16,115.39-144.55,115.51-239.5Z" transform="translate(0 -20.16)"/><path class="cls-2" d="M3639.05,1721.13c3.18,23.74-71.65,21.64-78.79,7.46-9.1-72,8.54-400.31-10.87-464.38-14.83-67.43-64.64-116.41-135.88-114.32-81.91,3.27-134.3,62.35-192.27,130.92-2.09,8.91,3.92,439.73-2,447.76-9,10.64-23.69,9.43-38.72,10.22-14.36-.67-29.9.21-38.39-10.19-5.12-7.78.1-613-1.71-621.49,1-18.62,23-16.95,38.74-17.61,14.15.61,28.8-1.19,36.34,10.17,3.39-2.59,1,92.81,1.69,94.3,60.86-67,122.67-110.23,205.19-111.94,71.64-.35,128.74,22.4,168.83,75.31,40.39,56.59,46.9,116.18,47.89,192v371.8Z" transform="translate(0 -20.16)"/><path class="cls-2" d="M4224.14,1557.63c3.71,200.37-272.58,232.84-402.89,138.4-17-12.74-20.21-63.31-4.08-78.36,10-5.51,15.95-.78,29.21,7.12a399.52,399.52,0,0,0,35.67,20.7c70.11,39,206.08,52.24,250.7-31.89,23.09-49.2,9-103.69-38.73-132.3-49.71-31.7-113.14-46.46-165.77-75-82.16-37.85-122.32-128-87.29-214.71,36.56-92.12,148.37-121.33,242.88-105.84,37.55,6.72,79,18.58,103.94,44.78,8.07,12.45,11.14,66.12-10.54,66.81-3.64,0-9-2.45-16.28-7.46a263.75,263.75,0,0,0-70.68-32.56c-46.49-13.12-114.57-11.3-152.17,21-50.1,44.4-38,124.5,18.34,157.4,96.78,60.46,270.9,73.29,267.69,221.86Z" transform="translate(0 -20.16)"/><path class="cls-2" d="M4900.36,1721.13c-.39,18.06-24,16.67-38.71,17.66-14.64-.9-28.91.72-37-10.19-3.33,2.15-1.08-92.22-1.69-94.32-60.91,67.06-121.92,110.18-204.49,111.94-71.75.36-128.85-22.36-168.83-75.64-40.29-57-47-116.28-47.92-192.32V1107.13c.13-23.67,44.59-17,60.15-16.62,10.73,1.13,20.51,5.69,20.71,16.62,3.22,67.91-8.33,398.24,8.83,456.61,14.69,67.72,64.5,116.69,135.89,114.66,82.16-3.34,133.5-62.58,192.27-131V1107.13c.12-6,2.19-10.37,8.15-13.23,13.48-6,37-4.71,52-3.39,8.38,1.18,14.62,3.06,18.67,9.16,6.06,8.39-.11,612.41,2,621.46Z" transform="translate(0 -20.16)"/><path class="cls-2" d="M5207.56,1721.13c.4,24.19-58.39,18.78-72.69,12.89-6-2.42-8.06-7-8.16-12.89,1.68-7.45-3.24-915.69,1.7-922,9.95-14.43,43-9.75,58.42-9.19,8.39,1,14.62,3.18,18.69,9.17,6,7.57,0,913.51,2,922Z" transform="translate(0 -20.16)"/><g class="cls-3"><path class="cls-2" d="M5728.53,1684.51c1.56,36.14-15.13,46.13-47.57,53.91-90.53,21-194.65-4.22-214.34-105.48-17.75-56.33-6-406.31-9.17-471.54h-91.74c-16.87-1.07-20.07-16.48-20.38-33.92.24-12.48,1.36-25.91,11.9-32.55,1.16-4.14,95.89-1.23,100.22-2V942.27a16.39,16.39,0,0,1,1.69-7.46c8.27-11.31,23.91-9.35,38.38-10.16,15.14.79,30-1.31,38.73,10.16a14.15,14.15,0,0,1,2,7.46v150.62h169.87a17.27,17.27,0,0,1,8.48,2c10.55,6.65,11.65,20.06,11.9,32.55-.14,17.19-4.22,32.7-20.38,33.92H5538.28c7.41,76.84-18.83,415.61,20,477.65,23.57,48.42,101,41.87,143.36,18.3,22.91-11.71,27.18,7.74,26.85,27.16Z" transform="translate(0 -20.16)"/><path class="cls-2" d="M3407.22,1770.32c382.9,1541.32,2744.45,1261.11,2737-344.44,11.65-1550.3-2242.35-1896-2709.26-437.05l-35.67-6.57C3873.51-525.49,6191.62-172.91,6179.64,1426c7.41,1654-2418.15,1940.81-2807.63,350.81Z" transform="translate(0 -20.16)"/></g><path id="Path_201" data-name="Path 201" class="cls-4" d="M4208.32,857.23c6.49,1,14.34-13.14,41.46-79.87,29.67-72.81,30.19-80.48,43.47-95,30.56-31.73,85.52-48.59,130.55-61.81,96.38-39.29,83.09,95.06,115.16,271.13,6.39,53.57,26.49,8.33,34.44-15.84,11.57-32.58,9.9-47.85,17.11-91.32,4.3-26.49,23.82-107.38,34.74-151.16,22.92-87.78,26.76-108.25,82.54-154.2,17.37-13,20.63-10.8,50.61-29.31,12.08-8.73,96-63.46,114.27-98.09,10.88-17.42-2.69-22.53-20.23-20.21-69.38,7.07-134.12,46.22-195.51,65.2-76.2,18.55-151.6-14.64-220.39-44.43a1659.2,1659.2,0,0,1-158.4-68.22,168.71,168.71,0,0,0-33.37-13.16c-14.24-4.12-24.93-7.21-28.3-3-4.7,24.05,64.79,92,89.45,113.55,62,58.58,105.44,100.24,96.67,147.32-5.24,13.28-15.56,14-53.6,37.41-41,25.32-37.92,29.42-58.65,37.4-34.38,16.84-72.63,11.31-106.77-3-25.91-7.15-23.78-4.32-51.2-11.62-16.48-4.86-64.57-18.09-75.59-7.61-1.27,9.84,34.26,38.26,50,53.69,17.51,17.68,51,44.06,46.72,64.16-2.39,4.05-7.33,2.29-15.53,9.83-1.89,1.74-8.55,7.87-7,11.64,8.28,9,38.55-2.77,41.08.21C4195.83,736.75,4187.32,844.29,4208.32,857.23Z" transform="translate(0 -20.16)"/></g></g></svg>