<?xml version="1.0" encoding="utf-8"?>
<!-- Generator: Adobe Illustrator 26.2.1, SVG Export Plug-In . SVG Version: 6.00 Build 0)  -->
<svg version="1.1" id="Layer_1" xmlns="http://www.w3.org/2000/svg" xmlns:xlink="http://www.w3.org/1999/xlink" x="0px" y="0px"
	 viewBox="0 0 32 24" style="enable-background:new 0 0 32 24;" xml:space="preserve">
<style type="text/css">
	.st0{clip-path:url(#SVGID_00000128477918344880263940000007852421166778237882_);}
	.st1{fill:#DD983A;}
</style>
<g>
	<defs>
		<rect id="SVGID_1_" width="32" height="24"/>
	</defs>
	<clipPath id="SVGID_00000017477324076091710260000015320923298599445391_">
		<use xlink:href="#SVGID_1_"  style="overflow:visible;"/>
	</clipPath>
	<g id="Group_65" transform="translate(0)" style="clip-path:url(#SVGID_00000017477324076091710260000015320923298599445391_);">
		<path id="Path_108" class="st1" d="M29,0c1.7,0,3,1.3,3,3c0,0.9-0.4,1.8-1.2,2.4L17.2,15.6c-0.7,0.5-1.7,0.5-2.4,0L1.2,5.4
			c-1.3-1-1.6-2.9-0.6-4.2C1.2,0.4,2.1,0,3,0H29z M13.6,17.2c1.4,1.1,3.4,1.1,4.8,0L32,7v13c0,2.2-1.8,4-4,4H4c-2.2,0-4-1.8-4-4V7
			L13.6,17.2z"/>
	</g>
</g>
</svg>
