<svg id="optimization" xmlns="http://www.w3.org/2000/svg" width="109.753" height="109.774" viewBox="0 0 109.753 109.774">
  <path id="Path_19" data-name="Path 19" d="M35.055,79.372l9.712-9.82A39.435,39.435,0,1,0,39.9,14.537l-7.911-7.89h8.6V0H20.647V19.939h6.646v-8.6l8.748,8.748a39.362,39.362,0,0,0,4.052,44.746l-9.734,9.841-5.7-5.7L0,93.651l16.1,16.1L40.779,85.075Zm5.918-54.351,6.454,6.454A24.324,24.324,0,1,0,70.367,15.265,24.184,24.184,0,0,0,50.685,25.321l-6.046-6.046a32.758,32.758,0,1,1-7.054,20.283,31.884,31.884,0,0,1,3.388-14.537ZM87.819,42.087,75.384,29.652,65.178,39.836l-9.755-9.755a17.667,17.667,0,0,1,32.4,12.007Zm-22.641,7.14L75.363,39.043l9.905,9.905A17.673,17.673,0,0,1,52.85,36.9ZM16.1,100.362,9.391,93.651,24.656,78.386,31.367,85.1Z" fill="#fff"/>
  <path id="Path_20" data-name="Path 20" d="M266.823,419h46.5a3.312,3.312,0,0,1,3.323,3.323h0a3.312,3.312,0,0,1-3.323,3.323h-46.5a3.312,3.312,0,0,1-3.323-3.323h0A3.312,3.312,0,0,1,266.823,419Z" transform="translate(-207.005 -329.165)" fill="#fff"/>
  <path id="Path_21" data-name="Path 21" d="M173.923,481h33.211a3.312,3.312,0,0,1,3.323,3.323h0a3.312,3.312,0,0,1-3.323,3.323H173.923a3.312,3.312,0,0,1-3.323-3.323h0A3.312,3.312,0,0,1,173.923,481Z" transform="translate(-134.023 -377.872)" fill="#fff"/>
</svg>
