<?xml version="1.0" encoding="UTF-8"?><svg xmlns="http://www.w3.org/2000/svg" viewBox="0 0 1375.13 1536"><defs><style>.d{fill:#dd983a;}</style></defs><g id="a"/><g id="b"><g id="c"><path class="d" d="M484.61,1536c-62.92,0-124.27-11.94-182.33-35.49-60.14-24.39-114.09-60.2-160.33-106.45-46.25-46.25-82.06-100.19-106.45-160.34C11.94,1175.66,0,1114.31,0,1051.39s11.94-124.27,35.49-182.34c24.39-60.14,60.2-114.09,106.45-160.33L745.72,104.94c34.19-34.19,74.07-60.67,118.55-78.7C907.2,8.83,952.56,0,999.07,0s91.87,8.83,134.8,26.24c44.47,18.04,84.36,44.51,118.55,78.7,34.19,34.19,60.67,74.07,78.7,118.55,17.41,42.93,26.24,88.29,26.24,134.8s-8.83,91.87-26.24,134.8c-18.04,44.48-44.51,84.36-78.7,118.55l-609.85,609.85c-42.07,42.07-98,65.24-157.5,65.24s-115.43-23.17-157.5-65.24c-42.07-42.07-65.24-98-65.24-157.5s23.17-115.43,65.24-157.5l356.22-356.22c18.18-18.18,47.65-18.18,65.83,0,18.18,18.18,18.18,47.65,0,65.83l-356.22,356.22c-24.49,24.49-37.97,57.04-37.97,91.68s13.49,67.19,37.97,91.68c24.49,24.49,57.05,37.97,91.68,37.97s67.19-13.49,91.68-37.97l609.85-609.85c103.4-103.4,103.4-271.65,0-375.05-50.09-50.09-116.69-77.68-187.52-77.68s-137.43,27.59-187.52,77.67L207.76,774.55c-152.65,152.65-152.65,401.04,0,553.69,152.65,152.65,401.04,152.65,553.69,0l534.22-534.22c18.18-18.18,47.65-18.18,65.82,0,18.18,18.18,18.18,47.65,0,65.83l-534.22,534.22c-46.25,46.25-100.19,82.06-160.33,106.45-58.07,23.55-119.42,35.49-182.33,35.49Z"/></g></g></svg>