<?xml version="1.0" encoding="UTF-8"?><svg id="a" xmlns="http://www.w3.org/2000/svg" viewBox="0 0 174.17 130.35"><defs><style>.b{fill:#fff;}</style></defs><path class="b" d="M32.18,95.51c-.06-.24-.22-.44-.43-.57-.1-.1-.24-.17-.38-.19l-.1-.05c.1-.1,0-.1,.05-.29,.05-.14,0-.19,0-.19,0,0-.14,0-.14-.19,.05-.14,.1-.19,.05-.33-.05-.1-.14,0-.19-.14-.05-.24-.14-.19-.14-.19l-.1-.05c-.09-.09-.21-.14-.33-.14l-.19-.14c-.14-.38-.14-.81-.24-.81s0,.19-.1,.33c-.05,.14-.1,.1-.1,.1-.29-.62-.53-.57-.57-.67s-.1-.05-.29-.19c-.14-.14-.24,0-.05,.14,.14,.13,.24,.3,.29,.48,.05,.1-.05,.14-.14,.1s-.05-.19-.19-.43-.62-.72-.67-.57,.14,.19,.29,.62,0,.38-.05,.43c-.05,0-.14-.05-.33-.29-.08-.12-.2-.22-.33-.29-.09-.15-.22-.26-.38-.33-.14-.1-.19-.29-.29-.19s0,.24,.19,.48c.14,.11,.24,.26,.29,.43q.1,.24-.05,.29c-.14,0-.43-.38-.57-.52-.13-.14-.27-.27-.43-.38-.14-.1-.19,0-.1,.19,.14,.24,.3,.46,.48,.67,.14,.19,0,.29-.14,.24-.09,0-.17-.04-.24-.1-.15-.1-.31-.18-.48-.24-.14-.1-.33-.29-.33-.24-.05,.05-.1,.1,.05,.38,.19,.29,0,.29,0,.29-.29-.1-.57,.05-.48,.29,.03,.15,.12,.28,.24,.38l-.05,.14c-.05,.1,.1,.24,.1,.24,0,.14,.1,.38,.29,.38,.38,0,.05,.1,.33,.14,.25,.07,.51,.1,.76,.1,.03,.05,.01,.11-.04,.14h-.01c-.98,.49-1.82,1.19-2.48,2.06-.07,.12-.14,.25-.19,.38-.23,.27-.44,.55-.62,.86-.1,.14-.24,.33-.33,.48-.29,.48-.53,.81-.76,1.24-.06,.16-.12,.32-.19,.48-.24,.43-.53,.83-.86,1.19-.86,.73-1.87,1.25-2.96,1.53-.53,.14-1,.24-1.53,.38-.53,.19-1,.29-1.76,.62-.53,.24-1.29,.67-1.96,1-.04-.11-.09-.23-.14-.33l-.1-.19-.1-.1-.1-.14s-.1-.14-.19-.19c-.15-.26-.42-.44-.72-.48-.05,0-.14-.05-.19-.05l-.14-.05c-.1-.05-.19-.14-.29-.19-.27-.15-.51-.35-.72-.57-.26-1.02-.82-1.94-1.62-2.62-.05-.05-.19-.05-.24-.1-.1-.1-.19-.24-.24-.29h-.19v-.05l-.14-.24-.1,.1c-.4-.22-.84-.37-1.29-.43l-.67,.05c-.26,0-.51,.04-.76,.1-.19,.05-.38,.1-.53,.14-.52,.17-1.02,.41-1.48,.72-.44,.35-.83,.77-1.15,1.24-.72,.91-1.23,1.97-1.48,3.1-.16,.31-.26,.65-.29,1-.42,1.09-.52,2.29-.29,3.43,.16,.62,.51,1.17,1,1.57v-.14c-.14-.29-.43-.95-.43-.95-.05-.29-.1-.62-.14-1.24-.01-.5,.05-1,.19-1.48,.02-.11,.07-.2,.14-.29,.1,.18,.21,.36,.33,.52-.06-.29-.14-.58-.24-.86,.19-.5,.48-.96,.86-1.34v-.05l-.1-.1c.14,.05,.19,0,.19,0,.19-.24,.38-.43,.38-.43,.02,.08,.07,.15,.14,.19l.05-.14h.05l.05-.1h.1l.1-.05c-.13,.05-.24,.15-.29,.29l.05,.14,.24,.19,.05,.05c-.17,.25-.31,.53-.43,.81,0,.11-.02,.22-.05,.33-.1,.27-.14,.57-.1,.86,.04,.14,.11,.27,.19,.38l.14-.57c.05-.16,.11-.32,.19-.48,.04-.12,.11-.24,.19-.33l.05-.05c-.05,.25-.04,.52,.05,.76,.14,.24,.19,.38,.24,.38l.14-.24s.05,.09,.05,.14c.05,.05,0,.14,0,.14-.33,.19-.33,.24-.33,.24h.1c.29,0,.05,.1,.05,.1-.19,.05-.14,.14-.14,.14h.14v.05h.1v.05l-.19,.1c.05,.38,.24,.33,.57,.24s.62-.19,.62-.19v.05s.72-.19,.95-.24c.14-.03,.29,.03,.38,.14-.1,.05-.05,.19-.05,.19-.08,.03-.14,.1-.14,.19,0,0-.1,.05,0,.24,.07,.19,.17,.36,.29,.52,.19,0,.24,.14,.19,.33s.05,.38,.38,.43,.33,.19,.33,.19c.08,.13,.1,.29,.05,.43-.19,.24,.19,.43,.19,.43,.11,.11,.13,.29,.05,.43l-.05-.05v.1l-.1-.1v.1l-.14-.05c.06,.11,.14,.21,.24,.29v.1l.05,.05v.1c.05,.1,0,.14,0,.14,.19,.1,.05,.29,.05,.29,.15,.09,.28,.2,.38,.33l-.05,.1h.23l.14,.1,.1-.1,.1,.1,.05,.1,.05,.05v.1c.05,.1,0,.14,0,.14,.19,.05,.1,.29,.1,.29,.04,.09,.07,.19,.1,.29l.24,.14,.19,.1h.1l-.05,.24,.1-.1,.19,.24c.18,.33,.42,.63,.72,.86,.07,.02,.11,.1,.09,.17,0,.03-.02,.05-.04,.06,.15,.09,.28,.2,.38,.33l-.05,.1h.24l.14,.1,.1-.1,.1,.14h.1l-.05,.1,.24,.24h.14l-.05,.1,.19,.05-.05,.1,.24-.05,.1,.1,.19,.14,.19,.1h.1l.14,.19,.1-.1,.19,.24,.1,.1-.1,.1c.14,.09,.28,.17,.43,.24l.05,.14,.1,.1v.19c.08,0,.16-.02,.24-.05,.12-.02,.25,.01,.33,.1-.1,.72,.1,.62,.1,.62l.19-.05c.13,0,.25-.04,.33-.14,.05,.14,.29,.19,.29,.29s-.14,.19-.14,.19l.14,.05,.1-.05v.1l.14-.05c.1,.43,.19,.33,.19,.33,.08-.04,.16-.09,.24-.14,.05-.1,.19,.19,.19,.19l.05,.19c-.09,.31-.12,.63-.1,.95,.1,.31,.27,.61,.48,.86,.03,.39,.13,.78,.29,1.14,.19,.29,.76,2.15,.91,2.48,.1,.33,.24,.72,.24,.72v.14s.05,.1,.05,.1c-.05,.14,0,.1,0,.14s0,.38-.1,.43c-.14,0-.14,.19-.14,.19-.19,.1-.14,.14-.19,.19l-.14,.1v.05l-.14,.14s-.24,.19-.24,.19l-.1,.05-.1,.1-.1,.05-.1,.05-.1,.05-.05,.05-.05,.05c-.24,.04-.44,.21-.53,.43-.1,.24,0,.43,.1,.24,.05-.11,.16-.18,.29-.19,0,0,0,.19,.29,.24,.17,.01,.34-.04,.48-.14l.1-.19,.14-.05c.11-.08,.2-.18,.29-.29,.1-.1,.14-.05,.14-.05,.03,.1,0,.2-.05,.29-.07,.13-.17,.24-.29,.33-.17,.06-.33,.14-.48,.24l-.19,.19v.05c-.25,.15-.43,.39-.53,.67-.05,.24,.14,.05,.29-.05l.19-.19h.05c.16,.14,.41,.14,.57,0,.14-.19,.29-.14,.38-.19,.1,0,.24,0,.43-.29,.12-.2,.34-.33,.57-.33,.12,.01,.23,.05,.33,.1l-.05,.05c-.27,.07-.48,.29-.53,.57-.05,.19,.05,.29,.14,.14,.05-.12,.16-.21,.29-.24l.05,.05c.05,.19,.29,.24,.48,.19,.13-.02,.24-.11,.29-.24,.03-.03,.06-.05,.1-.05v.24s-.19,.24-.19,.24c-.19,.1-.19,.14-.19,.14-.33,.05-.38,.1-.38,.14l-.1,.05c-.22,.09-.42,.24-.57,.43-.1,.14-.24,.43-.1,.33l.43-.29c.1-.1,.05,.05,.19,.1,.16,.02,.32,0,.48-.05,.03-.06,.08-.1,.14-.1,.38,0,.48-.14,.48-.14h.19l.19-.14c.33-.1,.24-.24,.24-.24h1.1c.16,.03,.32,.07,.48,.14l.57,.05c.22,.05,.44,.06,.67,.05,.18-.1,.39-.1,.57,0,.14,.1,.62,.1,.67-.05,.03-.06,.08-.11,.14-.14,.24,.05,.38,.29,.57,.24,.24,0,0-.24-.29-.48-.19-.15-.43-.23-.67-.24v-.05c.14-.05,.05,.05,.38,0,.38-.05,.29-.19,.29-.19,.19-.09,.41-.11,.62-.05,.29,.1,.24-.05-.05-.29-.23-.14-.51-.18-.76-.1l-.1-.05h-.19l-.1-.05c-.39,.11-.79,.14-1.19,.1-.15-.06-.32-.08-.48-.05l-.24-.14c.08,0,.15-.03,.19-.1,.13,.09,.3,.09,.43,0,0,0,0,.05,.29,.05,.17,0,.31-.12,.33-.29,.11-.03,.22-.05,.33-.05,.43,.19,.29-.05,.29-.05-.19-.28-.54-.39-.86-.29-.24-.14-.24-.05-.24-.05-.21-.03-.42-.02-.62,.05-.25-.02-.51-.02-.76,0-.24,.02-.48,0-.72-.05-.24-.64-.43-1.29-.57-1.96-.1-.29-.43-1.91-.43-1.91l-.14-1.05c.1-.14,.1-.19,.14-.57,0-.38,.24-.43,.33-.95,.23-.56,.57-1.06,1-1.48,.19-.29,.53-.86,.53-.86,.14,.19,.19,.1,.29,0s.1-.33,.14-.43c.03-.08,.05-.16,.05-.24v-.29c.04-.18,.11-.36,.19-.52l.05-.14v-.1s-.05,0,.19-.38c.23-.3,.5-.56,.81-.76l-.19,.24c.15-.09,.31-.17,.48-.24l.1-.1-.05,.14c.48-.52,.57-.33,.57-.33v-.19c.05-.1,.14,.1,.14,.1l.33-.33v.19h.1c.03-.09,.08-.17,.14-.24,.03,.09,.03,.19,0,.29l.1-.14v.05c.06-.07,.11-.15,.14-.24h.1c.1-.12,.17-.27,.19-.43,0-.13,.04-.26,.1-.38,0,.09,.06,.16,.14,.19v-.29l.1,.05c0-.22,.02-.45,.05-.67,.38-.38,1.57-1.34,1.57-1.34,.29-.24,.57-.57,1-.95s.76-.62,.76-.62v-.1l.1-.05c.38-.49,.67-1.04,.86-1.62,.14-.48,.43-1.34,.43-1.34l-.05-.1c.19-.05,.05-.29,.14-.33,.1-.1,.1-.38,.1-.38,.08-.16,.13-.34,.14-.52,.06-.17,.09-.35,.1-.52,.04-.42,.12-.83,.24-1.24,.03-.94-.12-1.88-.43-2.77-.24-.6-.54-1.18-.91-1.72-.14-.24,0-.29,0-.29l.53-.1,.81-.24c.1-.07,.19-.15,.29-.24l.12-.21c.14,0,.24-.11,.24-.25,0-.01,0-.02,0-.04,.18-.25,.25-.56,.19-.86,0,0,.1-.19-.05-.81-.19-.62-.43-.62-.43-.62l-.05-.14c-.03-.06-.08-.1-.14-.1,.05-.1,.1-.1,.19-.19,.04-.03,.09-.05,.14-.05h.33c.14,0,.24-.05,.33-.05-.24-.05-.1,.1-.14-.14m-13.5,30.39c-.1-.33-.19-.43-.33-.95-.19-.57-.72-2.81-.72-2.81l.1-.1c.12,.27,.26,.52,.43,.76,.26,.78,.47,1.58,.62,2.39,.14,.72,.24,1.1,.24,1.1-.09-.15-.2-.28-.33-.38"/><path class="b" d="M115.08,74.77c.07-.09,.15-.2,.25-.34-.08,.12-.17,.23-.25,.34Z"/><path class="b" d="M172.71,27.82h0c-1.18-3.45-3.62-6.33-6.82-8.06-4.82-2.58-12.4-1.48-16.55,2.91-4.2,4.39-10.11,14.64-11.5,17.03-.66,1.2-1.42,2.33-2.29,3.39l-9.35,.05s-.95-5.68-2.58-11.88c-.91-.33-6.2-2-6.73,2.77-.53,4.96-1.38,5.96,1.86,7.25,3.29,1.29,6.44,3.29,4.1,5.63-2.34,2.34-4.96,2.29-6.15,2.72-1.14,.43-2.86,1.57-2.53,6.87,.29,5.29,1.24,5.34,2.86,6.39,1.24,.81,3.39,1.38,2.96,3.58,3.15-6.54,5.01-13.6,6.3-22.61,0,0,7.78,3.29,9.4,4.48,1.62,1.24,3.34-.1,3.82,8.63,.53,8.68,.57,17.08,3.62,19.42,3.05,2.29,9.45,4.39,15.45-2.91,6.01-7.25,7.2-10.64,9.16-14.17,1.91-3.88,3.57-7.88,4.96-11.97,1.67-4.87,2.19-14.31,0-19.51Zm-19.6,46.22c-.81,1.19-2.15,2.67-4.58,1.53-2.43-1.19-4.19-2.72-2.19-6.25h0c2.24-4.01,7.72-1.67,7.82,.67,.23,1.44-.15,2.91-1.05,4.05Zm13.65-39.97c-.19,3.05-4.58,11.64-6.11,15.41-2,4.76-4.37,9.36-7.11,13.74-3.58,4.91-3.43-4.67-3.43-4.67,0,0,.38-15.17,.76-17.98,.76-5.58,3.39-13.74,4.58-15.03,2-2.24,4.1-2.77,8.59-1.05h0c4.48,1.72,2.96,6.58,2.72,9.59Z"/><path class="b" d="M114.08,75.15h0c-1.05,.1-3.96-2.91-4.44-7.07-.29-2.86,1.1-33.25,.86-35.16-.19-1.91,2.1-7.2,4.48-8.35,1.83-1.06,3.9-1.62,6.01-1.62-.52-1.33-1.05-2.57-1.57-3.62-.07,0-.26,.01-.56,.02-1.52,.06-5.8,.11-7.94-1.13-2.62-1.48-1.48-2.1-.43-2.86,.38-.26,.91-.35,1.58-.34,.53,0,1.15,.07,1.85,.2,.87,.14,1.85,.35,2.96,.57l.29,.29C107.93,6.02,88.52,.39,72.87,0c-7.72-.1-15.42,.81-22.9,2.72-2.81,.86-15.31,3.58-22.47,13.98-5.29,7.73-7.82,17.46-4.58,29.1,3.29,11.64,10.11,20.18,14.07,25.66,3.91,5.44,9.87,9.92,5.72,14.74-4.15,4.87-7.87,8.4-7.87,8.4l14.45-6.2s6.96,6.49,11.11,8.78c4.15,2.29,10.35,4.34,15.46,4.24,5.68-.1,20.18-4.44,31.77-17.36,2.68-2.93,5.16-6.04,7.43-9.29-.34,.44-.44,.29-.99,.37ZM46.45,40.94c-2.33,1.71-4.77,3.27-7.3,4.67,0,0,.9,6.39,2,12.02,1.67,8.58,3.43,22.46-2.29,12.4-5.68-9.97-13.26-30.29-14.36-35.49-.52-2.62-.57-3.72,.05-5.34,.24-.62,8.2-11.97,18.79-7.63,1.48,.62,6.1,5.01,6.49,8.54h0c.38,3.53,1.05,7.73-3.39,10.83Zm27.43,28.66c-.14,3.67-1.38,12.35-5.44,2.77-1.24-2.96-2.63-11.21-3.2-14.21-.62-3.29-.24-10.78-4.44-9.97-2.15,.43-3.34,5-4.77,12.26-1.43,7.26-1.91,8.78-2.15,11.5-.24,2.72-.57,5.81-2.72,5.15-2.15-.66-2.19-8.25-1.86-16.5,.33-8.11,.72-8.59,2.24-21.32,1.53-12.83,4.72-14.69,5.58-15.74h0c4.05-4.97,10.78-.53,12.93,12.54,2.15,13.07,3.96,29.86,3.82,33.53Zm9.48-41.2c.15,6.39-.19,19.46,.05,27.38s.53,22.85-.57,25.9c-1.09,3.1-3,2.82-4.1-2.19-.55-3.6-.9-7.23-1.05-10.88-.24-5.87-1.29-31.72-2.58-39.55-1.05-6.53-2.67-9.3-6.34-10.3-2.12-.59-4.29-.96-6.49-1.1-2.86-.29-3.72-2.39-2.91-4.39,.62-1.53,3.67-2.72,7.11-3.2,8.6-1.09,17.32-.84,25.85,.72,5.34,1.05,5.25,3.05,3.96,4.39h0c-1.72,1.72-5.68,.67-8.73,2.44-3.01,1.81-4.34,5.29-4.2,10.78Zm24.9-1.68c-.24,4.01-2.33,37.83-2.43,40.98-.09,3.2-.76,13.21-1.19,15.22s-1.38,6.39-4.39,3.01c-1.05-1.19-1.43-7.39-1.53-12.64-.09-2.91,1.53-12.69,1.1-15.22-.76-4.48-3.05-1.48-3.91,1.38-.86,2.86-.62,4.77-1.38,10.35-.76,5.58-.81,10.44-2.24,13.4-3.39,7.06-4.1-.53-4.01-4.1,.1-3.57,.67-16.03,.67-20.27s.57-15.65,.05-24.18c-.48-8.54,.76-12.21,1.19-13.26,.49-1.47,1.76-2.54,3.29-2.77,4.34-.14,1.53,14.5,1.43,21.66-.1,7.35-.53,9.01,2.53,9.25,3.05,.24,3.05-3.96,2.77-8.2-.12-5.51,.28-11.02,1.19-16.46,.67-2.96,1.72-5.39,4.77-4.44h0c3.1,.95,2.24,4.34,2.1,6.29Z"/><path class="b" d="M58.23,38.27c-1.19,5.77,5.91,2.58,6.3,1.57,.33-.81-.48-4.44-2.77-7.3-2.24-2.77-3.15,3.96-3.53,5.72"/><path class="b" d="M39.1,29.82c-1.53-1.24-3.67-1.43-4.53,.14s-2,3.24,1.24,8.3c.76,1.19,5.15-1.19,5.2-3.39,.11-1.88-.58-3.72-1.91-5.06"/></svg>