<?xml version="1.0" encoding="utf-8"?>
<!-- Generator: Adobe Illustrator 26.2.1, SVG Export Plug-In . SVG Version: 6.00 Build 0)  -->
<svg version="1.1" id="Layer_1" xmlns="http://www.w3.org/2000/svg" xmlns:xlink="http://www.w3.org/1999/xlink" x="0px" y="0px"
	 viewBox="0 0 27.8 27.8" style="enable-background:new 0 0 27.8 27.8;" xml:space="preserve">
<style type="text/css">
	.st0{clip-path:url(#SVGID_00000156549863361272414910000007343729845402921386_);}
	.st1{fill:#DD983A;}
</style>
<g id="Group_64">
	<g>
		<defs>
			<rect id="SVGID_1_" width="27.8" height="27.8"/>
		</defs>
		<clipPath id="SVGID_00000104705939207706717910000002607206240331903405_">
			<use xlink:href="#SVGID_1_"  style="overflow:visible;"/>
		</clipPath>
		<g id="Group_63" style="clip-path:url(#SVGID_00000104705939207706717910000002607206240331903405_);">
			<path id="Path_107" class="st1" d="M27.7,21l-1.3,5.5c-0.2,0.8-0.9,1.3-1.7,1.3C11.1,27.8,0,16.7,0,3c0-0.8,0.5-1.5,1.3-1.7
				L6.8,0c0.8-0.2,1.6,0.2,1.9,1l2.5,5.9c0.3,0.7,0.1,1.5-0.5,2l-2.9,2.3c1.8,3.8,4.9,6.8,8.7,8.7l2.4-2.9c0.5-0.6,1.3-0.8,2-0.5
				l5.9,2.5C27.5,19.4,27.9,20.2,27.7,21"/>
		</g>
	</g>
</g>
</svg>
