<?xml version="1.0" encoding="utf-8"?>
<!-- Generator: Adobe Illustrator 26.2.1, SVG Export Plug-In . SVG Version: 6.00 Build 0)  -->
<svg version="1.1" id="Layer_1" xmlns="http://www.w3.org/2000/svg" xmlns:xlink="http://www.w3.org/1999/xlink" x="0px" y="0px"
	 viewBox="0 0 295.8 41" style="enable-background:new 0 0 295.8 41;" xml:space="preserve">
<style type="text/css">
	.st0{fill:#FFFFFF;}
</style>
<g id="Laag_2" transform="translate(11 87.799)">
	<g id="Laag_1" transform="translate(-11 -87.799)">
		<path id="Path_2" class="st0" d="M37,9.4c-3.7-0.1-7.2,1.6-9.4,4.7c-1.4-3.3-4.4-4.7-7.9-4.7c-5.1,0-8.4,2.4-10.1,5.5L0,9.6v30.5
			h11.1V19.4c0.6-1.5,2-2.6,3.7-2.6c1.4,0,2.5,0.7,2.5,3.3v20.1h11.1V19.4c0.6-1.5,2-2.6,3.7-2.6c1.5,0,2.4,0.7,2.4,3.3v20.1h11.2
			V18.6C45.7,12,42.1,9.4,37,9.4z"/>
		<path id="Path_3" class="st0" d="M64.2,9.4c-9.1,0-15.4,5.6-15.4,15.9S53.8,41,63.2,41c7.5,0,13.6-3.2,13.6-12.5
			c-2.1,3.3-5.3,4.6-9.1,4.6c-4.3,0-6.4-1.9-7-6.7h16.3C79.1,12.9,72.5,9.4,64.2,9.4z M60.5,22.9c0.1-5.8,1.6-8.8,3.8-8.8
			c1.9,0,2.7,1.5,2.8,7.1L60.5,22.9z"/>
		<path id="Path_4" class="st0" d="M99.4,10.8c-1.7-1-3.7-1.4-5.6-1.4c-8.5,0-14.2,6.2-14.2,16.5C79.5,36,84.3,41,92.7,41
			c5.2,0,8.4-2,10.2-4.4l8,3.6V0H99.4V10.8z M99.4,34.1c-0.8,1-2.1,1.6-3.3,1.6c-2.9,0-4.7-2.7-4.7-9.8c0-7.5,1.9-11.8,5.3-11.8
			c1.1,0,2.2,0.6,2.8,1.6L99.4,34.1z"/>
		<rect id="Rectangle_2" x="116" y="10.2" class="st0" width="11.1" height="29.9"/>
		<path id="Path_5" class="st0" d="M145.9,9.4c-4.1-0.1-8.2,0.5-12.1,1.7V23l8.7-8.9h0.7c3,0,4.6,1.1,4.6,3.3c0,3-2.7,4.2-6.7,5.5
			c-7.5,2.3-10.3,5.1-10.3,10.1c0,4.3,2.6,7.9,8.3,7.9c3.8,0.1,7.4-1.5,9.8-4.4l9.7,3.6l-0.1-19.7C158.5,11.3,153.7,9.4,145.9,9.4z
			 M147.4,33.5c-0.8,0.6-1.8,1-2.9,1c-1.8,0-2.7-1-2.7-2.9c-0.1-2.2,1-4.3,3-5.5c0.9-0.7,1.8-1.4,2.7-2.2L147.4,33.5z"/>
		<path id="Path_6" class="st0" d="M182.1,9.4c-2.9-0.1-5.7,0.8-8,2.4V0H163v40.1l8.2-3.5c2,2.9,5.3,4.5,8.8,4.3
			c8.7,0,14.3-6.4,14.3-17.2C194.4,13.3,188.8,9.4,182.1,9.4z M177.6,35.7c-1.9,0-3-1.7-3.4-4.4V17.8c0.8-2,2.2-3.3,4.1-3.3
			c2.6,0,4.3,2.4,4.3,9.5C182.7,31.7,180.7,35.7,177.6,35.7L177.6,35.7z"/>
		<rect id="Rectangle_3" x="197.9" y="10.2" class="st0" width="11.1" height="29.9"/>
		<path id="Path_7" class="st0" d="M224.5,13.9l-9.9-4.5v30.7h11.1V20.3c0.4-1.1,1-2.1,1.6-3.1l7.5,6.7V10.2
			c-1.2-0.5-2.6-0.8-3.9-0.8C227.9,9.4,225.8,11.3,224.5,13.9z"/>
		<path id="Path_8" class="st0" d="M256.7,0v10.7c-1.7-1-3.7-1.4-5.6-1.4c-8.5,0-14.2,6.2-14.2,16.5c0,10.1,4.8,15.1,13.1,15.1
			c5.2,0,8.4-2,10.2-4.4l8,3.6V0H256.7z M256.7,34.1c-0.8,1-2.1,1.6-3.3,1.6c-2.9,0-4.7-2.7-4.7-9.8c0-7.5,1.9-11.8,5.3-11.8
			c1.1,0,2.2,0.6,2.8,1.6L256.7,34.1z"/>
		<path id="Path_9" class="st0" d="M286.2,20.6c-4.4-1-6-2-6-4c0-1.7,1.3-2.8,4.6-2.8h0.1l8.9,7.4V10.6c-3.1-0.9-6.2-1.3-9.4-1.2
			c-9.2,0-13,4-13,9.9s3.6,8.9,9.6,10.1c4.8,1,6,1.7,6,3.8c0,2.1-2.1,3.2-5.1,3.2h-0.5l-9.3-7.9v11.4c3.3,0.8,6.7,1.2,10.1,1.1
			c9.7,0,13.8-3.8,13.8-10.4C295.8,24.3,292.1,21.8,286.2,20.6z"/>
	</g>
</g>
</svg>
