<svg xmlns="http://www.w3.org/2000/svg" width="107.934" height="107.914" viewBox="0 0 107.934 107.914">
  <path id="ui-design" d="M105.149,11.73,96.211,2.792a9.5,9.5,0,0,0-13.407,0C79.6,5.975,57.36,28.215,53.966,31.609L34.4,12.046a3.19,3.19,0,0,0-1.1-.717L4.3.22A3.165,3.165,0,0,0,.211,4.31L11.32,33.3v.021a3.173,3.173,0,0,0,.717,1.1L31.6,53.975C27.447,58.149,5.987,79.588,2.783,82.792a9.466,9.466,0,0,0,0,13.407l8.938,8.938a9.5,9.5,0,0,0,13.407,0l28.838-28.8L82.8,105.158a9.5,9.5,0,0,0,13.407,0l8.938-8.938a9.466,9.466,0,0,0,0-13.407L76.332,53.975,105.17,25.137A9.485,9.485,0,0,0,105.149,11.73ZM8.643,8.652l17.834,6.83-11,11Zm12.016,92.037a3.181,3.181,0,0,1-4.469,0L7.252,91.751a3.143,3.143,0,0,1,0-4.469l1.855-1.855,6.7,6.7a3.16,3.16,0,0,0,4.469-4.469l-6.7-6.7,4.469-4.469,2.235,2.235a3.16,3.16,0,0,0,4.469-4.469L22.514,72.02l4.469-4.469,6.7,6.7a3.16,3.16,0,1,0,4.469-4.469l-6.7-6.7,4.6-4.6L49.455,71.894ZM18.74,32.157l4.469-4.469L82.719,87.2,78.25,91.667ZM100.68,87.282a3.143,3.143,0,0,1,0,4.469l-8.938,8.938a3.181,3.181,0,0,1-4.469,0l-4.553-4.553L96.127,82.729ZM91.658,78.26l-4.469,4.469-59.51-59.51,4.469-4.469Zm9.022-57.592L71.863,49.506,58.456,36.1,62.8,31.757l6.7,6.7a3.16,3.16,0,1,0,4.469-4.469l-6.725-6.725L71.715,22.8l2.235,2.235a3.16,3.16,0,1,0,4.469-4.469l-2.235-2.235,4.469-4.469,6.7,6.7a3.16,3.16,0,1,0,4.469-4.469l-6.7-6.7,2.15-2.129a3.181,3.181,0,0,1,4.469,0L100.68,16.2A3.143,3.143,0,0,1,100.68,20.668Z" transform="translate(0 -0.012)" fill="#fff"/>
</svg>
