<?xml version="1.0" encoding="UTF-8"?>
<svg xmlns="http://www.w3.org/2000/svg" xmlns:xlink="http://www.w3.org/1999/xlink" id="Group_2" data-name="Group 2" width="119.542" height="48" viewBox="0 0 119.542 48">
  <defs>
    <clipPath id="clip-path">
      <rect id="Rectangle_1" data-name="Rectangle 1" width="119.542" height="48" fill="#fff"></rect>
    </clipPath>
  </defs>
  <g id="Group_1" data-name="Group 1" clip-path="url(#clip-path)">
    <path id="Path_1" data-name="Path 1" d="M16.689,44.771a2.667,2.667,0,0,0-2.59,2.672v7.44a4.752,4.752,0,0,1-4.48,4.974,4.735,4.735,0,0,1-4.44-4.974V47.525A2.667,2.667,0,0,0,2.59,44.853,2.667,2.667,0,0,0,0,47.525v7.358C0,60.572,4.315,65.2,9.619,65.2a9.6,9.6,0,0,0,4.48-1.131v1.337A5.187,5.187,0,0,1,9,70.668a5.13,5.13,0,0,1-3.868-1.814,2.55,2.55,0,0,0-1.8-.962,2.461,2.461,0,0,0-1.865.651A2.765,2.765,0,0,0,1.2,72.321,10.191,10.191,0,0,0,9,76.012,10.476,10.476,0,0,0,19.32,65.406V47.443a2.655,2.655,0,0,0-2.631-2.672" transform="translate(0 -35.851)" fill="#fff"></path>
    <path id="Path_2" data-name="Path 2" d="M120.9,43.533A10.523,10.523,0,1,0,131.467,54.1,10.535,10.535,0,0,0,120.9,43.533m0,15.579a5.056,5.056,0,1,1,5.056-5.056,5.062,5.062,0,0,1-5.056,5.056" transform="translate(-88.388 -34.86)" fill="#fff"></path>
    <path id="Path_3" data-name="Path 3" d="M235.77,44.732a9.106,9.106,0,0,0-1.848-.168,10.523,10.523,0,0,0,0,21.046,11.836,11.836,0,0,0,7.912-2.976,2.692,2.692,0,0,0,.824-1.935,2.537,2.537,0,0,0-.777-1.849A2.68,2.68,0,0,0,238.1,58.8a6.723,6.723,0,0,1-4.174,1.5,5.181,5.181,0,0,1-4.952-3.741h12.392a2.459,2.459,0,0,0,2.205-1.609,3.629,3.629,0,0,0,.343-1.256,8.182,8.182,0,0,0-1.344-4.147,10.216,10.216,0,0,0-6.8-4.823m-1.848,5.217A4.382,4.382,0,0,1,237.76,52h-7.965a5.09,5.09,0,0,1,4.127-2.055" transform="translate(-178.922 -35.685)" fill="#fff"></path>
    <path id="Path_4" data-name="Path 4" d="M347.476,43.946a10.568,10.568,0,0,0-5.781,1.7,2.757,2.757,0,0,0-2.482-1.617A2.7,2.7,0,0,0,336.5,46.7V72.843a2.692,2.692,0,1,0,5.385,0V63.592a10.991,10.991,0,0,0,5.591,1.565,10.605,10.605,0,0,0,0-21.211m0,15.826a5.221,5.221,0,1,1,5.22-5.22,5.227,5.227,0,0,1-5.22,5.22" transform="translate(-269.458 -35.19)" fill="#fff"></path>
    <path id="Path_5" data-name="Path 5" d="M461.024,42.5a2.726,2.726,0,0,0-2.8,2.713V61.081a2.754,2.754,0,1,0,5.508,0V45.214a2.716,2.716,0,0,0-2.713-2.713" transform="translate(-366.933 -34.033)" fill="#fff"></path>
    <path id="Path_6" data-name="Path 6" d="M516.35,49.559l0,0a10.215,10.215,0,0,0-6.8-4.823,9.1,9.1,0,0,0-1.849-.169,10.523,10.523,0,0,0,0,21.046,11.836,11.836,0,0,0,7.911-2.976,2.692,2.692,0,0,0,.824-1.935,2.537,2.537,0,0,0-.777-1.849,2.68,2.68,0,0,0-3.785-.047,6.723,6.723,0,0,1-4.174,1.5,5.181,5.181,0,0,1-4.952-3.741h12.392a2.459,2.459,0,0,0,2.205-1.609,3.628,3.628,0,0,0,.343-1.256,8.175,8.175,0,0,0-1.342-4.143m-8.646.39A4.382,4.382,0,0,1,511.542,52h-7.965a5.09,5.09,0,0,1,4.127-2.055" transform="translate(-398.157 -35.685)" fill="#fff"></path>
    <path id="Path_7" data-name="Path 7" d="M461.024,0a2.745,2.745,0,0,0-2.8,2.754V2.96a2.754,2.754,0,0,0,5.508,0V2.754A2.737,2.737,0,0,0,461.024,0" transform="translate(-366.933 0)" fill="#fff"></path>
    <path id="Path_8" data-name="Path 8" d="M146.016,188.05c-10.817,0-16.864-8.177-17.518-9.11a2.569,2.569,0,0,1,4.207-2.951c.5.708,5.092,6.922,13.312,6.922s12.815-6.214,13.312-6.922a2.569,2.569,0,1,1,4.206,2.951c-.654.932-6.7,9.109-17.518,9.109" transform="translate(-102.523 -140.05)" fill="#fff"></path>
  </g>
</svg>
